<?xml version="1.0" encoding="UTF-8" standalone="no"?>
<!-- Created with Inkscape (http://www.inkscape.org/) -->

<svg
   xmlns:dc="http://purl.org/dc/elements/1.1/"
   xmlns:cc="http://creativecommons.org/ns#"
   xmlns:rdf="http://www.w3.org/1999/02/22-rdf-syntax-ns#"
   xmlns:svg="http://www.w3.org/2000/svg"
   xmlns="http://www.w3.org/2000/svg"
   xmlns:sodipodi="http://sodipodi.sourceforge.net/DTD/sodipodi-0.dtd"
   xmlns:inkscape="http://www.inkscape.org/namespaces/inkscape"
   width="84.666664mm"
   height="17.484619mm"
   viewBox="0 0 299.99999 61.953375"
   id="svg4203"
   version="1.1"
   inkscape:version="0.91 r13725"
   sodipodi:docname="grantometer-v.svg">
  <defs
     id="defs4205" />
  <sodipodi:namedview
     id="base"
     pagecolor="#ffffff"
     bordercolor="#666666"
     borderopacity="1.0"
     inkscape:pageopacity="0.0"
     inkscape:pageshadow="2"
     inkscape:zoom="0.99"
     inkscape:cx="10.605277"
     inkscape:cy="-49.77055"
     inkscape:document-units="px"
     inkscape:current-layer="layer1"
     showgrid="false"
     fit-margin-top="0"
     fit-margin-left="0"
     fit-margin-right="0"
     fit-margin-bottom="0"
     inkscape:window-width="1398"
     inkscape:window-height="855"
     inkscape:window-x="42"
     inkscape:window-y="1"
     inkscape:window-maximized="1" />
  <metadata
     id="metadata4208">
    <rdf:RDF>
      <cc:Work
         rdf:about="">
        <dc:format>image/svg+xml</dc:format>
        <dc:type
           rdf:resource="http://purl.org/dc/dcmitype/StillImage" />
        <dc:title></dc:title>
      </cc:Work>
    </rdf:RDF>
  </metadata>
  <g
     inkscape:label="Layer 1"
     inkscape:groupmode="layer"
     id="layer1"
     transform="translate(132.46404,-165.5482)">
    <g
       transform="matrix(0,-0.62270118,0.61885119,0,-408.10492,236.09844)"
       id="g4170">
      <g
         style="stroke:#ffffff;stroke-opacity:1"
         transform="matrix(0,1.5395863,-1.5395863,0,103.13854,132.89101)"
         id="g4150">
        <g
           style="font-style:normal;font-weight:normal;font-size:40px;line-height:0%;font-family:sans-serif;letter-spacing:0px;word-spacing:0px;fill:#d40000;fill-opacity:1;stroke:#ffffff;stroke-width:1px;stroke-linecap:butt;stroke-linejoin:miter;stroke-opacity:1"
           id="text3336">
          <path
             d="m 221.08723,27.693647 q -0.72,-0.64 -1.8,-0.96 -1.08,-0.36 -2.12,-0.36 -1.16,0 -2.12,0.44 -0.96,0.4 -1.68,1.16 -0.68,0.72 -1.08,1.76 -0.4,1.04 -0.4,2.24 0,1.2 0.44,2.24 0.44,1.04 1.2,1.8 0.76,0.72 1.76,1.16 1.04,0.4 2.2,0.4 1.36,0 2.48,-0.56 1.12,-0.6 1.92,-1.6 l -2.4,0 0,-5.6 10.28,0 0,8.88 q -0.92,1.64 -2.2,3 -1.28,1.32 -2.88,2.28 -1.56,0.96 -3.4,1.48 -1.84,0.52 -3.8,0.52 -2.88,0 -5.44,-1.08 -2.56,-1.08 -4.48,-2.96 -1.88,-1.88 -3,-4.44 -1.08,-2.56 -1.08,-5.52 0,-2.88 1.04,-5.44 1.04,-2.56 2.84,-4.44 1.84,-1.92 4.32,-3 2.52,-1.12 5.4,-1.12 2.24,0 3.88,0.44 1.64,0.44 2.76,1 1.32,0.64 2.2,1.4 l -4.84,6.88 z m 0.4,-5.16 q -0.52,-0.24 -1.16,-0.4 -0.56,-0.16 -1.32,-0.28 -0.76,-0.12 -1.68,-0.12 -2.12,0 -3.96,0.76 -1.84,0.76 -3.2,2.12 -1.36,1.32 -2.16,3.2 -0.76,1.88 -0.76,4.16 0,2.28 0.8,4.16 0.8,1.88 2.2,3.24 1.4,1.32 3.24,2.08 1.88,0.76 4,0.76 2.76,0 5,-1.28 2.24,-1.32 3.64,-3.48 l 0,-5.24 -4.24,0 0,0.96 3.2,0 0,4 q -1.24,1.84 -3.24,2.92 -1.96,1.08 -4.36,1.08 -1.92,0 -3.6,-0.64 -1.64,-0.68 -2.92,-1.88 -1.24,-1.24 -1.96,-2.92 -0.72,-1.72 -0.72,-3.76 0,-2.04 0.68,-3.72 0.72,-1.72 1.92,-2.92 1.24,-1.24 2.88,-1.88 1.64,-0.68 3.56,-0.68 0.72,0 1.36,0.12 0.64,0.12 1.12,0.24 0.56,0.16 1.04,0.32 l 0.64,-0.92 z"
             style="line-height:0%;fill:#d40000;stroke:#ffffff;stroke-opacity:1"
             id="path5397"
             inkscape:connector-curvature="0" />
          <path
             d="m 240.29785,36.013647 q 1.56,0 3.04,-0.32 l 3.8,6.4 1.24,0 -4,-6.72 q 2.16,-0.76 3.44,-2.32 1.28,-1.6 1.28,-4.12 0,-1.76 -0.68,-3.08 -0.68,-1.32 -1.88,-2.2 -1.16,-0.92 -2.76,-1.36 -1.6,-0.48 -3.48,-0.48 l -4.32,0 0,20.28 1.04,0 0,-6.08 3.28,0 z m -3.28,-0.96 0,-12.28 3.28,0 q 3.64,0 5.68,1.6 2.08,1.6 2.08,4.56 0,2.96 -2.08,4.56 -2.04,1.56 -5.68,1.56 l -3.28,0 z m -5.04,-16.44 9.2,0 q 2.56,0 4.72,0.68 2.2,0.68 3.8,2 1.6,1.32 2.48,3.28 0.92,1.92 0.92,4.44 0,2 -0.56,3.4 -0.56,1.4 -1.24,2.32 -0.8,1.04 -1.8,1.76 l 5,8.8 -10,0 -4,-6.76 0,6.76 -8.52,0 0,-26.68 z m 8.52,13.12 0.44,0 q 1.52,0 2.56,-0.68 1.08,-0.68 1.08,-2.28 0,-1.6 -1.08,-2.28 -1.04,-0.68 -2.56,-0.68 l -0.44,0 0,5.92 z"
             style="line-height:0%;fill:#d40000;stroke:#ffffff;stroke-opacity:1"
             id="path5399"
             inkscape:connector-curvature="0" />
          <path
             d="m 265.01504,18.613647 6.4,0 10.12,26.68 -8.4,0 -0.88,-2.4 -8.08,0 -0.88,2.4 -8.4,0 10.12,-26.68 z m 5,18.4 -1.8,-4.68 -1.8,4.68 3.6,0 z m -9.16,5.08 0.76,-2 13.2,0 0.76,2 1.12,0 -7.72,-20.28 -1.52,0 -7.72,20.28 1.12,0 z m 7.36,-19.32 6.24,16.36 -12.48,0 6.24,-16.36 z"
             style="line-height:0%;fill:#d40000;stroke:#ffffff;stroke-opacity:1"
             id="path5401"
             inkscape:connector-curvature="0" />
          <path
             d="m 282.21223,18.613647 7,0 7.36,10.28 0,-10.28 8.36,0 0,26.68 -7.04,0 -7.32,-10.24 0,10.24 -8.36,0 0,-26.68 z m 4.76,23.48 0,-18.48 13.2,18.48 1.04,0 0,-20.28 -1.04,0 0,18.48 -13.2,-18.48 -1.04,0 0,20.28 1.04,0 z"
             style="line-height:0%;fill:#d40000;stroke:#ffffff;stroke-opacity:1"
             id="path5403"
             inkscape:connector-curvature="0" />
          <path
             d="m 311.2791,25.613647 -4.92,0 0,-7 18.64,0 0,7 -4.92,0 0,19.68 -8.8,0 0,-19.68 z m 4.92,16.48 0,-19.32 5.72,0 0,-0.96 -12.48,0 0,0.96 5.72,0 0,19.32 1.04,0 z"
             style="line-height:0%;fill:#d40000;stroke:#ffffff;stroke-opacity:1"
             id="path5405"
             inkscape:connector-curvature="0" />
          <path
             d="m 323.57004,28.613647 10.56,0 0,6.68 -10.56,0 0,-6.68 z m 8.2,3.8 0,-0.92 -5.76,0 0,0.92 5.76,0 z"
             style="line-height:0%;fill:#d40000;stroke:#ffffff;stroke-opacity:1"
             id="path5407"
             inkscape:connector-curvature="0" />
          <path
             d="m 336.78723,29.293647 q 0,-5.76 2.16,-10.88 2.24,-5.12 6,-8.8799998 3.84,-3.84 8.96,-6 5.12,-2.24 10.88,-2.24 5.76,0 10.88,2.24 5.12,2.16 8.88,6 3.84,3.7599998 6,8.8799998 2.24,5.12 2.24,10.88 0,5.76 -2.24,10.88 -2.16,5.12 -6,8.96 -3.76,3.76 -8.88,6 -5.12,2.16 -10.88,2.16 -5.76,0 -10.88,-2.16 -5.12,-2.24 -8.96,-6 -3.76,-3.84 -6,-8.96 -2.16,-5.12 -2.16,-10.88 z m 7.52,0 q 0,4.24 1.6,8 1.6,3.68 4.4,6.48 2.8,2.8 6.48,4.4 3.76,1.6 8,1.6 4.24,0 7.92,-1.6 3.76,-1.6 6.56,-4.4 2.8,-2.8 4.4,-6.48 1.6,-3.76 1.6,-8 0,-4.24 -1.6,-7.92 -1.6,-3.76 -4.4,-6.56 -2.8,-2.8 -6.56,-4.4 -3.68,-1.5999998 -7.92,-1.5999998 -4.24,0 -8,1.5999998 -3.68,1.6 -6.48,4.4 -2.8,2.8 -4.4,6.56 -1.6,3.68 -1.6,7.92 z m 9.28,0 q 0,2.32 0.88,4.4 0.88,2 2.4,3.52 1.52,1.52 3.52,2.4 2.08,0.88 4.4,0.88 2.32,0 4.32,-0.88 2.08,-0.88 3.6,-2.4 1.52,-1.52 2.4,-3.52 0.88,-2.08 0.88,-4.4 0,-2.32 -0.88,-4.32 -0.88,-2.08 -2.4,-3.6 -1.52,-1.52 -3.6,-2.4 -2,-0.88 -4.32,-0.88 -2.32,0 -4.4,0.88 -2,0.88 -3.52,2.4 -1.52,1.52 -2.4,3.6 -0.88,2 -0.88,4.32 z m 11.2,18.4 q -3.84,0 -7.2,-1.44 -3.28,-1.44 -5.84,-3.92 -2.48,-2.56 -3.92,-5.84 -1.44,-3.36 -1.44,-7.2 0,-3.84 1.44,-7.12 1.44,-3.36 3.92,-5.84 2.56,-2.56 5.84,-4 3.36,-1.44 7.2,-1.44 3.84,0 7.12,1.44 3.36,1.44 5.84,4 2.56,2.48 4,5.84 1.44,3.28 1.44,7.12 0,3.84 -1.44,7.2 -1.44,3.28 -4,5.84 -2.48,2.48 -5.84,3.92 -3.28,1.44 -7.12,1.44 z"
             style="font-size:80px;fill:#d40000;stroke:#ffffff;stroke-opacity:1"
             id="path5409"
             inkscape:connector-curvature="0" />
          <path
             d="m 395.24973,28.653647 10.56,0 0,6.68 -10.56,0 0,-6.68 z m 8.2,3.8 0,-0.92 -5.76,0 0,0.92 5.76,0 z"
             style="font-style:normal;font-variant:normal;font-weight:normal;font-stretch:normal;font-family:Phosphate;-inkscape-font-specification:Phosphate;text-align:center;text-anchor:middle;fill:#d40000;stroke:#ffffff;stroke-opacity:1"
             id="path5411"
             inkscape:connector-curvature="0" />
          <path
             d="m 408.22785,18.653647 7.04,0 6.96,10.24 6.92,-10.24 7.04,0 0,26.68 -8.52,0 0,-9.6 -5.44,8 -5.48,-8 0,9.6 -8.52,0 0,-26.68 z m 5.04,23.48 0,-18.36 8.96,13.04 8.92,-13.04 0,18.36 1.04,0 0,-20.28 -1.04,0 -8.92,13.16 -8.96,-13.16 -1.04,0 0,20.28 1.04,0 z"
             style="font-style:normal;font-variant:normal;font-weight:normal;font-stretch:normal;font-family:Phosphate;-inkscape-font-specification:Phosphate;text-align:center;text-anchor:middle;fill:#d40000;stroke:#ffffff;stroke-opacity:1"
             id="path5413"
             inkscape:connector-curvature="0" />
          <path
             d="m 439.0091,18.653647 15.72,0 0,7 -7.2,0 0,2.96 7.08,0 0,6.64 -7.08,0 0,3.08 7.48,0 0,7 -16,0 0,-26.68 z m 13.04,23.48 0,-0.96 -8,0 0,-8.76 7.6,0 0,-0.96 -7.6,0 0,-8.64 8,0 0,-0.96 -9.04,0 0,20.28 9.04,0 z"
             style="font-style:normal;font-variant:normal;font-weight:normal;font-stretch:normal;font-family:Phosphate;-inkscape-font-specification:Phosphate;text-align:center;text-anchor:middle;fill:#d40000;stroke:#ffffff;stroke-opacity:1"
             id="path5415"
             inkscape:connector-curvature="0" />
          <path
             d="m 460.9666,25.653647 -4.92,0 0,-7 18.64,0 0,7 -4.92,0 0,19.68 -8.8,0 0,-19.68 z m 4.92,16.48 0,-19.32 5.72,0 0,-0.96 -12.48,0 0,0.96 5.72,0 0,19.32 1.04,0 z"
             style="font-style:normal;font-variant:normal;font-weight:normal;font-stretch:normal;font-family:Phosphate;-inkscape-font-specification:Phosphate;text-align:center;text-anchor:middle;fill:#d40000;stroke:#ffffff;stroke-opacity:1"
             id="path5417"
             inkscape:connector-curvature="0" />
          <path
             d="m 476.04035,18.653647 15.72,0 0,7 -7.2,0 0,2.96 7.08,0 0,6.64 -7.08,0 0,3.08 7.48,0 0,7 -16,0 0,-26.68 z m 13.04,23.48 0,-0.96 -8,0 0,-8.76 7.6,0 0,-0.96 -7.6,0 0,-8.64 8,0 0,-0.96 -9.04,0 0,20.28 9.04,0 z"
             style="font-style:normal;font-variant:normal;font-weight:normal;font-stretch:normal;font-family:Phosphate;-inkscape-font-specification:Phosphate;text-align:center;text-anchor:middle;fill:#d40000;stroke:#ffffff;stroke-opacity:1"
             id="path5419"
             inkscape:connector-curvature="0" />
          <path
             d="m 502.79785,36.053647 q 1.56,0 3.04,-0.32 l 3.8,6.4 1.24,0 -4,-6.72 q 2.16,-0.76 3.44,-2.32 1.28,-1.6 1.28,-4.12 0,-1.76 -0.68,-3.08 -0.68,-1.32 -1.88,-2.2 -1.16,-0.92 -2.76,-1.36 -1.6,-0.48 -3.48,-0.48 l -4.32,0 0,20.28 1.04,0 0,-6.08 3.28,0 z m -3.28,-0.96 0,-12.28 3.28,0 q 3.64,0 5.68,1.6 2.08,1.6 2.08,4.56 0,2.96 -2.08,4.56 -2.04,1.56 -5.68,1.56 l -3.28,0 z m -5.04,-16.44 9.2,0 q 2.56,0 4.72,0.68 2.2,0.68 3.8,2 1.6,1.32 2.48,3.28 0.92,1.92 0.92,4.44 0,2 -0.56,3.4 -0.56,1.4 -1.24,2.32 -0.8,1.04 -1.8,1.76 l 5,8.8 -10,0 -4,-6.76 0,6.76 -8.52,0 0,-26.68 z m 8.52,13.12 0.44,0 q 1.52,0 2.56,-0.68 1.08,-0.68 1.08,-2.28 0,-1.6 -1.08,-2.28 -1.04,-0.68 -2.56,-0.68 l -0.44,0 0,5.92 z"
             style="font-style:normal;font-variant:normal;font-weight:normal;font-stretch:normal;font-family:Phosphate;-inkscape-font-specification:Phosphate;text-align:center;text-anchor:middle;fill:#d40000;stroke:#ffffff;stroke-opacity:1"
             id="path5421"
             inkscape:connector-curvature="0" />
        </g>
        <path
           inkscape:connector-curvature="0"
           id="path4182"
           d="M 341.43155,7.8644712 C 358.09907,20.996455 358.09907,20.996455 358.09907,20.996455"
           style="fill:#000000;fill-rule:evenodd;stroke:#ffffff;stroke-width:15;stroke-linecap:butt;stroke-linejoin:miter;stroke-miterlimit:4;stroke-dasharray:none;stroke-opacity:1" />
        <path
           style="fill:#000000;fill-opacity:0;fill-rule:evenodd;stroke:#000000;stroke-width:9.69999981;stroke-linecap:butt;stroke-linejoin:miter;stroke-miterlimit:4;stroke-dasharray:none;stroke-opacity:0.94117647"
           d="M 341.43155,7.8644724 C 358.09907,20.996455 358.09907,20.996455 358.09907,20.996455"
           id="path4172"
           inkscape:connector-curvature="0" />
        <path
           style="fill:#000000;fill-rule:evenodd;stroke:#ffffff;stroke-width:15;stroke-linecap:butt;stroke-linejoin:miter;stroke-miterlimit:4;stroke-dasharray:none;stroke-opacity:1"
           d="M 388.90873,7.8644712 C 372.24121,20.996455 372.24121,20.996455 372.24121,20.996455"
           id="path4184"
           inkscape:connector-curvature="0" />
        <path
           inkscape:connector-curvature="0"
           id="path4174"
           d="M 388.90873,7.8644724 C 372.24121,20.996455 372.24121,20.996455 372.24121,20.996455"
           style="fill:#000000;fill-opacity:0;fill-rule:evenodd;stroke:#000000;stroke-width:9.69999981;stroke-linecap:butt;stroke-linejoin:miter;stroke-miterlimit:4;stroke-dasharray:none;stroke-opacity:0.94117647" />
        <path
           inkscape:connector-curvature="0"
           id="path4186"
           d="m 349.51278,53.321339 c 0,0 16.66752,-20.70813 35.35534,-10.10153"
           style="fill:#000000;fill-rule:evenodd;stroke:#ffffff;stroke-width:15;stroke-linecap:butt;stroke-linejoin:miter;stroke-miterlimit:4;stroke-dasharray:none;stroke-opacity:1" />
        <path
           style="fill:#000000;fill-opacity:0;fill-rule:evenodd;stroke:#000000;stroke-width:9.69999981;stroke-linecap:butt;stroke-linejoin:miter;stroke-miterlimit:4;stroke-dasharray:none;stroke-opacity:1"
           d="m 349.51278,53.321339 c 0,0 16.66752,-20.70813 35.35534,-10.10153"
           id="path4180"
           inkscape:connector-curvature="0" />
      </g>
    </g>
  </g>
</svg>
