<?xml version="1.0" encoding="UTF-8" standalone="no"?>
<!-- Created with Inkscape (http://www.inkscape.org/) -->

<svg
   xmlns:dc="http://purl.org/dc/elements/1.1/"
   xmlns:cc="http://creativecommons.org/ns#"
   xmlns:rdf="http://www.w3.org/1999/02/22-rdf-syntax-ns#"
   xmlns:svg="http://www.w3.org/2000/svg"
   xmlns="http://www.w3.org/2000/svg"
   xmlns:sodipodi="http://sodipodi.sourceforge.net/DTD/sodipodi-0.dtd"
   xmlns:inkscape="http://www.inkscape.org/namespaces/inkscape"
   width="24.644426mm"
   height="24.583004mm"
   viewBox="0 0 87.322771 87.105131"
   id="svg4203"
   version="1.1"
   inkscape:version="0.91 r13725"
   sodipodi:docname="grantometer-icon.svg">
  <defs
     id="defs4205" />
  <sodipodi:namedview
     id="base"
     pagecolor="#ffffff"
     bordercolor="#666666"
     borderopacity="1.0"
     inkscape:pageopacity="0.0"
     inkscape:pageshadow="2"
     inkscape:zoom="0.35"
     inkscape:cx="-72.264293"
     inkscape:cy="-178.59562"
     inkscape:document-units="px"
     inkscape:current-layer="g4170"
     showgrid="false"
     fit-margin-top="0"
     fit-margin-left="0"
     fit-margin-right="0"
     fit-margin-bottom="0"
     inkscape:window-width="1398"
     inkscape:window-height="855"
     inkscape:window-x="42"
     inkscape:window-y="1"
     inkscape:window-maximized="1" />
  <metadata
     id="metadata4208">
    <rdf:RDF>
      <cc:Work
         rdf:about="">
        <dc:format>image/svg+xml</dc:format>
        <dc:type
           rdf:resource="http://purl.org/dc/dcmitype/StillImage" />
        <dc:title></dc:title>
      </cc:Work>
    </rdf:RDF>
  </metadata>
  <g
     inkscape:label="Layer 1"
     inkscape:groupmode="layer"
     id="layer1"
     transform="translate(-32.978578,-266.66144)">
    <g
       transform="matrix(0.99129263,0,0,0.99129263,19.401881,-378.48726)"
       id="g4170">
      <g
         style="stroke:#ffffff;stroke-opacity:1"
         transform="matrix(1.5395863,0,0,1.5395863,-504.11885,649.35302)"
         id="g4150">
        <g
           style="font-style:normal;font-weight:normal;font-size:40px;line-height:0%;font-family:sans-serif;letter-spacing:0px;word-spacing:0px;fill:#d40000;fill-opacity:1;stroke:#ffffff;stroke-width:1px;stroke-linecap:butt;stroke-linejoin:miter;stroke-opacity:1"
           id="text3336">
          <path
             d="m 336.83373,29.449974 q 0,-5.76 2.16,-10.88 2.24,-5.12 6,-8.8799996 3.84,-3.84 8.96,-6 5.12,-2.24 10.88,-2.24 5.76,0 10.88,2.24 5.12,2.16 8.88,6 3.84,3.7599996 6,8.8799996 2.24,5.12 2.24,10.88 0,5.76 -2.24,10.88 -2.16,5.12 -6,8.96 -3.76,3.76 -8.88,6 -5.12,2.16 -10.88,2.16 -5.76,0 -10.88,-2.16 -5.12,-2.24 -8.96,-6 -3.76,-3.84 -6,-8.96 -2.16,-5.12 -2.16,-10.88 z m 7.52,0 q 0,4.24 1.6,8 1.6,3.68 4.4,6.48 2.8,2.8 6.48,4.4 3.76,1.6 8,1.6 4.24,0 7.92,-1.6 3.76,-1.6 6.56,-4.4 2.8,-2.8 4.4,-6.48 1.6,-3.76 1.6,-8 0,-4.24 -1.6,-7.92 -1.6,-3.76 -4.4,-6.56 -2.8,-2.8 -6.56,-4.4 -3.68,-1.5999996 -7.92,-1.5999996 -4.24,0 -8,1.5999996 -3.68,1.6 -6.48,4.4 -2.8,2.8 -4.4,6.56 -1.6,3.68 -1.6,7.92 z m 9.28,0 q 0,2.32 0.88,4.4 0.88,2 2.4,3.52 1.52,1.52 3.52,2.4 2.08,0.88 4.4,0.88 2.32,0 4.32,-0.88 2.08,-0.88 3.6,-2.4 1.52,-1.52 2.4,-3.52 0.88,-2.08 0.88,-4.4 0,-2.32 -0.88,-4.32 -0.88,-2.08 -2.4,-3.6 -1.52,-1.52 -3.6,-2.4 -2,-0.88 -4.32,-0.88 -2.32,0 -4.4,0.88 -2,0.88 -3.52,2.4 -1.52,1.52 -2.4,3.6 -0.88,2 -0.88,4.32 z m 11.2,18.4 q -3.84,0 -7.2,-1.44 -3.28,-1.44 -5.84,-3.92 -2.48,-2.56 -3.92,-5.84 -1.44,-3.36 -1.44,-7.2 0,-3.84 1.44,-7.12 1.44,-3.36 3.92,-5.84 2.56,-2.56 5.84,-4 3.36,-1.44 7.2,-1.44 3.84,0 7.12,1.44 3.36,1.44 5.84,4 2.56,2.48 4,5.84 1.44,3.28 1.44,7.12 0,3.84 -1.44,7.2 -1.44,3.28 -4,5.84 -2.48,2.48 -5.84,3.92 -3.28,1.44 -7.12,1.44 z"
             style="font-size:80px;fill:#d40000;stroke:#ffffff;stroke-opacity:1"
             id="path4799"
             inkscape:connector-curvature="0" />
        </g>
        <path
           inkscape:connector-curvature="0"
           id="path4182"
           d="M 341.43155,7.8644712 C 358.09907,20.996455 358.09907,20.996455 358.09907,20.996455"
           style="fill:#000000;fill-rule:evenodd;stroke:#ffffff;stroke-width:15;stroke-linecap:butt;stroke-linejoin:miter;stroke-miterlimit:4;stroke-dasharray:none;stroke-opacity:1" />
        <path
           style="fill:#000000;fill-opacity:0;fill-rule:evenodd;stroke:#000000;stroke-width:9.69999981;stroke-linecap:butt;stroke-linejoin:miter;stroke-miterlimit:4;stroke-dasharray:none;stroke-opacity:0.94117647"
           d="M 341.43155,7.8644724 C 358.09907,20.996455 358.09907,20.996455 358.09907,20.996455"
           id="path4172"
           inkscape:connector-curvature="0" />
        <path
           style="fill:#000000;fill-rule:evenodd;stroke:#ffffff;stroke-width:15;stroke-linecap:butt;stroke-linejoin:miter;stroke-miterlimit:4;stroke-dasharray:none;stroke-opacity:1"
           d="M 388.90873,7.8644712 C 372.24121,20.996455 372.24121,20.996455 372.24121,20.996455"
           id="path4184"
           inkscape:connector-curvature="0" />
        <path
           inkscape:connector-curvature="0"
           id="path4174"
           d="M 388.90873,7.8644724 C 372.24121,20.996455 372.24121,20.996455 372.24121,20.996455"
           style="fill:#000000;fill-opacity:0;fill-rule:evenodd;stroke:#000000;stroke-width:9.69999981;stroke-linecap:butt;stroke-linejoin:miter;stroke-miterlimit:4;stroke-dasharray:none;stroke-opacity:0.94117647" />
        <path
           inkscape:connector-curvature="0"
           id="path4186"
           d="m 349.51278,53.321339 c 0,0 16.66752,-20.70813 35.35534,-10.10153"
           style="fill:#000000;fill-rule:evenodd;stroke:#ffffff;stroke-width:15;stroke-linecap:butt;stroke-linejoin:miter;stroke-miterlimit:4;stroke-dasharray:none;stroke-opacity:1" />
        <path
           style="fill:#000000;fill-opacity:0;fill-rule:evenodd;stroke:#000000;stroke-width:9.69999981;stroke-linecap:butt;stroke-linejoin:miter;stroke-miterlimit:4;stroke-dasharray:none;stroke-opacity:1"
           d="m 349.51278,53.321339 c 0,0 16.66752,-20.70813 35.35534,-10.10153"
           id="path4180"
           inkscape:connector-curvature="0" />
      </g>
    </g>
  </g>
</svg>
