<?xml version="1.0" encoding="UTF-8" standalone="no"?>
<!-- Created with Inkscape (http://www.inkscape.org/) -->

<svg
   xmlns:dc="http://purl.org/dc/elements/1.1/"
   xmlns:cc="http://creativecommons.org/ns#"
   xmlns:rdf="http://www.w3.org/1999/02/22-rdf-syntax-ns#"
   xmlns:svg="http://www.w3.org/2000/svg"
   xmlns="http://www.w3.org/2000/svg"
   xmlns:sodipodi="http://sodipodi.sourceforge.net/DTD/sodipodi-0.dtd"
   xmlns:inkscape="http://www.inkscape.org/namespaces/inkscape"
   width="280.00003"
   height="75"
   viewBox="0 0 280.00002 74.999999"
   id="svg4203"
   version="1.1"
   inkscape:version="0.91 r13725"
   sodipodi:docname="grantometer-v.svg">
  <defs
     id="defs4205" />
  <sodipodi:namedview
     id="base"
     pagecolor="#0b0b0b"
     bordercolor="#666666"
     borderopacity="1.0"
     inkscape:pageopacity="0"
     inkscape:pageshadow="2"
     inkscape:zoom="5.6568542"
     inkscape:cx="150.02492"
     inkscape:cy="40.961812"
     inkscape:document-units="px"
     inkscape:current-layer="g4993"
     showgrid="false"
     fit-margin-top="0"
     fit-margin-left="0"
     fit-margin-right="0"
     fit-margin-bottom="0"
     inkscape:window-width="1399"
     inkscape:window-height="855"
     inkscape:window-x="41"
     inkscape:window-y="1"
     inkscape:window-maximized="1"
     units="px" />
  <metadata
     id="metadata4208">
    <rdf:RDF>
      <cc:Work
         rdf:about="">
        <dc:format>image/svg+xml</dc:format>
        <dc:type
           rdf:resource="http://purl.org/dc/dcmitype/StillImage" />
        <dc:title />
      </cc:Work>
    </rdf:RDF>
  </metadata>
  <g
     inkscape:label="Layer 1"
     inkscape:groupmode="layer"
     id="layer1"
     transform="translate(189.36234,-147.52901)">
    <g
       style="fill:none;fill-opacity:1;stroke:#000000;stroke-width:25.51732826;stroke-linecap:round;stroke-linejoin:round;stroke-miterlimit:4;stroke-dasharray:none;stroke-opacity:1"
       transform="matrix(0.11489892,0.0993835,-0.0993835,0.11489892,-114.54818,85.839775)"
       id="g4993">
      <path
         transform="matrix(0.75632585,-0.65419507,0.65419507,0.75632585,10.174361,594.84457)"
         inkscape:connector-curvature="0"
         id="path4995"
         d="m 735.85669,414.65035 a 118.55605,15.757449 0 0 0 -49.66211,12.80078 118.55605,15.757449 0 0 0 118.55664,15.75781 118.55605,15.757449 0 0 0 118.55665,-15.75781 118.55605,15.757449 0 0 0 -46.35938,-12.47266 149.76275,143.38045 0 0 1 -70.28516,16.84961 149.76275,143.38045 0 0 1 -70.80664,-17.17773 z"
         style="opacity:1;fill:#ffffff;fill-opacity:1;stroke:none;stroke-width:25.51732826;stroke-linecap:round;stroke-linejoin:round;stroke-miterlimit:4;stroke-dasharray:none;stroke-opacity:1" />
      <path
         id="path4997"
         transform="translate(0,552.36216)"
         d="m 802.80273,-614.42578 a 60,60 0 0 0 -59.67382,53.84375 l -0.32618,0 0,6.15625 0,144.33594 a 150.00006,150.1505 0 0 0 -90,137.41601 150.00006,150.1505 0 0 0 150,150.15039 150.00006,150.1505 0 0 0 150,-150.15039 150.00006,150.1505 0 0 0 -90,-137.53125 l 0,-144.2207 0,-6.15625 -0.38281,0 a 60,60 0 0 0 -59.61719,-53.84375 z"
         style="opacity:1;fill:none;fill-opacity:1;stroke:#ffffff;stroke-width:25.51732826;stroke-linecap:round;stroke-linejoin:round;stroke-miterlimit:4;stroke-dasharray:none;stroke-opacity:1"
         inkscape:connector-curvature="0" />
      <path
         style="opacity:1;fill:#ffffff;fill-opacity:1;stroke:none;stroke-width:25.51732826;stroke-linecap:round;stroke-linejoin:round;stroke-miterlimit:4;stroke-dasharray:none;stroke-opacity:1"
         d="m 937.00638,-513.00833 c -698.68247,269.23673 -349.34124,134.61837 0,0 z m -28.46927,31.46145 -8.44336,9.76172 18.26563,15.79883 1.01757,-1.17578 0.0117,0.0117 c 0.0956,-0.11977 0.19193,-0.23891 0.28906,-0.35742 2.43302,-2.79083 5.29345,-5.17793 8.47461,-7.07227 z m 19.61523,16.9668 19.4336,16.8086 -8.44532,9.76171 -20.78124,-17.97656 -19.16016,22.1543 20.78125,17.97461 -8.44336,9.76172 -20.78125,-17.97657 -33.11328,38.28321 c -50.48872,-23.11335 -110.17262,-10.14949 -146.52344,31.82617 -45.16247,52.21312 -39.44712,131.15155 12.76563,176.31445 52.21312,45.16247 131.15155,39.44713 176.31445,-12.76562 36.29352,-42.01896 40.52027,-102.94207 10.37695,-149.57032 l 61.74414,-71.38281 -0.0176,-0.0156 c 0.10619,-0.10998 0.21167,-0.22066 0.31641,-0.33203 12.64627,-14.61979 11.04602,-36.72339 -3.57422,-49.36914 -11.44576,-9.87353 -27.93691,-11.28343 -40.89256,-3.49612 z m -37.39648,40.50781 8.44336,-9.75976 -18.26758,-15.80078 -8.44336,9.76172 z m -147.95703,86.14649 c 3.19847,10.53018 10.75086,19.94736 20.89844,26.05859 9.28375,5.5683 20.02215,7.94508 30.09961,6.66211 l -8.70118,14.46485 c -4.00225,0.49194 -8.14127,0.41163 -12.28125,-0.23829 -0.32427,2.08732 -1.04917,4.09224 -2.13476,5.9043 -4.6644,7.7535 -14.73144,10.25714 -22.48438,5.5918 -7.75231,-4.66434 -10.2558,-14.72991 -5.59179,-22.48242 0.71659,-1.17725 1.57886,-2.25937 2.5664,-3.22071 -5.21597,-5.29792 -9.03175,-11.59608 -11.07226,-18.27539 z m 136.61719,0 8.70117,14.46484 c -2.03991,6.67913 -5.85501,12.97728 -11.07031,18.27539 0.98754,0.96134 1.84981,2.04346 2.5664,3.22071 4.66367,7.75302 2.15926,17.81874 -5.59375,22.48242 -7.75251,4.66401 -17.81808,2.16051 -22.48242,-5.5918 -1.08559,-1.81206 -1.81049,-3.81697 -2.13477,-5.9043 -4.13998,0.64992 -8.279,0.73023 -12.28125,0.23829 l -8.70117,-14.46485 c 10.07746,1.28297 20.81586,-1.09381 30.09961,-6.66211 10.14689,-6.11158 17.69854,-15.52871 20.89649,-26.05859 z m -30.00782,93.13281 c 10.75877,-0.0182 21.59513,1.34231 31.95899,4.09961 5.43196,1.33984 8.7083,6.87508 7.26963,12.2817 -1.43867,5.40662 -7.03272,8.58149 -12.41221,7.04447 -22.71477,-6.04326 -49.87386,-3.50135 -68.33984,5.89453 -9.23299,4.69795 -15.39359,10.5524 -18.57813,16.1543 -3.18454,5.6019 -3.76986,10.73581 -1.86523,16.41602 2.27066,6.46996 -2.49498,13.25412 -9.35157,13.3125 -4.38071,0.0365 -8.27528,-2.78229 -9.60937,-6.95508 -3.68324,-10.98461 -2.16954,-22.78952 3.43945,-32.65625 5.609,-9.86673 14.93658,-18.01124 26.89453,-24.09571 14.94745,-7.60555 32.66247,-11.46571 50.59375,-11.49609 z"
         transform="matrix(0.75632585,-0.65419507,0.65419507,0.75632585,371.52697,1012.6104)"
         id="path4999"
         inkscape:connector-curvature="0"
         sodipodi:nodetypes="ccccccccccccccccccccsccccccccccccccccccccccccccccccccccscscsscccsss" />
    </g>
    <g
       style="font-style:normal;font-weight:normal;font-size:6.07668877px;line-height:125%;font-family:sans-serif;letter-spacing:0px;word-spacing:0px;fill:#000000;fill-opacity:1;stroke:none;stroke-width:1px;stroke-linecap:butt;stroke-linejoin:miter;stroke-miterlimit:4;stroke-dasharray:none;stroke-opacity:1"
       id="text5001">
      <path
         d="m -172.37087,179.07837 q 0.53316,0.16226 1.0895,0.37089 0.55634,0.18545 1.08949,0.39407 0.18545,0.0927 0.55634,0.50998 0.39407,0.41725 0.99677,1.18222 0.67224,0.81132 0.78815,1.08949 0.13908,0.25499 0.50997,1.29812 0.25499,0.39407 0.64906,1.43721 0.41726,1.01995 0.41726,1.48356 0,0.83451 -1.25176,2.03991 -1.25176,1.18221 -1.97037,1.18221 -0.46361,0 -0.69542,-0.27816 -0.20862,-0.30135 -0.20862,-0.85769 -0.20863,-0.92723 -0.32453,-1.59947 -0.64907,-2.5267 -1.73856,-3.80164 -1.06631,-1.27494 -2.61942,-1.27494 -0.78815,0 -1.55311,0.27817 -0.74178,0.25499 -1.36766,0.78814 -0.32453,0.25499 -0.85769,0.85769 -0.53316,0.6027 -1.27494,1.50675 -0.0927,0.16226 -0.25499,0.37089 -0.16226,0.20863 -0.39407,0.55634 -0.20863,0.39407 -0.55634,0.95041 -0.32453,0.53315 -0.81132,1.22857 -0.20863,0.6027 -0.41726,1.11268 -0.20862,0.50998 -0.50997,0.95041 -0.0695,0.0927 -0.13909,0.37089 -0.0695,0.25499 -0.16226,0.69542 -0.16227,0.53316 -0.37089,1.15904 -0.18545,0.62588 -0.41726,1.36766 -0.37089,2.5267 -0.53315,4.01027 -0.16227,1.46038 -0.16227,1.90082 0,0.99677 0.16227,1.99354 0.18544,0.99677 0.55633,1.99354 0.27817,0.71861 0.53316,1.22858 0.25499,0.50998 0.4868,0.74179 0.34771,0.34771 0.88086,0.53315 0.53316,0.18545 1.18222,0.18545 0.92723,0 1.76174,-0.32453 0.8345,-0.32453 1.5531,-0.90405 0.20863,-0.18545 0.83451,-0.83451 0.62588,-0.67224 1.69219,-1.80809 0.23181,-0.18545 0.55634,-0.50998 0.34771,-0.34771 0.74178,-0.76496 0.44044,-0.6027 0.81133,-1.2054 0.39407,-0.6027 0.78815,-1.15904 0.48679,-0.62588 1.06631,-0.92723 0.6027,-0.30135 1.29812,-0.30135 0.95041,0 1.41402,0.41726 0.46362,0.41725 0.46362,1.25176 0,0.27816 -0.16227,0.78814 -0.16226,0.4868 -0.20862,0.76496 -0.0464,0.41726 -0.13909,1.04314 -0.0927,0.6027 -0.20862,1.4372 -0.0464,1.04314 -0.23181,1.85446 -0.16227,0.81133 -0.46362,1.41403 -0.37089,0.78814 -0.64906,2.52669 -0.25498,1.73856 -0.64906,2.54988 -0.13908,0.23181 -0.25498,0.71861 -0.11591,0.50997 -0.25499,1.27494 -0.0927,0.48679 -0.23181,0.8345 -0.1159,0.34771 -0.34771,0.55634 -0.18545,0.13909 -0.50998,0.30135 -0.32453,0.16227 -0.90405,0.34771 -0.0927,0.53316 -0.32453,0.78815 -0.2318,0.27817 -0.62588,0.27817 -0.32453,0 -0.50997,-0.27817 -0.16227,-0.27817 -0.16227,-0.90405 0,-0.23181 0.0695,-0.74179 0.0927,-0.48679 0.30135,-1.25175 0.0927,-0.3709 0.16226,-0.99678 0.0695,-0.62588 0.0927,-1.52992 0.0464,-0.46362 0.23181,-1.46039 0.20863,-0.99677 0.57952,-2.45716 l -0.30135,-1.50674 q 0.0927,-0.27817 0.16226,-0.62588 0,-0.16227 -0.0927,-0.23181 -0.0695,-0.0927 -0.23181,-0.0927 -0.81132,0.55633 -1.34448,1.06631 -1.18222,1.01995 -1.99354,1.66901 -0.81133,0.64906 -1.25176,0.95041 -0.92723,0.6027 -1.87764,0.99677 -0.95041,0.39408 -1.94718,0.53316 l -1.01995,-0.20863 q -0.46362,0.0695 -0.78815,0.13909 -0.50997,0 -1.08949,-0.25499 -0.57952,-0.25499 -1.25176,-0.74178 -0.57952,-0.46362 -1.0895,-1.11268 -0.48679,-0.64906 -0.85768,-1.55311 -0.13909,-0.27817 -0.34771,-1.11267 -0.20863,-0.83451 -0.55634,-2.13263 0.20863,-0.55634 0.25499,-1.2054 0.0464,-0.64906 -0.0464,-1.39084 l 0.46361,-3.47711 q 0.55634,-4.35798 2.17899,-7.74236 1.64583,-3.38439 4.26525,-5.91109 0.88087,-0.88087 1.48357,-1.41402 0.6027,-0.53316 0.76496,-0.74179 0.50998,-0.39407 1.11268,-0.78814 0.62588,-0.39408 1.34448,-0.78815 0.37089,-0.20862 0.83451,-0.41725 0.48679,-0.23181 1.13585,-0.46362 l 2.15581,-0.25498 0.7186,0.18544 0.32453,-0.1159 z"
         style="font-style:normal;font-variant:normal;font-weight:normal;font-stretch:normal;font-size:47.47413254px;font-family:Mistral;-inkscape-font-specification:Mistral;fill:#ffffff"
         id="path5292" />
      <path
         d="m -158.39289,197.97066 q 0,0.46362 0.64906,1.25176 0.67224,0.76497 1.99355,1.90082 0.85768,0.7186 1.76173,1.41403 0.92723,0.67224 1.83128,1.36766 0.39407,0.32453 1.01995,0.85769 0.62588,0.50997 1.46039,1.20539 0.6027,0.46362 1.25176,0.92723 0.67224,0.46362 1.4372,0.92723 0.50998,0.39408 1.13586,0.85769 0.62588,0.46361 1.4372,0.99677 0.46362,0.27817 0.71861,1.01995 0.25498,0.71861 0.30134,1.87764 l -0.20862,0.6027 -0.23181,0.1159 q -0.23181,0 -0.62588,-0.20862 -0.37089,-0.18545 -0.95041,-0.55634 -0.1159,-0.0695 -1.06631,-0.50998 -0.92723,-0.44043 -2.68897,-1.25175 -0.97359,-0.41726 -1.78491,-0.92723 -0.81133,-0.53316 -1.48357,-1.11268 -0.39407,-0.34771 -1.01995,-0.76496 -0.6027,-0.41726 -1.43721,-0.90405 -0.85768,-0.4868 -1.48356,-0.92723 -0.62588,-0.44043 -0.99677,-0.74178 -1.25176,-1.01996 -2.03991,-1.55311 -0.78814,-0.53316 -1.08949,-0.53316 -0.23181,0.32453 -0.25499,0.67224 -0.27817,1.0895 -0.6027,2.75851 -0.30135,1.64583 -0.67224,3.848 0,0.39407 -0.13909,0.57952 -0.13908,0.20862 -0.41725,0.20862 -0.90405,0 -1.36766,-0.44043 -0.46362,-0.44043 -0.46362,-1.3213 0,-1.18222 0.13909,-2.48034 0.16226,-1.29812 0.50997,-2.73533 0.11591,-0.62587 0.16227,-1.11267 0.0695,-0.50998 0.0695,-0.92723 0,-1.06631 -0.92723,-1.83128 -0.90405,-0.76496 -0.90405,-1.08949 0,-0.50998 0.13909,-0.88087 0.16226,-0.39407 0.46361,-0.62588 0.76497,-0.48679 1.41403,-0.92723 0.16226,-0.0927 0.20862,-0.30135 0.0695,-0.2318 0.0695,-0.62588 0,-0.2318 0,-0.48679 0,-0.27817 0,-0.50998 0.0695,-2.06308 0.1159,-4.28843 0,-0.16227 0,-0.50998 0,-0.34771 -0.0464,-0.90405 -0.0464,-0.41725 -0.0232,-0.76496 0.0232,-0.37089 0.0232,-0.67224 -0.13909,-0.46362 -0.25499,-0.78815 -0.0927,-0.34771 -0.0927,-0.64906 0,-0.27817 0.0464,-0.85768 0.0464,-0.6027 0.0464,-0.85769 0,-0.32453 -0.0695,-0.90405 -0.0464,-0.57952 -0.0464,-0.88087 0,-0.8345 0.37089,-1.59947 0.39407,-0.76496 1.18222,-1.50675 0.76496,-0.64906 1.5531,-0.97359 0.81133,-0.34771 1.64584,-0.34771 0.39407,0 1.15903,0.0695 0.78815,0.0464 1.22858,0.0464 0.30135,0 1.64583,0.50997 0.53316,0.0464 0.95041,0.13909 0.41726,0.0695 0.67224,0.16226 0.57952,0.27817 0.90405,0.44044 0.32453,0.13908 0.46362,0.16226 0.39407,0.13909 0.67224,0.23181 0.30135,0.0927 0.48679,0.23181 0.30135,0.13908 0.69542,0.32453 0.41726,0.18544 0.92723,0.41725 0.83451,0.41725 1.55311,0.97359 0.74179,0.55634 1.39085,1.2054 0.74178,0.8345 1.11267,1.64583 0.37089,0.78814 0.37089,1.57629 0,0.23181 -0.0464,0.67224 -0.0232,0.41725 -0.1159,0.95041 -0.0695,0.67224 -0.69542,1.46039 -0.62588,0.76496 -1.8081,1.69219 -1.04313,0.81132 -1.94718,1.36766 -0.90405,0.53316 -1.66901,0.76497 -0.30135,0.20862 -0.46362,0.39407 -0.23181,0.23181 -0.97359,0.64906 -0.74178,0.41725 -2.01672,1.04313 -2.31808,1.13586 -3.29167,1.50675 -0.97359,0.34771 -0.97359,0.76496 z m -2.43397,-11.17311 q 0.44043,-0.32453 0.8345,-0.62588 0.39408,-0.32453 1.01995,-0.32453 0.27817,0 0.67225,0.62588 0.41725,0.6027 0.41725,0.90405 0,0.16227 -0.1159,0.74178 -0.11591,0.57952 -0.3709,1.57629 -0.53315,2.24853 -0.6027,2.82805 -0.0695,0.55634 -0.30134,1.76174 -0.0927,0.30135 -0.18545,0.78814 0,0.20863 0.0695,0.30135 0.0927,0.0927 0.23181,0.0927 4.61296,-2.31807 4.77523,-2.41079 0.18545,-0.0464 0.39407,-0.11591 0.20863,-0.0927 0.39407,-0.18544 l 0.34771,-0.44043 q 1.34449,-0.85769 2.78169,-1.83128 0.90405,-0.69542 1.34448,-1.36767 0.44044,-0.67224 0.44044,-1.34448 0,-0.85768 -0.99677,-1.69219 -0.99677,-0.83451 -2.99032,-1.59947 -1.69219,-0.67224 -3.08303,-0.97359 -1.39085,-0.32453 -2.5267,-0.32453 -1.48357,0 -2.24853,0.53315 -0.74179,0.50998 -0.74179,1.52993 0,0.78815 0.11591,1.2054 0.1159,0.39407 0.32453,0.34771 z"
         style="font-style:normal;font-variant:normal;font-weight:normal;font-stretch:normal;font-size:47.47413254px;font-family:Mistral;-inkscape-font-specification:Mistral;fill:#ffffff"
         id="path5294" />
      <path
         d="m -145.22623,201.93457 q -0.0696,-0.25499 -0.0696,-0.41726 -0.0232,-0.16226 -0.0232,-0.27816 0,-0.76497 0.18545,-1.29813 0.18544,-0.55633 0.55634,-0.92722 0.0927,-0.0927 0.46361,-0.27817 0.39407,-0.18545 1.01995,-0.44044 0.44044,-0.20862 0.69542,-0.48679 0.27817,-0.30135 0.30135,-0.7186 0.0695,-0.32453 0.27817,-0.74179 0.20863,-0.41725 0.4868,-0.90405 0.0927,-0.13908 0.55634,-1.59947 0.46361,-1.46038 1.29812,-4.28843 0.2318,-0.85769 0.46361,-1.48357 0.23181,-0.62588 0.39407,-1.06631 0.74179,-1.97036 1.2054,-2.57306 0.4868,-0.62588 0.7186,-1.01995 l 0,-0.11591 -0.7186,-1.13585 0.90405,-1.04314 1.15904,-0.2318 q 0.34771,-0.0464 0.62588,-0.64906 0.30135,-0.6027 1.01995,-1.32131 0.16226,-0.0464 0.50997,-0.27816 0.3709,-0.25499 0.92723,-0.69543 0.4868,-0.39407 0.83451,-0.57951 0.34771,-0.18545 0.53316,-0.18545 0.62588,0 0.90404,0.25499 0.27817,0.25499 0.27817,0.67224 0,0.50997 -0.53315,1.48357 -0.53316,0.97359 -0.53316,1.48356 0,0.23181 0.0927,0.39407 0.11591,0.13909 0.25499,0.18545 l 2.78169,1.50675 q 0.23181,0.0927 0.41725,0.74178 0.18545,0.62588 0.30135,1.73856 0.13909,0.92722 0.20863,1.5531 0.0927,0.6027 0.0927,0.97359 -0.16226,0.99678 -0.32453,2.01673 0.23181,1.29812 0.50998,2.73532 -0.13909,1.36767 -0.30135,2.78169 0,0.13909 0.0464,0.25499 0.0695,0.0927 0.18544,0.1159 0.39408,0.0232 0.57952,0.20863 0.20863,0.18545 0.20863,0.50998 0,0.41725 -0.13909,0.67224 -0.1159,0.2318 -0.34771,0.37089 -0.30135,0.18544 -0.48679,0.32453 -0.16227,0.13908 -0.23181,0.23181 l 0.30135,1.4372 -0.41725,3.29166 q 0,0.41726 -0.0696,1.06632 -0.0695,0.64906 -0.20862,1.50675 -0.23181,0.62588 -0.34771,1.04313 -0.11591,0.41725 -0.11591,0.55634 0.11591,0.39407 0.20863,0.8345 -0.13908,0.62588 -0.30135,1.25176 -0.13908,0.62588 -0.27817,1.22858 -0.25499,0.81133 -0.67224,1.18222 -0.41725,0.39407 -0.97359,0.39407 -0.30135,0 -0.46361,-0.27817 -0.13909,-0.25499 -0.13909,-0.78814 0,-0.23181 0.0695,-0.67224 0.0927,-0.44044 0.0927,-0.67225 0,-0.16226 -0.0464,-0.44043 -0.0464,-0.27817 -0.0464,-0.4868 0,-0.64906 0.11591,-2.06308 0.13908,-1.43721 0.13908,-2.15581 -0.1159,-0.39407 -0.23181,-0.81132 0.0696,-0.44044 0.0927,-0.88087 0.0232,-0.46362 -0.0232,-0.85769 l 0.34771,-0.62588 -0.30135,-2.15581 -0.16227,-0.0695 q -0.13908,0 -0.41725,0.11591 -0.25499,0.0927 -0.64906,0.32453 -0.27817,0.0927 -0.88087,0.20862 -0.57952,0.0927 -1.55311,0.11591 -0.41725,0.20862 -0.78814,0.37089 -0.53316,0.1159 -1.34448,0.41725 -0.81133,0.27817 -1.87764,0.69542 -0.62588,0.30135 -1.15904,0.4868 -0.50998,0.16226 -0.85769,0.16226 -0.27817,0 -0.46361,0.20863 -0.18545,0.20863 -0.30135,0.6027 -0.0695,0.37089 -0.34771,1.01995 -0.25499,0.64906 -0.69542,1.62265 -0.0927,0.25499 -0.25499,0.78815 -0.16227,0.53315 -0.37089,1.3213 -0.13909,0.30135 -0.32453,0.76496 -0.18545,0.44044 -0.41726,1.04314 0,0.27816 -0.0695,0.69542 -0.0464,0.39407 -0.16226,0.92723 -0.11591,0.32453 -0.32453,0.81132 -0.18545,0.50998 -0.4868,1.11268 -0.18545,0.37089 -0.53316,0.53315 -0.34771,0.18545 -0.90404,0.18545 -0.39408,0 -0.6027,-0.27817 -0.23181,-0.25499 -0.23181,-0.81132 0,-0.6027 0.13908,-1.39085 0.13909,-0.76496 0.44044,-1.69219 0.32453,-1.22858 0.55633,-1.99354 0.23181,-0.76497 0.25499,-1.13586 0.0695,-0.16227 0.20863,-0.57952 0.13908,-0.41725 0.32453,-1.01995 0.20863,-0.57952 0.39407,-1.3213 l -0.1159,-0.18545 -0.74178,0.11591 q -0.25499,-0.0232 -0.3709,-0.20863 -0.1159,-0.18545 -0.1159,-0.4868 0,-0.16226 0.0464,-0.34771 0.0464,-0.20862 0.13909,-0.48679 z m 8.4146,-4.26526 q 0.53316,0 1.57629,-0.25498 1.04313,-0.25499 1.57629,-0.25499 0.32453,0.0695 0.64906,0.1159 0.57952,-0.1159 1.13586,-0.25499 0.55633,-0.16226 1.13585,-0.27817 0.23181,-0.0464 0.34771,-0.16226 0.11591,-0.13909 0.11591,-0.34771 -0.0464,-0.69542 -0.0464,-0.95041 0,-0.44044 0.0464,-0.97359 0.0695,-0.55634 0.18544,-1.13586 l -0.27817,-1.04313 0.0927,-0.95041 q -0.0927,-0.50998 -0.16227,-0.95041 -0.0464,-0.46361 0,-0.76496 -0.0464,-0.0927 -0.16226,-0.30135 -0.11591,-0.20863 -0.25499,-0.44044 -0.23181,-0.39407 -0.4868,-0.74178 -0.23181,-0.37089 -0.46361,-0.74178 -0.32453,-0.44044 -0.69542,-0.64906 -0.3709,-0.20863 -0.76497,-0.20863 -0.46361,0 -0.95041,0.74178 -0.48679,0.74179 -0.90405,2.24853 -0.0695,0.18545 -0.39407,0.76497 -0.30135,0.57951 -0.88087,1.50674 -0.0927,0.88087 -0.62588,2.20217 -0.53315,1.29812 -1.48356,3.05986 -0.11591,0.16226 -0.13909,0.27817 0,0.1159 0,0.25499 0,0.16226 0.0695,0.25498 0.0927,0.0696 0.25499,0.0696 0.23181,0 0.74179,-0.0464 0.53315,-0.0464 0.76496,-0.0464 z"
         style="font-style:normal;font-variant:normal;font-weight:normal;font-stretch:normal;font-size:47.47413254px;font-family:Mistral;-inkscape-font-specification:Mistral;fill:#ffffff"
         id="path5296" />
      <path
         d="m -118.98564,185.31399 -0.3709,-1.50675 q 0.13909,-0.46362 0.27817,-0.92723 0.13909,-0.4868 0.25499,-0.95041 0.13908,-0.32453 0.46361,-0.4868 0.34772,-0.18544 0.90405,-0.18544 0.20863,0 0.62588,-0.0927 0.44044,-0.0927 0.62588,-0.0927 0.20863,0 0.55634,0.32453 0.34771,0.32453 0.4868,0.37089 0.16226,-0.1159 0.39407,-0.39407 0.25499,-0.27817 0.6027,-0.74178 0.30135,-0.37089 0.57951,-0.6027 0.27817,-0.23181 0.6027,-0.32453 0.3709,0.18544 0.64906,0.30135 0.16227,0.0927 0.20863,0.20862 0.0695,0.11591 0.0695,0.32453 0,0.11591 -0.1159,0.50998 -0.1159,0.37089 -0.34771,1.01995 -0.25499,0.69542 -0.39407,1.15904 -0.13909,0.46361 -0.18545,0.7186 -0.34771,0.53316 -0.55634,0.97359 -0.18544,0.41726 -0.18544,0.78815 0,0.46361 0.27817,1.39084 0.27816,0.90405 0.81132,2.27171 0.74178,1.85446 1.50675,3.87118 0.69542,2.22535 1.46038,4.31162 0.76497,2.06308 1.59947,3.9639 0.85769,1.99355 1.41403,2.96714 0.55634,0.97359 0.83451,0.97359 0.2318,0 0.32453,-0.25499 0.1159,-0.27817 0.1159,-0.85769 0,-0.2318 0.0464,-0.6027 0.0695,-0.37089 0.20863,-0.81132 0.20862,-0.62588 0.39407,-1.41403 0.23181,-1.20539 0.41725,-2.10944 0.20863,-0.90405 0.34771,-1.55311 0.0927,-0.41725 0.20863,-1.76174 0.1159,-1.34448 0.23181,-3.63937 0,-0.23181 0.0695,-0.64906 0.0927,-0.41725 0.16226,-0.95041 0.0927,-0.53316 0.13909,-0.90405 0.0464,-0.39407 0.0464,-0.69542 0,-0.53316 -0.1159,-1.57629 -0.11591,-1.06631 -0.11591,-1.59947 0.34771,-1.46039 0.64906,-2.85123 0.25499,-1.2054 0.4868,-1.99354 0.23181,-0.81133 0.39407,-1.22858 0.37089,-0.83451 0.90405,-1.43721 0.53316,-0.62588 1.182217,-1.01995 l 0.185446,0 q 0.231807,0 0.301349,0.0927 0.09272,0.0927 0.09272,0.30135 -0.115903,0.4868 -0.208626,0.74179 0.06954,0.41725 0.139084,0.88086 -0.06954,0.57952 -0.162265,0.97359 -0.04636,0.25499 -0.09272,0.78815 -0.04636,0.50998 -0.04636,1.25176 0,0.27817 -0.06954,1.2054 -0.06954,0.90405 -0.254988,2.43397 -0.139083,2.17899 -0.347713,4.3348 -0.18544,2.15581 -0.39407,4.31162 -0.18545,2.59624 -0.53316,4.75204 -0.34771,2.13263 -0.8345,3.82483 -0.11591,1.01995 -0.44044,2.27171 -0.30135,1.25176 -0.78814,2.71214 l -0.7186,1.15904 q -0.0695,0.0927 -1.46039,0.6027 -1.39084,0.48679 -1.55311,0.48679 -0.34771,0 -1.04313,-0.90405 -0.69542,-0.92723 -1.64583,-2.80486 -0.90405,-1.6922 -1.43721,-2.78169 -0.53316,-1.11268 -0.67224,-1.66901 -0.0464,-0.20863 -0.13908,-0.53316 -0.0927,-0.32453 -0.20863,-0.74178 -0.46362,-1.01996 -1.18222,-2.5267 -0.69542,-1.50675 -1.62265,-3.56984 -0.16226,-0.50997 -0.41725,-0.97359 -0.23181,-0.48679 -0.57952,-1.01995 l -0.16227,0.0695 q -0.16226,0.46362 -0.32453,1.15904 -0.16226,0.69542 -0.37089,1.66901 -0.2318,0.62588 -0.48679,1.11268 -0.34771,1.34448 -0.78815,2.92077 -0.44043,1.57629 -0.95041,3.38439 -0.13908,0.60269 -0.27817,1.25176 -0.13908,0.64906 -0.32453,1.34448 l -0.41725,0.76496 q -0.0927,0.69542 -0.20863,1.36766 -0.16226,0.53316 -0.41725,1.29813 -0.23181,0.74178 -0.57952,1.78491 -0.0695,0.53316 -0.34771,0.78815 -0.25499,0.27816 -0.7186,0.30135 -0.0464,0.0927 -0.18545,0.18544 -0.13908,0.11591 -0.46361,0.20863 -0.23181,0.0464 -0.34771,-0.25499 -0.11591,-0.27817 -0.11591,-0.83451 0,-0.32453 0.11591,-1.01995 0.1159,-0.69542 0.34771,-1.76173 0.25499,-1.2054 0.39407,-1.87764 0.16227,-0.69542 0.20863,-0.88087 0.0927,-0.55634 0.20862,-1.46039 0.11591,-0.90404 0.25499,-2.08626 0.0464,-0.30135 0.13909,-0.74179 0.1159,-0.46361 0.27817,-1.06631 0.1159,-0.46361 0.46361,-2.50352 0.34771,-2.06308 0.90405,-5.72564 0.6027,-3.59301 1.15904,-7.23238 z"
         style="font-style:normal;font-variant:normal;font-weight:normal;font-stretch:normal;font-size:47.47413254px;font-family:Mistral;-inkscape-font-specification:Mistral;fill:#ffffff"
         id="path5298" />
      <path
         d="m -94.808147,178.1975 q 0.95041,-0.27817 2.063085,-0.41725 1.135856,-0.13909 2.503519,-0.13909 0.254988,0 0.741783,0.0927 0.509976,0.0695 0.811325,0.0695 0.440434,0.0695 0.672242,0.13908 0.254988,0.0695 0.695421,0.16227 l 0.649061,-0.18545 q 0.208626,0.0232 0.440434,0.18545 0.254988,0.13908 0.602699,0.32453 0.185445,-0.1159 0.533156,-0.27817 0.347711,0 0.556338,0.27817 0.231807,0.25499 0.301349,0.74178 0,0.37089 0,0.74179 0,0.34771 -0.04636,0.74178 -0.02318,0.18544 0.02318,0.57952 0.04636,0.39407 0.04636,0.6027 0,0.25498 -0.115904,0.37089 -0.115903,0.1159 -0.301349,0.1159 -0.880868,0 -1.738555,-0.13908 -0.857687,-0.16227 -1.715374,-0.46362 -0.741783,0.13909 -1.29812,0.20863 -0.440434,0.0464 -0.649061,0.13908 -0.208626,0.0927 -0.208626,0.23181 0.09272,0.16227 0.254988,0.34771 0.162265,0.18545 0.394072,0.34771 0.162265,0.11591 0.370892,0.50998 0.208626,0.37089 0.440434,1.01995 0.09272,0.25499 0.115903,0.4868 0.04636,0.2318 0.04636,0.44043 0,0.48679 -0.09272,1.22858 -0.09272,0.7186 -0.208627,1.18222 -0.208626,0.90404 -0.32453,1.50674 -0.115904,0.57952 -0.185446,0.88087 -0.04636,0.23181 -0.06954,0.55634 -0.02318,0.32453 -0.04636,0.74178 -0.02318,0.34771 -0.185445,0.88087 -0.162265,0.50997 -0.324531,1.18222 0,0.30135 -0.06954,0.69542 -0.06954,0.39407 -0.185446,0.90405 -0.06954,0.30135 -0.231807,0.69542 -0.139084,0.37089 -0.278169,0.88087 0.04636,0.34771 0.06954,0.7186 -0.09272,0.64906 -0.185446,1.34448 -0.139085,0.99677 -0.278169,2.01672 -0.139084,1.01996 -0.254988,1.97037 -0.139084,0.27816 -0.301349,0.62588 0,0.16226 0.04636,0.50997 0.06954,0.32453 0.06954,0.53316 0,0.25499 -0.09272,0.76496 -0.09272,0.4868 -0.09272,0.71861 0,0.44043 -0.02318,1.36766 -0.02318,0.92723 -0.02318,1.39084 0.115904,0.39407 0.208626,0.76497 -0.06954,0.32453 -0.162265,0.53315 -0.06954,0.18545 -0.208626,0.30135 -0.417253,0.25499 -0.764964,0.41726 -0.231808,0.2318 -0.394073,0.37089 -0.139084,0.13908 -0.254988,0.13908 -0.509976,0 -0.718602,-0.13908 -0.208627,-0.13909 -0.208627,-0.37089 0.04636,-0.76497 0.162265,-1.48357 -0.04636,-0.0927 -0.115903,-0.27817 -0.04636,-0.18545 -0.162265,-0.46361 -0.115904,-1.8081 -0.30135,-3.70892 0.06954,-1.36766 0.06954,-2.75851 0,-0.64906 0.04636,-1.62265 0.06954,-0.99677 0.231807,-2.29489 0.162265,-1.29812 0.231807,-2.27171 0.06954,-0.97359 0.06954,-1.59947 0,-0.27817 0.04636,-0.69542 0.06954,-0.44044 0.139084,-1.06632 0.06954,-0.53315 0.139085,-0.95041 0.06954,-0.44043 0.06954,-0.78814 0,-0.18545 -0.02318,-0.39408 -0.02318,-0.20862 -0.04636,-0.37089 0.231807,-0.57952 0.347711,-0.92723 0.115903,-0.37089 0.115903,-0.48679 -0.09272,-0.30135 -0.208626,-0.6027 0.139084,-0.32453 0.301349,-1.15904 0.162265,-0.85768 0.347711,-2.22535 0,-0.27817 0,-0.67224 0,-0.39407 0.02318,-0.95041 l -0.139085,-0.41725 q -0.09272,-0.0464 -0.347711,-0.1159 -0.231807,-0.0695 -0.602698,-0.11591 l -0.30135,0.20863 q -0.301349,0.0695 -0.62588,0.13908 -0.301349,0.0695 -0.64906,0.16227 -2.410796,0.67224 -4.775229,1.3213 -0.18545,0 -0.30135,-0.13908 -0.1159,-0.16227 -0.1159,-0.41726 0,-0.13908 0.1159,-0.48679 0.1159,-0.34771 0.37089,-0.90405 0.0464,-0.81133 0.1159,-1.34448 0.0695,-0.53316 0.16227,-0.81133 0.185446,-0.50998 0.579518,-0.85769 0.370892,-0.34771 0.904048,-0.53315 1.066314,-0.34771 1.993543,-0.46362 0.927229,-0.1159 1.715374,-0.0232 z"
         style="font-style:normal;font-variant:normal;font-weight:normal;font-stretch:normal;font-size:47.47413254px;font-family:Mistral;-inkscape-font-specification:Mistral;fill:#ffffff"
         id="path5300" />
      <path
         d="m -83.287325,200.08011 q 0.64906,0.16226 1.089494,0.34771 0.788145,-0.13908 1.59947,-0.30135 l 4.311616,0 q 0.62588,0 0.904048,0.32453 0.278169,0.32453 0.278169,0.97359 0,0.92723 -0.394072,1.39085 -0.370892,0.46361 -1.089494,0.46361 -0.231808,0 -0.718603,-0.0695 -0.486795,-0.0695 -0.718603,-0.0695 l -1.321301,0 q -0.834506,0.16226 -1.669013,0.30135 -2.016723,-0.32454 -2.24853,-0.32454 -0.30135,0 -0.811326,0.0927 -0.486795,0.0695 -0.788145,0.0695 -0.417253,0 -0.672241,-0.16227 -0.254988,-0.18544 -0.254988,-0.50997 0,-0.13909 0.231807,-0.39407 0.231808,-0.27817 0.672242,-0.67224 0.09272,-0.18545 0.231807,-0.46362 0.162265,-0.30135 0.370892,-0.69542 0.162265,-0.0232 0.394072,-0.0927 0.254988,-0.0927 0.602699,-0.20863 z"
         style="font-style:normal;font-variant:normal;font-weight:normal;font-stretch:normal;font-size:47.47413254px;font-family:Mistral;-inkscape-font-specification:Mistral;fill:#ffffff"
         id="path5302" />
      <path
         d="m -23.851938,200.08011 q 0.64906,0.16226 1.089494,0.34771 0.788145,-0.13908 1.59947,-0.30135 l 4.311616,0 q 0.625879,0 0.904048,0.32453 0.278169,0.32453 0.278169,0.97359 0,0.92723 -0.394073,1.39085 -0.370891,0.46361 -1.089494,0.46361 -0.231807,0 -0.718602,-0.0695 -0.486796,-0.0695 -0.718603,-0.0695 l -1.321302,0 q -0.834506,0.16226 -1.669012,0.30135 -2.016723,-0.32454 -2.248531,-0.32454 -0.301349,0 -0.811325,0.0927 -0.486796,0.0695 -0.788145,0.0695 -0.417253,0 -0.672241,-0.16227 -0.254988,-0.18544 -0.254988,-0.50997 0,-0.13909 0.231807,-0.39407 0.231807,-0.27817 0.672241,-0.67224 0.09272,-0.18545 0.231808,-0.46362 0.162265,-0.30135 0.370891,-0.69542 0.162265,-0.0232 0.394073,-0.0927 0.254988,-0.0927 0.602699,-0.20863 z"
         style="font-style:normal;font-variant:normal;font-weight:normal;font-stretch:normal;font-size:47.47413254px;font-family:Mistral;-inkscape-font-specification:Mistral;fill:#ffffff"
         id="path5304" />
      <path
         d="m -10.476656,188.00295 q -0.06954,-0.46361 -0.162265,-0.97359 0,0.20863 0.06954,-0.32453 0.06954,-0.53316 0.185446,-1.83128 0.185446,-0.25499 0.254988,-0.44043 0.09272,-0.20863 0.162265,-0.37089 -0.208627,-0.25499 -0.32453,-0.41726 -0.09272,-0.18544 -0.09272,-0.30135 0.185446,-1.41402 0.347711,-2.68896 0.02318,-0.34771 0.3940722,-0.78815 0.3940724,-0.44043 1.0663135,-0.95041 0.5331568,-0.44043 1.0431328,-0.74178 0.509976,-0.30135 0.9735906,-0.48679 0.6258797,-0.20863 0.7417833,-0.34772 0.1159037,-0.13908 0.2549881,-0.13908 0.3708916,0 0.5563374,0.37089 0.2086266,0.37089 0.2086266,1.11268 0,0.39407 -0.2086266,1.08949 -0.1854458,0.69542 -0.1854458,1.01995 0,0.13909 0.023181,1.06632 0.046361,0.92723 0.1159037,2.66578 0.023181,1.25176 0.3477109,2.66578 0.347711,1.41403 0.8808677,2.94396 0.7186026,1.99354 1.5531088,2.99031 0.8345063,0.97359 1.83127762,0.97359 0.78814478,0 2.08626558,-1.01995 1.2981208,-1.01995 3.0598562,-3.05986 1.3444823,-1.57629 2.3876151,-2.94395 1.0663135,-1.36766 1.7153739,-2.50352 0.6026989,-1.01995 1.4140247,-1.83128 0.811325,-0.81132 1.854458,-1.48356 0.32453,-0.18545 0.533157,-0.30135 0.208626,-0.11591 0.32453,-0.11591 0.417253,0 0.62588,0.62588 0.231807,0.62588 0.231807,1.85446 -0.139084,1.13586 -0.231807,2.24853 -0.208627,1.73856 -0.62588,3.6162 -0.394072,1.87764 -1.043133,3.89436 -0.32453,1.01995 -0.556337,1.78492 -0.231808,0.76496 -0.32453,1.29812 -0.04636,0.30135 -0.139085,0.76496 -0.06954,0.44043 -0.162265,1.04313 -0.231807,0.57952 -0.509976,1.15904 -0.2318073,0.46361 -0.3940724,1.11267 -0.1390843,0.64906 -0.254988,1.50675 0,0.16227 -0.023181,0.41725 -0.023181,0.25499 -0.046361,0.53316 -0.5331567,2.36444 -1.0894942,4.58979 -0.046362,0.20862 -0.2086266,0.53315 -0.3013494,0.0927 -0.6954218,0.39408 -0.3708917,0.30134 -0.7881448,0.8345 -0.4172531,0.46362 -0.6954219,0.69542 -0.2781687,0.20863 -0.4172531,0.20863 -0.1854458,0 -0.3013495,-0.1159 -0.1159036,-0.11591 -0.1159036,-0.39408 0.023181,-0.18544 0.069542,-0.30135 0.3245302,-0.78814 0.5563375,-2.27171 0.254988,-1.48356 0.4636145,-3.66255 0.023181,-0.46362 0.3708917,-2.50352 0.3477109,-2.03991 1.0199521,-5.6561 0.092723,-0.57952 0.2318073,-1.41402 0.1622651,-0.85769 0.3940723,-1.94718 0.1622651,-0.55634 0.2549881,-0.95041 0.1159036,-0.41726 0.1159036,-0.6027 0,-0.23181 -0.092723,-0.32453 -0.069542,-0.11591 -0.2318073,-0.11591 -0.1390844,0 -0.509976,0.37089 -0.3708917,0.34772 -0.9272292,1.06632 -0.3245302,0.39407 -0.6722411,0.8345 -0.3245302,0.44044 -0.6954219,0.85769 -0.6258797,0.64906 -1.1590364,1.22858 l -1.715374,1.71537 q -0.2318072,0.13909 -0.5795182,0.34771 -0.3245302,0.20863 -0.7881448,0.4868 -0.4404338,0.69542 -1.41402441,1.2054 -0.95040989,0.48679 -1.76173539,0.48679 -0.9735906,0 -1.877639,-0.6027 -0.8808677,-0.62588 -1.715374,-1.90082 -0.3708916,-0.62588 -0.7417833,-1.25175 -0.3477109,-0.62588 -0.764964,-1.25176 l -0.1159037,0.0232 q -0.1159036,0.13908 -0.4404338,1.87764 -0.3013495,1.73855 -0.7881448,5.09976 -0.5331568,3.45392 -0.8113255,5.42429 -0.2781687,1.97036 -0.2781687,2.54988 -0.046361,0.78814 -0.3013495,1.22858 -0.2318073,0.41725 -0.7417833,0.48679 -0.254988,0.0232 -0.718603,0.13908 -0.463614,0.0927 -1.112675,0.25499 -0.115903,-0.0232 -0.208626,-0.0695 -0.09272,-0.0695 -0.09272,-0.18545 l 0.139084,-0.85768 -0.231807,-0.88087 q 0.139084,-0.7186 0.278169,-1.39084 0.09272,-1.39085 0.162265,-2.61943 0.02318,-0.25498 0.162265,-0.85768 0.162265,-0.6027 0.162265,-0.90405 0,-0.16227 -0.06954,-0.46362 -0.06954,-0.32453 -0.06954,-0.48679 0,-1.27494 0.394072,-3.77846 0.417253,-2.50352 0.417253,-3.80164 -0.06954,-0.53316 -0.162265,-1.06631 0.115904,-0.83451 0.370892,-2.08627 0.254988,-1.25176 0.579518,-2.92077 z"
         style="font-style:normal;font-variant:normal;font-weight:normal;font-stretch:normal;font-size:47.47413254px;font-family:Mistral;-inkscape-font-specification:Mistral;fill:#ffffff"
         id="path5306" />
      <path
         d="m 33.52036,204.06719 0.880868,2.13263 q -0.254988,0.23181 -0.62588,0.50998 -0.347711,0.25499 -0.834506,0.55634 -0.486795,0.16226 -1.182217,0.46361 -0.672241,0.30135 -1.553109,0.69542 -0.672241,0.41725 -1.112675,0.62588 -0.417253,0.20863 -0.579518,0.20863 -0.30135,0 -1.112675,0.25499 -0.788145,0.25498 -2.086266,0.76496 -0.695421,0.25499 -1.483566,0.53316 -0.764964,0.25498 -1.599471,0.46361 l -1.437205,-0.30135 -0.880867,0.39407 q -0.440434,0 -0.904049,-0.0232 -0.440434,0 -0.857687,-0.0464 -0.672241,-0.0232 -1.019952,-0.18544 -0.32453,-0.16227 -0.32453,-0.46362 l 0.139084,-0.88087 -0.139084,-0.16226 q -0.788145,0 -1.066314,-0.20863 -0.254988,-0.20862 -0.254988,-0.97359 0,-0.34771 0.02318,-1.15903 0.04636,-0.81133 0.115904,-2.10945 0,-0.1159 0.139084,-0.4868 0.162265,-0.37089 0.162265,-0.53315 -0.115903,-0.23181 -0.139084,-0.37089 -0.02318,-0.13909 -0.02318,-0.25499 0.04636,-0.90405 0.185446,-2.22535 0.162265,-1.3213 0.394072,-3.1294 0.278169,-1.0895 0.463615,-2.45716 -0.04636,-1.01995 -0.09272,-2.08626 0.857687,-3.848 1.761735,-7.74237 0.139085,-0.69542 0.509976,-1.3213 0.394073,-0.62588 0.92723,-1.2054 0.231807,-0.16226 0.301349,-0.25498 0.115904,-0.20863 0.30135,-0.50998 0.185445,-0.32453 0.440433,-0.7186 0.139085,-0.0927 0.440434,-0.27817 0.32453,-0.18545 0.857687,-0.50998 0.231807,-0.18544 0.533157,-0.44043 0.301349,-0.25499 0.695422,-0.6027 0.880868,-0.53316 1.622651,-1.11268 0.764964,-0.60269 1.90082,-0.74178 0.533156,-0.0232 1.066313,-0.0464 0.533157,-0.0464 1.019952,-0.0927 0.463615,-0.0927 0.811326,-0.11591 0.231807,-0.0464 0.394072,-0.0927 0.185446,-0.0464 0.32453,-0.0464 0.139085,0 0.370892,0.0464 0.254988,0.0232 0.672241,0.0927 0.32453,0.0232 0.556338,0.0232 0.231807,0 0.440433,-0.0232 0.92723,0.27817 1.367663,0.81133 0.440434,0.53315 0.440434,1.27494 0,1.59947 -0.32453,2.38761 -0.301349,0.76497 -0.973591,0.76497 -0.509976,0 -1.159036,-0.50998 -0.64906,-0.53316 -3.50029,-0.53316 -1.182217,0.23181 -2.341254,0.46362 -0.115903,0.18544 -0.278168,0.27817 -0.139085,0.0927 -0.254988,0.13908 l -0.811326,-0.30135 q -0.370892,0.13909 -0.834506,0.76497 -0.463615,0.62588 -0.973591,1.71537 -0.115903,0.23181 -0.185446,0.57952 -0.04636,0.34771 -0.04636,0.81132 -0.417253,1.66902 -0.834506,3.22213 -0.394073,1.66901 -0.649061,2.5267 -0.231807,0.85768 -0.278168,1.04313 -0.06954,0.23181 -0.115904,0.44043 -0.04636,0.20863 -0.04636,0.41725 0,0.30135 0.115904,0.46362 0.115904,0.16226 0.347711,0.16226 0.208627,0 0.996771,-0.76496 0.811326,-0.76496 1.205398,-0.85769 0.486796,-0.13908 0.973591,-0.30135 0.509976,-0.16226 1.043133,-0.39407 0.208626,-0.0695 1.089494,-0.18544 0.904048,-0.11591 2.503519,-0.27817 l 0.64906,0.18544 1.228579,-0.2318 0.64906,0.30135 q 0.231807,0.2318 0.417253,0.57951 0.208627,0.32453 0.370892,0.71861 0,1.39084 -0.30135,2.10944 -0.301349,0.7186 -0.904048,0.7186 l -1.27494,-0.50997 q -1.57629,0.16226 -3.129399,0.32453 -1.529928,0.13908 -3.129398,0.27817 -1.947181,0.39407 -2.990314,1.27494 -1.043133,0.88087 -1.159036,2.31807 -0.02318,0.30135 -0.162265,0.92723 -0.139085,0.62588 -0.324531,1.55311 l 0.162265,0.69542 q -0.208626,0.99677 -0.32453,1.87764 -0.115903,0.88087 -0.115903,1.57629 0,0.23181 0.06954,0.34771 0.06954,0.0927 0.162265,0.0464 1.112675,-0.0927 1.784916,-0.13908 0.672241,-0.0464 0.95041,-0.0232 0.602699,0.0464 1.228579,0.0927 l 1.460385,-0.1159 q 0.231808,-0.0464 0.996772,-0.3709 0.788145,-0.32453 1.414024,-0.32453 0.672241,0 1.344482,-0.13908 0.695422,-0.13908 1.321302,-0.37089 0.62588,-0.23181 1.228579,-0.46362 0.625879,-0.25498 1.251759,-0.48679 0.231807,-0.0695 0.602699,-0.25499 0.394072,-0.18545 0.904048,-0.4868 z"
         style="font-style:normal;font-variant:normal;font-weight:normal;font-stretch:normal;font-size:47.47413254px;font-family:Mistral;-inkscape-font-specification:Mistral;fill:#ffffff"
         id="path5308" />
      <path
         d="m 38.156514,178.1975 q 0.95041,-0.27817 2.063085,-0.41725 1.135855,-0.13909 2.503518,-0.13909 0.254988,0 0.741784,0.0927 0.509976,0.0695 0.811325,0.0695 0.440434,0.0695 0.672241,0.13908 0.254988,0.0695 0.695422,0.16227 l 0.64906,-0.18545 q 0.208627,0.0232 0.440434,0.18545 0.254988,0.13908 0.602699,0.32453 0.185446,-0.1159 0.533157,-0.27817 0.347711,0 0.556338,0.27817 0.231807,0.25499 0.301349,0.74178 0,0.37089 0,0.74179 0,0.34771 -0.04636,0.74178 -0.02318,0.18544 0.02318,0.57952 0.04636,0.39407 0.04636,0.6027 0,0.25498 -0.115904,0.37089 -0.115904,0.1159 -0.301349,0.1159 -0.880868,0 -1.738555,-0.13908 -0.857687,-0.16227 -1.715374,-0.46362 -0.741783,0.13909 -1.298121,0.20863 -0.440434,0.0464 -0.64906,0.13908 -0.208627,0.0927 -0.208627,0.23181 0.09272,0.16227 0.254988,0.34771 0.162265,0.18545 0.394073,0.34771 0.162265,0.11591 0.370891,0.50998 0.208627,0.37089 0.440434,1.01995 0.09272,0.25499 0.115904,0.4868 0.04636,0.2318 0.04636,0.44043 0,0.48679 -0.09272,1.22858 -0.09272,0.7186 -0.208626,1.18222 -0.208627,0.90404 -0.32453,1.50674 -0.115904,0.57952 -0.185446,0.88087 -0.04636,0.23181 -0.06954,0.55634 -0.02318,0.32453 -0.04636,0.74178 -0.02318,0.34771 -0.185446,0.88087 -0.162265,0.50997 -0.32453,1.18222 0,0.30135 -0.06954,0.69542 -0.06954,0.39407 -0.185446,0.90405 -0.06954,0.30135 -0.231807,0.69542 -0.139085,0.37089 -0.278169,0.88087 0.04636,0.34771 0.06954,0.7186 -0.09272,0.64906 -0.185446,1.34448 -0.139084,0.99677 -0.278168,2.01672 -0.139085,1.01996 -0.254988,1.97037 -0.139085,0.27816 -0.30135,0.62588 0,0.16226 0.04636,0.50997 0.06954,0.32453 0.06954,0.53316 0,0.25499 -0.09272,0.76496 -0.09272,0.4868 -0.09272,0.71861 0,0.44043 -0.02318,1.36766 -0.02318,0.92723 -0.02318,1.39084 0.115903,0.39407 0.208626,0.76497 -0.06954,0.32453 -0.162265,0.53315 -0.06954,0.18545 -0.208627,0.30135 -0.417253,0.25499 -0.764964,0.41726 -0.231807,0.2318 -0.394072,0.37089 -0.139084,0.13908 -0.254988,0.13908 -0.509976,0 -0.718603,-0.13908 -0.208626,-0.13909 -0.208626,-0.37089 0.04636,-0.76497 0.162265,-1.48357 -0.04636,-0.0927 -0.115904,-0.27817 -0.04636,-0.18545 -0.162265,-0.46361 -0.115903,-1.8081 -0.301349,-3.70892 0.06954,-1.36766 0.06954,-2.75851 0,-0.64906 0.04636,-1.62265 0.06954,-0.99677 0.231808,-2.29489 0.162265,-1.29812 0.231807,-2.27171 0.06954,-0.97359 0.06954,-1.59947 0,-0.27817 0.04636,-0.69542 0.06954,-0.44044 0.139084,-1.06632 0.06954,-0.53315 0.139084,-0.95041 0.06954,-0.44043 0.06954,-0.78814 0,-0.18545 -0.02318,-0.39408 -0.02318,-0.20862 -0.04636,-0.37089 0.231808,-0.57952 0.347711,-0.92723 0.115904,-0.37089 0.115904,-0.48679 -0.09272,-0.30135 -0.208627,-0.6027 0.139085,-0.32453 0.30135,-1.15904 0.162265,-0.85768 0.347711,-2.22535 0,-0.27817 0,-0.67224 0,-0.39407 0.02318,-0.95041 l -0.139084,-0.41725 q -0.09272,-0.0464 -0.347711,-0.1159 -0.231807,-0.0695 -0.602699,-0.11591 l -0.301349,0.20863 q -0.30135,0.0695 -0.62588,0.13908 -0.301349,0.0695 -0.64906,0.16227 -2.410796,0.67224 -4.77523,1.3213 -0.185446,0 -0.30135,-0.13908 -0.115904,-0.16227 -0.115904,-0.41726 0,-0.13908 0.115904,-0.48679 0.115904,-0.34771 0.370892,-0.90405 0.04636,-0.81133 0.115903,-1.34448 0.06954,-0.53316 0.162265,-0.81133 0.185446,-0.50998 0.579519,-0.85769 0.370891,-0.34771 0.904048,-0.53315 1.066314,-0.34771 1.993543,-0.46362 0.927229,-0.1159 1.715374,-0.0232 z"
         style="font-style:normal;font-variant:normal;font-weight:normal;font-stretch:normal;font-size:47.47413254px;font-family:Mistral;-inkscape-font-specification:Mistral;fill:#ffffff"
         id="path5310" />
      <path
         d="m 66.900609,204.06719 0.880868,2.13263 q -0.254988,0.23181 -0.62588,0.50998 -0.347711,0.25499 -0.834506,0.55634 -0.486795,0.16226 -1.182217,0.46361 -0.672241,0.30135 -1.553109,0.69542 -0.672241,0.41725 -1.112675,0.62588 -0.417253,0.20863 -0.579518,0.20863 -0.301349,0 -1.112675,0.25499 -0.788145,0.25498 -2.086266,0.76496 -0.695421,0.25499 -1.483566,0.53316 -0.764964,0.25498 -1.599471,0.46361 l -1.437205,-0.30135 -0.880867,0.39407 q -0.440434,0 -0.904049,-0.0232 -0.440434,0 -0.857687,-0.0464 -0.672241,-0.0232 -1.019952,-0.18544 -0.32453,-0.16227 -0.32453,-0.46362 l 0.139084,-0.88087 -0.139084,-0.16226 q -0.788145,0 -1.066314,-0.20863 -0.254988,-0.20862 -0.254988,-0.97359 0,-0.34771 0.02318,-1.15903 0.04636,-0.81133 0.115904,-2.10945 0,-0.1159 0.139084,-0.4868 0.162265,-0.37089 0.162265,-0.53315 -0.115903,-0.23181 -0.139084,-0.37089 -0.02318,-0.13909 -0.02318,-0.25499 0.04636,-0.90405 0.185446,-2.22535 0.162265,-1.3213 0.394072,-3.1294 0.278169,-1.0895 0.463615,-2.45716 -0.04636,-1.01995 -0.09272,-2.08626 0.857687,-3.848 1.761735,-7.74237 0.139085,-0.69542 0.509976,-1.3213 0.394073,-0.62588 0.92723,-1.2054 0.231807,-0.16226 0.301349,-0.25498 0.115904,-0.20863 0.30135,-0.50998 0.185445,-0.32453 0.440433,-0.7186 0.139085,-0.0927 0.440434,-0.27817 0.32453,-0.18545 0.857687,-0.50998 0.231808,-0.18544 0.533157,-0.44043 0.301349,-0.25499 0.695422,-0.6027 0.880868,-0.53316 1.622651,-1.11268 0.764964,-0.60269 1.90082,-0.74178 0.533156,-0.0232 1.066313,-0.0464 0.533157,-0.0464 1.019952,-0.0927 0.463615,-0.0927 0.811326,-0.11591 0.231807,-0.0464 0.394072,-0.0927 0.185446,-0.0464 0.32453,-0.0464 0.139085,0 0.370892,0.0464 0.254988,0.0232 0.672241,0.0927 0.32453,0.0232 0.556338,0.0232 0.231807,0 0.440433,-0.0232 0.92723,0.27817 1.367663,0.81133 0.440434,0.53315 0.440434,1.27494 0,1.59947 -0.32453,2.38761 -0.301349,0.76497 -0.973591,0.76497 -0.509976,0 -1.159036,-0.50998 -0.64906,-0.53316 -3.50029,-0.53316 -1.182217,0.23181 -2.341254,0.46362 -0.115903,0.18544 -0.278168,0.27817 -0.139085,0.0927 -0.254988,0.13908 l -0.811326,-0.30135 q -0.370892,0.13909 -0.834506,0.76497 -0.463615,0.62588 -0.973591,1.71537 -0.115903,0.23181 -0.185446,0.57952 -0.04636,0.34771 -0.04636,0.81132 -0.417253,1.66902 -0.834506,3.22213 -0.394073,1.66901 -0.649061,2.5267 -0.231807,0.85768 -0.278168,1.04313 -0.06954,0.23181 -0.115904,0.44043 -0.04636,0.20863 -0.04636,0.41725 0,0.30135 0.115904,0.46362 0.115904,0.16226 0.347711,0.16226 0.208627,0 0.996771,-0.76496 0.811326,-0.76496 1.205398,-0.85769 0.486796,-0.13908 0.973591,-0.30135 0.509976,-0.16226 1.043133,-0.39407 0.208626,-0.0695 1.089494,-0.18544 0.904048,-0.11591 2.503519,-0.27817 l 0.64906,0.18544 1.228579,-0.2318 0.64906,0.30135 q 0.231807,0.2318 0.417253,0.57951 0.208627,0.32453 0.370892,0.71861 0,1.39084 -0.30135,2.10944 -0.301349,0.7186 -0.904048,0.7186 l -1.27494,-0.50997 q -1.57629,0.16226 -3.129398,0.32453 -1.529929,0.13908 -3.129399,0.27817 -1.947181,0.39407 -2.990314,1.27494 -1.043133,0.88087 -1.159036,2.31807 -0.02318,0.30135 -0.162265,0.92723 -0.139085,0.62588 -0.324531,1.55311 l 0.162265,0.69542 q -0.208626,0.99677 -0.32453,1.87764 -0.115903,0.88087 -0.115903,1.57629 0,0.23181 0.06954,0.34771 0.06954,0.0927 0.162265,0.0464 1.112675,-0.0927 1.784916,-0.13908 0.672241,-0.0464 0.95041,-0.0232 0.602699,0.0464 1.228579,0.0927 l 1.460385,-0.1159 q 0.231808,-0.0464 0.996772,-0.3709 0.788145,-0.32453 1.414024,-0.32453 0.672241,0 1.344483,-0.13908 0.695421,-0.13908 1.321301,-0.37089 0.62588,-0.23181 1.228579,-0.46362 0.625879,-0.25498 1.251759,-0.48679 0.231807,-0.0695 0.602699,-0.25499 0.394072,-0.18545 0.904048,-0.4868 z"
         style="font-style:normal;font-variant:normal;font-weight:normal;font-stretch:normal;font-size:47.47413254px;font-family:Mistral;-inkscape-font-specification:Mistral;fill:#ffffff"
         id="path5312" />
      <path
         d="m 75.639752,197.97066 q 0,0.46362 0.64906,1.25176 0.672241,0.76497 1.993543,1.90082 0.857687,0.7186 1.761735,1.41403 0.927229,0.67224 1.831278,1.36766 0.394072,0.32453 1.019952,0.85769 0.625879,0.50997 1.460386,1.20539 0.602699,0.46362 1.251759,0.92723 0.672241,0.46362 1.437205,0.92723 0.509976,0.39408 1.135856,0.85769 0.62588,0.46361 1.437205,0.99677 0.463615,0.27817 0.718603,1.01995 0.254988,0.71861 0.301349,1.87764 l -0.208626,0.6027 -0.231808,0.1159 q -0.231807,0 -0.625879,-0.20862 -0.370892,-0.18545 -0.95041,-0.55634 -0.115904,-0.0695 -1.066314,-0.50998 -0.927229,-0.44043 -2.688964,-1.25175 -0.973591,-0.41726 -1.784916,-0.92723 -0.811326,-0.53316 -1.483567,-1.11268 -0.394072,-0.34771 -1.019952,-0.76496 -0.602699,-0.41726 -1.437205,-0.90405 -0.857687,-0.4868 -1.483567,-0.92723 -0.62588,-0.44043 -0.996771,-0.74178 -1.25176,-1.01996 -2.039904,-1.55311 -0.788145,-0.53316 -1.089495,-0.53316 -0.231807,0.32453 -0.254988,0.67224 -0.278168,1.0895 -0.602699,2.75851 -0.301349,1.64583 -0.672241,3.848 0,0.39407 -0.139084,0.57952 -0.139084,0.20862 -0.417253,0.20862 -0.904049,0 -1.367663,-0.44043 -0.463615,-0.44043 -0.463615,-1.3213 0,-1.18222 0.139085,-2.48034 0.162265,-1.29812 0.509976,-2.73533 0.115903,-0.62587 0.162265,-1.11267 0.06954,-0.50998 0.06954,-0.92723 0,-1.06631 -0.927229,-1.83128 -0.904049,-0.76496 -0.904049,-1.08949 0,-0.50998 0.139085,-0.88087 0.162265,-0.39407 0.463614,-0.62588 0.764964,-0.48679 1.414025,-0.92723 0.162265,-0.0927 0.208626,-0.30135 0.06954,-0.2318 0.06954,-0.62588 0,-0.2318 0,-0.48679 0,-0.27817 0,-0.50998 0.06954,-2.06308 0.115904,-4.28843 0,-0.16227 0,-0.50998 0,-0.34771 -0.04636,-0.90405 -0.04636,-0.41725 -0.02318,-0.76496 0.02318,-0.37089 0.02318,-0.67224 -0.139085,-0.46362 -0.254988,-0.78815 -0.09272,-0.34771 -0.09272,-0.64906 0,-0.27817 0.04636,-0.85768 0.04636,-0.6027 0.04636,-0.85769 0,-0.32453 -0.06954,-0.90405 -0.04636,-0.57952 -0.04636,-0.88087 0,-0.8345 0.370892,-1.59947 0.394072,-0.76496 1.182217,-1.50675 0.764964,-0.64906 1.553109,-0.97359 0.811325,-0.34771 1.645831,-0.34771 0.394073,0 1.159037,0.0695 0.788145,0.0464 1.228578,0.0464 0.30135,0 1.645832,0.50997 0.533157,0.0464 0.95041,0.13909 0.417253,0.0695 0.672241,0.16226 0.579518,0.27817 0.904049,0.44044 0.32453,0.13908 0.463614,0.16226 0.394073,0.13909 0.672241,0.23181 0.30135,0.0927 0.486796,0.23181 0.301349,0.13908 0.695422,0.32453 0.417253,0.18544 0.927229,0.41725 0.834506,0.41725 1.553109,0.97359 0.741783,0.55634 1.390843,1.2054 0.741784,0.8345 1.112675,1.64583 0.370892,0.78814 0.370892,1.57629 0,0.23181 -0.04636,0.67224 -0.02318,0.41725 -0.115903,0.95041 -0.06954,0.67224 -0.695422,1.46039 -0.62588,0.76496 -1.808097,1.69219 -1.043133,0.81132 -1.947181,1.36766 -0.904049,0.53316 -1.669013,0.76497 -0.301349,0.20862 -0.463614,0.39407 -0.231807,0.23181 -0.973591,0.64906 -0.741783,0.41725 -2.016723,1.04313 -2.318073,1.13586 -3.291664,1.50675 -0.97359,0.34771 -0.97359,0.76496 z m -2.433977,-11.17311 q 0.440434,-0.32453 0.834506,-0.62588 0.394073,-0.32453 1.019952,-0.32453 0.278169,0 0.672242,0.62588 0.417253,0.6027 0.417253,0.90405 0,0.16227 -0.115904,0.74178 -0.115904,0.57952 -0.370892,1.57629 -0.533156,2.24853 -0.602699,2.82805 -0.06954,0.55634 -0.301349,1.76174 -0.09272,0.30135 -0.185446,0.78814 0,0.20863 0.06954,0.30135 0.09272,0.0927 0.231808,0.0927 4.612965,-2.31807 4.77523,-2.41079 0.185446,-0.0464 0.394072,-0.11591 0.208627,-0.0927 0.394073,-0.18544 l 0.34771,-0.44043 q 1.344483,-0.85769 2.781688,-1.83128 0.904048,-0.69542 1.344482,-1.36767 0.440434,-0.67224 0.440434,-1.34448 0,-0.85768 -0.996771,-1.69219 -0.996772,-0.83451 -2.990314,-1.59947 -1.692193,-0.67224 -3.083037,-0.97359 -1.390844,-0.32453 -2.5267,-0.32453 -1.483566,0 -2.24853,0.53315 -0.741784,0.50998 -0.741784,1.52993 0,0.78815 0.115904,1.2054 0.115904,0.39407 0.32453,0.34771 z"
         style="font-style:normal;font-variant:normal;font-weight:normal;font-stretch:normal;font-size:47.47413254px;font-family:Mistral;-inkscape-font-specification:Mistral;fill:#ffffff"
         id="path5314" />
    </g>
  </g>
</svg>
