<?xml version="1.0" encoding="UTF-8" standalone="no"?>
<!-- Created with Inkscape (http://www.inkscape.org/) -->

<svg
   xmlns:dc="http://purl.org/dc/elements/1.1/"
   xmlns:cc="http://creativecommons.org/ns#"
   xmlns:rdf="http://www.w3.org/1999/02/22-rdf-syntax-ns#"
   xmlns:svg="http://www.w3.org/2000/svg"
   xmlns="http://www.w3.org/2000/svg"
   xmlns:xlink="http://www.w3.org/1999/xlink"
   xmlns:sodipodi="http://sodipodi.sourceforge.net/DTD/sodipodi-0.dtd"
   xmlns:inkscape="http://www.inkscape.org/namespaces/inkscape"
   width="84.666664mm"
   height="17.484619mm"
   viewBox="0 0 299.99999 61.953375"
   id="svg4203"
   version="1.1"
   inkscape:version="0.91 r13725"
   sodipodi:docname="grantometer-v.svg">
  <defs
     id="defs4205">
    <linearGradient
       inkscape:collect="always"
       xlink:href="#linearGradient4179"
       id="linearGradient4185"
       x1="561.26532"
       y1="1308.9835"
       x2="303.14331"
       y2="815.25006"
       gradientUnits="userSpaceOnUse"
       gradientTransform="matrix(0.1099593,0.07580829,-0.07666368,0.11120003,55.245731,84.642188)" />
    <linearGradient
       inkscape:collect="always"
       id="linearGradient4179">
      <stop
         style="stop-color:#000000;stop-opacity:1;"
         offset="0"
         id="stop4181" />
      <stop
         style="stop-color:#000000;stop-opacity:0;"
         offset="1"
         id="stop4183" />
    </linearGradient>
  </defs>
  <sodipodi:namedview
     id="base"
     pagecolor="#ffffff"
     bordercolor="#666666"
     borderopacity="1.0"
     inkscape:pageopacity="0.0"
     inkscape:pageshadow="2"
     inkscape:zoom="2.8284271"
     inkscape:cx="168.10267"
     inkscape:cy="24.721174"
     inkscape:document-units="px"
     inkscape:current-layer="layer1"
     showgrid="false"
     fit-margin-top="0"
     fit-margin-left="0"
     fit-margin-right="0"
     fit-margin-bottom="0"
     inkscape:window-width="1400"
     inkscape:window-height="855"
     inkscape:window-x="40"
     inkscape:window-y="1"
     inkscape:window-maximized="1" />
  <metadata
     id="metadata4208">
    <rdf:RDF>
      <cc:Work
         rdf:about="">
        <dc:format>image/svg+xml</dc:format>
        <dc:type
           rdf:resource="http://purl.org/dc/dcmitype/StillImage" />
        <dc:title></dc:title>
      </cc:Work>
    </rdf:RDF>
  </metadata>
  <g
     inkscape:label="Layer 1"
     inkscape:groupmode="layer"
     id="layer1"
     transform="translate(132.46404,-165.5482)">
    <ellipse
       style="opacity:1;fill:#000000;fill-opacity:1;stroke:none;stroke-width:10;stroke-linecap:round;stroke-linejoin:round;stroke-miterlimit:4;stroke-dasharray:none;stroke-opacity:1"
       id="path4228"
       cx="15.796061"
       cy="225.61278"
       rx="16.140163"
       ry="2.1452115" />
    <path
       style="opacity:1;fill:#ffffff;fill-opacity:1;stroke:#000000;stroke-width:2.72279;stroke-linecap:round;stroke-linejoin:round;stroke-miterlimit:4;stroke-dasharray:none;stroke-opacity:1"
       d="m 42.574323,168.98282 a 8.4445429,8.0846695 34.583208 0 0 -10.848305,1.01225 l -0.02559,-0.0177 -0.112931,0.16381 a 8.4445429,8.0846695 34.583208 0 0 -0.554015,0.70503 8.4445429,8.0846695 34.583208 0 0 -0.435439,0.73015 L 20.120844,186.77347 A 20.388627,19.519743 34.583208 0 0 0.1577712,194.58766 20.388627,19.519743 34.583208 0 0 5.864341,222.23091 20.388627,19.519743 34.583208 0 0 33.72993,217.733 20.388627,19.519743 34.583208 0 0 33.937141,196.29036 l 10.446986,-15.15324 a 8.4445429,8.0846695 34.583208 0 0 0.553868,-0.70481 8.4445429,8.0846695 34.583208 0 0 0.435438,-0.73017 l 0.139389,-0.20218 -0.02559,-0.0177 a 8.4445429,8.0846695 34.583208 0 0 -2.912539,-10.49921 z"
       id="path4136"
       inkscape:connector-curvature="0" />
    <path
       id="path4155"
       d="m 37.355959,176.55202 a 6.3995641,6.3995641 0 0 0 -8.355092,0.96127 l -0.01974,-0.0136 -0.08939,0.12966 a 6.3995641,6.3995641 0 0 0 -0.437174,0.55902 6.3995641,6.3995641 0 0 0 -0.346042,0.57702 l -8.29342,12.02953 a 15.451199,15.451199 0 0 0 -15.468862,6.41523 15.451199,15.451199 0 0 0 3.950899,21.49113 15.451199,15.451199 0 0 0 21.4913,-3.95074 15.451199,15.451199 0 0 0 0.497283,-16.74355 l 8.2695,-11.99484 a 6.3995641,6.3995641 0 0 0 0.437057,-0.55886 6.3995641,6.3995641 0 0 0 0.346041,-0.57702 l 0.110335,-0.16004 -0.01974,-0.0136 a 6.3995641,6.3995641 0 0 0 -2.073408,-8.15089 z"
       style="opacity:1;fill:#ff0000;fill-opacity:1;stroke:#ff0000;stroke-width:0.51621538;stroke-linecap:round;stroke-linejoin:round;stroke-miterlimit:4;stroke-dasharray:none;stroke-opacity:1"
       inkscape:connector-curvature="0" />
    <path
       id="path4177"
       d="m 36.955808,176.77246 a 6.5688019,6.4251029 34.583208 0 0 -8.505508,0.88439 l -0.02046,-0.0142 -0.08974,0.13018 a 6.5688019,6.4251029 34.583208 0 0 -0.439508,0.56084 6.5688019,6.4251029 34.583208 0 0 -0.346833,0.57973 l -8.326513,12.07756 a 15.859811,15.512861 34.583208 0 0 -15.698697,6.32491 15.859811,15.512861 34.583208 0 0 4.252278,21.77381 15.859811,15.512861 34.583208 0 0 21.862739,-3.76955 15.859811,15.512861 34.583208 0 0 0.331097,-16.92632 l 8.302503,-12.0427 a 6.5688019,6.4251029 34.583208 0 0 0.439391,-0.56069 6.5688019,6.4251029 34.583208 0 0 0.346833,-0.57974 l 0.11077,-0.16067 -0.01974,-0.0136 a 6.5688019,6.4251029 34.583208 0 0 -2.198819,-8.26417 z"
       style="opacity:1;fill:url(#linearGradient4185);fill-opacity:1;stroke:none;stroke-width:3.79181194;stroke-linecap:round;stroke-linejoin:round;stroke-miterlimit:4;stroke-dasharray:none;stroke-opacity:1"
       inkscape:connector-curvature="0" />
    <g
       id="g4213"
       transform="matrix(0.10347011,0.01076313,-0.00933107,0.08970314,50.676764,161.98439)">
      <circle
         r="34.516319"
         cy="485.09399"
         cx="-355.66815"
         id="path4209"
         style="opacity:1;fill:#000000;fill-opacity:1;stroke:none;stroke-width:10;stroke-linecap:round;stroke-linejoin:round;stroke-miterlimit:4;stroke-dasharray:none;stroke-opacity:1" />
      <rect
         transform="matrix(0.87284447,0.4879985,-0.4879985,0.87284447,0,0)"
         y="553.13422"
         x="-125.00571"
         height="34.516315"
         width="90.042564"
         id="rect4211"
         style="opacity:1;fill:#000000;fill-opacity:1;stroke:none;stroke-width:10;stroke-linecap:round;stroke-linejoin:round;stroke-miterlimit:4;stroke-dasharray:none;stroke-opacity:1" />
    </g>
    <g
       transform="matrix(-0.10347011,-0.01076313,-0.00933107,0.08970314,-8.591456,156.02462)"
       id="g4217">
      <circle
         style="opacity:1;fill:#000000;fill-opacity:1;stroke:none;stroke-width:10;stroke-linecap:round;stroke-linejoin:round;stroke-miterlimit:4;stroke-dasharray:none;stroke-opacity:1"
         id="circle4219"
         cx="-355.66815"
         cy="485.09399"
         r="34.516319" />
      <rect
         style="opacity:1;fill:#000000;fill-opacity:1;stroke:none;stroke-width:10;stroke-linecap:round;stroke-linejoin:round;stroke-miterlimit:4;stroke-dasharray:none;stroke-opacity:1"
         id="rect4221"
         width="90.042564"
         height="34.516315"
         x="-125.00571"
         y="553.13422"
         transform="matrix(0.87284447,0.4879985,-0.4879985,0.87284447,0,0)" />
    </g>
    <path
       style="opacity:1;fill:#000000;fill-opacity:1;stroke:none;stroke-width:10;stroke-linecap:round;stroke-linejoin:round;stroke-miterlimit:4;stroke-dasharray:none;stroke-opacity:1"
       d="m 22.152587,208.8085 a 10.567624,6.5101896 15.096689 0 0 -13.292908,1.75957 10.567624,6.5101896 15.096689 0 0 3.905412,8.44933 12.917689,7.0900224 34.780998 0 1 -1.011947,-7.57782 12.917689,7.0900224 34.780998 0 1 14.646057,1.52888 12.917689,7.0900224 34.780998 0 1 2.287472,1.81794 10.567624,6.5101896 15.096689 0 0 -6.534077,-5.97799 z"
       id="path4223"
       inkscape:connector-curvature="0" />
    <rect
       style="opacity:1;fill:#000000;fill-opacity:1;stroke:none;stroke-width:10;stroke-linecap:round;stroke-linejoin:round;stroke-miterlimit:4;stroke-dasharray:none;stroke-opacity:1"
       id="rect4230"
       width="7.9679284"
       height="1.6344532"
       x="122.1255"
       y="124.65782"
       transform="matrix(0.82330276,0.56760248,-0.56760248,0.82330276,0,0)" />
    <rect
       y="129.15256"
       x="122.1255"
       height="1.6344532"
       width="7.9679284"
       id="rect4232"
       style="opacity:1;fill:#000000;fill-opacity:1;stroke:none;stroke-width:10;stroke-linecap:round;stroke-linejoin:round;stroke-miterlimit:4;stroke-dasharray:none;stroke-opacity:1"
       transform="matrix(0.82330276,0.56760248,-0.56760248,0.82330276,0,0)" />
    <rect
       style="opacity:1;fill:#000000;fill-opacity:1;stroke:none;stroke-width:10;stroke-linecap:round;stroke-linejoin:round;stroke-miterlimit:4;stroke-dasharray:none;stroke-opacity:1"
       id="rect4234"
       width="7.9679284"
       height="1.6344532"
       x="122.1255"
       y="133.64728"
       transform="matrix(0.82330276,0.56760248,-0.56760248,0.82330276,0,0)" />
    <text
       xml:space="preserve"
       style="font-style:normal;font-variant:normal;font-weight:normal;font-stretch:normal;font-size:44.93232346px;line-height:125%;font-family:Mistral;-inkscape-font-specification:Mistral;letter-spacing:0px;word-spacing:0px;fill:#ffffff;fill-opacity:1;stroke:#ffffff;stroke-width:1.38862288;stroke-linecap:butt;stroke-linejoin:miter;stroke-miterlimit:4;stroke-dasharray:none;stroke-opacity:1;"
       x="-115.51649"
       y="216.26495"
       id="text4255"
       sodipodi:linespacing="125%"><tspan
         sodipodi:role="line"
         id="tspan4257"
         x="-115.51649"
         y="216.26495"
         style="font-style:normal;font-variant:normal;font-weight:normal;font-stretch:normal;font-family:Mistral;-inkscape-font-specification:Mistral;fill:#ffffff;stroke:#ffffff;stroke-width:1.38862288;stroke-miterlimit:4;stroke-dasharray:none;">GRANT-    -METER</tspan></text>
  </g>
</svg>
