<?xml version="1.0" encoding="UTF-8" standalone="no"?>
<!-- Created with Inkscape (http://www.inkscape.org/) -->

<svg
   xmlns:dc="http://purl.org/dc/elements/1.1/"
   xmlns:cc="http://creativecommons.org/ns#"
   xmlns:rdf="http://www.w3.org/1999/02/22-rdf-syntax-ns#"
   xmlns:svg="http://www.w3.org/2000/svg"
   xmlns="http://www.w3.org/2000/svg"
   xmlns:sodipodi="http://sodipodi.sourceforge.net/DTD/sodipodi-0.dtd"
   xmlns:inkscape="http://www.inkscape.org/namespaces/inkscape"
   width="120"
   height="500"
   viewBox="0 0 120.00001 499.99999"
   id="svg5057"
   version="1.1"
   inkscape:version="0.91 r13725"
   sodipodi:docname="grantometer.svg">
  <defs
     id="defs5059" />
  <sodipodi:namedview
     id="base"
     pagecolor="#ffffff"
     bordercolor="#666666"
     borderopacity="1.0"
     inkscape:pageopacity="0"
     inkscape:pageshadow="2"
     inkscape:zoom="0.7"
     inkscape:cx="-394.55168"
     inkscape:cy="140.61712"
     inkscape:document-units="px"
     inkscape:current-layer="layer1"
     showgrid="false"
     fit-margin-top="0"
     fit-margin-left="0"
     fit-margin-right="0"
     fit-margin-bottom="0"
     units="px"
     inkscape:window-width="1399"
     inkscape:window-height="855"
     inkscape:window-x="41"
     inkscape:window-y="1"
     inkscape:window-maximized="1" />
  <metadata
     id="metadata5062">
    <rdf:RDF>
      <cc:Work
         rdf:about="">
        <dc:format>image/svg+xml</dc:format>
        <dc:type
           rdf:resource="http://purl.org/dc/dcmitype/StillImage" />
        <dc:title />
      </cc:Work>
    </rdf:RDF>
  </metadata>
  <g
     inkscape:label="Layer 1"
     inkscape:groupmode="layer"
     id="layer1"
     transform="translate(-143.83739,-172.97931)">
    <g
       style="fill:none;fill-opacity:1;stroke:#000000;stroke-width:19.60443115;stroke-linecap:round;stroke-linejoin:round;stroke-miterlimit:4;stroke-dasharray:none;stroke-opacity:1"
       id="g5031"
       transform="matrix(0.19289667,0.16684879,-0.16684879,0.19289667,80.507048,239.8344)">
      <path
         style="opacity:1;fill:#ffffff;fill-opacity:1;stroke:none;stroke-width:19.60443115;stroke-linecap:round;stroke-linejoin:round;stroke-miterlimit:4;stroke-dasharray:none;stroke-opacity:1"
         d="m 735.85669,414.65035 a 118.55605,15.757449 0 0 0 -49.66211,12.80078 118.55605,15.757449 0 0 0 118.55664,15.75781 118.55605,15.757449 0 0 0 118.55665,-15.75781 118.55605,15.757449 0 0 0 -46.35938,-12.47266 149.76275,143.38045 0 0 1 -70.28516,16.84961 149.76275,143.38045 0 0 1 -70.80664,-17.17773 z"
         id="path5033"
         inkscape:connector-curvature="0"
         transform="matrix(0.75632585,-0.65419507,0.65419507,0.75632585,10.174361,594.84457)" />
      <path
         inkscape:connector-curvature="0"
         style="opacity:1;fill:none;fill-opacity:1;stroke:#ffffff;stroke-width:19.60443115;stroke-linecap:round;stroke-linejoin:round;stroke-miterlimit:4;stroke-dasharray:none;stroke-opacity:1"
         d="m 802.80273,-614.42578 a 60,60 0 0 0 -59.67382,53.84375 l -0.32618,0 0,6.15625 0,144.33594 a 150.00006,150.1505 0 0 0 -90,137.41601 150.00006,150.1505 0 0 0 150,150.15039 150.00006,150.1505 0 0 0 150,-150.15039 150.00006,150.1505 0 0 0 -90,-137.53125 l 0,-144.2207 0,-6.15625 -0.38281,0 a 60,60 0 0 0 -59.61719,-53.84375 z"
         transform="translate(0,552.36216)"
         id="path5035" />
      <path
         inkscape:connector-curvature="0"
         id="path5037"
         transform="matrix(0.75632585,-0.65419507,0.65419507,0.75632585,371.52697,1012.6104)"
         d="m 936.14258,-513.46094 -8.44531,9.76172 39.04882,33.77539 8.44336,-9.76367 -39.04687,-33.77344 z m -27.60547,31.91406 -8.44336,9.76172 18.26563,15.79883 1.01757,-1.17578 0.0117,0.0117 a 35,35 0 0 1 0.28906,-0.35742 35,35 0 0 1 8.47461,-7.07227 l -19.61523,-16.9668 z m 19.61523,16.9668 19.4336,16.8086 -8.44532,9.76171 -20.78124,-17.97656 -19.16016,22.1543 20.78125,17.97461 -8.44336,9.76172 -20.78125,-17.97657 -33.11328,38.28321 a 125,125 0 0 0 -146.52344,31.82617 125,125 0 0 0 12.76563,176.31445 125,125 0 0 0 176.31445,-12.76562 125,125 0 0 0 10.37695,-149.57032 l 61.74414,-71.38281 -0.0176,-0.0156 a 35,35 0 0 0 0.31641,-0.33203 35,35 0 0 0 -3.57422,-49.36914 35,35 0 0 0 -40.89258,-3.4961 z m -37.39648,40.50781 8.44336,-9.75976 -18.26758,-15.80078 -8.44336,9.76172 18.26758,15.79882 z m -147.95703,86.14649 a 43.310747,37.232189 31.03174 0 0 20.89844,26.05859 43.310747,37.232189 31.03174 0 0 30.09961,6.66211 l -8.70118,14.46485 a 43.310747,37.232189 31.03174 0 1 -12.28125,-0.23829 16.382164,16.382164 0 0 1 -2.13476,5.9043 16.382164,16.382164 0 0 1 -22.48438,5.5918 16.382164,16.382164 0 0 1 -5.59179,-22.48242 16.382164,16.382164 0 0 1 2.5664,-3.22071 43.310747,37.232189 31.03174 0 1 -11.07226,-18.27539 l 8.70117,-14.46484 z m 136.61719,0 8.70117,14.46484 a 37.232189,43.310747 58.96826 0 1 -11.07031,18.27539 16.382164,16.382164 0 0 1 2.5664,3.22071 16.382164,16.382164 0 0 1 -5.59375,22.48242 16.382164,16.382164 0 0 1 -22.48242,-5.5918 16.382164,16.382164 0 0 1 -2.13477,-5.9043 37.232189,43.310747 58.96826 0 1 -12.28125,0.23829 l -8.70117,-14.46485 a 37.232189,43.310747 58.96826 0 0 30.09961,-6.66211 37.232189,43.310747 58.96826 0 0 20.89649,-26.05859 z m -30.00782,93.13281 c 10.75877,-0.0182 21.59513,1.34231 31.95899,4.09961 a 10.001,10.001 0 1 1 -5.14258,19.32617 c -22.71477,-6.04326 -49.87386,-3.50135 -68.33984,5.89453 -9.23299,4.69795 -15.39359,10.5524 -18.57813,16.1543 -3.18454,5.6019 -3.76986,10.73581 -1.86523,16.41602 a 10.001,10.001 0 0 1 -9.35157,13.3125 10.001,10.001 0 0 1 -9.60937,-6.95508 c -3.68324,-10.98461 -2.16954,-22.78952 3.43945,-32.65625 5.609,-9.86673 14.93658,-18.01124 26.89453,-24.09571 14.94745,-7.60555 32.66247,-11.46571 50.59375,-11.49609 z"
         style="opacity:1;fill:#ffffff;fill-opacity:1;stroke:none;stroke-width:19.60443115;stroke-linecap:round;stroke-linejoin:round;stroke-miterlimit:4;stroke-dasharray:none;stroke-opacity:1" />
    </g>
    <g
       transform="matrix(0,1,-1,0,0,0)"
       style="font-style:normal;font-weight:normal;font-size:10.20177555px;line-height:125%;font-family:sans-serif;letter-spacing:0px;word-spacing:0px;fill:#000000;fill-opacity:1;stroke:none;stroke-width:1px;stroke-linecap:butt;stroke-linejoin:miter;stroke-miterlimit:4;stroke-dasharray:none;stroke-opacity:1"
       id="text5039">
      <path
         d="m 211.50527,-212.2445 q 0.89508,0.27241 1.82908,0.62266 0.934,0.31134 1.82909,0.66159 0.31133,0.15566 0.934,0.85616 0.66158,0.70051 1.67342,1.98476 1.12858,1.36208 1.32316,1.82908 0.2335,0.42808 0.85617,2.17933 0.42808,0.66159 1.08967,2.41284 0.7005,1.71233 0.7005,2.49067 0,1.401 -2.1015,3.42466 -2.1015,1.98476 -3.30792,1.98476 -0.77834,0 -1.1675,-0.467 -0.35025,-0.50592 -0.35025,-1.43992 -0.35025,-1.55667 -0.54484,-2.68525 -1.08966,-4.24192 -2.91875,-6.38234 -1.79017,-2.14042 -4.39758,-2.14042 -1.32317,0 -2.60742,0.467 -1.24533,0.42809 -2.29609,1.32317 -0.54483,0.42808 -1.43991,1.43992 -0.89509,1.01183 -2.14042,2.52958 -0.15567,0.27242 -0.42808,0.62267 -0.27242,0.35025 -0.66159,0.934 -0.35025,0.66158 -0.934,1.59558 -0.54483,0.89509 -1.36208,2.06259 -0.35025,1.01183 -0.7005,1.868 -0.35025,0.85617 -0.85617,1.59558 -0.11675,0.15567 -0.2335,0.62267 -0.11675,0.42808 -0.27242,1.1675 -0.27241,0.89508 -0.62266,1.94583 -0.31134,1.05076 -0.7005,2.29609 -0.62267,4.24192 -0.89509,6.73259 -0.27241,2.45175 -0.27241,3.19116 0,1.67342 0.27241,3.34684 0.31134,1.67342 0.934,3.34683 0.467,1.20642 0.89509,2.06259 0.42808,0.85616 0.81725,1.24533 0.58375,0.58375 1.47883,0.89509 0.89509,0.31133 1.98475,0.31133 1.55667,0 2.95767,-0.54483 1.401,-0.54484 2.60742,-1.51776 0.35025,-0.31133 1.401,-1.401 1.05075,-1.12858 2.84092,-3.0355 0.38916,-0.31133 0.934,-0.85616 0.58375,-0.58375 1.24533,-1.28426 0.73942,-1.01183 1.36209,-2.02366 0.66158,-1.01184 1.32316,-1.94584 0.81725,-1.05075 1.79017,-1.55666 1.01183,-0.50592 2.17933,-0.50592 1.59559,0 2.37392,0.7005 0.77834,0.7005 0.77834,2.1015 0,0.467 -0.27242,1.32317 -0.27242,0.81725 -0.35025,1.28425 -0.0778,0.7005 -0.2335,1.75125 -0.15567,1.01183 -0.35025,2.41283 -0.0778,1.75125 -0.38917,3.11334 -0.27241,1.36208 -0.77833,2.37392 -0.62267,1.32316 -1.08967,4.24191 -0.42808,2.91876 -1.08967,4.28084 -0.2335,0.38917 -0.42808,1.20642 -0.19458,0.85616 -0.42808,2.14041 -0.15567,0.81726 -0.38917,1.40101 -0.19458,0.58375 -0.58375,0.934 -0.31133,0.2335 -0.85617,0.50591 -0.54483,0.27242 -1.51775,0.58375 -0.15566,0.89509 -0.54483,1.32317 -0.38917,0.467 -1.05075,0.467 -0.54484,0 -0.85617,-0.467 -0.27242,-0.467 -0.27242,-1.51775 0,-0.38917 0.11675,-1.24533 0.15567,-0.81725 0.50592,-2.10151 0.15567,-0.62266 0.27242,-1.67341 0.11675,-1.05075 0.15566,-2.5685 0.0778,-0.77834 0.38917,-2.45176 0.35025,-1.67341 0.97292,-4.12516 l -0.50592,-2.52959 q 0.15567,-0.467 0.27242,-1.05075 0,-0.27242 -0.15567,-0.38917 -0.11675,-0.15566 -0.38917,-0.15566 -1.36208,0.934 -2.25716,1.79017 -1.98475,1.71233 -3.34684,2.802 -1.36208,1.08966 -2.1015,1.59558 -1.55667,1.01183 -3.15225,1.67342 -1.59558,0.66158 -3.269,0.89508 l -1.71234,-0.35025 q -0.77833,0.11675 -1.32316,0.2335 -0.85617,0 -1.82909,-0.42808 -0.97291,-0.42809 -2.1015,-1.24534 -0.97292,-0.77833 -1.82908,-1.868 -0.81725,-1.08966 -1.43992,-2.60741 -0.2335,-0.467 -0.58375,-1.86801 -0.35025,-1.401 -0.934,-3.58033 0.35025,-0.934 0.42808,-2.02367 0.0778,-1.08967 -0.0778,-2.335 l 0.77833,-5.8375 q 0.934,-7.31634 3.65817,-12.99817 2.76309,-5.68184 7.16067,-9.92376 1.47884,-1.47883 2.49067,-2.37392 1.01183,-0.89508 1.28425,-1.24533 0.85617,-0.66158 1.868,-1.32317 1.05075,-0.66158 2.25717,-1.32317 0.62267,-0.35025 1.401,-0.7005 0.81725,-0.38916 1.90692,-0.77833 l 3.61925,-0.42808 1.20642,0.31133 0.54483,-0.19458 z"
         style="font-style:normal;font-variant:normal;font-weight:normal;font-stretch:normal;font-size:79.70137024px;font-family:Mistral;-inkscape-font-specification:Mistral;fill:#ffffff"
         id="path5267" />
      <path
         d="m 234.97203,-180.5274 q 0,0.77833 1.08967,2.1015 1.12858,1.28425 3.34683,3.19116 1.43992,1.20642 2.95767,2.37392 1.55667,1.12859 3.07442,2.29609 0.66158,0.54483 1.71233,1.43991 1.05075,0.85617 2.45175,2.02367 1.01184,0.77834 2.10151,1.55667 1.12858,0.77833 2.41283,1.55667 0.85617,0.66158 1.90692,1.43991 1.05075,0.77834 2.41283,1.67342 0.77834,0.467 1.20642,1.71234 0.42808,1.20641 0.50592,3.15225 l -0.35025,1.01183 -0.38917,0.19458 q -0.38917,0 -1.05075,-0.35025 -0.62267,-0.31133 -1.59559,-0.934 -0.19458,-0.11675 -1.79016,-0.85616 -1.55667,-0.73942 -4.51434,-2.1015 -1.6345,-0.70051 -2.99658,-1.55667 -1.36209,-0.89509 -2.49067,-1.868 -0.66158,-0.58375 -1.71234,-1.28425 -1.01183,-0.7005 -2.41283,-1.51775 -1.43992,-0.81725 -2.49067,-1.55667 -1.05075,-0.73942 -1.67342,-1.24534 -2.1015,-1.71233 -3.42466,-2.60741 -1.32317,-0.89509 -1.82909,-0.89509 -0.38916,0.54484 -0.42808,1.12859 -0.467,1.82908 -1.01183,4.63108 -0.50592,2.76309 -1.12859,6.46017 0,0.66159 -0.2335,0.97292 -0.2335,0.35025 -0.7005,0.35025 -1.51775,0 -2.29608,-0.73942 -0.77834,-0.73942 -0.77834,-2.21825 0,-1.98475 0.2335,-4.16408 0.27242,-2.17934 0.85617,-4.59217 0.19458,-1.05075 0.27242,-1.868 0.11675,-0.85617 0.11675,-1.55667 0,-1.79017 -1.55667,-3.07442 -1.51775,-1.28425 -1.51775,-1.82908 0,-0.85617 0.2335,-1.47884 0.27242,-0.66158 0.77833,-1.05075 1.28425,-0.81725 2.37392,-1.55667 0.27242,-0.15566 0.35025,-0.50591 0.11675,-0.38917 0.11675,-1.05075 0,-0.38917 0,-0.81725 0,-0.467 0,-0.85617 0.11675,-3.46359 0.19458,-7.19959 0,-0.27241 0,-0.85616 0,-0.58375 -0.0778,-1.51775 -0.0778,-0.70051 -0.0389,-1.28426 0.0389,-0.62266 0.0389,-1.12858 -0.2335,-0.77833 -0.42808,-1.32317 -0.15567,-0.58375 -0.15567,-1.08966 0,-0.467 0.0778,-1.43992 0.0778,-1.01183 0.0778,-1.43992 0,-0.54483 -0.11675,-1.51775 -0.0778,-0.97292 -0.0778,-1.47883 0,-1.401 0.62267,-2.68525 0.66158,-1.28425 1.98475,-2.52959 1.28425,-1.08967 2.60742,-1.6345 1.36208,-0.58375 2.76308,-0.58375 0.66159,0 1.94584,0.11675 1.32317,0.0778 2.06258,0.0778 0.50592,0 2.76309,0.85617 0.89508,0.0778 1.59558,0.2335 0.7005,0.11675 1.12859,0.27242 0.97291,0.467 1.51775,0.73941 0.54483,0.2335 0.77833,0.27242 0.66158,0.2335 1.12858,0.38917 0.50592,0.15566 0.81725,0.38917 0.50592,0.2335 1.1675,0.54483 0.7005,0.31133 1.55667,0.7005 1.401,0.7005 2.60742,1.6345 1.24533,0.934 2.335,2.02367 1.24533,1.401 1.868,2.76308 0.62267,1.32317 0.62267,2.64634 0,0.38916 -0.0778,1.12858 -0.0389,0.7005 -0.19459,1.59558 -0.11675,1.12859 -1.1675,2.45176 -1.05075,1.28425 -3.0355,2.84091 -1.75125,1.36209 -3.269,2.29609 -1.51775,0.89508 -2.802,1.28425 -0.50592,0.35025 -0.77834,0.66158 -0.38916,0.38917 -1.6345,1.08967 -1.24533,0.7005 -3.38575,1.75125 -3.89167,1.90692 -5.52617,2.52958 -1.6345,0.58375 -1.6345,1.28426 z m -4.08625,-18.75785 q 0.73942,-0.54483 1.401,-1.05075 0.66158,-0.54483 1.71233,-0.54483 0.467,0 1.12859,1.05075 0.7005,1.01183 0.7005,1.51775 0,0.27242 -0.19459,1.24533 -0.19458,0.97292 -0.62266,2.64634 -0.89509,3.77492 -1.01184,4.74783 -0.11675,0.934 -0.50591,2.95767 -0.15567,0.50592 -0.31134,1.32317 0,0.35025 0.11675,0.50592 0.15567,0.15566 0.38917,0.15566 7.74442,-3.89167 8.01684,-4.04733 0.31133,-0.0778 0.66158,-0.19459 0.35025,-0.15566 0.66158,-0.31133 l 0.58375,-0.73942 q 2.25717,-1.43991 4.67001,-3.07441 1.51775,-1.1675 2.25716,-2.29609 0.73942,-1.12858 0.73942,-2.25717 0,-1.43991 -1.67342,-2.84091 -1.67341,-1.401 -5.02025,-2.68526 -2.84092,-1.12858 -5.17592,-1.6345 -2.335,-0.54483 -4.24192,-0.54483 -2.49066,0 -3.77491,0.89508 -1.24534,0.85617 -1.24534,2.56851 0,1.32316 0.19459,2.02366 0.19458,0.66159 0.54483,0.58375 z"
         style="font-style:normal;font-variant:normal;font-weight:normal;font-stretch:normal;font-size:79.70137024px;font-family:Mistral;-inkscape-font-specification:Mistral;fill:#ffffff"
         id="path5269" />
      <path
         d="m 257.07671,-173.87265 q -0.11675,-0.42809 -0.11675,-0.7005 -0.0389,-0.27242 -0.0389,-0.467 0,-1.28425 0.31133,-2.17934 0.31134,-0.934 0.93401,-1.55666 0.15566,-0.15567 0.77833,-0.467 0.66158,-0.31134 1.71233,-0.73942 0.73942,-0.35025 1.1675,-0.81725 0.467,-0.50592 0.50592,-1.20642 0.11675,-0.54483 0.467,-1.24533 0.35025,-0.7005 0.81725,-1.51775 0.15567,-0.2335 0.934,-2.68525 0.77834,-2.45176 2.17934,-7.19959 0.38916,-1.43992 0.77833,-2.49067 0.38917,-1.05075 0.66158,-1.79017 1.24534,-3.30791 2.02367,-4.31975 0.81725,-1.05075 1.20642,-1.71233 l 0,-0.19459 -1.20642,-1.90691 1.51775,-1.75125 1.94584,-0.38917 q 0.58375,-0.0778 1.05075,-1.08967 0.50591,-1.01183 1.71233,-2.21825 0.27242,-0.0778 0.85617,-0.467 0.62266,-0.42808 1.55666,-1.1675 0.81726,-0.66158 1.40101,-0.97292 0.58375,-0.31133 0.89508,-0.31133 1.05075,0 1.51775,0.42808 0.467,0.42809 0.467,1.12859 0,0.85616 -0.89508,2.49066 -0.89509,1.63451 -0.89509,2.49067 0,0.38917 0.15567,0.66159 0.19458,0.2335 0.42808,0.31133 l 4.67,2.52958 q 0.38917,0.15567 0.70051,1.24534 0.31133,1.05075 0.50591,2.91875 0.2335,1.55667 0.35025,2.60742 0.15567,1.01183 0.15567,1.6345 -0.27242,1.67342 -0.54483,3.38575 0.38916,2.17933 0.85616,4.59217 -0.2335,2.29608 -0.50591,4.67 0,0.2335 0.0778,0.42808 0.11675,0.15567 0.31133,0.19459 0.66159,0.0389 0.97292,0.35025 0.35025,0.31133 0.35025,0.85616 0,0.7005 -0.2335,1.12859 -0.19458,0.38917 -0.58375,0.62267 -0.50592,0.31133 -0.81725,0.54483 -0.27242,0.2335 -0.38917,0.38917 l 0.50592,2.41283 -0.7005,5.52617 q 0,0.7005 -0.11675,1.79017 -0.11675,1.08966 -0.35025,2.52958 -0.38917,1.05075 -0.58375,1.75125 -0.19459,0.7005 -0.19459,0.934 0.19459,0.66159 0.35025,1.401 -0.2335,1.05075 -0.50591,2.1015 -0.2335,1.05075 -0.467,2.06259 -0.42809,1.36208 -1.12859,1.98475 -0.7005,0.66158 -1.6345,0.66158 -0.50591,0 -0.77833,-0.467 -0.2335,-0.42808 -0.2335,-1.32316 0,-0.38917 0.11675,-1.12859 0.15567,-0.73942 0.15567,-1.12858 0,-0.27242 -0.0778,-0.73942 -0.0778,-0.467 -0.0778,-0.81725 0,-1.08967 0.19458,-3.46358 0.2335,-2.41284 0.2335,-3.61926 -0.19458,-0.66158 -0.38916,-1.36208 0.11675,-0.73942 0.15566,-1.47883 0.0389,-0.77834 -0.0389,-1.43992 l 0.58375,-1.05075 -0.50592,-3.61925 -0.27242,-0.11675 q -0.2335,0 -0.7005,0.19458 -0.42808,0.15567 -1.08966,0.54483 -0.467,0.15567 -1.47884,0.35025 -0.97292,0.15567 -2.60742,0.19459 -0.7005,0.35025 -1.32316,0.62266 -0.89509,0.19459 -2.25717,0.7005 -1.36209,0.467 -3.15225,1.1675 -1.05075,0.50592 -1.94584,0.81726 -0.85616,0.27241 -1.43991,0.27241 -0.467,0 -0.77834,0.35025 -0.31133,0.35025 -0.50592,1.01184 -0.11675,0.62266 -0.58375,1.71233 -0.42808,1.08967 -1.1675,2.72417 -0.15566,0.42808 -0.42808,1.32317 -0.27242,0.89508 -0.62267,2.21825 -0.2335,0.50591 -0.54483,1.28425 -0.31133,0.73941 -0.7005,1.75125 0,0.467 -0.11675,1.1675 -0.0778,0.66158 -0.27242,1.55667 -0.19458,0.54483 -0.54483,1.36208 -0.31133,0.85617 -0.81725,1.868 -0.31133,0.62267 -0.89508,0.89508 -0.58376,0.31134 -1.51776,0.31134 -0.66158,0 -1.01183,-0.467 -0.38917,-0.42809 -0.38917,-1.36209 0,-1.01183 0.2335,-2.335 0.2335,-1.28425 0.73942,-2.84092 0.54483,-2.06258 0.934,-3.34683 0.38917,-1.28425 0.42808,-1.90692 0.11675,-0.27241 0.35025,-0.97292 0.23351,-0.7005 0.54484,-1.71233 0.35025,-0.97292 0.66158,-2.21825 l -0.19458,-0.31133 -1.24534,0.19458 q -0.42808,-0.0389 -0.62266,-0.35025 -0.19459,-0.31133 -0.19459,-0.81725 0,-0.27242 0.0778,-0.58375 0.0778,-0.35025 0.2335,-0.81725 z m 14.12675,-7.16067 q 0.89509,0 2.64634,-0.42809 1.75125,-0.42808 2.64633,-0.42808 0.54484,0.11675 1.08967,0.19458 0.97292,-0.19458 1.90692,-0.42808 0.934,-0.27242 1.90692,-0.467 0.38916,-0.0778 0.58375,-0.27242 0.19458,-0.2335 0.19458,-0.58375 -0.0778,-1.1675 -0.0778,-1.59558 0,-0.73942 0.0778,-1.6345 0.11675,-0.934 0.31133,-1.90692 l -0.467,-1.75125 0.15567,-1.59558 q -0.15567,-0.85617 -0.27242,-1.59559 -0.0778,-0.77833 0,-1.28425 -0.0778,-0.15566 -0.27241,-0.50591 -0.19459,-0.35026 -0.42809,-0.73942 -0.38916,-0.66159 -0.81725,-1.24534 -0.38916,-0.62266 -0.77833,-1.24533 -0.54484,-0.73942 -1.1675,-1.08967 -0.62267,-0.35025 -1.28425,-0.35025 -0.77834,0 -1.59559,1.24534 -0.81725,1.24533 -1.51775,3.77492 -0.11675,0.31133 -0.66158,1.28425 -0.50592,0.97291 -1.47884,2.52958 -0.15566,1.47883 -1.05075,3.69709 -0.89508,2.17933 -2.49066,5.137 -0.19459,0.27241 -0.2335,0.467 0,0.19458 0,0.42808 0,0.27242 0.11675,0.42809 0.15566,0.11675 0.42808,0.11675 0.38917,0 1.24533,-0.0778 0.89509,-0.0778 1.28425,-0.0778 z"
         style="font-style:normal;font-variant:normal;font-weight:normal;font-stretch:normal;font-size:79.70137024px;font-family:Mistral;-inkscape-font-specification:Mistral;fill:#ffffff"
         id="path5271" />
      <path
         d="m 301.13039,-201.77591 -0.62267,-2.52959 q 0.2335,-0.77833 0.467,-1.55667 0.2335,-0.81725 0.42809,-1.59558 0.2335,-0.54483 0.77833,-0.81725 0.58375,-0.31133 1.51775,-0.31133 0.35025,0 1.05075,-0.15567 0.73942,-0.15567 1.05075,-0.15567 0.35025,0 0.934,0.54484 0.58375,0.54483 0.81725,0.62266 0.27242,-0.19458 0.66159,-0.66158 0.42808,-0.467 1.01183,-1.24533 0.50592,-0.62267 0.97292,-1.01184 0.467,-0.38917 1.01183,-0.54483 0.62267,0.31133 1.08967,0.50591 0.27242,0.15567 0.35025,0.35025 0.11675,0.19459 0.11675,0.54484 0,0.19458 -0.19458,0.85617 -0.19459,0.62266 -0.58375,1.71233 -0.42809,1.1675 -0.66159,1.94583 -0.2335,0.77834 -0.31133,1.20642 -0.58375,0.89508 -0.934,1.6345 -0.31133,0.7005 -0.31133,1.32317 0,0.77833 0.467,2.335 0.467,1.51775 1.36208,3.81384 1.24533,3.11333 2.52958,6.49908 1.1675,3.736 2.45176,7.2385 1.28425,3.46359 2.68525,6.65476 1.43991,3.34683 2.37391,4.98133 0.934,1.6345 1.401,1.6345 0.38917,0 0.54484,-0.42808 0.19458,-0.467 0.19458,-1.43992 0,-0.38916 0.0778,-1.01183 0.11675,-0.62267 0.35025,-1.36208 0.35025,-1.05075 0.66158,-2.37392 0.38917,-2.02367 0.7005,-3.54142 0.35025,-1.51775 0.58375,-2.60742 0.15567,-0.7005 0.35025,-2.95767 0.19458,-2.25716 0.38917,-6.10992 0,-0.38916 0.11675,-1.08966 0.15566,-0.7005 0.27241,-1.59559 0.15567,-0.89508 0.2335,-1.51775 0.0778,-0.66158 0.0778,-1.1675 0,-0.89508 -0.19459,-2.64633 -0.19458,-1.79017 -0.19458,-2.68525 0.58375,-2.45176 1.08967,-4.78676 0.42808,-2.02366 0.81725,-3.34683 0.38916,-1.36209 0.66158,-2.06259 0.62267,-1.401 1.51775,-2.41283 0.89509,-1.05075 1.98475,-1.71233 l 0.31134,0 q 0.38916,0 0.50591,0.15566 0.15567,0.15567 0.15567,0.50592 -0.19458,0.81725 -0.35025,1.24533 0.11675,0.7005 0.2335,1.47884 -0.11675,0.97291 -0.27242,1.6345 -0.0778,0.42808 -0.15566,1.32317 -0.0778,0.85616 -0.0778,2.1015 0,0.467 -0.11675,2.02366 -0.11675,1.51775 -0.42808,4.08626 -0.2335,3.65816 -0.58375,7.27742 -0.31133,3.61925 -0.66158,7.2385 -0.31134,4.35867 -0.89509,7.97792 -0.58375,3.58033 -1.401,6.42125 -0.19458,1.71234 -0.73942,3.81384 -0.50591,2.1015 -1.32316,4.55325 l -1.20642,1.94583 q -0.11675,0.15567 -2.45175,1.01184 -2.335,0.81725 -2.60742,0.81725 -0.58375,0 -1.75125,-1.51775 -1.1675,-1.55667 -2.76308,-4.70892 -1.51776,-2.84092 -2.41284,-4.67 -0.89508,-1.868 -1.12858,-2.802 -0.0778,-0.35025 -0.2335,-0.89509 -0.15567,-0.54483 -0.35025,-1.24533 -0.77834,-1.71234 -1.98475,-4.24192 -1.1675,-2.52959 -2.72417,-5.99317 -0.27242,-0.85617 -0.7005,-1.6345 -0.38917,-0.81725 -0.97292,-1.71234 l -0.27242,0.11675 q -0.27241,0.77834 -0.54483,1.94584 -0.27242,1.1675 -0.62267,2.802 -0.38916,1.05075 -0.81725,1.868 -0.58375,2.25717 -1.32316,4.9035 -0.73942,2.64634 -1.59559,5.68184 -0.2335,1.01183 -0.467,2.1015 -0.2335,1.08967 -0.54483,2.25717 l -0.7005,1.28425 q -0.15567,1.1675 -0.35025,2.29608 -0.27242,0.89509 -0.7005,2.17934 -0.38917,1.24533 -0.97292,2.99658 -0.11675,0.89509 -0.58375,1.32317 -0.42808,0.467 -1.20642,0.50592 -0.0778,0.15566 -0.31133,0.31133 -0.2335,0.19458 -0.77834,0.35025 -0.38916,0.0778 -0.58375,-0.42808 -0.19458,-0.467 -0.19458,-1.401 0,-0.54484 0.19458,-1.71234 0.19459,-1.1675 0.58375,-2.95767 0.42809,-2.02366 0.66159,-3.15225 0.27242,-1.1675 0.35025,-1.47883 0.15567,-0.934 0.35025,-2.45175 0.19458,-1.51775 0.42808,-3.5025 0.0778,-0.50592 0.2335,-1.24534 0.19459,-0.77833 0.467,-1.79017 0.19459,-0.77833 0.77834,-4.203 0.58375,-3.46358 1.51775,-9.61242 1.01183,-6.03209 1.94583,-12.142 z"
         style="font-style:normal;font-variant:normal;font-weight:normal;font-stretch:normal;font-size:79.70137024px;font-family:Mistral;-inkscape-font-specification:Mistral;fill:#ffffff"
         id="path5273" />
      <path
         d="m 341.7205,-213.72334 q 1.59558,-0.467 3.46358,-0.7005 1.90692,-0.2335 4.203,-0.2335 0.42809,0 1.24534,0.15567 0.85616,0.11675 1.36208,0.11675 0.73942,0.11675 1.12859,0.2335 0.42808,0.11675 1.1675,0.27242 l 1.08966,-0.31134 q 0.35025,0.0389 0.73942,0.31134 0.42808,0.2335 1.01183,0.54483 0.31134,-0.19458 0.89509,-0.467 0.58375,0 0.934,0.467 0.38916,0.42808 0.50591,1.24533 0,0.62267 0,1.24534 0,0.58375 -0.0778,1.24533 -0.0389,0.31134 0.0389,0.97292 0.0778,0.66158 0.0778,1.01183 0,0.42809 -0.19458,0.62267 -0.19459,0.19458 -0.50592,0.19458 -1.47883,0 -2.91875,-0.2335 -1.43992,-0.27241 -2.87984,-0.77833 -1.24533,0.2335 -2.17933,0.35025 -0.73942,0.0778 -1.08967,0.2335 -0.35025,0.15567 -0.35025,0.38917 0.15567,0.27241 0.42809,0.58375 0.27241,0.31133 0.66158,0.58375 0.27242,0.19458 0.62267,0.85616 0.35025,0.62267 0.73941,1.71234 0.15567,0.42808 0.19459,0.81725 0.0778,0.38917 0.0778,0.73942 0,0.81725 -0.15567,2.06258 -0.15566,1.20642 -0.35025,1.98475 -0.35025,1.51775 -0.54483,2.52959 -0.19458,0.97291 -0.31133,1.47883 -0.0778,0.38917 -0.11675,0.934 -0.0389,0.54483 -0.0778,1.24533 -0.0389,0.58375 -0.31133,1.47884 -0.27242,0.85616 -0.54483,1.98475 0,0.50592 -0.11675,1.1675 -0.11675,0.66158 -0.31134,1.51775 -0.11675,0.50592 -0.38916,1.1675 -0.2335,0.62267 -0.467,1.47883 0.0778,0.58375 0.11675,1.20642 -0.15567,1.08967 -0.31134,2.25717 -0.2335,1.67342 -0.467,3.38575 -0.2335,1.71233 -0.42808,3.30792 -0.2335,0.467 -0.50592,1.05075 0,0.27242 0.0778,0.85617 0.11675,0.54483 0.11675,0.89508 0,0.42808 -0.15567,1.28425 -0.15567,0.81725 -0.15567,1.20642 0,0.73942 -0.0389,2.29608 -0.0389,1.55667 -0.0389,2.335 0.19458,0.66159 0.35025,1.28425 -0.11675,0.54484 -0.27242,0.89509 -0.11675,0.31133 -0.35025,0.50591 -0.7005,0.42809 -1.28425,0.70051 -0.38917,0.38916 -0.66158,0.62266 -0.2335,0.2335 -0.42809,0.2335 -0.85616,0 -1.20641,-0.2335 -0.35025,-0.2335 -0.35025,-0.62266 0.0778,-1.28426 0.27241,-2.49067 -0.0778,-0.15567 -0.19458,-0.467 -0.0778,-0.31134 -0.27242,-0.77834 -0.19458,-3.0355 -0.50591,-6.22667 0.11675,-2.29608 0.11675,-4.63108 0,-1.08967 0.0778,-2.72417 0.11675,-1.67342 0.38917,-3.85275 0.27241,-2.17934 0.38916,-3.81384 0.11675,-1.6345 0.11675,-2.68525 0,-0.467 0.0778,-1.1675 0.11675,-0.73942 0.2335,-1.79017 0.11675,-0.89508 0.2335,-1.59558 0.11675,-0.73942 0.11675,-1.32317 0,-0.31133 -0.0389,-0.66158 -0.0389,-0.35025 -0.0778,-0.62267 0.38916,-0.97291 0.58375,-1.55666 0.19458,-0.62267 0.19458,-0.81726 -0.15567,-0.50591 -0.35025,-1.01183 0.2335,-0.54483 0.50592,-1.94583 0.27241,-1.43992 0.58375,-3.73601 0,-0.467 0,-1.12858 0,-0.66158 0.0389,-1.59558 l -0.2335,-0.7005 q -0.15566,-0.0778 -0.58375,-0.19459 -0.38916,-0.11675 -1.01183,-0.19458 l -0.50592,0.35025 q -0.50591,0.11675 -1.05075,0.2335 -0.50591,0.11675 -1.08966,0.27242 -4.04734,1.12858 -8.01684,2.21825 -0.31133,0 -0.50592,-0.2335 -0.19458,-0.27242 -0.19458,-0.7005 0,-0.2335 0.19458,-0.81725 0.19459,-0.58375 0.62267,-1.51775 0.0778,-1.36209 0.19458,-2.25717 0.11675,-0.89509 0.27242,-1.36209 0.31133,-0.85616 0.97292,-1.43991 0.62266,-0.58375 1.51775,-0.89509 1.79016,-0.58375 3.34683,-0.77833 1.55667,-0.19458 2.87984,-0.0389 z"
         style="font-style:normal;font-variant:normal;font-weight:normal;font-stretch:normal;font-size:79.70137024px;font-family:Mistral;-inkscape-font-specification:Mistral;fill:#ffffff"
         id="path5275" />
      <path
         d="m 361.06209,-176.98599 q 1.08967,0.27242 1.82908,0.58375 1.32317,-0.2335 2.68526,-0.50591 l 7.2385,0 q 1.05075,0 1.51775,0.54483 0.467,0.54483 0.467,1.6345 0,1.55667 -0.66158,2.335 -0.62267,0.77834 -1.82909,0.77834 -0.38916,0 -1.20641,-0.11675 -0.81726,-0.11675 -1.20642,-0.11675 l -2.21825,0 q -1.401,0.27241 -2.802,0.50591 -3.38576,-0.54483 -3.77492,-0.54483 -0.50592,0 -1.36209,0.15567 -0.81725,0.11675 -1.32316,0.11675 -0.7005,0 -1.12859,-0.27242 -0.42808,-0.31133 -0.42808,-0.85617 0,-0.2335 0.38917,-0.66158 0.38916,-0.467 1.12858,-1.12859 0.15567,-0.31133 0.38917,-0.77833 0.27241,-0.50592 0.62266,-1.1675 0.27242,-0.0389 0.66159,-0.15567 0.42808,-0.15566 1.01183,-0.35025 z"
         style="font-style:normal;font-variant:normal;font-weight:normal;font-stretch:normal;font-size:79.70137024px;font-family:Mistral;-inkscape-font-specification:Mistral;fill:#ffffff"
         id="path5277" />
      <path
         d="m 480.76981,-176.98599 q 1.08967,0.27242 1.82908,0.58375 1.32317,-0.2335 2.68525,-0.50591 l 7.23851,0 q 1.05075,0 1.51775,0.54483 0.467,0.54483 0.467,1.6345 0,1.55667 -0.66159,2.335 -0.62266,0.77834 -1.82908,0.77834 -0.38917,0 -1.20642,-0.11675 -0.81725,-0.11675 -1.20641,-0.11675 l -2.21826,0 q -1.401,0.27241 -2.802,0.50591 -3.38575,-0.54483 -3.77491,-0.54483 -0.50592,0 -1.36209,0.15567 -0.81725,0.11675 -1.32317,0.11675 -0.7005,0 -1.12858,-0.27242 -0.42808,-0.31133 -0.42808,-0.85617 0,-0.2335 0.38916,-0.66158 0.38917,-0.467 1.12859,-1.12859 0.15566,-0.31133 0.38916,-0.77833 0.27242,-0.50592 0.62267,-1.1675 0.27242,-0.0389 0.66158,-0.15567 0.42809,-0.15566 1.01184,-0.35025 z"
         style="font-style:normal;font-variant:normal;font-weight:normal;font-stretch:normal;font-size:79.70137024px;font-family:Mistral;-inkscape-font-specification:Mistral;fill:#ffffff"
         id="path5279" />
      <path
         d="m 503.22475,-197.26158 q -0.11675,-0.77833 -0.27242,-1.6345 0,0.35025 0.11675,-0.54483 0.11675,-0.89509 0.31134,-3.07442 0.31133,-0.42809 0.42808,-0.73942 0.15567,-0.35025 0.27242,-0.62267 -0.35025,-0.42808 -0.54484,-0.7005 -0.15566,-0.31133 -0.15566,-0.50591 0.31133,-2.37392 0.58375,-4.51434 0.0389,-0.58375 0.66158,-1.32317 0.66158,-0.73941 1.79017,-1.59558 0.89508,-0.73942 1.75125,-1.24533 0.85617,-0.50592 1.6345,-0.81725 1.05075,-0.35025 1.24533,-0.58375 0.19459,-0.2335 0.42809,-0.2335 0.62266,0 0.934,0.62266 0.35025,0.62267 0.35025,1.868 0,0.66159 -0.35025,1.82909 -0.31134,1.1675 -0.31134,1.71233 0,0.2335 0.0389,1.79017 0.0778,1.55667 0.19458,4.47542 0.0389,2.1015 0.58375,4.47542 0.58376,2.37391 1.47884,4.94242 1.20642,3.34683 2.60742,5.02025 1.401,1.6345 3.07441,1.6345 1.32317,0 3.50251,-1.71234 2.17933,-1.71233 5.137,-5.137 2.25717,-2.64633 4.00842,-4.94242 1.79016,-2.29608 2.87983,-4.203 1.01184,-1.71233 2.37392,-3.07442 1.36208,-1.36208 3.11333,-2.49066 0.54484,-0.31134 0.89509,-0.50592 0.35025,-0.19458 0.54483,-0.19458 0.7005,0 1.05075,1.05075 0.38917,1.05075 0.38917,3.11333 -0.2335,1.90692 -0.38917,3.77492 -0.35025,2.91875 -1.05075,6.071 -0.66158,3.15225 -1.75125,6.538 -0.54483,1.71234 -0.934,2.99659 -0.38917,1.28425 -0.54483,2.17933 -0.0778,0.50592 -0.2335,1.28425 -0.11675,0.73942 -0.27242,1.75126 -0.38917,0.97291 -0.85617,1.94583 -0.38916,0.77833 -0.66158,1.868 -0.2335,1.08967 -0.42808,2.52958 0,0.27242 -0.0389,0.70051 -0.0389,0.42808 -0.0778,0.89508 -0.89509,3.9695 -1.82909,7.7055 -0.0778,0.35025 -0.35025,0.89509 -0.50592,0.15566 -1.1675,0.66158 -0.62267,0.50592 -1.32317,1.401 -0.7005,0.77833 -1.1675,1.1675 -0.467,0.35025 -0.7005,0.35025 -0.31133,0 -0.50591,-0.19458 -0.19459,-0.19459 -0.19459,-0.66159 0.0389,-0.31133 0.11675,-0.50591 0.54484,-1.32317 0.934,-3.81384 0.42809,-2.49067 0.77834,-6.14883 0.0389,-0.77834 0.62266,-4.20301 0.58375,-3.42466 1.71234,-9.49567 0.15566,-0.97291 0.38916,-2.37391 0.27242,-1.43992 0.66159,-3.26901 0.27242,-0.934 0.42808,-1.59558 0.19459,-0.7005 0.19459,-1.01183 0,-0.38917 -0.15567,-0.54484 -0.11675,-0.19458 -0.38917,-0.19458 -0.2335,0 -0.85617,0.62267 -0.62266,0.58375 -1.55666,1.79016 -0.54484,0.66159 -1.12859,1.401 -0.54483,0.73942 -1.1675,1.43992 -1.05075,1.08967 -1.94583,2.06259 l -2.87984,2.87983 q -0.38916,0.2335 -0.97291,0.58375 -0.54484,0.35025 -1.32317,0.81725 -0.73942,1.1675 -2.37392,2.02367 -1.59558,0.81725 -2.95767,0.81725 -1.6345,0 -3.15225,-1.01183 -1.47883,-1.05076 -2.87983,-3.19117 -0.62267,-1.05075 -1.24534,-2.1015 -0.58375,-1.05075 -1.28425,-2.10151 l -0.19458,0.0389 q -0.19458,0.2335 -0.73942,3.15225 -0.50591,2.91875 -1.32316,8.56167 -0.89509,5.79859 -1.36209,9.10651 -0.467,3.30792 -0.467,4.28083 -0.0778,1.32317 -0.50592,2.06259 -0.38916,0.7005 -1.24533,0.81725 -0.42808,0.0389 -1.20642,0.2335 -0.77833,0.15566 -1.868,0.42808 -0.19458,-0.0389 -0.35025,-0.11675 -0.15566,-0.11675 -0.15566,-0.31133 l 0.2335,-1.43992 -0.38917,-1.47883 q 0.2335,-1.20642 0.467,-2.335 0.15567,-2.33501 0.27242,-4.39759 0.0389,-0.42808 0.27241,-1.43992 0.27242,-1.01183 0.27242,-1.51775 0,-0.27241 -0.11675,-0.77833 -0.11675,-0.54484 -0.11675,-0.81725 0,-2.14042 0.66158,-6.34342 0.7005,-4.203 0.7005,-6.38234 -0.11675,-0.89508 -0.27241,-1.79017 0.19458,-1.401 0.62266,-3.5025 0.42809,-2.1015 0.97292,-4.9035 z"
         style="font-style:normal;font-variant:normal;font-weight:normal;font-stretch:normal;font-size:79.70137024px;font-family:Mistral;-inkscape-font-specification:Mistral;fill:#ffffff"
         id="path5281" />
      <path
         d="m 577.08859,-170.29232 1.47884,3.58034 q -0.42809,0.38917 -1.05075,0.85617 -0.58376,0.42808 -1.40101,0.934 -0.81725,0.27241 -1.98475,0.77833 -1.12858,0.50592 -2.60741,1.1675 -1.12859,0.7005 -1.86801,1.05075 -0.7005,0.35025 -0.97291,0.35025 -0.50592,0 -1.868,0.42808 -1.32317,0.42809 -3.5025,1.28425 -1.16751,0.42809 -2.49067,0.89509 -1.28425,0.42808 -2.68525,0.77833 l -2.41284,-0.50591 -1.47883,0.66158 q -0.73942,0 -1.51775,-0.0389 -0.73942,0 -1.43992,-0.0778 -1.12858,-0.0389 -1.71233,-0.31133 -0.54484,-0.27242 -0.54484,-0.77834 l 0.2335,-1.47883 -0.2335,-0.27242 q -1.32317,0 -1.79017,-0.35025 -0.42808,-0.35025 -0.42808,-1.6345 0,-0.58375 0.0389,-1.94583 0.0778,-1.36209 0.19458,-3.54142 0,-0.19459 0.2335,-0.81725 0.27242,-0.62267 0.27242,-0.89509 -0.19459,-0.38916 -0.2335,-0.62266 -0.0389,-0.2335 -0.0389,-0.42809 0.0778,-1.51775 0.31133,-3.736 0.27242,-2.21825 0.66159,-5.25375 0.467,-1.82909 0.77833,-4.12517 -0.0778,-1.71233 -0.15566,-3.5025 1.43991,-6.46017 2.95766,-12.99817 0.2335,-1.1675 0.85617,-2.21826 0.66158,-1.05075 1.55667,-2.02366 0.38916,-0.27242 0.50591,-0.42809 0.19459,-0.35025 0.50592,-0.85616 0.31134,-0.54484 0.73942,-1.20642 0.2335,-0.15567 0.73942,-0.467 0.54483,-0.31133 1.43991,-0.85617 0.38917,-0.31133 0.89509,-0.73941 0.50591,-0.42809 1.1675,-1.01184 1.47883,-0.89508 2.72417,-1.868 1.28425,-1.01183 3.19116,-1.24533 0.89509,-0.0389 1.79017,-0.0778 0.89508,-0.0778 1.71233,-0.15566 0.77834,-0.15567 1.36209,-0.19459 0.38917,-0.0778 0.66158,-0.15566 0.31134,-0.0778 0.54484,-0.0778 0.2335,0 0.62266,0.0778 0.42809,0.0389 1.12859,0.15566 0.54483,0.0389 0.934,0.0389 0.38916,0 0.73941,-0.0389 1.55667,0.467 2.29609,1.36209 0.73942,0.89508 0.73942,2.14041 0,2.68526 -0.54484,4.00842 -0.50591,1.28425 -1.6345,1.28425 -0.85617,0 -1.94583,-0.85616 -1.08967,-0.89509 -5.87642,-0.89509 -1.98475,0.38917 -3.93059,0.77834 -0.19458,0.31133 -0.467,0.467 -0.2335,0.15566 -0.42808,0.2335 l -1.36209,-0.50592 q -0.62266,0.2335 -1.401,1.28425 -0.77833,1.05075 -1.6345,2.87984 -0.19458,0.38916 -0.31133,0.97291 -0.0778,0.58375 -0.0778,1.36209 -0.7005,2.802 -1.401,5.40942 -0.66159,2.802 -1.08967,4.24191 -0.38917,1.43992 -0.467,1.75125 -0.11675,0.38917 -0.19458,0.73942 -0.0778,0.35025 -0.0778,0.7005 0,0.50592 0.19459,0.77834 0.19458,0.27241 0.58375,0.27241 0.35025,0 1.67341,-1.28425 1.36209,-1.28425 2.02367,-1.43992 0.81725,-0.2335 1.6345,-0.50591 0.85617,-0.27242 1.75125,-0.66159 0.35025,-0.11675 1.82909,-0.31133 1.51775,-0.19458 4.203,-0.467 l 1.08967,0.31133 2.06258,-0.38916 1.08967,0.50591 q 0.38916,0.38917 0.7005,0.97292 0.35025,0.54483 0.62266,1.20642 0,2.335 -0.50591,3.54142 -0.50592,1.20641 -1.51775,1.20641 l -2.14042,-0.85616 q -2.64634,0.27241 -5.25375,0.54483 -2.5685,0.2335 -5.25376,0.467 -3.269,0.66158 -5.02025,2.14042 -1.75125,1.47883 -1.94583,3.89167 -0.0389,0.50591 -0.27242,1.55666 -0.2335,1.05075 -0.54483,2.60742 l 0.27241,1.1675 q -0.35025,1.67342 -0.54483,3.15225 -0.19458,1.47884 -0.19458,2.64634 0,0.38917 0.11675,0.58375 0.11675,0.15567 0.27241,0.0778 1.868,-0.15566 2.99659,-0.2335 1.12858,-0.0778 1.59558,-0.0389 1.01184,0.0778 2.06259,0.15566 l 2.45175,-0.19458 q 0.38916,-0.0778 1.67342,-0.62267 1.32316,-0.54483 2.37391,-0.54483 1.12859,0 2.25717,-0.2335 1.1675,-0.2335 2.21825,-0.62267 1.05075,-0.38917 2.06259,-0.77833 1.05075,-0.42809 2.1015,-0.81725 0.38916,-0.11675 1.01183,-0.42809 0.66158,-0.31133 1.51775,-0.81725 z"
         style="font-style:normal;font-variant:normal;font-weight:normal;font-stretch:normal;font-size:79.70137024px;font-family:Mistral;-inkscape-font-specification:Mistral;fill:#ffffff"
         id="path5283" />
      <path
         d="m 584.87194,-213.72334 q 1.59558,-0.467 3.46358,-0.7005 1.90692,-0.2335 4.20301,-0.2335 0.42808,0 1.24533,0.15567 0.85617,0.11675 1.36208,0.11675 0.73942,0.11675 1.12859,0.2335 0.42808,0.11675 1.1675,0.27242 l 1.08967,-0.31134 q 0.35025,0.0389 0.73941,0.31134 0.42809,0.2335 1.01184,0.54483 0.31133,-0.19458 0.89508,-0.467 0.58375,0 0.934,0.467 0.38917,0.42808 0.50592,1.24533 0,0.62267 0,1.24534 0,0.58375 -0.0778,1.24533 -0.0389,0.31134 0.0389,0.97292 0.0778,0.66158 0.0778,1.01183 0,0.42809 -0.19458,0.62267 -0.19458,0.19458 -0.50592,0.19458 -1.47883,0 -2.91875,-0.2335 -1.43991,-0.27241 -2.87983,-0.77833 -1.24534,0.2335 -2.17934,0.35025 -0.73941,0.0778 -1.08966,0.2335 -0.35025,0.15567 -0.35025,0.38917 0.15566,0.27241 0.42808,0.58375 0.27242,0.31133 0.66158,0.58375 0.27242,0.19458 0.62267,0.85616 0.35025,0.62267 0.73942,1.71234 0.15566,0.42808 0.19458,0.81725 0.0778,0.38917 0.0778,0.73942 0,0.81725 -0.15566,2.06258 -0.15567,1.20642 -0.35025,1.98475 -0.35025,1.51775 -0.54484,2.52959 -0.19458,0.97291 -0.31133,1.47883 -0.0778,0.38917 -0.11675,0.934 -0.0389,0.54483 -0.0778,1.24533 -0.0389,0.58375 -0.31134,1.47884 -0.27241,0.85616 -0.54483,1.98475 0,0.50592 -0.11675,1.1675 -0.11675,0.66158 -0.31133,1.51775 -0.11675,0.50592 -0.38917,1.1675 -0.2335,0.62267 -0.467,1.47883 0.0778,0.58375 0.11675,1.20642 -0.15567,1.08967 -0.31133,2.25717 -0.2335,1.67342 -0.467,3.38575 -0.2335,1.71233 -0.42809,3.30792 -0.2335,0.467 -0.50591,1.05075 0,0.27242 0.0778,0.85617 0.11675,0.54483 0.11675,0.89508 0,0.42808 -0.15567,1.28425 -0.15566,0.81725 -0.15566,1.20642 0,0.73942 -0.0389,2.29608 -0.0389,1.55667 -0.0389,2.335 0.19459,0.66159 0.35025,1.28425 -0.11675,0.54484 -0.27241,0.89509 -0.11675,0.31133 -0.35025,0.50591 -0.7005,0.42809 -1.28426,0.70051 -0.38916,0.38916 -0.66158,0.62266 -0.2335,0.2335 -0.42808,0.2335 -0.85617,0 -1.20642,-0.2335 -0.35025,-0.2335 -0.35025,-0.62266 0.0778,-1.28426 0.27242,-2.49067 -0.0778,-0.15567 -0.19459,-0.467 -0.0778,-0.31134 -0.27241,-0.77834 -0.19459,-3.0355 -0.50592,-6.22667 0.11675,-2.29608 0.11675,-4.63108 0,-1.08967 0.0778,-2.72417 0.11675,-1.67342 0.38917,-3.85275 0.27242,-2.17934 0.38917,-3.81384 0.11675,-1.6345 0.11675,-2.68525 0,-0.467 0.0778,-1.1675 0.11675,-0.73942 0.2335,-1.79017 0.11675,-0.89508 0.2335,-1.59558 0.11675,-0.73942 0.11675,-1.32317 0,-0.31133 -0.0389,-0.66158 -0.0389,-0.35025 -0.0778,-0.62267 0.38917,-0.97291 0.58375,-1.55666 0.19458,-0.62267 0.19458,-0.81726 -0.15566,-0.50591 -0.35025,-1.01183 0.2335,-0.54483 0.50592,-1.94583 0.27242,-1.43992 0.58375,-3.73601 0,-0.467 0,-1.12858 0,-0.66158 0.0389,-1.59558 l -0.2335,-0.7005 q -0.15567,-0.0778 -0.58375,-0.19459 -0.38917,-0.11675 -1.01184,-0.19458 l -0.50591,0.35025 q -0.50592,0.11675 -1.05075,0.2335 -0.50592,0.11675 -1.08967,0.27242 -4.04734,1.12858 -8.01684,2.21825 -0.31133,0 -0.50591,-0.2335 -0.19459,-0.27242 -0.19459,-0.7005 0,-0.2335 0.19459,-0.81725 0.19458,-0.58375 0.62266,-1.51775 0.0778,-1.36209 0.19459,-2.25717 0.11675,-0.89509 0.27241,-1.36209 0.31134,-0.85616 0.97292,-1.43991 0.62267,-0.58375 1.51775,-0.89509 1.79017,-0.58375 3.34684,-0.77833 1.55666,-0.19458 2.87983,-0.0389 z"
         style="font-style:normal;font-variant:normal;font-weight:normal;font-stretch:normal;font-size:79.70137024px;font-family:Mistral;-inkscape-font-specification:Mistral;fill:#ffffff"
         id="path5285" />
      <path
         d="m 633.12863,-170.29232 1.47883,3.58034 q -0.42808,0.38917 -1.05075,0.85617 -0.58375,0.42808 -1.401,0.934 -0.81725,0.27241 -1.98475,0.77833 -1.12858,0.50592 -2.60742,1.1675 -1.12858,0.7005 -1.868,1.05075 -0.7005,0.35025 -0.97291,0.35025 -0.50592,0 -1.868,0.42808 -1.32317,0.42809 -3.50251,1.28425 -1.1675,0.42809 -2.49066,0.89509 -1.28425,0.42808 -2.68525,0.77833 l -2.41284,-0.50591 -1.47883,0.66158 q -0.73942,0 -1.51775,-0.0389 -0.73942,0 -1.43992,-0.0778 -1.12859,-0.0389 -1.71234,-0.31133 -0.54483,-0.27242 -0.54483,-0.77834 l 0.2335,-1.47883 -0.2335,-0.27242 q -1.32317,0 -1.79017,-0.35025 -0.42808,-0.35025 -0.42808,-1.6345 0,-0.58375 0.0389,-1.94583 0.0778,-1.36209 0.19458,-3.54142 0,-0.19459 0.2335,-0.81725 0.27242,-0.62267 0.27242,-0.89509 -0.19459,-0.38916 -0.2335,-0.62266 -0.0389,-0.2335 -0.0389,-0.42809 0.0778,-1.51775 0.31133,-3.736 0.27242,-2.21825 0.66159,-5.25375 0.467,-1.82909 0.77833,-4.12517 -0.0778,-1.71233 -0.15567,-3.5025 1.43992,-6.46017 2.95767,-12.99817 0.2335,-1.1675 0.85617,-2.21826 0.66158,-1.05075 1.55667,-2.02366 0.38916,-0.27242 0.50591,-0.42809 0.19459,-0.35025 0.50592,-0.85616 0.31133,-0.54484 0.73942,-1.20642 0.2335,-0.15567 0.73941,-0.467 0.54484,-0.31133 1.43992,-0.85617 0.38917,-0.31133 0.89509,-0.73941 0.50591,-0.42809 1.1675,-1.01184 1.47883,-0.89508 2.72416,-1.868 1.28425,-1.01183 3.19117,-1.24533 0.89509,-0.0389 1.79017,-0.0778 0.89508,-0.0778 1.71233,-0.15566 0.77834,-0.15567 1.36209,-0.19459 0.38916,-0.0778 0.66158,-0.15566 0.31134,-0.0778 0.54484,-0.0778 0.2335,0 0.62266,0.0778 0.42809,0.0389 1.12859,0.15566 0.54483,0.0389 0.934,0.0389 0.38916,0 0.73941,-0.0389 1.55667,0.467 2.29609,1.36209 0.73941,0.89508 0.73941,2.14041 0,2.68526 -0.54483,4.00842 -0.50592,1.28425 -1.6345,1.28425 -0.85617,0 -1.94583,-0.85616 -1.08967,-0.89509 -5.87642,-0.89509 -1.98475,0.38917 -3.93059,0.77834 -0.19458,0.31133 -0.467,0.467 -0.2335,0.15566 -0.42808,0.2335 l -1.36209,-0.50592 q -0.62266,0.2335 -1.401,1.28425 -0.77833,1.05075 -1.6345,2.87984 -0.19458,0.38916 -0.31133,0.97291 -0.0778,0.58375 -0.0778,1.36209 -0.7005,2.802 -1.401,5.40942 -0.66159,2.802 -1.08967,4.24191 -0.38917,1.43992 -0.467,1.75125 -0.11675,0.38917 -0.19459,0.73942 -0.0778,0.35025 -0.0778,0.7005 0,0.50592 0.19458,0.77834 0.19459,0.27241 0.58375,0.27241 0.35025,0 1.67342,-1.28425 1.36209,-1.28425 2.02367,-1.43992 0.81725,-0.2335 1.6345,-0.50591 0.85617,-0.27242 1.75125,-0.66159 0.35025,-0.11675 1.82909,-0.31133 1.51775,-0.19458 4.203,-0.467 l 1.08966,0.31133 2.06259,-0.38916 1.08967,0.50591 q 0.38916,0.38917 0.7005,0.97292 0.35025,0.54483 0.62266,1.20642 0,2.335 -0.50591,3.54142 -0.50592,1.20641 -1.51775,1.20641 l -2.14042,-0.85616 q -2.64634,0.27241 -5.25375,0.54483 -2.56851,0.2335 -5.25376,0.467 -3.269,0.66158 -5.02025,2.14042 -1.75125,1.47883 -1.94583,3.89167 -0.0389,0.50591 -0.27242,1.55666 -0.2335,1.05075 -0.54483,2.60742 l 0.27241,1.1675 q -0.35025,1.67342 -0.54483,3.15225 -0.19458,1.47884 -0.19458,2.64634 0,0.38917 0.11675,0.58375 0.11675,0.15567 0.27241,0.0778 1.868,-0.15566 2.99659,-0.2335 1.12858,-0.0778 1.59558,-0.0389 1.01184,0.0778 2.06259,0.15566 l 2.45175,-0.19458 q 0.38916,-0.0778 1.67341,-0.62267 1.32317,-0.54483 2.37392,-0.54483 1.12859,0 2.25717,-0.2335 1.1675,-0.2335 2.21825,-0.62267 1.05075,-0.38917 2.06259,-0.77833 1.05075,-0.42809 2.1015,-0.81725 0.38916,-0.11675 1.01183,-0.42809 0.66158,-0.31133 1.51775,-0.81725 z"
         style="font-style:normal;font-variant:normal;font-weight:normal;font-stretch:normal;font-size:79.70137024px;font-family:Mistral;-inkscape-font-specification:Mistral;fill:#ffffff"
         id="path5287" />
      <path
         d="m 647.80023,-180.5274 q 0,0.77833 1.08967,2.1015 1.12858,1.28425 3.34683,3.19116 1.43992,1.20642 2.95767,2.37392 1.55667,1.12859 3.07442,2.29609 0.66158,0.54483 1.71233,1.43991 1.05075,0.85617 2.45176,2.02367 1.01183,0.77834 2.1015,1.55667 1.12858,0.77833 2.41283,1.55667 0.85617,0.66158 1.90692,1.43991 1.05075,0.77834 2.41283,1.67342 0.77834,0.467 1.20642,1.71234 0.42808,1.20641 0.50592,3.15225 l -0.35025,1.01183 -0.38917,0.19458 q -0.38917,0 -1.05075,-0.35025 -0.62267,-0.31133 -1.59558,-0.934 -0.19459,-0.11675 -1.79017,-0.85616 -1.55667,-0.73942 -4.51434,-2.1015 -1.6345,-0.70051 -2.99658,-1.55667 -1.36209,-0.89509 -2.49067,-1.868 -0.66158,-0.58375 -1.71233,-1.28425 -1.01184,-0.7005 -2.41284,-1.51775 -1.43992,-0.81725 -2.49067,-1.55667 -1.05075,-0.73942 -1.67341,-1.24534 -2.1015,-1.71233 -3.42467,-2.60741 -1.32317,-0.89509 -1.82909,-0.89509 -0.38916,0.54484 -0.42808,1.12859 -0.467,1.82908 -1.01183,4.63108 -0.50592,2.76309 -1.12859,6.46017 0,0.66159 -0.2335,0.97292 -0.2335,0.35025 -0.7005,0.35025 -1.51775,0 -2.29608,-0.73942 -0.77834,-0.73942 -0.77834,-2.21825 0,-1.98475 0.2335,-4.16408 0.27242,-2.17934 0.85617,-4.59217 0.19458,-1.05075 0.27242,-1.868 0.11675,-0.85617 0.11675,-1.55667 0,-1.79017 -1.55667,-3.07442 -1.51775,-1.28425 -1.51775,-1.82908 0,-0.85617 0.2335,-1.47884 0.27242,-0.66158 0.77833,-1.05075 1.28425,-0.81725 2.37392,-1.55667 0.27242,-0.15566 0.35025,-0.50591 0.11675,-0.38917 0.11675,-1.05075 0,-0.38917 0,-0.81725 0,-0.467 0,-0.85617 0.11675,-3.46359 0.19459,-7.19959 0,-0.27241 0,-0.85616 0,-0.58375 -0.0778,-1.51775 -0.0778,-0.70051 -0.0389,-1.28426 0.0389,-0.62266 0.0389,-1.12858 -0.2335,-0.77833 -0.42808,-1.32317 -0.15567,-0.58375 -0.15567,-1.08966 0,-0.467 0.0778,-1.43992 0.0778,-1.01183 0.0778,-1.43992 0,-0.54483 -0.11675,-1.51775 -0.0778,-0.97292 -0.0778,-1.47883 0,-1.401 0.62267,-2.68525 0.66159,-1.28425 1.98475,-2.52959 1.28425,-1.08967 2.60742,-1.6345 1.36208,-0.58375 2.76309,-0.58375 0.66158,0 1.94583,0.11675 1.32317,0.0778 2.06258,0.0778 0.50592,0 2.76309,0.85617 0.89508,0.0778 1.59558,0.2335 0.7005,0.11675 1.12859,0.27242 0.97291,0.467 1.51775,0.73941 0.54483,0.2335 0.77833,0.27242 0.66158,0.2335 1.12858,0.38917 0.50592,0.15566 0.81726,0.38917 0.50591,0.2335 1.1675,0.54483 0.7005,0.31133 1.55666,0.7005 1.401,0.7005 2.60742,1.6345 1.24533,0.934 2.335,2.02367 1.24534,1.401 1.868,2.76308 0.62267,1.32317 0.62267,2.64634 0,0.38916 -0.0778,1.12858 -0.0389,0.7005 -0.19459,1.59558 -0.11675,1.12859 -1.1675,2.45176 -1.05075,1.28425 -3.0355,2.84091 -1.75125,1.36209 -3.269,2.29609 -1.51775,0.89508 -2.802,1.28425 -0.50592,0.35025 -0.77834,0.66158 -0.38916,0.38917 -1.6345,1.08967 -1.24533,0.7005 -3.38575,1.75125 -3.89167,1.90692 -5.52617,2.52958 -1.6345,0.58375 -1.6345,1.28426 z m -4.08625,-18.75785 q 0.73942,-0.54483 1.401,-1.05075 0.66158,-0.54483 1.71234,-0.54483 0.467,0 1.12858,1.05075 0.7005,1.01183 0.7005,1.51775 0,0.27242 -0.19458,1.24533 -0.19459,0.97292 -0.62267,2.64634 -0.89508,3.77492 -1.01183,4.74783 -0.11676,0.934 -0.50592,2.95767 -0.15567,0.50592 -0.31134,1.32317 0,0.35025 0.11675,0.50592 0.15567,0.15566 0.38917,0.15566 7.74442,-3.89167 8.01684,-4.04733 0.31133,-0.0778 0.66158,-0.19459 0.35025,-0.15566 0.66159,-0.31133 l 0.58375,-0.73942 q 2.25716,-1.43991 4.67,-3.07441 1.51775,-1.1675 2.25717,-2.29609 0.73941,-1.12858 0.73941,-2.25717 0,-1.43991 -1.67341,-2.84091 -1.67342,-1.401 -5.02026,-2.68526 -2.84091,-1.12858 -5.17592,-1.6345 -2.335,-0.54483 -4.24191,-0.54483 -2.49067,0 -3.77492,0.89508 -1.24534,0.85617 -1.24534,2.56851 0,1.32316 0.19459,2.02366 0.19458,0.66159 0.54483,0.58375 z"
         style="font-style:normal;font-variant:normal;font-weight:normal;font-stretch:normal;font-size:79.70137024px;font-family:Mistral;-inkscape-font-specification:Mistral;fill:#ffffff"
         id="path5289" />
    </g>
  </g>
</svg>
