<?xml version="1.0" encoding="UTF-8" standalone="no"?>
<!-- Created with Inkscape (http://www.inkscape.org/) -->

<svg
   xmlns:dc="http://purl.org/dc/elements/1.1/"
   xmlns:cc="http://creativecommons.org/ns#"
   xmlns:rdf="http://www.w3.org/1999/02/22-rdf-syntax-ns#"
   xmlns:svg="http://www.w3.org/2000/svg"
   xmlns="http://www.w3.org/2000/svg"
   xmlns:xlink="http://www.w3.org/1999/xlink"
   xmlns:sodipodi="http://sodipodi.sourceforge.net/DTD/sodipodi-0.dtd"
   xmlns:inkscape="http://www.inkscape.org/namespaces/inkscape"
   width="69.336304"
   height="360"
   viewBox="0 0 69.336302 359.99998"
   id="svg4203"
   version="1.1"
   inkscape:version="0.91 r13725"
   sodipodi:docname="grantometer-m.svg">
  <defs
     id="defs4205">
    <linearGradient
       inkscape:collect="always"
       xlink:href="#linearGradient4179"
       id="linearGradient4315"
       gradientUnits="userSpaceOnUse"
       gradientTransform="matrix(0.09785042,0.12069426,-0.12205612,0.09895451,163.23922,61.423216)"
       x1="561.26532"
       y1="1308.9835"
       x2="303.14331"
       y2="815.25006" />
    <linearGradient
       inkscape:collect="always"
       id="linearGradient4179">
      <stop
         style="stop-color:#000000;stop-opacity:1;"
         offset="0"
         id="stop4181" />
      <stop
         style="stop-color:#000000;stop-opacity:0;"
         offset="1"
         id="stop4183" />
    </linearGradient>
  </defs>
  <sodipodi:namedview
     id="base"
     pagecolor="#ffffff"
     bordercolor="#666666"
     borderopacity="1.0"
     inkscape:pageopacity="0.0"
     inkscape:pageshadow="2"
     inkscape:zoom="3.2244069"
     inkscape:cx="-13.678213"
     inkscape:cy="160.80629"
     inkscape:document-units="px"
     inkscape:current-layer="layer1"
     showgrid="false"
     fit-margin-top="0"
     fit-margin-left="0"
     fit-margin-right="0"
     fit-margin-bottom="0"
     inkscape:window-width="1400"
     inkscape:window-height="855"
     inkscape:window-x="40"
     inkscape:window-y="1"
     inkscape:window-maximized="1"
     units="px" />
  <metadata
     id="metadata4208">
    <rdf:RDF>
      <cc:Work
         rdf:about="">
        <dc:format>image/svg+xml</dc:format>
        <dc:type
           rdf:resource="http://purl.org/dc/dcmitype/StillImage" />
        <dc:title />
      </cc:Work>
    </rdf:RDF>
  </metadata>
  <g
     inkscape:label="Layer 1"
     inkscape:groupmode="layer"
     id="layer1"
     transform="translate(-55.923572,-15.176929)">
    <g
       transform="matrix(0,0.89425033,-1.1182551,0,0,0)"
       style="font-style:normal;font-variant:normal;font-weight:normal;font-stretch:normal;font-size:54.09782791px;line-height:125%;font-family:Mistral;-inkscape-font-specification:Mistral;letter-spacing:0px;word-spacing:0px;fill:#ffffff;fill-opacity:1;stroke:#ffffff;stroke-width:2.48304605;stroke-linecap:butt;stroke-linejoin:miter;stroke-miterlimit:4;stroke-dasharray:none;stroke-opacity:1"
       id="text4311">
      <path
         d="m 48.479255,-101.29888 q 0.607543,0.1849 1.241502,0.42264 0.633959,0.21132 1.241503,0.44905 0.21132,0.10566 0.633959,0.58113 0.449054,0.475469 1.135843,1.347163 0.766034,0.924523 0.898109,1.241503 0.158489,0.290564 0.581129,1.479237 0.290564,0.449054 0.739619,1.637727 0.475469,1.162258 0.475469,1.690558 0,0.950938 -1.426408,2.324516 -1.426407,1.347162 -2.245271,1.347162 -0.528299,0 -0.792449,-0.316979 -0.237734,-0.343395 -0.237734,-0.977354 -0.237735,-1.056598 -0.36981,-1.822631 -0.739618,-2.879231 -1.981121,-4.332053 -1.215088,-1.452823 -2.98489,-1.452823 -0.898109,0 -1.769802,0.31698 -0.845279,0.290564 -1.558483,0.898108 -0.369809,0.290565 -0.977353,0.977354 -0.607544,0.686789 -1.452822,1.716972 -0.10566,0.184904 -0.290565,0.422639 -0.184905,0.237735 -0.449054,0.633959 -0.237735,0.449054 -0.633959,1.083013 -0.369809,0.607544 -0.924523,1.399993 -0.237735,0.686789 -0.47547,1.267918 -0.237734,0.581129 -0.581129,1.083013 -0.07925,0.10566 -0.158489,0.422639 -0.07925,0.290565 -0.184905,0.792449 -0.184905,0.607544 -0.422639,1.320747 -0.21132,0.713204 -0.47547,1.558483 -0.422639,2.87923 -0.607544,4.569787 -0.184904,1.664142 -0.184904,2.166026 0,1.135843 0.184904,2.271686 0.21132,1.135843 0.633959,2.271687 0.31698,0.818863 0.607544,1.399992 0.290565,0.581129 0.554714,0.845279 0.396225,0.396224 1.003769,0.607544 0.607544,0.211319 1.347162,0.211319 1.056599,0 2.007537,-0.369809 0.950938,-0.369809 1.769802,-1.030183 0.237735,-0.21132 0.950938,-0.950939 0.713204,-0.766033 1.928292,-2.060366 0.26415,-0.21132 0.633959,-0.581129 0.396224,-0.396224 0.845279,-0.871694 0.501884,-0.686789 0.924523,-1.373577 0.449054,-0.686789 0.898108,-1.320748 0.554714,-0.713204 1.215088,-1.056598 0.686789,-0.343395 1.479238,-0.343395 1.083013,0 1.611312,0.475469 0.528299,0.47547 0.528299,1.426408 0,0.31698 -0.184904,0.898109 -0.184905,0.554714 -0.237735,0.871693 -0.05283,0.475469 -0.15849,1.188673 -0.10566,0.686789 -0.237734,1.637727 -0.05283,1.188673 -0.26415,2.113197 -0.184905,0.924523 -0.528299,1.611312 -0.422639,0.898108 -0.739619,2.87923 -0.290564,1.981122 -0.739619,2.905645 -0.158489,0.26415 -0.290564,0.818864 -0.132075,0.581129 -0.290565,1.452822 -0.105659,0.554714 -0.264149,0.950939 -0.132075,0.396224 -0.396224,0.633958 -0.21132,0.15849 -0.581129,0.343395 -0.36981,0.184905 -1.030184,0.396224 -0.105659,0.607544 -0.369809,0.898109 -0.26415,0.316979 -0.713204,0.316979 -0.369809,0 -0.581129,-0.316979 -0.184905,-0.31698 -0.184905,-1.030184 0,-0.264149 0.07925,-0.845278 0.10566,-0.554714 0.343395,-1.426408 0.10566,-0.422639 0.184904,-1.135843 0.07925,-0.713204 0.10566,-1.743387 0.05283,-0.528299 0.26415,-1.664142 0.237734,-1.135843 0.660374,-2.799985 l -0.343395,-1.716972 q 0.10566,-0.31698 0.184905,-0.713204 0,-0.184905 -0.10566,-0.26415 -0.07925,-0.105659 -0.264149,-0.105659 -0.924524,0.633959 -1.532068,1.215088 -1.347163,1.162258 -2.271686,1.901876 -0.924523,0.739619 -1.426408,1.083013 -1.056598,0.686789 -2.139611,1.135844 -1.083013,0.449054 -2.218856,0.607543 l -1.162258,-0.237734 q -0.528299,0.07925 -0.898109,0.15849 -0.581129,0 -1.241502,-0.290565 -0.660374,-0.290564 -1.426408,-0.845278 -0.660374,-0.5283 -1.241503,-1.267918 -0.554714,-0.739619 -0.977353,-1.769802 -0.15849,-0.31698 -0.396225,-1.267918 -0.237734,-0.950939 -0.633959,-2.430176 0.237735,-0.633959 0.290565,-1.373578 0.05283,-0.739618 -0.05283,-1.584897 l 0.528299,-3.962243 q 0.633959,-4.966012 2.483006,-8.822595 1.875462,-3.856584 4.860352,-6.735814 1.003768,-1.003768 1.690557,-1.611312 0.686789,-0.607544 0.871693,-0.845279 0.581129,-0.449054 1.267918,-0.898108 0.713204,-0.449054 1.532068,-0.898104 0.422639,-0.23774 0.950938,-0.47547 0.554714,-0.26415 1.294333,-0.5283 l 2.456591,-0.29057 0.818863,0.21132 0.36981,-0.13207 z"
         style="font-style:normal;font-variant:normal;font-weight:normal;font-stretch:normal;font-family:Mistral;-inkscape-font-specification:Mistral;fill:#ffffff;fill-opacity:1;stroke:#ffffff;stroke-width:2.48304605;stroke-miterlimit:4;stroke-dasharray:none;stroke-opacity:1"
         id="path7759" />
      <path
         d="m 64.407473,-79.770694 q 0,0.528299 0.739619,1.426408 0.766034,0.871693 2.271686,2.166026 0.977353,0.818863 2.007537,1.611312 1.056598,0.766034 2.086781,1.558482 0.449054,0.36981 1.162258,0.977354 0.713204,0.581129 1.664142,1.373577 0.686789,0.5283 1.426408,1.056599 0.766033,0.528299 1.637727,1.056598 0.581129,0.449054 1.294333,0.977353 0.713204,0.528299 1.637727,1.135843 0.528299,0.31698 0.818864,1.162258 0.290564,0.818864 0.343394,2.139612 l -0.237735,0.686788 -0.264149,0.132075 q -0.26415,0 -0.713204,-0.237734 -0.422639,-0.21132 -1.083013,-0.633959 -0.132075,-0.07925 -1.215088,-0.581129 -1.056598,-0.501884 -3.064135,-1.426408 -1.109428,-0.475469 -2.033951,-1.056598 -0.924524,-0.607544 -1.690557,-1.267918 -0.449055,-0.396224 -1.162258,-0.871693 -0.686789,-0.47547 -1.637728,-1.030184 -0.977353,-0.554714 -1.690557,-1.056598 -0.713204,-0.501884 -1.135843,-0.845278 -1.426407,-1.162258 -2.324516,-1.769802 -0.898108,-0.607544 -1.241503,-0.607544 -0.264149,0.369809 -0.290564,0.766033 -0.31698,1.241503 -0.686789,3.14338 -0.343395,1.875462 -0.766034,4.384882 0,0.449055 -0.15849,0.660374 -0.158489,0.237735 -0.475469,0.237735 -1.030183,0 -1.558482,-0.501884 -0.528299,-0.501884 -0.528299,-1.505653 0,-1.347162 0.15849,-2.8264 0.184904,-1.479237 0.581129,-3.116965 0.132074,-0.713203 0.184904,-1.267917 0.07925,-0.581129 0.07925,-1.056599 0,-1.215088 -1.056598,-2.086781 -1.030183,-0.871694 -1.030183,-1.241503 0,-0.581129 0.158489,-1.003768 0.184905,-0.449054 0.528299,-0.713204 0.871694,-0.554714 1.611313,-1.056598 0.184904,-0.10566 0.237734,-0.343395 0.07925,-0.264149 0.07925,-0.713203 0,-0.26415 0,-0.554714 0,-0.31698 0,-0.581129 0.07925,-2.350931 0.132075,-4.886767 0,-0.184905 0,-0.581129 0,-0.396224 -0.05283,-1.030183 -0.05283,-0.47547 -0.02642,-0.871694 0.02642,-0.422639 0.02642,-0.766034 -0.15849,-0.528299 -0.290564,-0.898108 -0.10566,-0.396224 -0.10566,-0.739619 0,-0.316979 0.05283,-0.977353 0.05283,-0.686789 0.05283,-0.977353 0,-0.36981 -0.07925,-1.030184 -0.05283,-0.660374 -0.05283,-1.003768 0,-0.950938 0.422639,-1.822632 0.449054,-0.871693 1.347163,-1.716973 0.871693,-0.73962 1.769802,-1.10943 0.924523,-0.39622 1.875462,-0.39622 0.449054,0 1.320747,0.0792 0.898109,0.0528 1.399993,0.0528 0.343394,0 1.875462,0.58113 0.607544,0.0528 1.083013,0.15849 0.475469,0.0793 0.766034,0.18491 0.660373,0.31698 1.030183,0.50188 0.369809,0.15849 0.528299,0.18491 0.449054,0.158485 0.766034,0.264145 0.343394,0.10566 0.554714,0.26415 0.343394,0.158489 0.792448,0.369809 0.47547,0.21132 1.056599,0.475469 0.950938,0.475469 1.769802,1.109428 0.845278,0.633959 1.584897,1.373578 0.845278,0.950938 1.267918,1.875462 0.422639,0.898108 0.422639,1.796217 0,0.264149 -0.05283,0.766033 -0.02642,0.47547 -0.132075,1.083014 -0.07925,0.766033 -0.792448,1.664142 -0.713204,0.871693 -2.060367,1.928292 -1.188673,0.924523 -2.218856,1.558482 -1.030183,0.607544 -1.901877,0.871693 -0.343394,0.237735 -0.528299,0.449055 -0.26415,0.264149 -1.109428,0.739618 -0.845279,0.47547 -2.298101,1.188673 -2.641496,1.294333 -3.750924,1.716972 -1.109428,0.396225 -1.109428,0.871694 z m -2.77357,-12.732008 q 0.501884,-0.36981 0.950938,-0.713204 0.449054,-0.36981 1.162258,-0.36981 0.31698,0 0.766034,0.713204 0.475469,0.686789 0.475469,1.030183 0,0.184905 -0.132075,0.845279 -0.132074,0.660374 -0.422639,1.796217 -0.607544,2.562251 -0.686789,3.222624 -0.07925,0.633959 -0.343394,2.007537 -0.10566,0.343394 -0.21132,0.898109 0,0.237734 0.07925,0.343394 0.10566,0.10566 0.26415,0.10566 5.256576,-2.641496 5.44148,-2.747156 0.21132,-0.05283 0.449055,-0.132074 0.237734,-0.10566 0.449054,-0.21132 l 0.396224,-0.501884 q 1.532067,-0.977353 3.169795,-2.086782 1.030183,-0.792448 1.532067,-1.558482 0.501884,-0.766034 0.501884,-1.532067 0,-0.977354 -1.135843,-1.928292 -1.135843,-0.950938 -3.407529,-1.822632 -1.928292,-0.766034 -3.513189,-1.109428 -1.584897,-0.369809 -2.87923,-0.369809 -1.690557,0 -2.562251,0.607544 -0.845278,0.581129 -0.845278,1.743387 0,0.898108 0.132074,1.373577 0.132075,0.449055 0.36981,0.396225 z"
         style="font-style:normal;font-variant:normal;font-weight:normal;font-stretch:normal;font-family:Mistral;-inkscape-font-specification:Mistral;fill:#ffffff;fill-opacity:1;stroke:#ffffff;stroke-width:2.48304605;stroke-miterlimit:4;stroke-dasharray:none;stroke-opacity:1"
         id="path7761" />
      <path
         d="m 79.411167,-75.253737 q -0.07925,-0.290564 -0.07925,-0.475469 -0.02642,-0.184905 -0.02642,-0.316979 0,-0.871694 0.211319,-1.479238 0.21132,-0.633959 0.633959,-1.056598 0.10566,-0.10566 0.528299,-0.31698 0.449055,-0.211319 1.162258,-0.501884 0.501885,-0.237734 0.792449,-0.554714 0.31698,-0.343394 0.343395,-0.818863 0.07924,-0.36981 0.316979,-0.845279 0.237735,-0.475469 0.554714,-1.030183 0.10566,-0.15849 0.633959,-1.822632 0.528299,-1.664142 1.479237,-4.886767 0.26415,-0.977353 0.5283,-1.690557 0.264149,-0.713204 0.449054,-1.215088 0.845278,-2.245271 1.373577,-2.93206 0.554715,-0.713204 0.818864,-1.162258 l 0,-0.132075 -0.818864,-1.294332 1.030184,-1.188673 1.320747,-0.26415 q 0.396225,-0.05283 0.713204,-0.739619 0.343395,-0.686785 1.162258,-1.505655 0.184905,-0.0528 0.581129,-0.31698 0.42264,-0.29056 1.056598,-0.79245 0.554715,-0.44905 0.950939,-0.66037 0.396224,-0.21132 0.607544,-0.21132 0.713204,0 1.030183,0.29057 0.31698,0.29056 0.31698,0.76603 0,0.58113 -0.607544,1.69056 -0.607544,1.109425 -0.607544,1.690554 0,0.264149 0.105659,0.449054 0.132075,0.15849 0.290565,0.21132 l 3.169795,1.716972 q 0.264149,0.105659 0.475469,0.845278 0.211318,0.713204 0.343398,1.981122 0.15849,1.056598 0.23773,1.769802 0.10566,0.686789 0.10566,1.109428 -0.1849,1.135843 -0.36981,2.298101 0.26415,1.479238 0.58113,3.116965 -0.15849,1.558482 -0.34339,3.169794 0,0.15849 0.0528,0.290565 0.0792,0.10566 0.21132,0.132075 0.44905,0.02642 0.66037,0.237734 0.23773,0.21132 0.23773,0.581129 0,0.475469 -0.15849,0.766034 -0.13207,0.264149 -0.39622,0.422639 -0.34339,0.21132 -0.55471,0.36981 -0.18491,0.158489 -0.26415,0.264149 l 0.34339,1.637727 -0.47547,3.750924 q 0,0.475469 -0.0792,1.215088 -0.07925,0.739619 -0.237738,1.716972 -0.26415,0.713204 -0.396224,1.188673 -0.132075,0.475469 -0.132075,0.633959 0.132075,0.449054 0.237734,0.950938 -0.158489,0.713204 -0.343394,1.426408 -0.15849,0.713204 -0.316979,1.399992 -0.290565,0.924524 -0.766034,1.347163 -0.475469,0.449054 -1.109428,0.449054 -0.343395,0 -0.528299,-0.316979 -0.15849,-0.290565 -0.15849,-0.898109 0,-0.264149 0.07925,-0.766033 0.10566,-0.501884 0.10566,-0.766034 0,-0.184905 -0.05283,-0.501884 -0.05283,-0.31698 -0.05283,-0.554714 0,-0.739619 0.132075,-2.350931 0.158489,-1.637727 0.158489,-2.456591 -0.132075,-0.449054 -0.264149,-0.924523 0.07925,-0.501885 0.10566,-1.003769 0.02641,-0.528299 -0.02642,-0.977353 l 0.396224,-0.713204 -0.343395,-2.456591 -0.184904,-0.07924 q -0.15849,0 -0.475469,0.132074 -0.290565,0.10566 -0.739619,0.36981 -0.31698,0.105659 -1.003768,0.237734 -0.660374,0.10566 -1.769802,0.132075 -0.47547,0.237735 -0.898109,0.422639 -0.607544,0.132075 -1.532067,0.475469 -0.924524,0.31698 -2.139612,0.792449 -0.713203,0.343395 -1.320747,0.554714 -0.581129,0.184905 -0.977354,0.184905 -0.316979,0 -0.528299,0.237734 -0.211319,0.237735 -0.343394,0.686789 -0.07925,0.42264 -0.396225,1.162258 -0.290564,0.739619 -0.792448,1.849047 -0.10566,0.290565 -0.290565,0.898109 -0.184904,0.607544 -0.422639,1.505652 -0.15849,0.343395 -0.369809,0.871694 -0.21132,0.501884 -0.47547,1.188673 0,0.316979 -0.07924,0.792448 -0.05283,0.449054 -0.184905,1.056598 -0.132075,0.36981 -0.369809,0.924524 -0.21132,0.581129 -0.554715,1.267918 -0.211319,0.422639 -0.607544,0.607544 -0.396224,0.211319 -1.030183,0.211319 -0.449054,0 -0.686789,-0.316979 -0.264149,-0.290565 -0.264149,-0.924524 0,-0.686788 0.15849,-1.584897 0.158489,-0.871693 0.501884,-1.928292 0.369809,-1.399992 0.633959,-2.271686 0.264149,-0.871693 0.290564,-1.294333 0.07925,-0.184904 0.237735,-0.660373 0.158489,-0.47547 0.369809,-1.162258 0.237735,-0.660374 0.449054,-1.505653 l -0.132074,-0.21132 -0.845279,0.132075 q -0.290564,-0.02642 -0.422639,-0.237734 -0.132075,-0.21132 -0.132075,-0.554714 0,-0.184905 0.05283,-0.396225 0.05283,-0.237734 0.15849,-0.554714 z m 9.588628,-4.860351 q 0.607544,0 1.796217,-0.290565 1.188673,-0.290564 1.796217,-0.290564 0.36981,0.07924 0.739619,0.132074 0.660374,-0.132074 1.294333,-0.290564 0.633959,-0.184905 1.294333,-0.31698 0.264149,-0.05283 0.396224,-0.184904 0.132075,-0.15849 0.132075,-0.396225 -0.05283,-0.792448 -0.05283,-1.083013 0,-0.501884 0.05283,-1.109428 0.07924,-0.633959 0.211319,-1.294333 l -0.316979,-1.188673 0.10566,-1.083013 q -0.10566,-0.581129 -0.184905,-1.083013 -0.05283,-0.528299 0,-0.871694 -0.05283,-0.105659 -0.184905,-0.343394 -0.132075,-0.237735 -0.290564,-0.501884 -0.26415,-0.449054 -0.554714,-0.845279 -0.26415,-0.422639 -0.528299,-0.845278 -0.36981,-0.501884 -0.792449,-0.739619 -0.422639,-0.237735 -0.871694,-0.237735 -0.528299,0 -1.083013,0.845279 -0.554714,0.845279 -1.030183,2.562251 -0.07925,0.211319 -0.449054,0.871693 -0.343395,0.660374 -1.003769,1.716972 -0.105659,1.003768 -0.713203,2.509421 -0.607544,1.479237 -1.690557,3.486774 -0.132075,0.184905 -0.15849,0.316979 0,0.132075 0,0.290565 0,0.184905 0.07925,0.290564 0.10566,0.07925 0.290564,0.07925 0.26415,0 0.845279,-0.05283 0.607544,-0.05283 0.871693,-0.05283 z"
         style="font-style:normal;font-variant:normal;font-weight:normal;font-stretch:normal;font-family:Mistral;-inkscape-font-specification:Mistral;fill:#ffffff;fill-opacity:1;stroke:#ffffff;stroke-width:2.48304605;stroke-miterlimit:4;stroke-dasharray:none;stroke-opacity:1"
         id="path7763" />
      <path
         d="m 109.3129,-94.19326 -0.42264,-1.716972 q 0.15849,-0.528299 0.31698,-1.056598 0.15849,-0.554714 0.29056,-1.083013 0.15849,-0.369809 0.5283,-0.554714 0.39623,-0.21132 1.03019,-0.21132 0.23773,0 0.7132,-0.105659 0.50189,-0.10566 0.7132,-0.10566 0.23774,0 0.63396,0.369809 0.39623,0.369809 0.55472,0.422639 0.1849,-0.132074 0.44905,-0.449054 0.29057,-0.316979 0.68679,-0.845278 0.3434,-0.42264 0.66037,-0.68679 0.31698,-0.26415 0.68679,-0.36981 0.42264,0.21132 0.73962,0.3434 0.18491,0.10566 0.23774,0.23773 0.0792,0.132075 0.0792,0.36981 0,0.132075 -0.13207,0.581129 -0.13208,0.422639 -0.39623,1.162258 -0.29056,0.792448 -0.44905,1.320748 -0.15849,0.528299 -0.21132,0.818863 -0.39623,0.607544 -0.63396,1.109428 -0.21132,0.475469 -0.21132,0.898109 0,0.528299 0.31698,1.584897 0.31698,1.030183 0.92452,2.588666 0.84528,2.113196 1.71698,4.411297 0.79244,2.535836 1.66414,4.913182 0.87169,2.350931 1.82263,4.516957 0.97735,2.271686 1.61131,3.381114 0.63396,1.109428 0.95094,1.109428 0.26415,0 0.36981,-0.290564 0.13207,-0.31698 0.13207,-0.977353 0,-0.26415 0.0528,-0.686789 0.0792,-0.42264 0.23774,-0.924524 0.23773,-0.713203 0.44905,-1.611312 0.26415,-1.373578 0.47547,-2.403761 0.23774,-1.030183 0.39623,-1.769802 0.10566,-0.475469 0.23773,-2.007536 0.13208,-1.532068 0.26415,-4.147148 0,-0.26415 0.0793,-0.739619 0.10565,-0.475469 0.1849,-1.083013 0.10566,-0.607544 0.15849,-1.030184 0.0528,-0.449054 0.0528,-0.792448 0,-0.607544 -0.13208,-1.796217 -0.13207,-1.215088 -0.13207,-1.822632 0.39622,-1.664142 0.73962,-3.249039 0.29056,-1.373578 0.55471,-2.271687 0.26415,-0.924523 0.44906,-1.399988 0.42264,-0.95094 1.03018,-1.63773 0.60754,-0.71321 1.34716,-1.16226 l 0.21132,0 q 0.26415,0 0.3434,0.10566 0.10566,0.10566 0.10566,0.34339 -0.13208,0.55472 -0.23774,0.84528 0.0793,0.47547 0.15849,1.00377 -0.0792,0.66038 -0.1849,1.10943 -0.0528,0.290564 -0.10566,0.898108 -0.0528,0.581129 -0.0528,1.426408 0,0.316979 -0.0793,1.373577 -0.0792,1.030184 -0.29056,2.773571 -0.15849,2.483005 -0.39623,4.939596 -0.21132,2.456591 -0.44905,4.913182 -0.21132,2.958475 -0.60754,5.415066 -0.39623,2.430176 -0.95094,4.358467 -0.13208,1.162258 -0.50189,2.588666 -0.34339,1.426407 -0.89811,3.09055 l -0.81886,1.320747 q -0.0792,0.10566 -1.66414,0.686789 -1.5849,0.554714 -1.7698,0.554714 -0.39623,0 -1.18868,-1.030183 -0.79244,-1.056598 -1.87546,-3.19621 -1.03018,-1.928291 -1.63773,-3.169794 -0.60754,-1.267918 -0.76603,-1.901877 -0.0528,-0.237734 -0.15849,-0.607544 -0.10566,-0.369809 -0.23773,-0.845278 -0.5283,-1.162258 -1.34717,-2.879231 -0.79244,-1.716972 -1.84904,-4.067903 -0.18491,-0.581129 -0.47547,-1.109428 -0.26415,-0.554714 -0.66038,-1.162258 l -0.1849,0.07925 q -0.18491,0.528299 -0.36981,1.320748 -0.1849,0.792449 -0.42264,1.901877 -0.26415,0.713203 -0.55471,1.267918 -0.39623,1.532067 -0.89811,3.328284 -0.50189,1.796217 -1.08301,3.856583 -0.15849,0.686789 -0.31698,1.426408 -0.15849,0.739619 -0.36981,1.532067 l -0.47547,0.871694 q -0.10566,0.792448 -0.23774,1.558482 -0.1849,0.607544 -0.47547,1.479238 -0.26415,0.845278 -0.66037,2.033951 -0.0792,0.607544 -0.39622,0.898109 -0.29057,0.316979 -0.81887,0.343394 -0.0528,0.10566 -0.21132,0.21132 -0.15849,0.132074 -0.5283,0.237734 -0.26415,0.05283 -0.39622,-0.290564 -0.13208,-0.31698 -0.13208,-0.950939 0,-0.369809 0.13208,-1.162258 0.13207,-0.792448 0.39622,-2.007536 0.29057,-1.373578 0.44906,-2.139612 0.1849,-0.792448 0.23773,-1.003768 0.10566,-0.633959 0.23774,-1.664142 0.13207,-1.030183 0.29056,-2.377346 0.0528,-0.343394 0.15849,-0.845279 0.13208,-0.528299 0.31698,-1.215088 0.13207,-0.528299 0.5283,-2.852815 0.39622,-2.350931 1.03018,-6.524494 0.68679,-4.094318 1.32075,-8.241466 z"
         style="font-style:normal;font-variant:normal;font-weight:normal;font-stretch:normal;font-family:Mistral;-inkscape-font-specification:Mistral;fill:#ffffff;fill-opacity:1;stroke:#ffffff;stroke-width:2.48304605;stroke-miterlimit:4;stroke-dasharray:none;stroke-opacity:1"
         id="path7765" />
      <path
         d="m 136.86369,-102.30265 q 1.08302,-0.31698 2.35093,-0.47547 1.29434,-0.15849 2.85282,-0.15849 0.29056,0 0.84528,0.10566 0.58113,0.0793 0.92452,0.0793 0.50188,0.0792 0.76603,0.15848 0.29057,0.0793 0.79245,0.18491 l 0.73962,-0.21132 q 0.23774,0.0264 0.50189,0.21132 0.29056,0.15849 0.68678,0.36981 0.21132,-0.13208 0.60755,-0.31698 0.39622,0 0.63396,0.31698 0.26415,0.29056 0.34339,0.84528 0,0.42264 0,0.84528 0,0.39622 -0.0528,0.845275 -0.0264,0.211319 0.0264,0.660373 0.0528,0.449055 0.0528,0.686789 0,0.290565 -0.13208,0.42264 -0.13207,0.132074 -0.34339,0.132074 -1.00377,0 -1.98112,-0.158489 -0.97736,-0.184905 -1.95471,-0.5283 -0.84528,0.15849 -1.47924,0.237735 -0.50188,0.05283 -0.73962,0.15849 -0.23773,0.10566 -0.23773,0.264149 0.10566,0.184905 0.29056,0.396225 0.18491,0.211319 0.44906,0.396224 0.1849,0.132075 0.42264,0.581129 0.23773,0.422639 0.50188,1.162258 0.10566,0.290565 0.13208,0.554714 0.0528,0.26415 0.0528,0.501884 0,0.554714 -0.10566,1.399993 -0.10566,0.818863 -0.23774,1.347163 -0.23773,1.030183 -0.36981,1.716972 -0.13207,0.660373 -0.21132,1.003768 -0.0528,0.264149 -0.0792,0.633959 -0.0264,0.369809 -0.0528,0.845278 -0.0264,0.396225 -0.21132,1.003769 -0.18491,0.581129 -0.36981,1.347162 0,0.343395 -0.0793,0.792449 -0.0792,0.449054 -0.21132,1.030183 -0.0792,0.343395 -0.26415,0.792449 -0.15849,0.422639 -0.31698,1.003768 0.0528,0.396225 0.0793,0.818864 -0.10566,0.739619 -0.21132,1.532067 -0.15849,1.135843 -0.31698,2.298101 -0.15849,1.162258 -0.29056,2.245271 -0.15849,0.31698 -0.3434,0.713204 0,0.184905 0.0528,0.581129 0.0793,0.36981 0.0793,0.607544 0,0.290565 -0.10566,0.871694 -0.10566,0.554714 -0.10566,0.818863 0,0.501885 -0.0264,1.558483 -0.0264,1.056598 -0.0264,1.584897 0.13207,0.449054 0.23773,0.871694 -0.0792,0.369809 -0.1849,0.607544 -0.0793,0.211319 -0.23774,0.343394 -0.47547,0.290564 -0.87169,0.475469 -0.26415,0.26415 -0.44906,0.422639 -0.15849,0.15849 -0.29056,0.15849 -0.58113,0 -0.81886,-0.15849 -0.23774,-0.158489 -0.23774,-0.422639 0.0528,-0.871693 0.18491,-1.690557 -0.0528,-0.10566 -0.13208,-0.316979 -0.0528,-0.21132 -0.1849,-0.5283 -0.13208,-2.060366 -0.3434,-4.226392 0.0793,-1.558483 0.0793,-3.14338 0,-0.739619 0.0528,-1.849047 0.0792,-1.135843 0.26415,-2.61508 0.1849,-1.479238 0.26415,-2.588666 0.0792,-1.109428 0.0792,-1.822632 0,-0.316979 0.0528,-0.792449 0.0793,-0.501884 0.15849,-1.215088 0.0793,-0.607543 0.15849,-1.083013 0.0793,-0.501884 0.0793,-0.898108 0,-0.21132 -0.0264,-0.449054 -0.0264,-0.237735 -0.0528,-0.42264 0.26415,-0.660374 0.39622,-1.056598 0.13208,-0.422639 0.13208,-0.554714 -0.10566,-0.343394 -0.23774,-0.686789 0.15849,-0.369809 0.3434,-1.320747 0.1849,-0.977354 0.39622,-2.535836 0,-0.31698 0,-0.766034 0,-0.449054 0.0264,-1.083013 l -0.15849,-0.475469 q -0.10566,-0.05283 -0.39623,-0.132075 -0.26415,-0.07925 -0.68678,-0.132075 l -0.3434,0.237735 q -0.34339,0.07925 -0.7132,0.15849 -0.3434,0.07924 -0.73962,0.184904 -2.74716,0.766034 -5.44148,1.505653 -0.21132,0 -0.3434,-0.15849 -0.13207,-0.184905 -0.13207,-0.475469 0,-0.15849 0.13207,-0.554714 0.13208,-0.396225 0.42264,-1.030184 0.0528,-0.924523 0.13208,-1.532067 0.0792,-0.607544 0.1849,-0.924524 0.21132,-0.58113 0.66038,-0.97735 0.42264,-0.39623 1.03018,-0.60755 1.21509,-0.39622 2.27169,-0.5283 1.05659,-0.13207 1.9547,-0.0264 z"
         style="font-style:normal;font-variant:normal;font-weight:normal;font-stretch:normal;font-family:Mistral;-inkscape-font-specification:Mistral;fill:#ffffff;fill-opacity:1;stroke:#ffffff;stroke-width:2.48304605;stroke-miterlimit:4;stroke-dasharray:none;stroke-opacity:1"
         id="path7767" />
      <path
         d="m 149.99192,-77.366933 q 0.73962,0.184905 1.24151,0.396224 0.8981,-0.15849 1.82263,-0.343394 l 4.91318,0 q 0.7132,0 1.03018,0.369809 0.31698,0.369809 0.31698,1.109428 0,1.056598 -0.44905,1.584898 -0.42264,0.528299 -1.24151,0.528299 -0.26414,0 -0.81886,-0.07925 -0.55471,-0.07925 -0.81886,-0.07925 l -1.50565,0 q -0.95094,0.184905 -1.90188,0.343394 -2.2981,-0.369809 -2.56225,-0.369809 -0.3434,0 -0.92453,0.10566 -0.55471,0.07925 -0.8981,0.07925 -0.47547,0 -0.76604,-0.184905 -0.29056,-0.21132 -0.29056,-0.581129 0,-0.15849 0.26415,-0.449054 0.26415,-0.31698 0.76603,-0.766034 0.10566,-0.21132 0.26415,-0.528299 0.18491,-0.343395 0.42264,-0.792449 0.1849,-0.02642 0.44905,-0.10566 0.29057,-0.105659 0.68679,-0.237734 z"
         style="font-style:normal;font-variant:normal;font-weight:normal;font-stretch:normal;font-family:Mistral;-inkscape-font-specification:Mistral;fill:#ffffff;fill-opacity:1;stroke:#ffffff;stroke-width:2.48304605;stroke-miterlimit:4;stroke-dasharray:none;stroke-opacity:1"
         id="path7769" />
      <path
         d="m 244.76878,-77.366933 q 0.73962,0.184905 1.2415,0.396224 0.89811,-0.15849 1.82263,-0.343394 l 4.91318,0 q 0.71321,0 1.03019,0.369809 0.31698,0.369809 0.31698,1.109428 0,1.056598 -0.44906,1.584898 -0.42264,0.528299 -1.2415,0.528299 -0.26415,0 -0.81886,-0.07925 -0.55472,-0.07925 -0.81887,-0.07925 l -1.50565,0 q -0.95094,0.184905 -1.90188,0.343394 -2.2981,-0.369809 -2.56225,-0.369809 -0.34339,0 -0.92452,0.10566 -0.55471,0.07925 -0.89811,0.07925 -0.47547,0 -0.76603,-0.184905 -0.29057,-0.21132 -0.29057,-0.581129 0,-0.15849 0.26415,-0.449054 0.26415,-0.31698 0.76604,-0.766034 0.10566,-0.21132 0.26415,-0.528299 0.1849,-0.343395 0.42264,-0.792449 0.1849,-0.02642 0.44905,-0.10566 0.29056,-0.105659 0.68679,-0.237734 z"
         style="font-style:normal;font-variant:normal;font-weight:normal;font-stretch:normal;font-family:Mistral;-inkscape-font-specification:Mistral;fill:#ffffff;fill-opacity:1;stroke:#ffffff;stroke-width:2.48304605;stroke-miterlimit:4;stroke-dasharray:none;stroke-opacity:1"
         id="path7771" />
      <path
         d="m 260.01022,-91.129125 q -0.0793,-0.528299 -0.18491,-1.109428 0,0.237735 0.0793,-0.369809 0.0792,-0.607544 0.21132,-2.086782 0.21132,-0.290564 0.29056,-0.501884 0.10566,-0.237734 0.18491,-0.422639 -0.23774,-0.290565 -0.36981,-0.475469 -0.10566,-0.21132 -0.10566,-0.343395 0.21132,-1.611312 0.39622,-3.064134 0.0264,-0.396225 0.44906,-0.898105 0.44905,-0.50189 1.21508,-1.08302 0.60755,-0.50188 1.18868,-0.84528 0.58113,-0.34339 1.10942,-0.55471 0.71321,-0.23773 0.84528,-0.39622 0.13208,-0.15849 0.29057,-0.15849 0.42264,0 0.63396,0.42264 0.23773,0.42263 0.23773,1.26791 0,0.44906 -0.23773,1.24151 -0.21132,0.792445 -0.21132,1.162254 0,0.15849 0.0264,1.215088 0.0528,1.056598 0.13208,3.03772 0.0264,1.426408 0.39622,3.03772 0.39623,1.611312 1.00377,3.354699 0.81886,2.271686 1.7698,3.407529 0.95094,1.109428 2.08678,1.109428 0.89811,0 2.37735,-1.162258 1.47924,-1.162258 3.48677,-3.486774 1.53207,-1.796217 2.72074,-3.354699 1.21509,-1.558482 1.95471,-2.852815 0.68679,-1.162258 1.61131,-2.086782 0.92453,-0.924523 2.1132,-1.690557 0.36981,-0.211319 0.60754,-0.343394 0.23774,-0.132075 0.36981,-0.132075 0.47547,0 0.71321,0.713204 0.26415,0.713204 0.26415,2.113196 -0.15849,1.294333 -0.26415,2.562251 -0.23774,1.981122 -0.71321,4.120733 -0.44905,2.139611 -1.18867,4.437712 -0.36981,1.162258 -0.63396,2.033952 -0.26415,0.871693 -0.36981,1.479237 -0.0528,0.343395 -0.15849,0.871694 -0.0792,0.501884 -0.1849,1.188673 -0.26415,0.660374 -0.58113,1.320748 -0.26415,0.528299 -0.44906,1.267918 -0.15849,0.739618 -0.29056,1.716972 0,0.184904 -0.0264,0.475469 -0.0264,0.290564 -0.0528,0.607544 -0.60754,2.694325 -1.2415,5.230161 -0.0528,0.237734 -0.23773,0.607544 -0.3434,0.10566 -0.79245,0.449054 -0.42264,0.343394 -0.89811,0.950938 -0.47547,0.5283 -0.79245,0.792449 -0.31698,0.237735 -0.47547,0.237735 -0.21132,0 -0.34339,-0.132075 -0.13208,-0.132075 -0.13208,-0.449054 0.0264,-0.21132 0.0793,-0.343395 0.36981,-0.898108 0.63396,-2.588665 0.29056,-1.690557 0.52829,-4.173563 0.0264,-0.528299 0.42264,-2.852815 0.39623,-2.324516 1.16226,-6.445249 0.10566,-0.660374 0.26415,-1.611313 0.18491,-0.977353 0.44906,-2.218856 0.1849,-0.633959 0.29056,-1.083013 0.13208,-0.475469 0.13208,-0.686789 0,-0.264149 -0.10566,-0.369809 -0.0793,-0.132075 -0.26415,-0.132075 -0.15849,0 -0.58113,0.422639 -0.42264,0.396225 -1.0566,1.215088 -0.36981,0.449054 -0.76603,0.950939 -0.36981,0.501884 -0.79245,0.977353 -0.71321,0.739619 -1.32075,1.399993 l -1.95471,1.954706 q -0.26415,0.15849 -0.66037,0.396225 -0.36981,0.237734 -0.89811,0.554714 -0.50188,0.792448 -1.61131,1.373577 -1.08302,0.554714 -2.00754,0.554714 -1.10943,0 -2.13961,-0.686789 -1.00377,-0.713203 -1.95471,-2.166026 -0.42264,-0.713204 -0.84528,-1.426407 -0.39622,-0.713204 -0.87169,-1.426408 l -0.13207,0.02642 q -0.13208,0.15849 -0.50189,2.139611 -0.34339,1.981122 -0.89811,5.81129 -0.60754,3.935829 -0.92452,6.1811 -0.31698,2.245271 -0.31698,2.905645 -0.0528,0.898108 -0.34339,1.399993 -0.26415,0.475469 -0.84528,0.554714 -0.29057,0.02642 -0.81887,0.158489 -0.5283,0.10566 -1.26791,0.290565 -0.13208,-0.02642 -0.23774,-0.07925 -0.10566,-0.07925 -0.10566,-0.21132 l 0.15849,-0.977353 -0.26415,-1.003768 q 0.15849,-0.818864 0.31698,-1.584898 0.10566,-1.584897 0.18491,-2.984889 0.0264,-0.290565 0.1849,-0.977354 0.18491,-0.686789 0.18491,-1.030183 0,-0.184905 -0.0792,-0.528299 -0.0792,-0.36981 -0.0792,-0.554714 0,-1.452823 0.44905,-4.305638 0.47547,-2.852815 0.47547,-4.332053 -0.0792,-0.607543 -0.18491,-1.215087 0.13208,-0.950939 0.42264,-2.377346 0.29057,-1.426408 0.66038,-3.328285 z"
         style="font-style:normal;font-variant:normal;font-weight:normal;font-stretch:normal;font-family:Mistral;-inkscape-font-specification:Mistral;fill:#ffffff;fill-opacity:1;stroke:#ffffff;stroke-width:2.48304605;stroke-miterlimit:4;stroke-dasharray:none;stroke-opacity:1"
         id="path7773" />
      <path
         d="m 310.14579,-72.823561 1.00377,2.430176 q -0.29056,0.26415 -0.7132,0.581129 -0.39623,0.290564 -0.95094,0.633959 -0.55472,0.184905 -1.34716,0.528299 -0.76604,0.343394 -1.76981,0.792449 -0.76603,0.475469 -1.26791,0.713203 -0.47547,0.237735 -0.66038,0.237735 -0.34339,0 -1.26792,0.290565 -0.8981,0.290564 -2.37734,0.871693 -0.79245,0.290565 -1.69056,0.607544 -0.87169,0.290565 -1.82263,0.528299 l -1.63773,-0.343394 -1.00377,0.449054 q -0.50188,0 -1.03018,-0.02642 -0.50188,0 -0.97735,-0.05283 -0.76604,-0.02642 -1.16226,-0.21132 -0.36981,-0.184904 -0.36981,-0.528299 l 0.15849,-1.003768 -0.15849,-0.184905 q -0.89811,0 -1.21509,-0.237734 -0.29056,-0.237735 -0.29056,-1.109428 0,-0.396225 0.0264,-1.320748 0.0528,-0.924524 0.13208,-2.403761 0,-0.132075 0.15849,-0.554714 0.1849,-0.422639 0.1849,-0.607544 -0.13207,-0.26415 -0.15849,-0.422639 -0.0264,-0.15849 -0.0264,-0.290565 0.0528,-1.030183 0.21132,-2.535836 0.1849,-1.505652 0.44905,-3.566018 0.31698,-1.241503 0.5283,-2.799986 -0.0528,-1.162258 -0.10566,-2.377346 0.97735,-4.384882 2.00754,-8.822595 0.15849,-0.792448 0.58112,-1.505652 0.44906,-0.713204 1.0566,-1.373578 0.26415,-0.184904 0.3434,-0.290564 0.13207,-0.237735 0.34339,-0.581129 0.21132,-0.36981 0.50189,-0.818864 0.15849,-0.10566 0.50188,-0.316979 0.36981,-0.21132 0.97735,-0.581129 0.26415,-0.21132 0.60755,-0.501884 0.34339,-0.290565 0.79245,-0.68679 1.00376,-0.60754 1.84904,-1.26792 0.8717,-0.68679 2.16603,-0.84528 0.60754,-0.0264 1.21509,-0.0528 0.60754,-0.0528 1.16226,-0.10566 0.52829,-0.10566 0.92452,-0.13207 0.26415,-0.0528 0.44905,-0.10566 0.21132,-0.0528 0.36981,-0.0528 0.15849,0 0.42264,0.0528 0.29057,0.0264 0.76604,0.10566 0.3698,0.0264 0.63395,0.0264 0.26415,0 0.50189,-0.0264 1.0566,0.31698 1.55848,0.92452 0.50188,0.60755 0.50188,1.45283 0,1.822628 -0.3698,2.720736 -0.3434,0.871694 -1.10943,0.871694 -0.58113,0 -1.32075,-0.581129 -0.73962,-0.607544 -3.98866,-0.607544 -1.34716,0.264149 -2.66791,0.528299 -0.13207,0.211319 -0.31698,0.316979 -0.15849,0.10566 -0.29056,0.15849 l -0.92453,-0.343394 q -0.42264,0.158489 -0.95093,0.871693 -0.5283,0.713204 -1.10943,1.954707 -0.13208,0.264149 -0.21132,0.660374 -0.0528,0.396224 -0.0528,0.924523 -0.47547,1.901877 -0.95094,3.671679 -0.44906,1.901877 -0.73962,2.87923 -0.26415,0.977353 -0.31698,1.188673 -0.0792,0.264149 -0.13207,0.501884 -0.0528,0.237735 -0.0528,0.475469 0,0.343395 0.13207,0.528299 0.13208,0.184905 0.39623,0.184905 0.23773,0 1.13584,-0.871694 0.92452,-0.871693 1.37358,-0.977353 0.55471,-0.15849 1.10942,-0.343394 0.58113,-0.184905 1.18868,-0.449055 0.23773,-0.07924 1.2415,-0.211319 1.03018,-0.132075 2.85282,-0.31698 l 0.73961,0.21132 1.4,-0.26415 0.73962,0.343395 q 0.26414,0.264149 0.47546,0.660374 0.23774,0.369809 0.42264,0.818863 0,1.584898 -0.34339,2.403761 -0.3434,0.818864 -1.03018,0.818864 l -1.45283,-0.581129 q -1.79621,0.184905 -3.56602,0.369809 -1.74338,0.15849 -3.56601,0.31698 -2.21886,0.449054 -3.40753,1.452822 -1.18868,1.003769 -1.32075,2.641496 -0.0264,0.343394 -0.18491,1.056598 -0.15849,0.713204 -0.36981,1.769802 l 0.18491,0.792449 q -0.23774,1.135843 -0.36981,2.139611 -0.13207,1.003768 -0.13207,1.796217 0,0.264149 0.0792,0.396224 0.0792,0.10566 0.1849,0.05283 1.26792,-0.10566 2.03396,-0.15849 0.76603,-0.05283 1.08301,-0.02642 0.68679,0.05283 1.39999,0.10566 l 1.66414,-0.132075 q 0.26415,-0.05283 1.13585,-0.422639 0.89811,-0.369809 1.61131,-0.369809 0.76603,0 1.53207,-0.15849 0.79245,-0.15849 1.50565,-0.422639 0.7132,-0.26415 1.39999,-0.528299 0.71321,-0.290565 1.42641,-0.554714 0.26415,-0.07925 0.68679,-0.290565 0.44905,-0.211319 1.03018,-0.554714 z"
         style="font-style:normal;font-variant:normal;font-weight:normal;font-stretch:normal;font-family:Mistral;-inkscape-font-specification:Mistral;fill:#ffffff;fill-opacity:1;stroke:#ffffff;stroke-width:2.48304605;stroke-miterlimit:4;stroke-dasharray:none;stroke-opacity:1"
         id="path7775" />
      <path
         d="m 315.42879,-102.30265 q 1.08302,-0.31698 2.35093,-0.47547 1.29434,-0.15849 2.85282,-0.15849 0.29056,0 0.84528,0.10566 0.58113,0.0793 0.92452,0.0793 0.50189,0.0792 0.76604,0.15848 0.29056,0.0793 0.79244,0.18491 l 0.73962,-0.21132 q 0.23774,0.0264 0.50189,0.21132 0.29056,0.15849 0.68679,0.36981 0.21132,-0.13208 0.60754,-0.31698 0.39622,0 0.63396,0.31698 0.26415,0.29056 0.34339,0.84528 0,0.42264 0,0.84528 0,0.39622 -0.0528,0.845275 -0.0264,0.211319 0.0264,0.660373 0.0528,0.449055 0.0528,0.686789 0,0.290565 -0.13208,0.42264 -0.13207,0.132074 -0.34339,0.132074 -1.00377,0 -1.98112,-0.158489 -0.97736,-0.184905 -1.95471,-0.5283 -0.84528,0.15849 -1.47924,0.237735 -0.50188,0.05283 -0.73962,0.15849 -0.23773,0.10566 -0.23773,0.264149 0.10566,0.184905 0.29056,0.396225 0.18491,0.211319 0.44906,0.396224 0.1849,0.132075 0.42264,0.581129 0.23773,0.422639 0.50188,1.162258 0.10566,0.290565 0.13208,0.554714 0.0528,0.26415 0.0528,0.501884 0,0.554714 -0.10566,1.399993 -0.10566,0.818863 -0.23774,1.347163 -0.23773,1.030183 -0.36981,1.716972 -0.13207,0.660373 -0.21132,1.003768 -0.0528,0.264149 -0.0792,0.633959 -0.0264,0.369809 -0.0528,0.845278 -0.0264,0.396225 -0.21132,1.003769 -0.18491,0.581129 -0.36981,1.347162 0,0.343395 -0.0793,0.792449 -0.0792,0.449054 -0.21131,1.030183 -0.0793,0.343395 -0.26415,0.792449 -0.15849,0.422639 -0.31698,1.003768 0.0528,0.396225 0.0792,0.818864 -0.10566,0.739619 -0.21132,1.532067 -0.15849,1.135843 -0.31698,2.298101 -0.15849,1.162258 -0.29056,2.245271 -0.15849,0.31698 -0.3434,0.713204 0,0.184905 0.0528,0.581129 0.0793,0.36981 0.0793,0.607544 0,0.290565 -0.10566,0.871694 -0.10566,0.554714 -0.10566,0.818863 0,0.501885 -0.0264,1.558483 -0.0264,1.056598 -0.0264,1.584897 0.13207,0.449054 0.23773,0.871694 -0.0792,0.369809 -0.1849,0.607544 -0.0793,0.211319 -0.23774,0.343394 -0.47547,0.290564 -0.87169,0.475469 -0.26415,0.26415 -0.44905,0.422639 -0.15849,0.15849 -0.29057,0.15849 -0.58113,0 -0.81886,-0.15849 -0.23774,-0.158489 -0.23774,-0.422639 0.0528,-0.871693 0.18491,-1.690557 -0.0528,-0.10566 -0.13208,-0.316979 -0.0528,-0.21132 -0.1849,-0.5283 -0.13208,-2.060366 -0.3434,-4.226392 0.0793,-1.558483 0.0793,-3.14338 0,-0.739619 0.0528,-1.849047 0.0792,-1.135843 0.26415,-2.61508 0.1849,-1.479238 0.26415,-2.588666 0.0792,-1.109428 0.0792,-1.822632 0,-0.316979 0.0528,-0.792449 0.0793,-0.501884 0.15849,-1.215088 0.0793,-0.607543 0.15849,-1.083013 0.0793,-0.501884 0.0793,-0.898108 0,-0.21132 -0.0264,-0.449054 -0.0264,-0.237735 -0.0528,-0.42264 0.26415,-0.660374 0.39623,-1.056598 0.13207,-0.422639 0.13207,-0.554714 -0.10566,-0.343394 -0.23773,-0.686789 0.15849,-0.369809 0.34339,-1.320747 0.18491,-0.977354 0.39623,-2.535836 0,-0.31698 0,-0.766034 0,-0.449054 0.0264,-1.083013 l -0.15849,-0.475469 q -0.10566,-0.05283 -0.39622,-0.132075 -0.26415,-0.07925 -0.68679,-0.132075 l -0.3434,0.237735 q -0.34339,0.07925 -0.7132,0.15849 -0.3434,0.07924 -0.73962,0.184904 -2.74715,0.766034 -5.44148,1.505653 -0.21132,0 -0.34339,-0.15849 -0.13208,-0.184905 -0.13208,-0.475469 0,-0.15849 0.13208,-0.554714 0.13207,-0.396225 0.42263,-1.030184 0.0528,-0.924523 0.13208,-1.532067 0.0792,-0.607544 0.1849,-0.924524 0.21132,-0.58113 0.66038,-0.97735 0.42264,-0.39623 1.03018,-0.60755 1.21509,-0.39622 2.27169,-0.5283 1.0566,-0.13207 1.9547,-0.0264 z"
         style="font-style:normal;font-variant:normal;font-weight:normal;font-stretch:normal;font-family:Mistral;-inkscape-font-specification:Mistral;fill:#ffffff;fill-opacity:1;stroke:#ffffff;stroke-width:2.48304605;stroke-miterlimit:4;stroke-dasharray:none;stroke-opacity:1"
         id="path7777" />
      <path
         d="m 348.18333,-72.823561 1.00377,2.430176 q -0.29057,0.26415 -0.71321,0.581129 -0.39622,0.290564 -0.95094,0.633959 -0.55471,0.184905 -1.34716,0.528299 -0.76603,0.343394 -1.7698,0.792449 -0.76603,0.475469 -1.26792,0.713203 -0.47547,0.237735 -0.66037,0.237735 -0.3434,0 -1.26792,0.290565 -0.89811,0.290564 -2.37735,0.871693 -0.79244,0.290565 -1.69055,0.607544 -0.8717,0.290565 -1.82263,0.528299 l -1.63773,-0.343394 -1.00377,0.449054 q -0.50188,0 -1.03018,-0.02642 -0.50189,0 -0.97736,-0.05283 -0.76603,-0.02642 -1.16225,-0.21132 -0.36981,-0.184904 -0.36981,-0.528299 l 0.15849,-1.003768 -0.15849,-0.184905 q -0.89811,0 -1.21509,-0.237734 -0.29057,-0.237735 -0.29057,-1.109428 0,-0.396225 0.0264,-1.320748 0.0528,-0.924524 0.13207,-2.403761 0,-0.132075 0.15849,-0.554714 0.18491,-0.422639 0.18491,-0.607544 -0.13208,-0.26415 -0.15849,-0.422639 -0.0264,-0.15849 -0.0264,-0.290565 0.0528,-1.030183 0.21132,-2.535836 0.18491,-1.505652 0.44906,-3.566018 0.31698,-1.241503 0.5283,-2.799986 -0.0528,-1.162258 -0.10566,-2.377346 0.97735,-4.384882 2.00753,-8.822595 0.15849,-0.792448 0.58113,-1.505652 0.44906,-0.713204 1.0566,-1.373578 0.26415,-0.184904 0.34339,-0.290564 0.13208,-0.237735 0.3434,-0.581129 0.21132,-0.36981 0.50188,-0.818864 0.15849,-0.10566 0.50189,-0.316979 0.36981,-0.21132 0.97735,-0.581129 0.26415,-0.21132 0.60754,-0.501884 0.3434,-0.290565 0.79245,-0.68679 1.00377,-0.60754 1.84905,-1.26792 0.87169,-0.68679 2.16603,-0.84528 0.60754,-0.0264 1.21508,-0.0528 0.60755,-0.0528 1.16226,-0.10566 0.5283,-0.10566 0.92453,-0.13207 0.26414,-0.0528 0.44905,-0.10566 0.21132,-0.0528 0.36981,-0.0528 0.15849,0 0.42264,0.0528 0.29056,0.0264 0.76603,0.10566 0.36981,0.0264 0.63396,0.0264 0.26415,0 0.50188,-0.0264 1.0566,0.31698 1.55849,0.92452 0.50188,0.60755 0.50188,1.45283 0,1.822628 -0.36981,2.720736 -0.34339,0.871694 -1.10943,0.871694 -0.58113,0 -1.32074,-0.581129 -0.73962,-0.607544 -3.98866,-0.607544 -1.34716,0.264149 -2.66791,0.528299 -0.13208,0.211319 -0.31698,0.316979 -0.15849,0.10566 -0.29057,0.15849 l -0.92452,-0.343394 q -0.42264,0.158489 -0.95094,0.871693 -0.5283,0.713204 -1.10943,1.954707 -0.13207,0.264149 -0.21132,0.660374 -0.0528,0.396224 -0.0528,0.924523 -0.47547,1.901877 -0.95093,3.671679 -0.44906,1.901877 -0.73962,2.87923 -0.26415,0.977353 -0.31698,1.188673 -0.0793,0.264149 -0.13208,0.501884 -0.0528,0.237735 -0.0528,0.475469 0,0.343395 0.13208,0.528299 0.13207,0.184905 0.39622,0.184905 0.23774,0 1.13585,-0.871694 0.92452,-0.871693 1.37357,-0.977353 0.55472,-0.15849 1.10943,-0.343394 0.58113,-0.184905 1.18867,-0.449055 0.23774,-0.07924 1.24151,-0.211319 1.03018,-0.132075 2.85281,-0.31698 l 0.73962,0.21132 1.39999,-0.26415 0.73962,0.343395 q 0.26415,0.264149 0.47547,0.660374 0.23774,0.369809 0.42264,0.818863 0,1.584898 -0.34339,2.403761 -0.3434,0.818864 -1.03019,0.818864 l -1.45282,-0.581129 q -1.79622,0.184905 -3.56602,0.369809 -1.74339,0.15849 -3.56602,0.31698 -2.21885,0.449054 -3.40753,1.452822 -1.18867,1.003769 -1.32074,2.641496 -0.0264,0.343394 -0.18491,1.056598 -0.15849,0.713204 -0.36981,1.769802 l 0.18491,0.792449 q -0.23774,1.135843 -0.36981,2.139611 -0.13208,1.003768 -0.13208,1.796217 0,0.264149 0.0793,0.396224 0.0792,0.10566 0.1849,0.05283 1.26792,-0.10566 2.03395,-0.15849 0.76604,-0.05283 1.08302,-0.02642 0.68678,0.05283 1.39999,0.10566 l 1.66414,-0.132075 q 0.26415,-0.05283 1.13584,-0.422639 0.89811,-0.369809 1.61132,-0.369809 0.76603,0 1.53206,-0.15849 0.79245,-0.15849 1.50566,-0.422639 0.7132,-0.26415 1.39999,-0.528299 0.7132,-0.290565 1.42641,-0.554714 0.26415,-0.07925 0.68679,-0.290565 0.44905,-0.211319 1.03018,-0.554714 z"
         style="font-style:normal;font-variant:normal;font-weight:normal;font-stretch:normal;font-family:Mistral;-inkscape-font-specification:Mistral;fill:#ffffff;fill-opacity:1;stroke:#ffffff;stroke-width:2.48304605;stroke-miterlimit:4;stroke-dasharray:none;stroke-opacity:1"
         id="path7779" />
      <path
         d="m 358.14178,-79.770694 q 0,0.528299 0.73962,1.426408 0.76603,0.871693 2.27168,2.166026 0.97736,0.818863 2.00754,1.611312 1.0566,0.766034 2.08678,1.558482 0.44905,0.36981 1.16226,0.977354 0.7132,0.581129 1.66414,1.373577 0.68679,0.5283 1.42641,1.056599 0.76603,0.528299 1.63773,1.056598 0.58112,0.449054 1.29433,0.977353 0.7132,0.528299 1.63773,1.135843 0.52829,0.31698 0.81886,1.162258 0.29056,0.818864 0.34339,2.139612 l -0.23773,0.686788 -0.26415,0.132075 q -0.26415,0 -0.7132,-0.237734 -0.42264,-0.21132 -1.08302,-0.633959 -0.13207,-0.07925 -1.21509,-0.581129 -1.05659,-0.501884 -3.06413,-1.426408 -1.10943,-0.475469 -2.03395,-1.056598 -0.92453,-0.607544 -1.69056,-1.267918 -0.44905,-0.396224 -1.16226,-0.871693 -0.68679,-0.47547 -1.63772,-1.030184 -0.97736,-0.554714 -1.69056,-1.056598 -0.71321,-0.501884 -1.13584,-0.845278 -1.42641,-1.162258 -2.32452,-1.769802 -0.89811,-0.607544 -1.2415,-0.607544 -0.26415,0.369809 -0.29057,0.766033 -0.31698,1.241503 -0.68679,3.14338 -0.34339,1.875462 -0.76603,4.384882 0,0.449055 -0.15849,0.660374 -0.15849,0.237735 -0.47547,0.237735 -1.03018,0 -1.55848,-0.501884 -0.5283,-0.501884 -0.5283,-1.505653 0,-1.347162 0.15849,-2.8264 0.1849,-1.479237 0.58113,-3.116965 0.13207,-0.713203 0.1849,-1.267917 0.0793,-0.581129 0.0793,-1.056599 0,-1.215088 -1.0566,-2.086781 -1.03018,-0.871694 -1.03018,-1.241503 0,-0.581129 0.15849,-1.003768 0.1849,-0.449054 0.52829,-0.713204 0.8717,-0.554714 1.61132,-1.056598 0.1849,-0.10566 0.23773,-0.343395 0.0793,-0.264149 0.0793,-0.713203 0,-0.26415 0,-0.554714 0,-0.31698 0,-0.581129 0.0792,-2.350931 0.13207,-4.886767 0,-0.184905 0,-0.581129 0,-0.396224 -0.0528,-1.030183 -0.0528,-0.47547 -0.0264,-0.871694 0.0264,-0.422639 0.0264,-0.766034 -0.15849,-0.528299 -0.29056,-0.898108 -0.10566,-0.396224 -0.10566,-0.739619 0,-0.316979 0.0528,-0.977353 0.0528,-0.686789 0.0528,-0.977353 0,-0.36981 -0.0793,-1.030184 -0.0528,-0.660374 -0.0528,-1.003768 0,-0.950938 0.42264,-1.822632 0.44906,-0.871693 1.34716,-1.716973 0.8717,-0.73962 1.76981,-1.10943 0.92452,-0.39622 1.87546,-0.39622 0.44905,0 1.32075,0.0792 0.8981,0.0528 1.39999,0.0528 0.34339,0 1.87546,0.58113 0.60754,0.0528 1.08301,0.15849 0.47547,0.0793 0.76604,0.18491 0.66037,0.31698 1.03018,0.50188 0.36981,0.15849 0.5283,0.18491 0.44905,0.158485 0.76603,0.264145 0.3434,0.10566 0.55472,0.26415 0.34339,0.158489 0.79245,0.369809 0.47546,0.21132 1.05659,0.475469 0.95094,0.475469 1.76981,1.109428 0.84527,0.633959 1.58489,1.373578 0.84528,0.950938 1.26792,1.875462 0.42264,0.898108 0.42264,1.796217 0,0.264149 -0.0528,0.766033 -0.0264,0.47547 -0.13207,1.083014 -0.0793,0.766033 -0.79245,1.664142 -0.71321,0.871693 -2.06037,1.928292 -1.18867,0.924523 -2.21886,1.558482 -1.03018,0.607544 -1.90187,0.871693 -0.3434,0.237735 -0.5283,0.449055 -0.26415,0.264149 -1.10943,0.739618 -0.84528,0.47547 -2.2981,1.188673 -2.6415,1.294333 -3.75092,1.716972 -1.10943,0.396225 -1.10943,0.871694 z m -2.77357,-12.732008 q 0.50188,-0.36981 0.95094,-0.713204 0.44905,-0.36981 1.16225,-0.36981 0.31698,0 0.76604,0.713204 0.47547,0.686789 0.47547,1.030183 0,0.184905 -0.13208,0.845279 -0.13207,0.660374 -0.42264,1.796217 -0.60754,2.562251 -0.68679,3.222624 -0.0792,0.633959 -0.34339,2.007537 -0.10566,0.343394 -0.21132,0.898109 0,0.237734 0.0792,0.343394 0.10566,0.10566 0.26415,0.10566 5.25658,-2.641496 5.44148,-2.747156 0.21132,-0.05283 0.44906,-0.132074 0.23773,-0.10566 0.44905,-0.21132 l 0.39623,-0.501884 q 1.53206,-0.977353 3.16979,-2.086782 1.03019,-0.792448 1.53207,-1.558482 0.50188,-0.766034 0.50188,-1.532067 0,-0.977354 -1.13584,-1.928292 -1.13584,-0.950938 -3.40753,-1.822632 -1.92829,-0.766034 -3.51319,-1.109428 -1.58489,-0.369809 -2.87923,-0.369809 -1.69055,0 -2.56225,0.607544 -0.84528,0.581129 -0.84528,1.743387 0,0.898108 0.13208,1.373577 0.13207,0.449055 0.36981,0.396225 z"
         style="font-style:normal;font-variant:normal;font-weight:normal;font-stretch:normal;font-family:Mistral;-inkscape-font-specification:Mistral;fill:#ffffff;fill-opacity:1;stroke:#ffffff;stroke-width:2.48304605;stroke-miterlimit:4;stroke-dasharray:none;stroke-opacity:1"
         id="path7781" />
    </g>
    <ellipse
       ry="2.4956439"
       rx="18.776752"
       cy="207.52649"
       cx="81.815094"
       id="ellipse4283"
       style="opacity:1;fill:#000000;fill-opacity:1;stroke:none;stroke-width:10;stroke-linecap:round;stroke-linejoin:round;stroke-miterlimit:4;stroke-dasharray:none;stroke-opacity:1" />
    <path
       inkscape:connector-curvature="0"
       id="path4285"
       d="m 121.41976,151.39899 a 9.8240086,9.4053457 50.967294 0 0 -12.44013,-2.43012 l -0.0231,-0.0286 -0.17981,0.14581 a 9.8240086,9.4053457 50.967294 0 0 -0.84987,0.60512 9.8240086,9.4053457 50.967294 0 0 -0.72544,0.67218 l -16.680767,13.52341 a 23.719227,22.708409 50.967294 0 0 -24.845327,2.17047 23.719227,22.708409 50.967294 0 0 -2.702062,32.7258 23.719227,22.708409 50.967294 0 0 32.577246,4.12399 23.719227,22.708409 50.967294 0 0 7.26773,-23.86439 l 16.63262,-13.48462 a 9.8240086,9.4053457 50.967294 0 0 0.84961,-0.60473 9.8240086,9.4053457 50.967294 0 0 0.72547,-0.67225 l 0.22192,-0.17985 -0.0229,-0.0286 a 9.8240086,9.4053457 50.967294 0 0 0.19459,-12.67416 z"
       style="opacity:1;fill:#ffffff;fill-opacity:1;stroke:#000000;stroke-width:3.16757321;stroke-linecap:round;stroke-linejoin:round;stroke-miterlimit:4;stroke-dasharray:none;stroke-opacity:1" />
    <path
       inkscape:connector-curvature="0"
       style="opacity:1;fill:#ff0000;fill-opacity:1;stroke:#ff0000;stroke-width:0.60054219;stroke-linecap:round;stroke-linejoin:round;stroke-miterlimit:4;stroke-dasharray:none;stroke-opacity:1"
       d="m 113.1116,158.1347 a 7.4449708,7.4449708 0 0 0 -9.64064,-1.66892 l -0.0175,-0.0214 -0.14232,0.11533 a 7.4449708,7.4449708 0 0 0 -0.67131,0.48057 7.4449708,7.4449708 0 0 0 -0.57566,0.5304 L 88.8602,168.27537 a 17.975242,17.975242 0 0 0 -19.370222,2.08411 17.975242,17.975242 0 0 0 -2.642745,25.2829 17.975242,17.975242 0 0 0 25.283207,2.6431 17.975242,17.975242 0 0 0 6.04946,-18.52457 l 13.16587,-10.67412 a 7.4449708,7.4449708 0 0 0 0.67112,-0.48037 7.4449708,7.4449708 0 0 0 0.57564,-0.5304 l 0.17564,-0.14236 -0.0173,-0.0214 a 7.4449708,7.4449708 0 0 0 0.36056,-9.77764 z"
       id="path4287" />
    <path
       inkscape:connector-curvature="0"
       style="opacity:1;fill:url(#linearGradient4315);fill-opacity:1;stroke:none;stroke-width:3.79181194;stroke-linecap:round;stroke-linejoin:round;stroke-miterlimit:4;stroke-dasharray:none;stroke-opacity:1"
       d="m 112.59266,158.24945 a 7.6418544,7.4746799 50.967294 0 0 -9.7833,-1.80407 l -0.018,-0.0221 -0.14285,0.11559 a 7.6418544,7.4746799 50.967294 0 0 -0.67471,0.48173 7.6418544,7.4746799 50.967294 0 0 -0.57724,0.53333 l -13.256655,10.74755 a 18.450601,18.046977 50.967294 0 0 -19.597102,1.9079 18.450601,18.046977 50.967294 0 0 -2.399116,25.6975 18.450601,18.046977 50.967294 0 0 25.638285,2.96689 18.450601,18.046977 50.967294 0 0 5.924038,-18.78292 l 13.21836,-10.71655 a 7.6418544,7.4746799 50.967294 0 0 0.67451,-0.48154 7.6418544,7.4746799 50.967294 0 0 0.57725,-0.53326 l 0.17638,-0.14308 -0.0178,-0.0221 a 7.6418544,7.4746799 50.967294 0 0 0.25782,-9.94535 z"
       id="path4289" />
    <g
       transform="matrix(0.11347746,0.04206188,-0.03646546,0.09837895,131.19281,144.25738)"
       id="g4291">
      <circle
         style="opacity:1;fill:#000000;fill-opacity:1;stroke:none;stroke-width:10;stroke-linecap:round;stroke-linejoin:round;stroke-miterlimit:4;stroke-dasharray:none;stroke-opacity:1"
         id="circle4293"
         cx="-355.66815"
         cy="485.09399"
         r="34.516319" />
      <rect
         style="opacity:1;fill:#000000;fill-opacity:1;stroke:none;stroke-width:10;stroke-linecap:round;stroke-linejoin:round;stroke-miterlimit:4;stroke-dasharray:none;stroke-opacity:1"
         id="rect4295"
         width="90.042564"
         height="34.516315"
         x="-125.00571"
         y="553.13422"
         transform="matrix(0.87284447,0.4879985,-0.4879985,0.87284447,0,0)" />
    </g>
    <g
       id="g4297"
       transform="matrix(-0.11347746,-0.04206188,-0.03646546,0.09837895,66.132928,120.39546)">
      <circle
         r="34.516319"
         cy="485.09399"
         cx="-355.66815"
         id="circle4299"
         style="opacity:1;fill:#000000;fill-opacity:1;stroke:none;stroke-width:10;stroke-linecap:round;stroke-linejoin:round;stroke-miterlimit:4;stroke-dasharray:none;stroke-opacity:1" />
      <rect
         transform="matrix(0.87284447,0.4879985,-0.4879985,0.87284447,0,0)"
         y="553.13422"
         x="-125.00571"
         height="34.516315"
         width="90.042564"
         id="rect4301"
         style="opacity:1;fill:#000000;fill-opacity:1;stroke:none;stroke-width:10;stroke-linecap:round;stroke-linejoin:round;stroke-miterlimit:4;stroke-dasharray:none;stroke-opacity:1" />
    </g>
    <path
       inkscape:connector-curvature="0"
       id="path4303"
       d="m 85.505361,188.76722 a 12.293909,7.5736656 29.495925 0 0 -15.487723,-1.86306 12.293909,7.5736656 29.495925 0 0 1.956309,10.65079 15.027866,8.2482185 49.180234 0 1 1.051922,-8.83158 15.027866,8.2482185 49.180234 0 1 16.06104,5.96002 15.027866,8.2482185 49.180234 0 1 2.051629,2.71029 12.293909,7.5736656 29.495925 0 0 -5.63321,-8.62646 z"
       style="opacity:1;fill:#000000;fill-opacity:1;stroke:none;stroke-width:10;stroke-linecap:round;stroke-linejoin:round;stroke-miterlimit:4;stroke-dasharray:none;stroke-opacity:1" />
    <rect
       y="12.311874"
       x="183.78499"
       height="1.9014504"
       width="9.269536"
       id="rect4305"
       style="opacity:1;fill:#000000;fill-opacity:1;stroke:none;stroke-width:10;stroke-linecap:round;stroke-linejoin:round;stroke-miterlimit:4;stroke-dasharray:none;stroke-opacity:1"
       transform="matrix(0.6297639,0.7767866,-0.7767866,0.6297639,0,0)" />
    <rect
       style="opacity:1;fill:#000000;fill-opacity:1;stroke:none;stroke-width:10;stroke-linecap:round;stroke-linejoin:round;stroke-miterlimit:4;stroke-dasharray:none;stroke-opacity:1"
       id="rect4307"
       width="9.269536"
       height="1.9014504"
       x="183.78499"
       y="17.54084"
       transform="matrix(0.6297639,0.7767866,-0.7767866,0.6297639,0,0)" />
    <rect
       y="22.769833"
       x="183.78499"
       height="1.9014504"
       width="9.269536"
       id="rect4309"
       style="opacity:1;fill:#000000;fill-opacity:1;stroke:none;stroke-width:10;stroke-linecap:round;stroke-linejoin:round;stroke-miterlimit:4;stroke-dasharray:none;stroke-opacity:1"
       transform="matrix(0.6297639,0.7767866,-0.7767866,0.6297639,0,0)" />
  </g>
</svg>
