<?xml version="1.0" encoding="UTF-8" standalone="no"?>
<!-- Created with Inkscape (http://www.inkscape.org/) -->

<svg
   xmlns:dc="http://purl.org/dc/elements/1.1/"
   xmlns:cc="http://creativecommons.org/ns#"
   xmlns:rdf="http://www.w3.org/1999/02/22-rdf-syntax-ns#"
   xmlns:svg="http://www.w3.org/2000/svg"
   xmlns="http://www.w3.org/2000/svg"
   xmlns:sodipodi="http://sodipodi.sourceforge.net/DTD/sodipodi-0.dtd"
   xmlns:inkscape="http://www.inkscape.org/namespaces/inkscape"
   width="24.644426mm"
   height="24.583004mm"
   viewBox="0 0 87.322771 87.105131"
   id="svg4203"
   version="1.1"
   inkscape:version="0.91 r13725"
   sodipodi:docname="grantometer-icon.svg"
   inkscape:export-filename="/Users/ogu/Documents/projects/swift-grant-o-meter/Public/images/favicon.png"
   inkscape:export-xdpi="94.114906"
   inkscape:export-ydpi="94.114906">
  <defs
     id="defs4205" />
  <sodipodi:namedview
     id="base"
     pagecolor="#000000"
     bordercolor="#666666"
     borderopacity="1.0"
     inkscape:pageopacity="0"
     inkscape:pageshadow="2"
     inkscape:zoom="2.8284271"
     inkscape:cx="-366.83605"
     inkscape:cy="-15.623162"
     inkscape:document-units="px"
     inkscape:current-layer="g4170"
     showgrid="false"
     fit-margin-top="0"
     fit-margin-left="0"
     fit-margin-right="0"
     fit-margin-bottom="0"
     inkscape:window-width="1399"
     inkscape:window-height="855"
     inkscape:window-x="41"
     inkscape:window-y="1"
     inkscape:window-maximized="1" />
  <metadata
     id="metadata4208">
    <rdf:RDF>
      <cc:Work
         rdf:about="">
        <dc:format>image/svg+xml</dc:format>
        <dc:type
           rdf:resource="http://purl.org/dc/dcmitype/StillImage" />
        <dc:title></dc:title>
      </cc:Work>
    </rdf:RDF>
  </metadata>
  <g
     inkscape:label="Layer 1"
     inkscape:groupmode="layer"
     id="layer1"
     transform="translate(-32.978578,-266.66144)">
    <g
       transform="matrix(0.99129263,0,0,0.99129263,19.401881,-378.48726)"
       id="g4170">
      <path
         style="opacity:1;fill:#ffffff;fill-opacity:1;stroke:none;stroke-width:19.60443115;stroke-linecap:round;stroke-linejoin:round;stroke-miterlimit:4;stroke-dasharray:none;stroke-opacity:1"
         d="m 37.572183,729.8563 a 21.34154,2.8365337 0 0 0 -8.939789,2.3043 21.34154,2.8365337 0 0 0 21.341644,2.8366 21.34154,2.8365337 0 0 0 21.341651,-2.8366 21.34154,2.8365337 0 0 0 -8.345258,-2.24524 26.959128,25.810236 0 0 1 -12.652187,3.03314 26.959128,25.810236 0 0 1 -12.746061,-3.0922 z"
         id="path5033"
         inkscape:connector-curvature="0" />
      <path
         inkscape:connector-curvature="0"
         style="opacity:1;fill:none;fill-opacity:1;stroke:#ffffff;stroke-width:3.52903748;stroke-linecap:round;stroke-linejoin:round;stroke-miterlimit:4;stroke-dasharray:none;stroke-opacity:1"
         d="m 90.383229,659.11987 a 10.800734,10.800734 0 0 0 -14.46527,0.30334 l -0.04443,-0.0384 -0.724983,0.83816 -16.99745,19.65104 a 27.001848,27.028928 40.858645 0 0 -28.435851,8.11022 27.001848,27.028928 40.858645 0 0 2.740008,38.10714 27.001848,27.028928 40.858645 0 0 38.104366,-2.7782 27.001848,27.028928 40.858645 0 0 3.942797,-29.32327 l 16.983877,-19.63535 0.724976,-0.83817 -0.05206,-0.0451 a 10.800734,10.800734 0 0 0 -1.776008,-14.35145 z"
         id="path5035" />
      <path
         inkscape:connector-curvature="0"
         id="path5037"
         d="m 68.656764,667.96179 -1.51991,1.75723 3.28804,2.84398 0.183178,-0.21165 0.0021,0.002 c 0.01721,-0.0215 0.03456,-0.043 0.05205,-0.0644 0.437967,-0.50239 0.952883,-0.93209 1.525529,-1.27309 z m 3.530984,3.05423 3.498281,3.02575 -1.520261,1.75723 -3.740874,-3.236 -3.449067,3.98805 3.740882,3.23564 -1.519911,1.75723 -3.740874,-3.236 -5.960797,6.89145 c -9.088586,-4.16069 -19.832424,-1.82703 -26.376011,5.7291 -8.129798,9.399 -7.100966,23.60888 2.297969,31.73875 9.398998,8.12981 23.608884,7.10097 31.738758,-2.29796 6.533281,-7.56393 7.294142,-18.53083 1.867978,-26.92449 l 11.114701,-12.84978 -0.0035,-0.003 c 0.0191,-0.0198 0.03813,-0.0397 0.05695,-0.0598 2.276483,-2.63174 1.988418,-6.61066 -0.643402,-8.88704 -2.060371,-1.77735 -5.02898,-2.03115 -7.361155,-0.62934 z m -6.731824,7.2919 1.519903,-1.75687 -3.288383,-2.84434 -1.51991,1.75723 z m -26.634082,15.50742 c 0.575766,1.89557 1.935293,3.59077 3.761977,4.69087 1.671191,1.00236 3.604231,1.43021 5.4183,1.19926 l -1.566319,2.60385 c -0.720456,0.0886 -1.465526,0.0741 -2.210777,-0.0429 -0.05835,0.37574 -0.18886,0.73665 -0.384283,1.06285 -0.83965,1.39572 -2.651837,1.84641 -4.047459,1.00659 -1.395511,-0.83964 -1.84617,-2.65157 -1.006597,-4.04711 0.128997,-0.21192 0.284217,-0.40671 0.461987,-0.57977 -0.938939,-0.95369 -1.625825,-2.08744 -1.993141,-3.28979 z m 24.592769,0 1.566319,2.60386 c -0.36721,1.20231 -1.053977,2.33606 -1.992791,3.28978 0.177771,0.17306 0.33299,0.36785 0.46198,0.57977 0.839517,1.39565 0.388697,3.20759 -1.006939,4.04711 -1.395553,0.83958 -3.207474,0.38892 -4.04711,-1.00659 -0.195422,-0.32619 -0.325916,-0.6871 -0.384289,-1.06285 -0.745245,0.117 -1.490322,0.13146 -2.210777,0.0429 l -1.566312,-2.60385 c 1.814062,0.23095 3.747108,-0.1969 5.418293,-1.19926 1.826565,-1.10016 3.185959,-2.79536 3.761626,-4.69087 z m -5.401774,16.76505 c 1.936713,-0.003 3.887384,0.24163 5.753012,0.73798 0.977819,0.24118 1.567599,1.2376 1.308619,2.21086 -0.25898,0.97326 -1.265975,1.54477 -2.234349,1.26809 -4.088935,-1.08787 -8.977906,-0.63029 -12.302006,1.06108 -1.662054,0.84569 -2.771039,1.89956 -3.344293,2.90798 -0.573253,1.00841 -0.678623,1.93258 -0.33576,2.95508 0.408742,1.16467 -0.449127,2.38591 -1.683401,2.39642 -0.788581,0.006 -1.489649,-0.50085 -1.729801,-1.25201 -0.663028,-1.97736 -0.390545,-4.10239 0.619137,-5.87852 1.009689,-1.77613 2.688773,-3.24224 4.841345,-4.33753 2.690724,-1.36909 5.87965,-2.06396 9.107497,-2.06943 z"
         style="opacity:1;fill:#ffffff;fill-opacity:1;stroke:none;stroke-width:19.60443115;stroke-linecap:round;stroke-linejoin:round;stroke-miterlimit:4;stroke-dasharray:none;stroke-opacity:1"
         sodipodi:nodetypes="ccccccccccccccccccsccccccccccccccccccccccccscccccccccscscsscccsssc" />
      <rect
         style="opacity:1;fill:#000080;fill-opacity:1;stroke:none;stroke-width:5;stroke-linecap:round;stroke-linejoin:round;stroke-miterlimit:4;stroke-dasharray:none;stroke-opacity:1"
         id="rect4780"
         width="64.562164"
         height="64.562164"
         x="-322.08139"
         y="816.20258" />
      <g
         id="g4792"
         transform="matrix(0.78025865,0,0,0.78025865,-70.574295,192.5763)">
        <path
           style="opacity:1;fill:#ffffff;fill-opacity:1;stroke:none;stroke-width:19.60443115;stroke-linecap:round;stroke-linejoin:round;stroke-miterlimit:4;stroke-dasharray:none;stroke-opacity:1"
           d="m -302.01216,875.28367 a 21.34154,2.8365337 0 0 0 -8.93979,2.3043 21.34154,2.8365337 0 0 0 21.34165,2.8366 21.34154,2.8365337 0 0 0 21.34165,-2.8366 21.34154,2.8365337 0 0 0 -8.34526,-2.24524 26.959128,25.810236 0 0 1 -12.65219,3.03314 26.959128,25.810236 0 0 1 -12.74606,-3.0922 z"
           id="path4786"
           inkscape:connector-curvature="0" />
        <path
           inkscape:connector-curvature="0"
           style="opacity:1;fill:none;fill-opacity:1;stroke:#ffffff;stroke-width:3.52903748;stroke-linecap:round;stroke-linejoin:round;stroke-miterlimit:4;stroke-dasharray:none;stroke-opacity:1"
           d="m -249.20111,804.54724 a 10.800734,10.800734 0 0 0 -14.46527,0.30334 l -0.0444,-0.0384 -0.72499,0.83816 -16.99745,19.65104 a 27.001848,27.028928 40.858645 0 0 -28.43585,8.11022 27.001848,27.028928 40.858645 0 0 2.74001,38.10714 27.001848,27.028928 40.858645 0 0 38.10437,-2.7782 27.001848,27.028928 40.858645 0 0 3.94279,-29.32327 l 16.98388,-19.63535 0.72498,-0.83817 -0.0521,-0.0451 a 10.800734,10.800734 0 0 0 -1.77601,-14.35145 z"
           id="path4788" />
        <path
           inkscape:connector-curvature="0"
           id="path4790"
           d="m -267.47852,809.40146 c -35.75486,143.18133 -17.87743,71.59066 0,0 z m -3.44906,3.9877 -1.51991,1.75723 3.28804,2.84398 0.18318,-0.21165 0.002,0.002 c 0.0172,-0.0215 0.0346,-0.043 0.0521,-0.0644 0.43797,-0.50239 0.95288,-0.93209 1.52553,-1.27309 z m 3.53099,3.05423 3.49828,3.02575 -1.52026,1.75723 -3.74088,-3.236 -3.44906,3.98805 3.74088,3.23564 -1.51991,1.75723 -3.74088,-3.236 -5.96079,6.89145 c -9.08859,-4.16069 -19.83243,-1.82703 -26.37602,5.7291 -8.12979,9.399 -7.10096,23.60888 2.29797,31.73875 9.399,8.12981 23.60889,7.10097 31.73876,-2.29796 6.53328,-7.56393 7.29414,-18.53083 1.86798,-26.92449 l 11.1147,-12.84978 -0.004,-0.003 c 0.0191,-0.0198 0.0381,-0.0397 0.057,-0.0598 2.27648,-2.63174 1.98842,-6.61066 -0.6434,-8.88704 -2.06037,-1.77735 -5.02898,-2.03115 -7.36116,-0.62934 z m -6.73183,7.2919 1.51991,-1.75687 -3.28839,-2.84434 -1.51991,1.75723 z m -26.63408,15.50742 c 0.57577,1.89557 1.93529,3.59077 3.76198,4.69087 1.67119,1.00236 3.60423,1.43021 5.4183,1.19926 l -1.56632,2.60385 c -0.72046,0.0886 -1.46553,0.0741 -2.21078,-0.0429 -0.0584,0.37574 -0.18886,0.73665 -0.38428,1.06285 -0.83965,1.39572 -2.65184,1.84641 -4.04746,1.00659 -1.39551,-0.83964 -1.84617,-2.65157 -1.0066,-4.04711 0.129,-0.21192 0.28422,-0.40671 0.46199,-0.57977 -0.93894,-0.95369 -1.62583,-2.08744 -1.99314,-3.28979 z m 24.59277,0 1.56632,2.60386 c -0.36721,1.20231 -1.05398,2.33606 -1.99279,3.28978 0.17777,0.17306 0.33299,0.36785 0.46198,0.57977 0.83951,1.39565 0.38869,3.20759 -1.00694,4.04711 -1.39555,0.83958 -3.20748,0.38892 -4.04711,-1.00659 -0.19542,-0.32619 -0.32592,-0.6871 -0.38429,-1.06285 -0.74525,0.117 -1.49032,0.13146 -2.21078,0.0429 l -1.56631,-2.60385 c 1.81406,0.23095 3.74711,-0.1969 5.41829,-1.19926 1.82657,-1.10016 3.18596,-2.79536 3.76163,-4.69087 z m -5.40177,16.76505 c 1.93671,-0.003 3.88738,0.24163 5.75301,0.73798 0.97782,0.24118 1.5676,1.2376 1.30862,2.21086 -0.25898,0.97326 -1.26598,1.54477 -2.23435,1.26809 -4.08894,-1.08787 -8.97791,-0.63029 -12.30201,1.06108 -1.66205,0.84569 -2.77104,1.89956 -3.34429,2.90798 -0.57325,1.00841 -0.67862,1.93258 -0.33576,2.95508 0.40874,1.16467 -0.44913,2.38591 -1.6834,2.39642 -0.78858,0.006 -1.48965,-0.50085 -1.7298,-1.25201 -0.66303,-1.97736 -0.39055,-4.10239 0.61913,-5.87852 1.00969,-1.77613 2.68878,-3.24224 4.84135,-4.33753 2.69072,-1.36909 5.87965,-2.06396 9.1075,-2.06943 z"
           style="opacity:1;fill:#ffffff;fill-opacity:1;stroke:none;stroke-width:19.60443115;stroke-linecap:round;stroke-linejoin:round;stroke-miterlimit:4;stroke-dasharray:none;stroke-opacity:1"
           sodipodi:nodetypes="ccccccccccccccccccccsccccccccccccccccccccccccccccccccccscscsscccsss" />
      </g>
      <g
         transform="matrix(0.18361047,0,0,0.18361047,-208.44432,598.96604)"
         id="g4813"
         style="fill:#550000"
         inkscape:export-xdpi="100.25863"
         inkscape:export-ydpi="100.25863">
        <path
           sodipodi:nodetypes="ccsccccccccccccccccccscccccccccscscsscccsssc"
           style="opacity:1;fill:#550000;fill-opacity:1;stroke:none;stroke-width:19.60443115;stroke-linecap:round;stroke-linejoin:round;stroke-miterlimit:4;stroke-dasharray:none;stroke-opacity:1"
           d="m -274.65689,820.70436 c -13.25903,-6.06988 -28.93284,-2.66538 -38.47906,8.35799 -11.86027,13.71187 -10.35934,34.44217 3.35243,46.30255 13.71188,11.8603 34.44219,10.35936 46.30257,-3.3524 9.53118,-11.03476 10.64116,-27.03399 2.72513,-39.27921 l 16.21485,-18.7461 -0.006,-0.005 c 0.0279,-0.0289 0.0556,-0.058 0.0832,-0.0873 3.32107,-3.83936 2.90083,-9.64406 -0.93864,-12.96499 -10.39889,-7.77231 -24.32323,14.51776 -29.25461,19.77377 z m -30.15954,12.56954 c 0.83997,2.76538 2.82333,5.23846 5.48822,6.84335 2.43804,1.46231 5.25808,2.08648 7.90456,1.74956 l -2.28504,3.79866 c -1.05105,0.12926 -2.13801,0.10809 -3.22524,-0.0626 -0.0852,0.54815 -0.27551,1.07467 -0.5606,1.55055 -1.22494,2.03617 -3.86868,2.69367 -5.9047,1.46848 -2.03586,-1.22492 -2.69331,-3.86828 -1.46849,-5.90419 0.18819,-0.30916 0.41463,-0.59333 0.67397,-0.84581 -1.36979,-1.3913 -2.37186,-3.04529 -2.90772,-4.79935 z m 35.87753,0 2.28506,3.79868 c -0.53572,1.75401 -1.53762,3.40799 -2.90722,4.79934 0.25934,0.25248 0.48579,0.53665 0.67396,0.84581 1.22474,2.03607 0.56705,4.67945 -1.46898,5.90419 -2.03592,1.22483 -4.67928,0.56738 -5.90419,-1.46848 -0.28509,-0.47587 -0.47548,-1.00239 -0.56063,-1.55055 -1.08721,0.17069 -2.17418,0.19177 -3.22523,0.0626 l -2.28503,-3.79866 c 2.64647,0.33692 5.46653,-0.28725 7.90455,-1.74956 2.66472,-1.60498 4.64789,-4.07806 5.48771,-6.84335 z m -7.88045,24.45795 c 2.8254,-0.005 5.67116,0.35251 8.39287,1.07662 1.4265,0.35184 2.28691,1.80548 1.90909,3.22534 -0.37781,1.41986 -1.84689,2.25361 -3.25961,1.84997 -5.96521,-1.58705 -13.09756,-0.91951 -17.94698,1.54797 -2.42471,1.23375 -4.04257,2.7712 -4.87887,4.24235 -0.83629,1.47114 -0.99,2.81938 -0.48982,4.31107 0.5963,1.6991 -0.65522,3.48071 -2.45585,3.49605 -1.15043,0.009 -2.1732,-0.73068 -2.52355,-1.82651 -0.96727,-2.88471 -0.56976,-5.98484 0.90322,-8.57597 1.47301,-2.59113 3.92257,-4.72999 7.06289,-6.32787 3.92539,-1.99732 8.57761,-3.01104 13.28661,-3.01902 z"
           id="path4819"
           inkscape:connector-curvature="0"
           inkscape:export-xdpi="94.114906"
           inkscape:export-ydpi="94.114906" />
      </g>
      <g
         transform="matrix(0.39012934,0,0,0.39012934,-377.90893,458.88639)"
         id="g4847">
        <path
           inkscape:connector-curvature="0"
           id="path4849"
           d="m -302.01216,875.28367 a 21.34154,2.8365337 0 0 0 -8.93979,2.3043 21.34154,2.8365337 0 0 0 21.34165,2.8366 21.34154,2.8365337 0 0 0 21.34165,-2.8366 21.34154,2.8365337 0 0 0 -8.34526,-2.24524 26.959128,25.810236 0 0 1 -12.65219,3.03314 26.959128,25.810236 0 0 1 -12.74606,-3.0922 z"
           style="opacity:1;fill:#ffffff;fill-opacity:1;stroke:none;stroke-width:19.60443115;stroke-linecap:round;stroke-linejoin:round;stroke-miterlimit:4;stroke-dasharray:none;stroke-opacity:1" />
        <path
           id="path4851"
           d="m -249.20111,804.54724 a 10.800734,10.800734 0 0 0 -14.46527,0.30334 l -0.0444,-0.0384 -0.72499,0.83816 -16.99745,19.65104 a 27.001848,27.028928 40.858645 0 0 -28.43585,8.11022 27.001848,27.028928 40.858645 0 0 2.74001,38.10714 27.001848,27.028928 40.858645 0 0 38.10437,-2.7782 27.001848,27.028928 40.858645 0 0 3.94279,-29.32327 l 16.98388,-19.63535 0.72498,-0.83817 -0.0521,-0.0451 a 10.800734,10.800734 0 0 0 -1.77601,-14.35145 z"
           style="opacity:1;fill:none;fill-opacity:1;stroke:#ffffff;stroke-width:3.52903748;stroke-linecap:round;stroke-linejoin:round;stroke-miterlimit:4;stroke-dasharray:none;stroke-opacity:1"
           inkscape:connector-curvature="0" />
        <path
           sodipodi:nodetypes="ccscccccccccccccccscccccccccscscsscccsssc"
           style="opacity:1;fill:#ffffff;fill-opacity:1;stroke:none;stroke-width:19.60443115;stroke-linecap:round;stroke-linejoin:round;stroke-miterlimit:4;stroke-dasharray:none;stroke-opacity:1"
           d="m -280.08921,830.62674 c -9.08859,-4.16069 -19.83243,-1.82703 -26.37602,5.7291 -8.12979,9.399 -7.10096,23.60888 2.29797,31.73875 9.399,8.12981 23.60889,7.10097 31.73876,-2.29796 6.53328,-7.56393 7.29414,-18.53083 1.86798,-26.92449 3.981,-4.72914 16.47592,-15.46788 10.5243,-21.79962 -6.19862,-4.44704 -18.74886,12.07546 -20.05299,13.55422 z m -20.67329,8.61597 c 0.57577,1.89557 1.93529,3.59077 3.76198,4.69087 1.67119,1.00236 3.60423,1.43021 5.4183,1.19926 l -1.56632,2.60385 c -0.72046,0.0886 -1.46553,0.0741 -2.21078,-0.0429 -0.0584,0.37574 -0.18886,0.73665 -0.38428,1.06285 -0.83965,1.39572 -2.65184,1.84641 -4.04746,1.00659 -1.39551,-0.83964 -1.84617,-2.65157 -1.0066,-4.04711 0.129,-0.21192 0.28422,-0.40671 0.46199,-0.57977 -0.93894,-0.95369 -1.62583,-2.08744 -1.99314,-3.28979 z m 24.59277,0 1.56632,2.60386 c -0.36721,1.20231 -1.05398,2.33606 -1.99279,3.28978 0.17777,0.17306 0.33299,0.36785 0.46198,0.57977 0.83951,1.39565 0.38869,3.20759 -1.00694,4.04711 -1.39555,0.83958 -3.20748,0.38892 -4.04711,-1.00659 -0.19542,-0.32619 -0.32592,-0.6871 -0.38429,-1.06285 -0.74525,0.117 -1.49032,0.13146 -2.21078,0.0429 l -1.56631,-2.60385 c 1.81406,0.23095 3.74711,-0.1969 5.41829,-1.19926 1.82657,-1.10016 3.18596,-2.79536 3.76163,-4.69087 z m -5.40177,16.76505 c 1.93671,-0.003 3.88738,0.24163 5.75301,0.73798 0.97782,0.24118 1.5676,1.2376 1.30862,2.21086 -0.25898,0.97326 -1.26598,1.54477 -2.23435,1.26809 -4.08894,-1.08787 -8.97791,-0.63029 -12.30201,1.06108 -1.66205,0.84569 -2.77104,1.89956 -3.34429,2.90798 -0.57325,1.00841 -0.67862,1.93258 -0.33576,2.95508 0.40874,1.16467 -0.44913,2.38591 -1.6834,2.39642 -0.78858,0.006 -1.48965,-0.50085 -1.7298,-1.25201 -0.66303,-1.97736 -0.39055,-4.10239 0.61913,-5.87852 1.00969,-1.77613 2.68878,-3.24224 4.84135,-4.33753 2.69072,-1.36909 5.87965,-2.06396 9.1075,-2.06943 z"
           id="path4853"
           inkscape:connector-curvature="0" />
      </g>
    </g>
  </g>
</svg>
