<?xml version="1.0" encoding="UTF-8" standalone="no"?>
<!-- Created with Inkscape (http://www.inkscape.org/) -->

<svg
   xmlns:dc="http://purl.org/dc/elements/1.1/"
   xmlns:cc="http://creativecommons.org/ns#"
   xmlns:rdf="http://www.w3.org/1999/02/22-rdf-syntax-ns#"
   xmlns:svg="http://www.w3.org/2000/svg"
   xmlns="http://www.w3.org/2000/svg"
   xmlns:sodipodi="http://sodipodi.sourceforge.net/DTD/sodipodi-0.dtd"
   xmlns:inkscape="http://www.inkscape.org/namespaces/inkscape"
   width="100"
   height="370"
   viewBox="0 0 99.999998 369.99998"
   id="svg4203"
   version="1.1"
   inkscape:version="0.91 r13725"
   sodipodi:docname="grantometer-m.svg">
  <defs
     id="defs4205" />
  <sodipodi:namedview
     id="base"
     pagecolor="#ffffff"
     bordercolor="#666666"
     borderopacity="1.0"
     inkscape:pageopacity="0.0"
     inkscape:pageshadow="2"
     inkscape:zoom="0.80610173"
     inkscape:cx="-241.83389"
     inkscape:cy="20.315472"
     inkscape:document-units="px"
     inkscape:current-layer="layer1"
     showgrid="false"
     fit-margin-top="0"
     fit-margin-left="0"
     fit-margin-right="0"
     fit-margin-bottom="0"
     inkscape:window-width="1399"
     inkscape:window-height="855"
     inkscape:window-x="41"
     inkscape:window-y="1"
     inkscape:window-maximized="1"
     units="px" />
  <metadata
     id="metadata4208">
    <rdf:RDF>
      <cc:Work
         rdf:about="">
        <dc:format>image/svg+xml</dc:format>
        <dc:type
           rdf:resource="http://purl.org/dc/dcmitype/StillImage" />
        <dc:title />
      </cc:Work>
    </rdf:RDF>
  </metadata>
  <g
     inkscape:label="Layer 1"
     inkscape:groupmode="layer"
     id="layer1"
     transform="translate(-57.681025,-13.550712)">
    <g
       style="fill:none;fill-opacity:1;stroke:#000000;stroke-width:19.20357895;stroke-linecap:round;stroke-linejoin:round;stroke-miterlimit:4;stroke-dasharray:none;stroke-opacity:1"
       id="g5031"
       transform="matrix(0.14309913,0.12377568,-0.12377568,0.14309913,9.732455,62.224948)">
      <path
         style="opacity:1;fill:#ffffff;fill-opacity:1;stroke:none;stroke-width:19.20357895;stroke-linecap:round;stroke-linejoin:round;stroke-miterlimit:4;stroke-dasharray:none;stroke-opacity:1"
         d="m 735.85669,414.65035 a 118.55605,15.757449 0 0 0 -49.66211,12.80078 118.55605,15.757449 0 0 0 118.55664,15.75781 118.55605,15.757449 0 0 0 118.55665,-15.75781 118.55605,15.757449 0 0 0 -46.35938,-12.47266 149.76275,143.38045 0 0 1 -70.28516,16.84961 149.76275,143.38045 0 0 1 -70.80664,-17.17773 z"
         id="path5033"
         inkscape:connector-curvature="0"
         transform="matrix(0.75632585,-0.65419507,0.65419507,0.75632585,10.174361,594.84457)" />
      <path
         inkscape:connector-curvature="0"
         style="opacity:1;fill:none;fill-opacity:1;stroke:#ffffff;stroke-width:19.20357895;stroke-linecap:round;stroke-linejoin:round;stroke-miterlimit:4;stroke-dasharray:none;stroke-opacity:1"
         d="m 802.80273,-614.42578 a 60,60 0 0 0 -59.67382,53.84375 l -0.32618,0 0,6.15625 0,144.33594 a 150.00006,150.1505 0 0 0 -90,137.41601 150.00006,150.1505 0 0 0 150,150.15039 150.00006,150.1505 0 0 0 150,-150.15039 150.00006,150.1505 0 0 0 -90,-137.53125 l 0,-144.2207 0,-6.15625 -0.38281,0 a 60,60 0 0 0 -59.61719,-53.84375 z"
         transform="translate(0,552.36216)"
         id="path5035" />
      <path
         inkscape:connector-curvature="0"
         id="path5037"
         transform="matrix(0.75632585,-0.65419507,0.65419507,0.75632585,371.52697,1012.6104)"
         d="m 936.14258,-513.46094 -8.44531,9.76172 39.04882,33.77539 8.44336,-9.76367 -39.04687,-33.77344 z m -27.60547,31.91406 -8.44336,9.76172 18.26563,15.79883 1.01757,-1.17578 0.0117,0.0117 a 35,35 0 0 1 0.28906,-0.35742 35,35 0 0 1 8.47461,-7.07227 l -19.61523,-16.9668 z m 19.61523,16.9668 19.4336,16.8086 -8.44532,9.76171 -20.78124,-17.97656 -19.16016,22.1543 20.78125,17.97461 -8.44336,9.76172 -20.78125,-17.97657 -33.11328,38.28321 a 125,125 0 0 0 -146.52344,31.82617 125,125 0 0 0 12.76563,176.31445 125,125 0 0 0 176.31445,-12.76562 125,125 0 0 0 10.37695,-149.57032 l 61.74414,-71.38281 -0.0176,-0.0156 a 35,35 0 0 0 0.31641,-0.33203 35,35 0 0 0 -3.57422,-49.36914 35,35 0 0 0 -40.89258,-3.4961 z m -37.39648,40.50781 8.44336,-9.75976 -18.26758,-15.80078 -8.44336,9.76172 18.26758,15.79882 z m -147.95703,86.14649 a 43.310747,37.232189 31.03174 0 0 20.89844,26.05859 43.310747,37.232189 31.03174 0 0 30.09961,6.66211 l -8.70118,14.46485 a 43.310747,37.232189 31.03174 0 1 -12.28125,-0.23829 16.382164,16.382164 0 0 1 -2.13476,5.9043 16.382164,16.382164 0 0 1 -22.48438,5.5918 16.382164,16.382164 0 0 1 -5.59179,-22.48242 16.382164,16.382164 0 0 1 2.5664,-3.22071 43.310747,37.232189 31.03174 0 1 -11.07226,-18.27539 l 8.70117,-14.46484 z m 136.61719,0 8.70117,14.46484 a 37.232189,43.310747 58.96826 0 1 -11.07031,18.27539 16.382164,16.382164 0 0 1 2.5664,3.22071 16.382164,16.382164 0 0 1 -5.59375,22.48242 16.382164,16.382164 0 0 1 -22.48242,-5.5918 16.382164,16.382164 0 0 1 -2.13477,-5.9043 37.232189,43.310747 58.96826 0 1 -12.28125,0.23829 l -8.70117,-14.46485 a 37.232189,43.310747 58.96826 0 0 30.09961,-6.66211 37.232189,43.310747 58.96826 0 0 20.89649,-26.05859 z m -30.00782,93.13281 c 10.75877,-0.0182 21.59513,1.34231 31.95899,4.09961 a 10.001,10.001 0 1 1 -5.14258,19.32617 c -22.71477,-6.04326 -49.87386,-3.50135 -68.33984,5.89453 -9.23299,4.69795 -15.39359,10.5524 -18.57813,16.1543 -3.18454,5.6019 -3.76986,10.73581 -1.86523,16.41602 a 10.001,10.001 0 0 1 -9.35157,13.3125 10.001,10.001 0 0 1 -9.60937,-6.95508 c -3.68324,-10.98461 -2.16954,-22.78952 3.43945,-32.65625 5.609,-9.86673 14.93658,-18.01124 26.89453,-24.09571 14.94745,-7.60555 32.66247,-11.46571 50.59375,-11.49609 z"
         style="opacity:1;fill:#ffffff;fill-opacity:1;stroke:none;stroke-width:19.20357895;stroke-linecap:round;stroke-linejoin:round;stroke-miterlimit:4;stroke-dasharray:none;stroke-opacity:1" />
    </g>
    <g
       transform="matrix(0,1,-1,0,0,0)"
       style="font-style:normal;font-weight:normal;font-size:7.56812px;line-height:125%;font-family:sans-serif;letter-spacing:0px;word-spacing:0px;fill:#000000;fill-opacity:1;stroke:none;stroke-width:1px;stroke-linecap:butt;stroke-linejoin:miter;stroke-miterlimit:4;stroke-dasharray:none;stroke-opacity:1"
       id="text5039">
      <path
         d="m 41.209174,-107.46102 q 0.664012,0.20209 1.356894,0.46192 0.692882,0.23096 1.356894,0.49079 0.230961,0.11548 0.692883,0.63515 0.490791,0.51966 1.241413,1.47237 0.837233,1.01045 0.981583,1.35689 0.173221,0.31758 0.635142,1.61673 0.317571,0.49079 0.808363,1.789945 0.519661,1.270284 0.519661,1.847686 0,1.039323 -1.558984,2.540567 -1.558985,1.472375 -2.453958,1.472375 -0.577402,0 -0.866103,-0.346441 -0.25983,-0.375312 -0.25983,-1.068194 -0.259831,-1.154803 -0.404182,-1.992036 -0.808362,-3.146842 -2.165256,-4.734692 -1.328024,-1.58786 -3.26232,-1.58786 -0.981583,0 -1.934296,0.34644 -0.923843,0.31758 -1.703335,0.98159 -0.404181,0.31757 -1.068193,1.06819 -0.664012,0.75062 -1.587855,1.876556 -0.11548,0.202091 -0.317571,0.461922 -0.20209,0.25983 -0.490791,0.692882 -0.259831,0.490791 -0.692882,1.183673 -0.404182,0.664012 -1.010453,1.530115 -0.259831,0.750622 -0.519662,1.385764 -0.259831,0.635142 -0.635142,1.183674 -0.08661,0.11548 -0.17322,0.461921 -0.08661,0.317571 -0.202091,0.866103 -0.202091,0.664012 -0.461921,1.443504 -0.230961,0.779492 -0.519662,1.703335 -0.461921,3.14684 -0.664012,4.994525 -0.202091,1.818816 -0.202091,2.367347 0,1.241414 0.202091,2.482828 0.230961,1.241414 0.692882,2.482827 0.346441,0.894973 0.664012,1.530115 0.317571,0.635142 0.606272,0.923843 0.433051,0.433051 1.097063,0.664012 0.664012,0.23096 1.472375,0.23096 1.154803,0 2.194126,-0.404181 1.039323,-0.404181 1.934296,-1.125933 0.259831,-0.230961 1.039323,-1.039323 0.779493,-0.837233 2.107517,-2.251867 0.2887,-0.230961 0.692882,-0.635142 0.433051,-0.433051 0.923842,-0.952713 0.548532,-0.750622 1.010454,-1.501244 0.490791,-0.750623 0.981582,-1.443505 0.606272,-0.779492 1.328024,-1.154803 0.750623,-0.375311 1.616725,-0.375311 1.183674,0 1.761076,0.519661 0.577401,0.519662 0.577401,1.558985 0,0.346441 -0.20209,0.981583 -0.202091,0.606272 -0.259831,0.952713 -0.05774,0.519661 -0.17322,1.299154 -0.115481,0.750622 -0.259831,1.789945 -0.05774,1.299154 -0.288701,2.309607 -0.202091,1.010453 -0.577402,1.761075 -0.461921,0.981583 -0.808362,3.14684 -0.317571,2.165256 -0.808363,3.175709 -0.17322,0.288701 -0.317571,0.894973 -0.14435,0.635142 -0.317571,1.587855 -0.11548,0.606272 -0.288701,1.039323 -0.14435,0.433051 -0.433051,0.692882 -0.230961,0.173221 -0.635142,0.375311 -0.404181,0.202091 -1.125933,0.433051 -0.115481,0.664012 -0.404181,0.981583 -0.288701,0.346441 -0.779493,0.346441 -0.404181,0 -0.635142,-0.346441 -0.20209,-0.346441 -0.20209,-1.125933 0,-0.288701 0.08661,-0.923843 0.11548,-0.606272 0.375311,-1.558984 0.11548,-0.461922 0.202091,-1.241414 0.08661,-0.779493 0.11548,-1.905426 0.05774,-0.577402 0.288701,-1.818815 0.259831,-1.241414 0.721752,-3.06023 l -0.375311,-1.876555 q 0.11548,-0.346441 0.202091,-0.779493 0,-0.20209 -0.115481,-0.288701 -0.08661,-0.11548 -0.288701,-0.11548 -1.010453,0.692882 -1.674465,1.328024 -1.472374,1.270284 -2.482827,2.078646 -1.010453,0.808363 -1.558985,1.183674 -1.154803,0.750622 -2.338477,1.241414 -1.183673,0.490791 -2.425087,0.664012 l -1.270284,-0.259831 q -0.577402,0.08661 -0.981583,0.17322 -0.635142,0 -1.356894,-0.317571 -0.721752,-0.31757 -1.558985,-0.923842 -0.721752,-0.577402 -1.356894,-1.385764 -0.606272,-0.808363 -1.068193,-1.934296 -0.173221,-0.346441 -0.433051,-1.385764 -0.259831,-1.039324 -0.692883,-2.656049 0.259831,-0.692882 0.317571,-1.501244 0.05774,-0.808362 -0.05774,-1.732205 l 0.577402,-4.330513 q 0.692882,-5.427577 2.713788,-9.642609 2.049776,-4.215033 5.312096,-7.361872 1.097064,-1.09706 1.847686,-1.76108 0.750622,-0.66401 0.952713,-0.92384 0.635142,-0.49079 1.385764,-0.98158 0.779492,-0.49079 1.674465,-0.98158 0.461921,-0.25984 1.039323,-0.51967 0.606272,-0.2887 1.414634,-0.5774 l 2.684918,-0.31757 0.894973,0.23096 0.404181,-0.14435 z"
         style="font-style:normal;font-variant:normal;font-weight:normal;font-stretch:normal;font-size:59.12593842px;font-family:Mistral;-inkscape-font-specification:Mistral;fill:#ffffff"
         id="path5242" />
      <path
         d="m 58.617837,-83.931898 q 0,0.577402 0.808362,1.558985 0.837233,0.952713 2.482828,2.367347 1.068193,0.894973 2.194126,1.761075 1.154804,0.837233 2.280737,1.703336 0.490792,0.404181 1.270284,1.068193 0.779492,0.635142 1.818815,1.501244 0.750623,0.577402 1.558985,1.154804 0.837233,0.577402 1.789946,1.154803 0.635141,0.490792 1.414634,1.068194 0.779492,0.577401 1.789945,1.241413 0.577402,0.346441 0.894973,1.270284 0.317571,0.894973 0.375311,2.338477 l -0.259831,0.750622 -0.288701,0.144351 q -0.2887,0 -0.779492,-0.259831 -0.461921,-0.230961 -1.183674,-0.692882 -0.14435,-0.08661 -1.328024,-0.635142 -1.154803,-0.548532 -3.34893,-1.558985 -1.212543,-0.519661 -2.222996,-1.154803 -1.010453,-0.664012 -1.847686,-1.385764 -0.490791,-0.433052 -1.270284,-0.952713 -0.750622,-0.519662 -1.789945,-1.125934 -1.068193,-0.606271 -1.847686,-1.154803 -0.779492,-0.548532 -1.241413,-0.923843 -1.558985,-1.270284 -2.540568,-1.934296 -0.981583,-0.664012 -1.356894,-0.664012 -0.288701,0.404182 -0.317571,0.837233 -0.346441,1.356894 -0.750622,3.43554 -0.375312,2.049776 -0.837233,4.792435 0,0.490791 -0.173221,0.721752 -0.17322,0.259831 -0.519661,0.259831 -1.125933,0 -1.703335,-0.548532 -0.577402,-0.548532 -0.577402,-1.645595 0,-1.472374 0.173221,-3.089099 0.20209,-1.616725 0.635141,-3.406671 0.144351,-0.779492 0.202091,-1.385764 0.08661,-0.635142 0.08661,-1.154803 0,-1.328024 -1.154803,-2.280737 -1.125934,-0.952713 -1.125934,-1.356894 0,-0.635142 0.173221,-1.097064 0.202091,-0.490791 0.577402,-0.779492 0.952713,-0.606272 1.761075,-1.154803 0.202091,-0.115481 0.259831,-0.375311 0.08661,-0.288701 0.08661,-0.779493 0,-0.288701 0,-0.606272 0,-0.346441 0,-0.635142 0.08661,-2.569437 0.144351,-5.340966 0,-0.20209 0,-0.635142 0,-0.433051 -0.05774,-1.125933 -0.05774,-0.519662 -0.02887,-0.952713 0.02887,-0.461921 0.02887,-0.837232 -0.17322,-0.577402 -0.317571,-0.981583 -0.11548,-0.433052 -0.11548,-0.808363 0,-0.346441 0.05774,-1.068193 0.05774,-0.750626 0.05774,-1.068196 0,-0.40418 -0.08661,-1.12593 -0.05774,-0.72175 -0.05774,-1.09706 0,-1.03933 0.461921,-1.99204 0.490792,-0.95271 1.472375,-1.87656 0.952713,-0.80836 1.934296,-1.21254 1.010453,-0.43305 2.049776,-0.43305 0.490791,0 1.443504,0.0866 0.981583,0.0577 1.530115,0.0577 0.375311,0 2.049776,0.63514 0.664012,0.0577 1.183674,0.17322 0.519661,0.0866 0.837232,0.20209 0.721752,0.34644 1.125933,0.54853 0.404182,0.17323 0.577402,0.2021 0.490792,0.17322 0.837233,0.2887 0.375311,0.11548 0.606272,0.2887 0.375311,0.17322 0.866102,0.40418 0.519662,0.23096 1.154804,0.51966 1.039323,0.51966 1.934296,1.21254 0.923842,0.69289 1.732205,1.50125 0.923843,1.03932 1.385764,2.049774 0.461921,0.981583 0.461921,1.963166 0,0.288701 -0.05774,0.837233 -0.02887,0.519661 -0.14435,1.183673 -0.08661,0.837233 -0.866103,1.818816 -0.779492,0.952712 -2.251867,2.107516 -1.299154,1.010453 -2.425087,1.703335 -1.125933,0.664012 -2.078646,0.952713 -0.375311,0.259831 -0.577402,0.490791 -0.288701,0.288701 -1.212544,0.808363 -0.923842,0.519661 -2.511697,1.299154 -2.887009,1.414634 -4.099553,1.876555 -1.212543,0.433052 -1.212543,0.952713 z M 55.586478,-97.84728 q 0.548531,-0.404181 1.039323,-0.779492 0.490791,-0.404181 1.270284,-0.404181 0.346441,0 0.837232,0.779492 0.519662,0.750622 0.519662,1.125934 0,0.20209 -0.144351,0.923842 -0.14435,0.721752 -0.461921,1.963166 -0.664012,2.800399 -0.750622,3.522151 -0.08661,0.692882 -0.375312,2.194126 -0.11548,0.375312 -0.23096,0.981583 0,0.259831 0.08661,0.375312 0.11548,0.11548 0.288701,0.11548 5.745147,-2.887009 5.947238,-3.002489 0.23096,-0.05774 0.490791,-0.144351 0.259831,-0.11548 0.490792,-0.23096 l 0.433051,-0.548532 q 1.674465,-1.068193 3.46441,-2.280737 1.125934,-0.866102 1.674466,-1.703335 0.548531,-0.837232 0.548531,-1.674465 0,-1.068193 -1.241414,-2.107516 -1.241413,-1.039324 -3.724241,-1.992038 -2.107516,-0.83723 -3.839721,-1.21254 -1.732206,-0.40418 -3.14684,-0.40418 -1.847685,0 -2.800398,0.66401 -0.923843,0.63514 -0.923843,1.905424 0,0.981583 0.14435,1.501245 0.144351,0.490792 0.404182,0.433051 z"
         style="font-style:normal;font-variant:normal;font-weight:normal;font-stretch:normal;font-size:59.12593842px;font-family:Mistral;-inkscape-font-specification:Mistral;fill:#ffffff"
         id="path5244" />
      <path
         d="m 75.016048,-78.995113 q -0.08661,-0.317571 -0.08661,-0.519661 -0.02887,-0.202091 -0.02887,-0.346441 0,-0.952713 0.230961,-1.616725 0.230961,-0.692882 0.692882,-1.154804 0.11548,-0.11548 0.577402,-0.346441 0.490791,-0.230961 1.270284,-0.548531 0.548531,-0.259831 0.866102,-0.606272 0.346441,-0.375311 0.375311,-0.894973 0.08661,-0.404181 0.346441,-0.923843 0.259831,-0.519661 0.606272,-1.125933 0.11548,-0.173221 0.692882,-1.992036 0.577402,-1.818816 1.616725,-5.340966 0.288701,-1.068194 0.577402,-1.847686 0.288701,-0.779492 0.490791,-1.328024 0.923843,-2.453961 1.501245,-3.204581 0.606272,-0.77949 0.894973,-1.27028 l 0,-0.14435 -0.894973,-1.41464 1.125933,-1.29915 1.443505,-0.2887 q 0.433051,-0.0577 0.779492,-0.80836 0.375311,-0.75063 1.270284,-1.6456 0.20209,-0.0577 0.635142,-0.34644 0.461921,-0.31757 1.154803,-0.8661 0.606272,-0.49079 1.039323,-0.72176 0.433052,-0.23096 0.664012,-0.23096 0.779493,0 1.125934,0.31758 0.346441,0.31757 0.346441,0.83723 0,0.63514 -0.664012,1.84768 -0.664012,1.21255 -0.664012,1.84769 0,0.2887 0.11548,0.49079 0.144351,0.17322 0.317571,0.23096 l 3.464411,1.87656 q 0.2887,0.11548 0.519661,0.92384 0.230961,0.77949 0.375311,2.165256 0.173221,1.154803 0.259831,1.934296 0.11548,0.750622 0.11548,1.212543 -0.20209,1.241414 -0.404181,2.511698 0.288701,1.616725 0.635142,3.40667 -0.17322,1.703335 -0.375311,3.464411 0,0.17322 0.05774,0.317571 0.08661,0.11548 0.230961,0.14435 0.490791,0.02887 0.721752,0.259831 0.259831,0.230961 0.259831,0.635142 0,0.519661 -0.173221,0.837232 -0.14435,0.288701 -0.433051,0.461922 -0.375311,0.23096 -0.606272,0.404181 -0.202091,0.173221 -0.288701,0.288701 l 0.375311,1.789945 -0.519661,4.099553 q 0,0.519661 -0.08661,1.328024 -0.08661,0.808362 -0.259831,1.876555 -0.288701,0.779493 -0.433052,1.299154 -0.14435,0.519662 -0.14435,0.692882 0.14435,0.490792 0.259831,1.039323 -0.173221,0.779493 -0.375311,1.558985 -0.173221,0.779493 -0.346441,1.530115 -0.317571,1.010453 -0.837233,1.472374 -0.519661,0.490792 -1.212544,0.490792 -0.375311,0 -0.577401,-0.346441 -0.173221,-0.317571 -0.173221,-0.981583 0,-0.288701 0.08661,-0.837233 0.115481,-0.548531 0.115481,-0.837232 0,-0.202091 -0.05774,-0.548532 -0.05774,-0.346441 -0.05774,-0.606272 0,-0.808362 0.144351,-2.569438 0.17322,-1.789945 0.17322,-2.684918 -0.14435,-0.490791 -0.2887,-1.010453 0.08661,-0.548531 0.11548,-1.097063 0.02887,-0.577402 -0.02887,-1.068193 l 0.433051,-0.779493 -0.375311,-2.684918 -0.202091,-0.08661 q -0.17322,0 -0.519661,0.14435 -0.317571,0.115481 -0.808363,0.404182 -0.346441,0.11548 -1.097063,0.25983 -0.721752,0.115481 -1.934296,0.144351 -0.519661,0.259831 -0.981583,0.461921 -0.664012,0.144351 -1.674465,0.519662 -1.010453,0.346441 -2.338477,0.866102 -0.779492,0.375312 -1.443504,0.606272 -0.635142,0.202091 -1.068193,0.202091 -0.346442,0 -0.577402,0.259831 -0.230961,0.25983 -0.375311,0.750622 -0.08661,0.461921 -0.433052,1.270284 -0.317571,0.808362 -0.866102,2.020906 -0.115481,0.317571 -0.317571,0.981583 -0.202091,0.664012 -0.461922,1.645595 -0.17322,0.375311 -0.404181,0.952713 -0.230961,0.548531 -0.519661,1.299154 0,0.346441 -0.08661,0.866102 -0.05774,0.490792 -0.20209,1.154804 -0.144351,0.404181 -0.404181,1.010453 -0.230961,0.635142 -0.606272,1.385764 -0.230961,0.461921 -0.664012,0.664012 -0.433052,0.230961 -1.125934,0.230961 -0.490791,0 -0.750622,-0.346441 -0.288701,-0.317571 -0.288701,-1.010453 0,-0.750623 0.173221,-1.732206 0.17322,-0.952713 0.548531,-2.107516 0.404182,-1.530115 0.692882,-2.482828 0.288701,-0.952712 0.317571,-1.414634 0.08661,-0.20209 0.259831,-0.721752 0.173221,-0.519662 0.404181,-1.270284 0.259831,-0.721752 0.490792,-1.645595 l -0.144351,-0.23096 -0.923842,0.14435 q -0.317571,-0.02887 -0.461922,-0.259831 -0.14435,-0.230961 -0.14435,-0.606272 0,-0.20209 0.05774,-0.433051 0.05774,-0.259831 0.17322,-0.606272 z m 10.479842,-5.312096 q 0.664012,0 1.963166,-0.317571 1.299154,-0.317571 1.963166,-0.317571 0.404181,0.08661 0.808362,0.144351 0.721753,-0.144351 1.414635,-0.317571 0.692882,-0.202091 1.414634,-0.346441 0.288701,-0.05774 0.433051,-0.202091 0.144351,-0.17322 0.144351,-0.433051 -0.05774,-0.866103 -0.05774,-1.183674 0,-0.548531 0.05774,-1.212543 0.08661,-0.692883 0.23096,-1.414635 l -0.346441,-1.299154 0.115481,-1.183673 q -0.115481,-0.635142 -0.202091,-1.183674 -0.05774,-0.577402 0,-0.952713 -0.05774,-0.11548 -0.202091,-0.375311 -0.14435,-0.259831 -0.31757,-0.548531 -0.288701,-0.490792 -0.606272,-0.923843 -0.288701,-0.461922 -0.577402,-0.923843 -0.404181,-0.548532 -0.866103,-0.808362 -0.461921,-0.259831 -0.952713,-0.259831 -0.577401,0 -1.183673,0.923843 -0.606272,0.923842 -1.125934,2.800398 -0.08661,0.230961 -0.490791,0.952713 -0.375311,0.721752 -1.097063,1.876556 -0.115481,1.097063 -0.779493,2.742658 -0.664012,1.616725 -1.847685,3.810851 -0.144351,0.202091 -0.173221,0.346441 0,0.144351 0,0.317571 0,0.202091 0.08661,0.317571 0.115481,0.08661 0.317571,0.08661 0.288701,0 0.923843,-0.05774 0.664012,-0.05774 0.952713,-0.05774 z"
         style="font-style:normal;font-variant:normal;font-weight:normal;font-stretch:normal;font-size:59.12593842px;font-family:Mistral;-inkscape-font-specification:Mistral;fill:#ffffff"
         id="path5246" />
      <path
         d="m 107.69698,-99.694965 -0.46192,-1.876555 q 0.17322,-0.5774 0.34644,-1.1548 0.17323,-0.60628 0.31758,-1.18368 0.17322,-0.40418 0.5774,-0.60627 0.43305,-0.23096 1.12593,-0.23096 0.25983,0 0.77949,-0.11548 0.54853,-0.11548 0.7795,-0.11548 0.25983,0 0.69288,0.40418 0.43305,0.40418 0.60627,0.46192 0.20209,-0.14435 0.49079,-0.49079 0.31757,-0.34644 0.75062,-0.92384 0.37531,-0.46192 0.72176,-0.75063 0.34644,-0.2887 0.75062,-0.40418 0.46192,0.23096 0.80836,0.37531 0.20209,0.11549 0.25983,0.25984 0.0866,0.14435 0.0866,0.40418 0,0.14435 -0.14435,0.63514 -0.14435,0.46192 -0.43305,1.27028 -0.31757,0.86611 -0.49079,1.44351 -0.17322,0.5774 -0.23096,0.89497 -0.43305,0.66401 -0.69289,1.21254 -0.23096,0.519665 -0.23096,0.981586 0,0.577402 0.34645,1.732205 0.34644,1.125934 1.01045,2.829269 0.92384,2.309607 1.87655,4.821305 0.86611,2.771528 1.81882,5.369836 0.95271,2.569438 1.99204,4.936785 1.06819,2.482827 1.76107,3.695371 0.69288,1.212543 1.03932,1.212543 0.2887,0 0.40419,-0.317571 0.14435,-0.346441 0.14435,-1.068193 0,-0.288701 0.0577,-0.750622 0.0866,-0.461921 0.25983,-1.010453 0.25983,-0.779492 0.49079,-1.761075 0.2887,-1.501245 0.51966,-2.627178 0.25983,-1.125934 0.43305,-1.934296 0.11548,-0.519662 0.25983,-2.194127 0.14435,-1.674465 0.2887,-4.532603 0,-0.288701 0.0866,-0.808363 0.11548,-0.519661 0.20209,-1.183673 0.11548,-0.664012 0.17322,-1.125934 0.0577,-0.490791 0.0577,-0.866102 0,-0.664012 -0.14435,-1.963166 -0.14435,-1.328024 -0.14435,-1.992036 0.43305,-1.818818 0.80837,-3.551018 0.31757,-1.50125 0.60627,-2.48283 0.2887,-1.01045 0.49079,-1.53012 0.46192,-1.03932 1.12593,-1.78994 0.66401,-0.77949 1.47238,-1.27028 l 0.23096,0 q 0.2887,0 0.37531,0.11548 0.11548,0.11548 0.11548,0.37531 -0.14435,0.60627 -0.25983,0.92384 0.0866,0.51966 0.17322,1.09706 -0.0866,0.72176 -0.20209,1.21255 -0.0577,0.31757 -0.11548,0.98158 -0.0577,0.63514 -0.0577,1.55898 0,0.34645 -0.0866,1.50125 -0.0866,1.12593 -0.31757,3.031358 -0.17322,2.713788 -0.43305,5.398706 -0.23097,2.684919 -0.4908,5.369837 -0.23096,3.233449 -0.66401,5.918368 -0.43305,2.656048 -1.03932,4.763564 -0.14435,1.270284 -0.54853,2.829268 -0.37531,1.558985 -0.98159,3.377801 l -0.89497,1.443504 q -0.0866,0.11548 -1.81881,0.750622 -1.73221,0.606272 -1.9343,0.606272 -0.43305,0 -1.29915,-1.125933 -0.86611,-1.154804 -2.04978,-3.493281 -1.12593,-2.107516 -1.78995,-3.46441 -0.66401,-1.385765 -0.83723,-2.078647 -0.0577,-0.25983 -0.17322,-0.664012 -0.11548,-0.404181 -0.25983,-0.923842 -0.5774,-1.270284 -1.47237,-3.14684 -0.86611,-1.876556 -2.02091,-4.445993 -0.20209,-0.635142 -0.51966,-1.212544 -0.2887,-0.606272 -0.72175,-1.270284 l -0.20209,0.08661 q -0.2021,0.577402 -0.40419,1.443505 -0.20209,0.866102 -0.46192,2.078646 -0.2887,0.779492 -0.60627,1.385764 -0.43305,1.674465 -0.98158,3.637631 -0.54853,1.963166 -1.18368,4.215033 -0.17322,0.750622 -0.34644,1.558985 -0.17322,0.808362 -0.40418,1.674465 l -0.51966,0.952713 q -0.11548,0.866102 -0.25983,1.703335 -0.20209,0.664012 -0.51966,1.616725 -0.2887,0.923842 -0.72175,2.222996 -0.0866,0.664012 -0.43306,0.981583 -0.31757,0.346441 -0.89497,0.375311 -0.0577,0.115481 -0.23096,0.230961 -0.17322,0.144351 -0.5774,0.259831 -0.2887,0.05774 -0.43305,-0.317571 -0.14435,-0.346441 -0.14435,-1.039323 0,-0.404181 0.14435,-1.270284 0.14435,-0.866103 0.43305,-2.194127 0.31757,-1.501244 0.49079,-2.338477 0.20209,-0.866102 0.25983,-1.097063 0.11548,-0.692882 0.25983,-1.818816 0.14435,-1.125933 0.31757,-2.598307 0.0577,-0.375311 0.17322,-0.923843 0.14435,-0.577402 0.34645,-1.328024 0.14435,-0.577402 0.5774,-3.11797 0.43305,-2.569437 1.12593,-7.130911 0.75062,-4.474864 1.4435,-9.007467 z"
         style="font-style:normal;font-variant:normal;font-weight:normal;font-stretch:normal;font-size:59.12593842px;font-family:Mistral;-inkscape-font-specification:Mistral;fill:#ffffff"
         id="path5248" />
      <path
         d="m 137.80848,-108.55808 q 1.18368,-0.34644 2.56944,-0.51966 1.41463,-0.17322 3.11797,-0.17322 0.31757,0 0.92384,0.11548 0.63514,0.0866 1.01046,0.0866 0.54853,0.0866 0.83723,0.17322 0.31757,0.0866 0.8661,0.20209 l 0.80836,-0.23096 q 0.25983,0.0289 0.54854,0.23096 0.31757,0.17322 0.75062,0.40418 0.23096,-0.14435 0.66401,-0.34644 0.43305,0 0.69288,0.34644 0.2887,0.31757 0.37531,0.92384 0,0.46192 0,0.92384 0,0.43306 -0.0577,0.92385 -0.0289,0.23096 0.0289,0.72175 0.0577,0.49079 0.0577,0.75062 0,0.31757 -0.14435,0.46192 -0.14435,0.14435 -0.37531,0.14435 -1.09706,0 -2.16526,-0.17322 -1.06819,-0.20209 -2.13638,-0.5774 -0.92384,0.17322 -1.61673,0.25983 -0.54853,0.0577 -0.80836,0.17322 -0.25983,0.11548 -0.25983,0.2887 0.11548,0.20209 0.31757,0.43305 0.20209,0.23097 0.49079,0.43306 0.20209,0.14435 0.46192,0.63514 0.25983,0.46192 0.54854,1.27028 0.11548,0.31757 0.14435,0.60627 0.0577,0.288704 0.0577,0.548535 0,0.606272 -0.11548,1.530115 -0.11548,0.894973 -0.25984,1.472374 -0.25983,1.125934 -0.40418,1.876556 -0.14435,0.721752 -0.23096,1.097063 -0.0577,0.288701 -0.0866,0.692882 -0.0289,0.404182 -0.0577,0.923843 -0.0289,0.433051 -0.23096,1.097063 -0.20209,0.635142 -0.40418,1.472375 0,0.375311 -0.0866,0.866103 -0.0866,0.490791 -0.23096,1.125933 -0.0866,0.375311 -0.2887,0.866103 -0.17322,0.461921 -0.34644,1.097063 0.0577,0.433051 0.0866,0.894973 -0.11548,0.808362 -0.23096,1.674465 -0.17322,1.241413 -0.34644,2.511697 -0.17322,1.270284 -0.31757,2.453958 -0.17323,0.346441 -0.37532,0.779492 0,0.202091 0.0577,0.635142 0.0866,0.404181 0.0866,0.664012 0,0.317571 -0.11548,0.952713 -0.11548,0.606272 -0.11548,0.894972 0,0.548532 -0.0289,1.703336 -0.0289,1.154803 -0.0289,1.732205 0.14435,0.490791 0.25983,0.952713 -0.0866,0.404181 -0.20209,0.664012 -0.0866,0.23096 -0.25983,0.375311 -0.51966,0.317571 -0.95271,0.519661 -0.2887,0.288701 -0.49079,0.461922 -0.17322,0.17322 -0.31757,0.17322 -0.63514,0 -0.89497,-0.17322 -0.25984,-0.173221 -0.25984,-0.461922 0.0577,-0.952712 0.20209,-1.847685 -0.0577,-0.115481 -0.14435,-0.346441 -0.0577,-0.230961 -0.20209,-0.577402 -0.14435,-2.251867 -0.37531,-4.619214 0.0866,-1.703335 0.0866,-3.43554 0,-0.808363 0.0577,-2.020906 0.0866,-1.241414 0.2887,-2.858139 0.20209,-1.616725 0.2887,-2.829269 0.0866,-1.212543 0.0866,-1.992036 0,-0.346441 0.0577,-0.866102 0.0866,-0.548532 0.17322,-1.328024 0.0866,-0.664012 0.17322,-1.183674 0.0866,-0.548531 0.0866,-0.981583 0,-0.23096 -0.0289,-0.490791 -0.0289,-0.259831 -0.0577,-0.461922 0.2887,-0.721752 0.43305,-1.154803 0.14435,-0.461921 0.14435,-0.606272 -0.11548,-0.375311 -0.25983,-0.750622 0.17322,-0.404181 0.37531,-1.443504 0.20209,-1.068194 0.43305,-2.771531 0,-0.34644 0,-0.83723 0,-0.49079 0.0289,-1.18367 l -0.17322,-0.51967 q -0.11548,-0.0577 -0.43305,-0.14435 -0.2887,-0.0866 -0.75062,-0.14435 l -0.37532,0.25983 q -0.37531,0.0866 -0.77949,0.17322 -0.37531,0.0866 -0.80836,0.2021 -3.00249,0.83723 -5.94724,1.64559 -0.23096,0 -0.37531,-0.17322 -0.14435,-0.20209 -0.14435,-0.51966 0,-0.17322 0.14435,-0.60627 0.14435,-0.43305 0.46192,-1.12594 0.0577,-1.01045 0.14435,-1.67446 0.0866,-0.66401 0.20209,-1.01045 0.23096,-0.63515 0.72176,-1.0682 0.46192,-0.43305 1.12593,-0.66401 1.32802,-0.43305 2.48283,-0.5774 1.1548,-0.14435 2.13638,-0.0289 z"
         style="font-style:normal;font-variant:normal;font-weight:normal;font-stretch:normal;font-size:59.12593842px;font-family:Mistral;-inkscape-font-specification:Mistral;fill:#ffffff"
         id="path5250" />
      <path
         d="m 152.15691,-81.30472 q 0.80837,0.202091 1.3569,0.433052 0.98158,-0.173221 1.99203,-0.375312 l 5.36984,0 q 0.77949,0 1.12593,0.404182 0.34644,0.404181 0.34644,1.212543 0,1.154804 -0.49079,1.732206 -0.46192,0.577401 -1.35689,0.577401 -0.2887,0 -0.89497,-0.08661 -0.60628,-0.08661 -0.89498,-0.08661 l -1.64559,0 q -1.03932,0.20209 -2.07865,0.375311 -2.5117,-0.404181 -2.8004,-0.404181 -0.37531,0 -1.01045,0.11548 -0.60627,0.08661 -0.98158,0.08661 -0.51966,0 -0.83724,-0.20209 -0.31757,-0.230961 -0.31757,-0.635142 0,-0.173221 0.2887,-0.490792 0.28871,-0.346441 0.83724,-0.837232 0.11548,-0.230961 0.2887,-0.577402 0.20209,-0.375311 0.46192,-0.866103 0.20209,-0.02887 0.49079,-0.11548 0.31757,-0.11548 0.75062,-0.259831 z"
         style="font-style:normal;font-variant:normal;font-weight:normal;font-stretch:normal;font-size:59.12593842px;font-family:Mistral;-inkscape-font-specification:Mistral;fill:#ffffff"
         id="path5252" />
      <path
         d="m 240.96131,-81.30472 q 0.80836,0.202091 1.3569,0.433052 0.98158,-0.173221 1.99203,-0.375312 l 5.36984,0 q 0.77949,0 1.12593,0.404182 0.34644,0.404181 0.34644,1.212543 0,1.154804 -0.49079,1.732206 -0.46192,0.577401 -1.35689,0.577401 -0.2887,0 -0.89498,-0.08661 -0.60627,-0.08661 -0.89497,-0.08661 l -1.64559,0 q -1.03933,0.20209 -2.07865,0.375311 -2.5117,-0.404181 -2.8004,-0.404181 -0.37531,0 -1.01045,0.11548 -0.60627,0.08661 -0.98158,0.08661 -0.51967,0 -0.83724,-0.20209 -0.31757,-0.230961 -0.31757,-0.635142 0,-0.173221 0.2887,-0.490792 0.2887,-0.346441 0.83723,-0.837232 0.11549,-0.230961 0.28871,-0.577402 0.20209,-0.375311 0.46192,-0.866103 0.20209,-0.02887 0.49079,-0.11548 0.31757,-0.11548 0.75062,-0.259831 z"
         style="font-style:normal;font-variant:normal;font-weight:normal;font-stretch:normal;font-size:59.12593842px;font-family:Mistral;-inkscape-font-specification:Mistral;fill:#ffffff"
         id="path5254" />
      <path
         d="m 257.61934,-96.346035 q -0.0866,-0.577402 -0.20209,-1.212544 0,0.259831 0.0866,-0.404181 0.0866,-0.664012 0.23096,-2.28074 0.23096,-0.31757 0.31758,-0.54853 0.11548,-0.25983 0.20209,-0.46192 -0.25984,-0.31757 -0.40419,-0.51966 -0.11548,-0.23096 -0.11548,-0.37531 0.23096,-1.76108 0.43306,-3.34893 0.0289,-0.43305 0.49079,-0.98159 0.49079,-0.54853 1.32802,-1.18367 0.66401,-0.54853 1.29915,-0.92384 0.63515,-0.37531 1.21255,-0.60627 0.77949,-0.25983 0.92384,-0.43306 0.14435,-0.17322 0.31757,-0.17322 0.46192,0 0.69288,0.46193 0.25984,0.46192 0.25984,1.38576 0,0.49079 -0.25984,1.35689 -0.23096,0.86611 -0.23096,1.27029 0,0.17322 0.0289,1.32802 0.0577,1.15481 0.14435,3.32006 0.0289,1.558986 0.43306,3.320062 0.43305,1.761075 1.09706,3.666501 0.89497,2.482827 1.93429,3.724241 1.03933,1.212544 2.28074,1.212544 0.98158,0 2.59831,-1.270284 1.61672,-1.270284 3.81085,-3.810852 1.67447,-1.963165 2.97362,-3.666501 1.32802,-1.703335 2.13639,-3.117971 0.75062,-1.27028 1.76107,-2.28073 1.01045,-1.01046 2.30961,-1.84769 0.40418,-0.23096 0.66401,-0.37531 0.25983,-0.14435 0.40418,-0.14435 0.51966,0 0.77949,0.77949 0.2887,0.77949 0.2887,2.30961 -0.17322,1.41463 -0.2887,2.800396 -0.25983,2.165256 -0.77949,4.503733 -0.49079,2.338477 -1.29915,4.850175 -0.40418,1.270284 -0.69288,2.222997 -0.28871,0.952713 -0.40419,1.616725 -0.0577,0.375311 -0.17322,0.952712 -0.0866,0.548532 -0.20209,1.299154 -0.2887,0.721752 -0.63514,1.443505 -0.2887,0.577401 -0.49079,1.385764 -0.17322,0.808362 -0.31757,1.876556 0,0.20209 -0.0289,0.519661 -0.0289,0.317571 -0.0577,0.664012 -0.66401,2.944749 -1.3569,5.716277 -0.0577,0.259831 -0.25983,0.664012 -0.37531,0.115481 -0.8661,0.490792 -0.46192,0.375311 -0.98158,1.039323 -0.51966,0.577402 -0.8661,0.866103 -0.34645,0.25983 -0.51967,0.25983 -0.23096,0 -0.37531,-0.14435 -0.14435,-0.144351 -0.14435,-0.490792 0.0289,-0.23096 0.0866,-0.375311 0.40418,-0.981583 0.69288,-2.829268 0.31758,-1.847686 0.57741,-4.561474 0.0289,-0.577402 0.46192,-3.117969 0.43305,-2.540568 1.27028,-7.044302 0.11548,-0.721752 0.2887,-1.761075 0.20209,-1.068193 0.49079,-2.425087 0.20209,-0.692882 0.31758,-1.183674 0.14435,-0.519661 0.14435,-0.750622 0,-0.288701 -0.11548,-0.404181 -0.0866,-0.144351 -0.28871,-0.144351 -0.17322,0 -0.63514,0.461922 -0.46192,0.433051 -1.1548,1.328024 -0.40418,0.490791 -0.83723,1.039323 -0.40418,0.548531 -0.86611,1.068193 -0.77949,0.808362 -1.4435,1.530115 l -2.13639,2.136386 q -0.2887,0.173221 -0.72175,0.433051 -0.40418,0.259831 -0.98158,0.606272 -0.54853,0.866103 -1.76108,1.501245 -1.18367,0.606272 -2.19412,0.606272 -1.21255,0 -2.33848,-0.750623 -1.09706,-0.779492 -2.13639,-2.367347 -0.46192,-0.779492 -0.92384,-1.558985 -0.43305,-0.779492 -0.95271,-1.558984 l -0.14435,0.02887 q -0.14435,0.17322 -0.54854,2.338477 -0.37531,2.165256 -0.98158,6.351419 -0.66401,4.301643 -1.01045,6.7556 -0.34644,2.453958 -0.34644,3.17571 -0.0577,0.981583 -0.37531,1.530115 -0.2887,0.519661 -0.92385,0.606271 -0.31757,0.02887 -0.89497,0.173221 -0.5774,0.11548 -1.38576,0.317571 -0.14435,-0.02887 -0.25983,-0.08661 -0.11548,-0.08661 -0.11548,-0.230961 l 0.17322,-1.068193 -0.2887,-1.097064 q 0.17322,-0.894972 0.34644,-1.732205 0.11548,-1.732205 0.20209,-3.26232 0.0289,-0.317571 0.20209,-1.068193 0.20209,-0.750622 0.20209,-1.125933 0,-0.202091 -0.0866,-0.577402 -0.0866,-0.404181 -0.0866,-0.606272 0,-1.587855 0.49079,-4.705824 0.51966,-3.117969 0.51966,-4.734694 -0.0866,-0.664012 -0.20209,-1.328024 0.14435,-1.039323 0.46192,-2.598308 0.31757,-1.558985 0.72175,-3.637631 z"
         style="font-style:normal;font-variant:normal;font-weight:normal;font-stretch:normal;font-size:59.12593842px;font-family:Mistral;-inkscape-font-specification:Mistral;fill:#ffffff"
         id="path5256" />
      <path
         d="m 312.41478,-76.339065 1.09706,2.656048 q -0.31757,0.288701 -0.77949,0.635142 -0.43305,0.317571 -1.03933,0.692882 -0.60627,0.202091 -1.47237,0.577402 -0.83723,0.375311 -1.9343,0.866103 -0.83723,0.519661 -1.38576,0.779492 -0.51966,0.259831 -0.72175,0.259831 -0.37531,0 -1.38577,0.317571 -0.98158,0.317571 -2.5983,0.952713 -0.86611,0.317571 -1.84769,0.664012 -0.95271,0.317571 -1.99204,0.577401 l -1.78994,-0.375311 -1.09706,0.490792 q -0.54854,0 -1.12594,-0.02887 -0.54853,0 -1.06819,-0.05774 -0.83723,-0.02887 -1.27029,-0.23096 -0.40418,-0.202091 -0.40418,-0.577402 l 0.17322,-1.097063 -0.17322,-0.202091 q -0.98158,0 -1.32802,-0.259831 -0.31757,-0.259831 -0.31757,-1.212543 0,-0.433052 0.0289,-1.443505 0.0577,-1.010453 0.14435,-2.627178 0,-0.14435 0.17322,-0.606272 0.20209,-0.461921 0.20209,-0.664012 -0.14435,-0.2887 -0.17322,-0.461921 -0.0289,-0.17322 -0.0289,-0.317571 0.0577,-1.125933 0.23096,-2.771528 0.20209,-1.645595 0.49079,-3.897462 0.34644,-1.356894 0.5774,-3.060229 -0.0577,-1.270284 -0.11548,-2.598308 1.0682,-4.792435 2.19413,-9.642609 0.17322,-0.866103 0.63514,-1.645597 0.49079,-0.77949 1.15481,-1.50124 0.2887,-0.20209 0.37531,-0.31757 0.14435,-0.25983 0.37531,-0.63515 0.23096,-0.40418 0.54853,-0.89497 0.17322,-0.11548 0.54853,-0.34644 0.40418,-0.23096 1.06819,-0.63514 0.2887,-0.23096 0.66402,-0.54853 0.37531,-0.31757 0.8661,-0.75063 1.09706,-0.66401 2.0209,-1.38576 0.95272,-0.75062 2.36735,-0.92384 0.66401,-0.0289 1.32803,-0.0577 0.66401,-0.0577 1.27028,-0.11548 0.5774,-0.11548 1.01045,-0.14435 0.2887,-0.0577 0.49079,-0.11548 0.23097,-0.0577 0.40419,-0.0577 0.17322,0 0.46192,0.0577 0.31757,0.0289 0.83723,0.11548 0.40418,0.0289 0.69288,0.0289 0.2887,0 0.54853,-0.0289 1.15481,0.34644 1.70334,1.01045 0.54853,0.66401 0.54853,1.58785 0,1.99204 -0.40418,2.97362 -0.37531,0.95272 -1.21254,0.95272 -0.63515,0 -1.44351,-0.63515 -0.80836,-0.66401 -4.35938,-0.66401 -1.47238,0.2887 -2.91588,0.5774 -0.14435,0.23097 -0.34644,0.34645 -0.17322,0.11548 -0.31757,0.17322 l -1.01046,-0.37532 q -0.46192,0.17323 -1.03932,0.95272 -0.5774,0.77949 -1.21254,2.136384 -0.14435,0.288701 -0.23096,0.721752 -0.0577,0.433052 -0.0577,1.010453 -0.51967,2.078647 -1.03933,4.012943 -0.49079,2.078646 -0.80836,3.146839 -0.2887,1.068193 -0.34644,1.299154 -0.0866,0.288701 -0.14435,0.548532 -0.0577,0.25983 -0.0577,0.519661 0,0.375311 0.14435,0.577402 0.14435,0.202091 0.43305,0.202091 0.25983,0 1.24141,-0.952713 1.01046,-0.952713 1.50125,-1.068194 0.60627,-0.17322 1.21254,-0.375311 0.63514,-0.20209 1.29916,-0.490791 0.25983,-0.08661 1.35689,-0.230961 1.12593,-0.14435 3.11797,-0.346441 l 0.80836,0.230961 1.53012,-0.288701 0.80836,0.375311 q 0.2887,0.288701 0.51966,0.721752 0.25983,0.404181 0.46192,0.894973 0,1.732205 -0.37531,2.627178 -0.37531,0.894973 -1.12593,0.894973 l -1.58786,-0.635142 q -1.96316,0.20209 -3.89746,0.404181 -1.90542,0.17322 -3.89746,0.346441 -2.42509,0.490791 -3.72424,1.587855 -1.29916,1.097063 -1.44351,2.887008 -0.0289,0.375312 -0.20209,1.154804 -0.17322,0.779492 -0.40418,1.934296 l 0.20209,0.866102 q -0.25983,1.241414 -0.40418,2.338477 -0.14435,1.097064 -0.14435,1.963166 0,0.288701 0.0866,0.433052 0.0866,0.11548 0.20209,0.05774 1.38577,-0.115481 2.223,-0.173221 0.83723,-0.05774 1.18367,-0.02887 0.75062,0.05774 1.53012,0.115481 l 1.81881,-0.144351 q 0.2887,-0.05774 1.24142,-0.461921 0.98158,-0.404181 1.76107,-0.404181 0.83723,0 1.67447,-0.173221 0.8661,-0.173221 1.64559,-0.461921 0.77949,-0.288701 1.53012,-0.577402 0.77949,-0.317571 1.55898,-0.606272 0.2887,-0.08661 0.75062,-0.317571 0.49079,-0.230961 1.12594,-0.606272 z"
         style="font-style:normal;font-variant:normal;font-weight:normal;font-stretch:normal;font-size:59.12593842px;font-family:Mistral;-inkscape-font-specification:Mistral;fill:#ffffff"
         id="path5258" />
      <path
         d="m 318.18879,-108.55808 q 1.18368,-0.34644 2.56944,-0.51966 1.41463,-0.17322 3.11797,-0.17322 0.31757,0 0.92384,0.11548 0.63514,0.0866 1.01046,0.0866 0.54853,0.0866 0.83723,0.17322 0.31757,0.0866 0.8661,0.20209 l 0.80836,-0.23096 q 0.25983,0.0289 0.54854,0.23096 0.31757,0.17322 0.75062,0.40418 0.23096,-0.14435 0.66401,-0.34644 0.43305,0 0.69288,0.34644 0.2887,0.31757 0.37531,0.92384 0,0.46192 0,0.92384 0,0.43306 -0.0577,0.92385 -0.0289,0.23096 0.0289,0.72175 0.0577,0.49079 0.0577,0.75062 0,0.31757 -0.14435,0.46192 -0.14435,0.14435 -0.37531,0.14435 -1.09706,0 -2.16526,-0.17322 -1.06819,-0.20209 -2.13638,-0.5774 -0.92384,0.17322 -1.61673,0.25983 -0.54853,0.0577 -0.80836,0.17322 -0.25983,0.11548 -0.25983,0.2887 0.11548,0.20209 0.31757,0.43305 0.20209,0.23097 0.49079,0.43306 0.20209,0.14435 0.46192,0.63514 0.25983,0.46192 0.54854,1.27028 0.11548,0.31757 0.14435,0.60627 0.0577,0.288704 0.0577,0.548535 0,0.606272 -0.11548,1.530115 -0.11548,0.894973 -0.25983,1.472374 -0.25984,1.125934 -0.40419,1.876556 -0.14435,0.721752 -0.23096,1.097063 -0.0577,0.288701 -0.0866,0.692882 -0.0289,0.404182 -0.0577,0.923843 -0.0289,0.433051 -0.23096,1.097063 -0.20209,0.635142 -0.40418,1.472375 0,0.375311 -0.0866,0.866103 -0.0866,0.490791 -0.23096,1.125933 -0.0866,0.375311 -0.2887,0.866103 -0.17322,0.461921 -0.34644,1.097063 0.0577,0.433051 0.0866,0.894973 -0.11548,0.808362 -0.23096,1.674465 -0.17322,1.241413 -0.34644,2.511697 -0.17322,1.270284 -0.31757,2.453958 -0.17323,0.346441 -0.37532,0.779492 0,0.202091 0.0577,0.635142 0.0866,0.404181 0.0866,0.664012 0,0.317571 -0.11548,0.952713 -0.11548,0.606272 -0.11548,0.894972 0,0.548532 -0.0289,1.703336 -0.0289,1.154803 -0.0289,1.732205 0.14435,0.490791 0.25983,0.952713 -0.0866,0.404181 -0.20209,0.664012 -0.0866,0.23096 -0.25983,0.375311 -0.51966,0.317571 -0.95271,0.519661 -0.2887,0.288701 -0.49079,0.461922 -0.17322,0.17322 -0.31757,0.17322 -0.63514,0 -0.89497,-0.17322 -0.25984,-0.173221 -0.25984,-0.461922 0.0577,-0.952712 0.2021,-1.847685 -0.0577,-0.115481 -0.14436,-0.346441 -0.0577,-0.230961 -0.20209,-0.577402 -0.14435,-2.251867 -0.37531,-4.619214 0.0866,-1.703335 0.0866,-3.43554 0,-0.808363 0.0577,-2.020906 0.0866,-1.241414 0.2887,-2.858139 0.20209,-1.616725 0.28871,-2.829269 0.0866,-1.212543 0.0866,-1.992036 0,-0.346441 0.0577,-0.866102 0.0866,-0.548532 0.17322,-1.328024 0.0866,-0.664012 0.17322,-1.183674 0.0866,-0.548531 0.0866,-0.981583 0,-0.23096 -0.0289,-0.490791 -0.0289,-0.259831 -0.0577,-0.461922 0.2887,-0.721752 0.43305,-1.154803 0.14435,-0.461921 0.14435,-0.606272 -0.11548,-0.375311 -0.25983,-0.750622 0.17322,-0.404181 0.37531,-1.443504 0.20209,-1.068194 0.43305,-2.771531 0,-0.34644 0,-0.83723 0,-0.49079 0.0289,-1.18367 l -0.17322,-0.51967 q -0.11548,-0.0577 -0.43305,-0.14435 -0.2887,-0.0866 -0.75062,-0.14435 l -0.37532,0.25983 q -0.37531,0.0866 -0.77949,0.17322 -0.37531,0.0866 -0.80836,0.2021 -3.00249,0.83723 -5.94724,1.64559 -0.23096,0 -0.37531,-0.17322 -0.14435,-0.20209 -0.14435,-0.51966 0,-0.17322 0.14435,-0.60627 0.14435,-0.43305 0.46192,-1.12594 0.0577,-1.01045 0.14435,-1.67446 0.0866,-0.66401 0.20209,-1.01045 0.23096,-0.63515 0.72176,-1.0682 0.46192,-0.43305 1.12593,-0.66401 1.32802,-0.43305 2.48283,-0.5774 1.1548,-0.14435 2.13638,-0.0289 z"
         style="font-style:normal;font-variant:normal;font-weight:normal;font-stretch:normal;font-size:59.12593842px;font-family:Mistral;-inkscape-font-specification:Mistral;fill:#ffffff"
         id="path5260" />
      <path
         d="m 353.98771,-76.339065 1.09707,2.656048 q -0.31757,0.288701 -0.7795,0.635142 -0.43305,0.317571 -1.03932,0.692882 -0.60627,0.202091 -1.47237,0.577402 -0.83724,0.375311 -1.9343,0.866103 -0.83723,0.519661 -1.38576,0.779492 -0.51966,0.259831 -0.72176,0.259831 -0.37531,0 -1.38576,0.317571 -0.98158,0.317571 -2.59831,0.952713 -0.8661,0.317571 -1.84768,0.664012 -0.95272,0.317571 -1.99204,0.577401 l -1.78994,-0.375311 -1.09707,0.490792 q -0.54853,0 -1.12593,-0.02887 -0.54853,0 -1.06819,-0.05774 -0.83724,-0.02887 -1.27029,-0.23096 -0.40418,-0.202091 -0.40418,-0.577402 l 0.17322,-1.097063 -0.17322,-0.202091 q -0.98158,0 -1.32802,-0.259831 -0.31757,-0.259831 -0.31757,-1.212543 0,-0.433052 0.0289,-1.443505 0.0577,-1.010453 0.14435,-2.627178 0,-0.14435 0.17322,-0.606272 0.20209,-0.461921 0.20209,-0.664012 -0.14435,-0.2887 -0.17322,-0.461921 -0.0289,-0.17322 -0.0289,-0.317571 0.0577,-1.125933 0.23096,-2.771528 0.20209,-1.645595 0.49079,-3.897462 0.34644,-1.356894 0.5774,-3.060229 -0.0577,-1.270284 -0.11548,-2.598308 1.06819,-4.792435 2.19413,-9.642609 0.17322,-0.866103 0.63514,-1.645597 0.49079,-0.77949 1.1548,-1.50124 0.2887,-0.20209 0.37531,-0.31757 0.14435,-0.25983 0.37531,-0.63515 0.23097,-0.40418 0.54854,-0.89497 0.17322,-0.11548 0.54853,-0.34644 0.40418,-0.23096 1.06819,-0.63514 0.2887,-0.23096 0.66401,-0.54853 0.37531,-0.31757 0.86611,-0.75063 1.09706,-0.66401 2.0209,-1.38576 0.95271,-0.75062 2.36735,-0.92384 0.66401,-0.0289 1.32802,-0.0577 0.66401,-0.0577 1.27029,-0.11548 0.5774,-0.11548 1.01045,-0.14435 0.2887,-0.0577 0.49079,-0.11548 0.23096,-0.0577 0.40418,-0.0577 0.17322,0 0.46192,0.0577 0.31757,0.0289 0.83724,0.11548 0.40418,0.0289 0.69288,0.0289 0.2887,0 0.54853,-0.0289 1.1548,0.34644 1.70334,1.01045 0.54853,0.66401 0.54853,1.58785 0,1.99204 -0.40418,2.97362 -0.37532,0.95272 -1.21255,0.95272 -0.63514,0 -1.4435,-0.63515 -0.80836,-0.66401 -4.35939,-0.66401 -1.47237,0.2887 -2.91587,0.5774 -0.14435,0.23097 -0.34645,0.34645 -0.17322,0.11548 -0.31757,0.17322 l -1.01045,-0.37532 q -0.46192,0.17323 -1.03932,0.95272 -0.5774,0.77949 -1.21255,2.136384 -0.14435,0.288701 -0.23096,0.721752 -0.0577,0.433052 -0.0577,1.010453 -0.51966,2.078647 -1.03932,4.012943 -0.49079,2.078646 -0.80836,3.146839 -0.2887,1.068193 -0.34644,1.299154 -0.0866,0.288701 -0.14435,0.548532 -0.0577,0.25983 -0.0577,0.519661 0,0.375311 0.14435,0.577402 0.14435,0.202091 0.43305,0.202091 0.25983,0 1.24141,-0.952713 1.01045,-0.952713 1.50125,-1.068194 0.60627,-0.17322 1.21254,-0.375311 0.63514,-0.20209 1.29915,-0.490791 0.25983,-0.08661 1.3569,-0.230961 1.12593,-0.14435 3.11797,-0.346441 l 0.80836,0.230961 1.53011,-0.288701 0.80837,0.375311 q 0.2887,0.288701 0.51966,0.721752 0.25983,0.404181 0.46192,0.894973 0,1.732205 -0.37531,2.627178 -0.37531,0.894973 -1.12594,0.894973 l -1.58785,-0.635142 q -1.96317,0.20209 -3.89746,0.404181 -1.90543,0.17322 -3.89746,0.346441 -2.42509,0.490791 -3.72424,1.587855 -1.29916,1.097063 -1.44351,2.887008 -0.0289,0.375312 -0.20209,1.154804 -0.17322,0.779492 -0.40418,1.934296 l 0.20209,0.866102 q -0.25983,1.241414 -0.40418,2.338477 -0.14435,1.097064 -0.14435,1.963166 0,0.288701 0.0866,0.433052 0.0866,0.11548 0.20209,0.05774 1.38576,-0.115481 2.223,-0.173221 0.83723,-0.05774 1.18367,-0.02887 0.75062,0.05774 1.53011,0.115481 l 1.81882,-0.144351 q 0.2887,-0.05774 1.24141,-0.461921 0.98159,-0.404181 1.76108,-0.404181 0.83723,0 1.67446,-0.173221 0.86611,-0.173221 1.6456,-0.461921 0.77949,-0.288701 1.53011,-0.577402 0.7795,-0.317571 1.55899,-0.606272 0.2887,-0.08661 0.75062,-0.317571 0.49079,-0.230961 1.12593,-0.606272 z"
         style="font-style:normal;font-variant:normal;font-weight:normal;font-stretch:normal;font-size:59.12593842px;font-family:Mistral;-inkscape-font-specification:Mistral;fill:#ffffff"
         id="path5262" />
      <path
         d="m 364.87174,-83.931898 q 0,0.577402 0.80836,1.558985 0.83723,0.952713 2.48283,2.367347 1.06819,0.894973 2.19412,1.761075 1.15481,0.837233 2.28074,1.703336 0.49079,0.404181 1.27028,1.068193 0.77949,0.635142 1.81882,1.501244 0.75062,0.577402 1.55898,1.154804 0.83724,0.577402 1.78995,1.154803 0.63514,0.490792 1.41463,1.068194 0.77949,0.577401 1.78995,1.241413 0.5774,0.346441 0.89497,1.270284 0.31757,0.894973 0.37531,2.338477 l -0.25983,0.750622 -0.2887,0.144351 q -0.2887,0 -0.77949,-0.259831 -0.46192,-0.230961 -1.18368,-0.692882 -0.14435,-0.08661 -1.32802,-0.635142 -1.1548,-0.548532 -3.34893,-1.558985 -1.21254,-0.519661 -2.223,-1.154803 -1.01045,-0.664012 -1.84768,-1.385764 -0.49079,-0.433052 -1.27029,-0.952713 -0.75062,-0.519662 -1.78994,-1.125934 -1.06819,-0.606271 -1.84769,-1.154803 -0.77949,-0.548532 -1.24141,-0.923843 -1.55899,-1.270284 -2.54057,-1.934296 -0.98158,-0.664012 -1.35689,-0.664012 -0.2887,0.404182 -0.31757,0.837233 -0.34644,1.356894 -0.75063,3.43554 -0.37531,2.049776 -0.83723,4.792435 0,0.490791 -0.17322,0.721752 -0.17322,0.259831 -0.51966,0.259831 -1.12593,0 -1.70334,-0.548532 -0.5774,-0.548532 -0.5774,-1.645595 0,-1.472374 0.17322,-3.089099 0.20209,-1.616725 0.63515,-3.406671 0.14435,-0.779492 0.20209,-1.385764 0.0866,-0.635142 0.0866,-1.154803 0,-1.328024 -1.15481,-2.280737 -1.12593,-0.952713 -1.12593,-1.356894 0,-0.635142 0.17322,-1.097064 0.20209,-0.490791 0.5774,-0.779492 0.95271,-0.606272 1.76108,-1.154803 0.20209,-0.115481 0.25983,-0.375311 0.0866,-0.288701 0.0866,-0.779493 0,-0.288701 0,-0.606272 0,-0.346441 0,-0.635142 0.0866,-2.569437 0.14435,-5.340966 0,-0.20209 0,-0.635142 0,-0.433051 -0.0577,-1.125933 -0.0577,-0.519662 -0.0289,-0.952713 0.0289,-0.461921 0.0289,-0.837232 -0.17322,-0.577402 -0.31757,-0.981583 -0.11548,-0.433052 -0.11548,-0.808363 0,-0.346441 0.0577,-1.068193 0.0577,-0.750626 0.0577,-1.068196 0,-0.40418 -0.0866,-1.12593 -0.0577,-0.72175 -0.0577,-1.09706 0,-1.03933 0.46192,-1.99204 0.49079,-0.95271 1.47237,-1.87656 0.95272,-0.80836 1.9343,-1.21254 1.01045,-0.43305 2.04977,-0.43305 0.4908,0 1.44351,0.0866 0.98158,0.0577 1.53011,0.0577 0.37531,0 2.04978,0.63514 0.66401,0.0577 1.18367,0.17322 0.51966,0.0866 0.83724,0.20209 0.72175,0.34644 1.12593,0.54853 0.40418,0.17323 0.5774,0.2021 0.49079,0.17322 0.83723,0.2887 0.37531,0.11548 0.60628,0.2887 0.37531,0.17322 0.8661,0.40418 0.51966,0.23096 1.1548,0.51966 1.03932,0.51966 1.9343,1.21254 0.92384,0.69289 1.7322,1.50125 0.92385,1.03932 1.38577,2.049774 0.46192,0.981583 0.46192,1.963166 0,0.288701 -0.0577,0.837233 -0.0289,0.519661 -0.14435,1.183673 -0.0866,0.837233 -0.86611,1.818816 -0.77949,0.952712 -2.25186,2.107516 -1.29916,1.010453 -2.42509,1.703335 -1.12593,0.664012 -2.07865,0.952713 -0.37531,0.259831 -0.5774,0.490791 -0.2887,0.288701 -1.21254,0.808363 -0.92384,0.519661 -2.5117,1.299154 -2.88701,1.414634 -4.09955,1.876555 -1.21254,0.433052 -1.21254,0.952713 z m -3.03136,-13.915382 q 0.54853,-0.404181 1.03932,-0.779492 0.49079,-0.404181 1.27028,-0.404181 0.34644,0 0.83724,0.779492 0.51966,0.750622 0.51966,1.125934 0,0.20209 -0.14435,0.923842 -0.14435,0.721752 -0.46192,1.963166 -0.66402,2.800399 -0.75063,3.522151 -0.0866,0.692882 -0.37531,2.194126 -0.11548,0.375312 -0.23096,0.981583 0,0.259831 0.0866,0.375312 0.11548,0.11548 0.2887,0.11548 5.74515,-2.887009 5.94724,-3.002489 0.23096,-0.05774 0.49079,-0.144351 0.25983,-0.11548 0.49079,-0.23096 l 0.43305,-0.548532 q 1.67447,-1.068193 3.46442,-2.280737 1.12593,-0.866102 1.67446,-1.703335 0.54853,-0.837232 0.54853,-1.674465 0,-1.068193 -1.24141,-2.107516 -1.24142,-1.039324 -3.72424,-1.992038 -2.10752,-0.83723 -3.83972,-1.21254 -1.73221,-0.40418 -3.14684,-0.40418 -1.84769,0 -2.8004,0.66401 -0.92385,0.63514 -0.92385,1.905424 0,0.981583 0.14435,1.501245 0.14436,0.490792 0.40419,0.433051 z"
         style="font-style:normal;font-variant:normal;font-weight:normal;font-stretch:normal;font-size:59.12593842px;font-family:Mistral;-inkscape-font-specification:Mistral;fill:#ffffff"
         id="path5264" />
    </g>
  </g>
</svg>
