<?xml version="1.0" encoding="UTF-8" standalone="no"?>
<!-- Created with Inkscape (http://www.inkscape.org/) -->

<svg
   xmlns:dc="http://purl.org/dc/elements/1.1/"
   xmlns:cc="http://creativecommons.org/ns#"
   xmlns:rdf="http://www.w3.org/1999/02/22-rdf-syntax-ns#"
   xmlns:svg="http://www.w3.org/2000/svg"
   xmlns="http://www.w3.org/2000/svg"
   xmlns:sodipodi="http://sodipodi.sourceforge.net/DTD/sodipodi-0.dtd"
   xmlns:inkscape="http://www.inkscape.org/namespaces/inkscape"
   width="210.40019"
   height="478.34583"
   viewBox="0 0 210.40019 478.34583"
   id="svg5262"
   version="1.1"
   inkscape:version="0.91 r13725"
   sodipodi:docname="grantometer-topleft.svg">
  <defs
     id="defs5264" />
  <sodipodi:namedview
     id="base"
     pagecolor="#ffffff"
     bordercolor="#666666"
     borderopacity="1.0"
     inkscape:pageopacity="0.0"
     inkscape:pageshadow="2"
     inkscape:zoom="1.06"
     inkscape:cx="-114.5003"
     inkscape:cy="224.47659"
     inkscape:document-units="px"
     inkscape:current-layer="layer1"
     showgrid="false"
     units="px"
     fit-margin-top="0"
     fit-margin-left="0"
     fit-margin-right="0"
     fit-margin-bottom="0"
     inkscape:window-width="1400"
     inkscape:window-height="855"
     inkscape:window-x="40"
     inkscape:window-y="1"
     inkscape:window-maximized="1" />
  <metadata
     id="metadata5267">
    <rdf:RDF>
      <cc:Work
         rdf:about="">
        <dc:format>image/svg+xml</dc:format>
        <dc:type
           rdf:resource="http://purl.org/dc/dcmitype/StillImage" />
        <dc:title />
      </cc:Work>
    </rdf:RDF>
  </metadata>
  <g
     inkscape:label="Layer 1"
     inkscape:groupmode="layer"
     id="layer1"
     transform="translate(-180.51419,-278.90358)">
    <path
       style="opacity:1;fill:#ffffff;fill-opacity:1;stroke:none;stroke-width:10;stroke-linecap:round;stroke-linejoin:round;stroke-miterlimit:4;stroke-dasharray:none;stroke-opacity:1"
       d="m 195.45169,725.7338 a 118.55605,15.757449 0 0 0 -14.9375,0.1445 l 0,31.2285 a 118.55605,15.757449 0 0 0 14.9375,0.1426 118.55605,15.757449 0 0 0 118.55666,-15.7578 118.55605,15.757449 0 0 0 -118.55666,-15.7578 z"
       id="path4228-4-2-2"
       inkscape:connector-curvature="0" />
    <g
       id="g6493"
       transform="translate(-5,0)">
      <path
         inkscape:connector-curvature="0"
         id="path4136-3-0-1"
         d="m 315.66655,288.9271 a 62.0286,59.385183 26.103424 0 0 -47.8086,25.627 l -0.20701,-0.1016 -0.6426,1.3125 a 62.0286,59.385183 26.103424 0 0 -3.26173,5.7207 62.0286,59.385183 26.103424 0 0 -2.37305,5.7773 l -59.65624,121.7559 a 149.76275,143.38045 26.103424 0 0 -11.20313,0.012 l 0,288.1251 a 149.76275,143.38045 26.103424 0 0 143.60936,-77.9532 149.76275,143.38045 26.103424 0 0 -21.7207,-156.0059 l 59.4844,-121.4062 a 62.0286,59.385183 26.103424 0 0 3.2617,-5.7207 62.0286,59.385183 26.103424 0 0 2.3711,-5.7774 l 0.7949,-1.6191 -0.207,-0.1016 a 62.0286,59.385183 26.103424 0 0 -32.5312,-73.123 62.0286,59.385183 26.103424 0 0 -29.9102,-6.5215 z"
         style="opacity:1;fill:none;fill-opacity:1;stroke:#ffffff;stroke-width:10;stroke-linecap:round;stroke-linejoin:round;stroke-miterlimit:4;stroke-dasharray:none;stroke-opacity:1" />
      <path
         id="path4155-3-7-7"
         transform="translate(180.51419,278.90358)"
         d="m 76.630859,51.947266 -5.283203,10.78125 26.966797,13.21289 a 47.007399,47.007399 0 0 1 15.492187,-3.474609 47.007399,47.007399 0 0 1 4.75781,0.02734 L 76.630859,51.947266 Z m 41.933591,20.546875 10.62305,5.205078 -5.28125,10.78125 L 98.314453,75.941406 A 47.007399,47.007399 0 0 0 79.335938,90.039062 l 35.326172,17.308598 -5.2832,10.78125 -36.357426,-17.81446 a 47.007399,47.007399 0 0 0 -1.224609,2.97071 l -7.833984,15.98828 36.171879,17.72265 -5.281254,10.78125 -36.171875,-17.72265 -34.107422,69.60937 a 113.49534,113.49534 0 0 0 -13.341797,0.44727 l 0,127.44922 a 77.623499,47.819988 9.1580421 0 1 24.416016,-1.97071 77.623499,47.819988 9.1580421 0 1 30.478515,4.72657 77.623499,47.819988 9.1580421 0 1 52.281247,38.71093 94.885671,52.079096 28.842351 0 0 -18.0957,-11.54492 94.885671,52.079096 28.842351 0 0 -89.080078,-15.22265 l 0,83.65234 A 113.49534,113.49534 0 0 0 122.97852,362.90234 113.49534,113.49534 0 0 0 108.45508,240.71875 l 47.08594,-96.09961 a 47.007399,47.007399 0 0 0 2.57031,-4.53516 47.007399,47.007399 0 0 0 1.88867,-4.5664 l 0.62891,-1.28125 -0.15625,-0.0762 A 47.007399,47.007399 0 0 0 136.58203,77.189453 l 0,-0.002 a 47.007399,47.007399 0 0 0 -18.01758,-4.693359 z m -59.882809,57.560549 5.28125,-10.78125 -16.386719,-8.0293 -5.28125,10.78125 16.386719,8.0293 z m 14.339843,-29.74024 a 47.007399,47.007399 0 0 1 0.664063,-1.5957 47.007399,47.007399 0 0 1 2.570312,-4.535156 l 0.509766,-1.039063 0.15625,0.07813 a 47.007399,47.007399 0 0 1 2.414063,-3.183594 l -17.232422,-8.443359 -5.28125,10.78125 16.199218,7.937497 z m 18.009766,147.1543 12.87109,19.95703 -12.05859,5.8457 a 26.374991,22.865722 0 0 1 7.705078,16.12891 26.374991,22.865722 0 0 1 -26.375,22.86523 26.374991,22.865722 0 0 1 -25.615234,-17.52929 l -3.710938,1.79883 -12.871094,-19.95704 60.054688,-29.10937 z"
         style="opacity:1;fill:#ffffff;fill-opacity:1;stroke:none;stroke-width:3.79181194;stroke-linecap:round;stroke-linejoin:round;stroke-miterlimit:4;stroke-dasharray:none;stroke-opacity:1"
         inkscape:connector-curvature="0" />
    </g>
    <g
       style="fill:#000000;stroke:none"
       transform="matrix(-0.76413103,0,0,0.66246116,-18.08948,246.9474)"
       id="g4217-3-7-8" />
  </g>
</svg>
