<?xml version="1.0" encoding="UTF-8" standalone="no"?>
<!-- Created with Inkscape (http://www.inkscape.org/) -->

<svg
   xmlns:dc="http://purl.org/dc/elements/1.1/"
   xmlns:cc="http://creativecommons.org/ns#"
   xmlns:rdf="http://www.w3.org/1999/02/22-rdf-syntax-ns#"
   xmlns:svg="http://www.w3.org/2000/svg"
   xmlns="http://www.w3.org/2000/svg"
   xmlns:sodipodi="http://sodipodi.sourceforge.net/DTD/sodipodi-0.dtd"
   xmlns:inkscape="http://www.inkscape.org/namespaces/inkscape"
   width="132"
   height="500"
   viewBox="0 0 132 499.99998"
   id="svg4351"
   version="1.1"
   inkscape:version="0.91 r13725"
   sodipodi:docname="grantometer.svg">
  <defs
     id="defs4353" />
  <sodipodi:namedview
     id="base"
     pagecolor="#ffffff"
     bordercolor="#666666"
     borderopacity="1.0"
     inkscape:pageopacity="0.0"
     inkscape:pageshadow="2"
     inkscape:zoom="1.2316035"
     inkscape:cx="-64.587004"
     inkscape:cy="302.87437"
     inkscape:document-units="px"
     inkscape:current-layer="layer1"
     showgrid="false"
     fit-margin-top="0"
     fit-margin-left="0"
     fit-margin-right="0"
     fit-margin-bottom="0"
     inkscape:window-width="1400"
     inkscape:window-height="855"
     inkscape:window-x="40"
     inkscape:window-y="1"
     inkscape:window-maximized="1"
     units="px" />
  <metadata
     id="metadata4356">
    <rdf:RDF>
      <cc:Work
         rdf:about="">
        <dc:format>image/svg+xml</dc:format>
        <dc:type
           rdf:resource="http://purl.org/dc/dcmitype/StillImage" />
        <dc:title></dc:title>
      </cc:Work>
    </rdf:RDF>
  </metadata>
  <g
     inkscape:label="Layer 1"
     inkscape:groupmode="layer"
     id="layer1"
     transform="translate(-202.06408,-1440.858)">
    <g
       transform="matrix(0,0.89425033,-1.1182551,0,0,0)"
       style="font-style:normal;font-variant:normal;font-weight:normal;font-stretch:normal;font-size:83.25769043px;line-height:125%;font-family:Mistral;-inkscape-font-specification:Mistral;letter-spacing:0px;word-spacing:0px;fill:#ffffff;fill-opacity:1;stroke:none;stroke-width:3.82145977;stroke-linecap:butt;stroke-linejoin:miter;stroke-miterlimit:4;stroke-dasharray:none;stroke-opacity:1"
       id="text4311">
      <path
         d="m 1656.3123,-247.97686 q 0.935,0.28457 1.9107,0.65045 0.9757,0.32522 1.9107,0.6911 0.3252,0.16262 0.9757,0.89437 0.6911,0.73176 1.7481,2.07331 1.1789,1.42286 1.3822,1.9107 0.2439,0.44719 0.8943,2.27658 0.4472,0.6911 1.1383,2.5205 0.7318,1.78874 0.7318,2.6018 0,1.46351 -2.1953,3.57748 -2.1953,2.07331 -3.4555,2.07331 -0.8131,0 -1.2196,-0.48784 -0.3659,-0.52849 -0.3659,-1.50417 -0.3659,-1.62612 -0.5691,-2.80506 -1.1383,-4.4312 -3.049,-6.66712 -1.8701,-2.23593 -4.5938,-2.23593 -1.3822,0 -2.7238,0.48784 -1.3009,0.44719 -2.3985,1.38221 -0.5692,0.44718 -1.5042,1.50417 -0.935,1.05698 -2.2359,2.64245 -0.1626,0.28457 -0.4472,0.65045 -0.2846,0.36588 -0.6911,0.97568 -0.3659,0.6911 -0.9757,1.66678 -0.5691,0.93502 -1.4228,2.15462 -0.3659,1.05698 -0.7318,1.95135 -0.3659,0.89437 -0.8944,1.66678 -0.1219,0.16261 -0.2439,0.65045 -0.1219,0.44718 -0.2846,1.21959 -0.2845,0.93503 -0.6504,2.03266 -0.3252,1.09764 -0.7318,2.39854 -0.6504,4.43119 -0.935,7.033 -0.2846,2.56115 -0.2846,3.33356 0,1.74808 0.2846,3.49617 0.3252,1.74809 0.9757,3.49617 0.4878,1.26025 0.935,2.15462 0.4472,0.89437 0.8537,1.3009 0.6098,0.6098 1.5449,0.93502 0.935,0.32523 2.0733,0.32523 1.6261,0 3.0896,-0.56914 1.4635,-0.56915 2.7238,-1.58548 0.3658,-0.32522 1.4635,-1.46351 1.0976,-1.17894 2.9677,-3.17095 0.4065,-0.32522 0.9756,-0.89437 0.6098,-0.6098 1.3009,-1.34155 0.7724,-1.05699 1.4229,-2.11397 0.6911,-1.05698 1.3822,-2.03266 0.8537,-1.09763 1.8701,-1.62612 1.0569,-0.52849 2.2765,-0.52849 1.6668,0 2.4799,0.73175 0.813,0.73176 0.813,2.19527 0,0.48784 -0.2845,1.38221 -0.2846,0.85372 -0.3659,1.34156 -0.081,0.73175 -0.2439,1.82939 -0.1626,1.05698 -0.3659,2.52049 -0.081,1.8294 -0.4065,3.25226 -0.2846,1.42286 -0.8131,2.47984 -0.6505,1.38221 -1.1383,4.4312 -0.4472,3.04898 -1.1383,4.47185 -0.2439,0.40653 -0.4472,1.26024 -0.2032,0.89437 -0.4472,2.23593 -0.1626,0.85371 -0.4065,1.46351 -0.2032,0.6098 -0.6098,0.97568 -0.3252,0.24392 -0.8944,0.52849 -0.5691,0.28457 -1.5854,0.6098 -0.1626,0.93502 -0.5692,1.3822 -0.4065,0.48784 -1.0976,0.48784 -0.5691,0 -0.8944,-0.48784 -0.2845,-0.48783 -0.2845,-1.58547 0,-0.40653 0.1219,-1.3009 0.1626,-0.85372 0.5285,-2.19527 0.1626,-0.65045 0.2846,-1.74809 0.1219,-1.09763 0.1626,-2.68311 0.081,-0.81306 0.4065,-2.56115 0.3659,-1.74808 1.0163,-4.30923 l -0.5284,-2.64246 q 0.1626,-0.48784 0.2845,-1.09763 0,-0.28458 -0.1626,-0.40654 -0.1219,-0.16261 -0.4065,-0.16261 -1.4229,0.97568 -2.3579,1.87005 -2.0733,1.78874 -3.4962,2.92703 -1.4228,1.13828 -2.1952,1.66678 -1.6262,1.05698 -3.2929,1.74808 -1.6668,0.69111 -3.4149,0.93502 l -1.7888,-0.36587 q -0.813,0.12196 -1.3822,0.24392 -0.8943,0 -1.9107,-0.44719 -1.0163,-0.44718 -2.1952,-1.3009 -1.0164,-0.81306 -1.9107,-1.95135 -0.8537,-1.13829 -1.5042,-2.72377 -0.2439,-0.48783 -0.6098,-1.95135 -0.3659,-1.46351 -0.9757,-3.74009 0.3659,-0.97568 0.4472,-2.11396 0.081,-1.13829 -0.081,-2.43919 l 0.8131,-6.09798 q 0.9756,-7.6428 3.8214,-13.57816 2.8863,-5.93536 7.4802,-10.36656 1.5448,-1.54482 2.6018,-2.47984 1.0569,-0.93502 1.3415,-1.3009 0.8944,-0.6911 1.9514,-1.38221 1.0976,-0.6911 2.3578,-1.38221 0.6505,-0.36587 1.4636,-0.73175 0.8537,-0.40653 1.992,-0.81307 l 3.7807,-0.44718 1.2603,0.32522 0.5691,-0.20326 z"
         style="font-style:normal;font-variant:normal;font-weight:normal;font-stretch:normal;font-family:Mistral;-inkscape-font-specification:Mistral;fill:#ffffff;fill-opacity:1;stroke:none;stroke-width:3.82145977;stroke-miterlimit:4;stroke-dasharray:none;stroke-opacity:1"
         id="path7169" />
      <path
         d="m 1680.8262,-214.84453 q 0,0.81306 1.1383,2.19527 1.1789,1.34156 3.4961,3.33356 1.5042,1.26025 3.0897,2.47985 1.6261,1.17894 3.2116,2.39853 0.6911,0.56915 1.7887,1.50417 1.0976,0.89437 2.5612,2.11396 1.0569,0.81307 2.1952,1.62613 1.179,0.81306 2.5205,1.62613 0.8944,0.6911 1.992,1.50417 1.0977,0.81306 2.5205,1.74808 0.8131,0.48784 1.2603,1.78874 0.4472,1.26025 0.5285,3.29291 l -0.3659,1.05698 -0.4065,0.20327 q -0.4066,0 -1.0977,-0.36588 -0.6504,-0.32523 -1.6668,-0.97568 -0.2032,-0.12196 -1.87,-0.89437 -1.6261,-0.77241 -4.7158,-2.19527 -1.7074,-0.73176 -3.1303,-1.62613 -1.4228,-0.93502 -2.6018,-1.95135 -0.6911,-0.6098 -1.7887,-1.34155 -1.057,-0.73176 -2.5205,-1.58548 -1.5042,-0.85371 -2.6018,-1.62612 -1.0976,-0.77241 -1.7481,-1.3009 -2.1953,-1.78874 -3.5775,-2.72377 -1.3822,-0.93502 -1.9107,-0.93502 -0.4065,0.56914 -0.4472,1.17894 -0.4878,1.9107 -1.0569,4.83773 -0.5285,2.88637 -1.179,6.74842 0,0.69111 -0.2439,1.01633 -0.2439,0.36588 -0.7318,0.36588 -1.5854,0 -2.3985,-0.77241 -0.8131,-0.77241 -0.8131,-2.31723 0,-2.07331 0.244,-4.34989 0.2845,-2.27657 0.8943,-4.79707 0.2033,-1.09764 0.2846,-1.95135 0.122,-0.89437 0.122,-1.62613 0,-1.87005 -1.6262,-3.2116 -1.5854,-1.34156 -1.5854,-1.9107 0,-0.89437 0.2439,-1.54482 0.2845,-0.6911 0.813,-1.09764 1.3416,-0.85371 2.4799,-1.62612 0.2846,-0.16261 0.3659,-0.52849 0.1219,-0.40654 0.1219,-1.09764 0,-0.40653 0,-0.85372 0,-0.48783 0,-0.89437 0.122,-3.61813 0.2033,-7.52083 0,-0.28457 0,-0.89437 0,-0.6098 -0.081,-1.58547 -0.081,-0.73176 -0.041,-1.34156 0.041,-0.65045 0.041,-1.17894 -0.2439,-0.81306 -0.4472,-1.38221 -0.1626,-0.6098 -0.1626,-1.13829 0,-0.48784 0.081,-1.50417 0.081,-1.05698 0.081,-1.50416 0,-0.56915 -0.122,-1.58548 -0.081,-1.01633 -0.081,-1.54482 0,-1.46351 0.6505,-2.80507 0.6911,-1.34155 2.0733,-2.64245 1.3415,-1.13829 2.7238,-1.70743 1.4228,-0.6098 2.8863,-0.6098 0.6911,0 2.0327,0.12196 1.3822,0.0813 2.1546,0.0813 0.5285,0 2.8864,0.89437 0.935,0.0813 1.6668,0.24392 0.7317,0.12196 1.1789,0.28458 1.0163,0.48783 1.5855,0.77241 0.5691,0.24391 0.813,0.28457 0.6911,0.24392 1.179,0.40653 0.5285,0.16261 0.8537,0.40653 0.5285,0.24392 1.2196,0.56915 0.7318,0.32522 1.6261,0.73175 1.4635,0.73176 2.7238,1.70744 1.3009,0.97567 2.4392,2.11396 1.3009,1.46351 1.9513,2.88638 0.6505,1.3822 0.6505,2.76441 0,0.40653 -0.081,1.17894 -0.041,0.73176 -0.2033,1.66678 -0.122,1.17894 -1.2196,2.56115 -1.0976,1.34156 -3.1709,2.96768 -1.8294,1.42286 -3.4149,2.39854 -1.5855,0.93502 -2.927,1.34156 -0.5285,0.36587 -0.8131,0.6911 -0.4065,0.40653 -1.7074,1.13829 -1.3009,0.73175 -3.5369,1.82939 -4.0653,1.99201 -5.7727,2.64246 -1.7074,0.60979 -1.7074,1.34155 z m -4.2686,-19.59483 q 0.7724,-0.56914 1.4635,-1.09763 0.6911,-0.56915 1.7887,-0.56915 0.4879,0 1.179,1.09764 0.7317,1.05698 0.7317,1.58547 0,0.28457 -0.2032,1.3009 -0.2033,1.01633 -0.6505,2.76442 -0.935,3.94336 -1.057,4.95969 -0.1219,0.97567 -0.5285,3.08964 -0.1626,0.52849 -0.3252,1.3822 0,0.36588 0.122,0.5285 0.1626,0.16261 0.4065,0.16261 8.09,-4.06532 8.3746,-4.22793 0.3252,-0.0813 0.6911,-0.20327 0.3658,-0.16261 0.6911,-0.32522 l 0.6098,-0.77241 q 2.3578,-1.50417 4.8783,-3.2116 1.5855,-1.2196 2.3579,-2.39854 0.7724,-1.17894 0.7724,-2.35788 0,-1.50417 -1.748,-2.96768 -1.7481,-1.46352 -5.2443,-2.80507 -2.9677,-1.17895 -5.4069,-1.70744 -2.4392,-0.56914 -4.4312,-0.56914 -2.6018,0 -3.9433,0.93502 -1.3009,0.89437 -1.3009,2.68311 0,1.38221 0.2032,2.11397 0.2033,0.6911 0.5692,0.60979 z"
         style="font-style:normal;font-variant:normal;font-weight:normal;font-stretch:normal;font-family:Mistral;-inkscape-font-specification:Mistral;fill:#ffffff;fill-opacity:1;stroke:none;stroke-width:3.82145977;stroke-miterlimit:4;stroke-dasharray:none;stroke-opacity:1"
         id="path7171" />
      <path
         d="m 1703.9172,-207.89284 q -0.122,-0.44718 -0.122,-0.73175 -0.041,-0.28458 -0.041,-0.48784 0,-1.34156 0.3253,-2.27658 0.3252,-0.97568 0.9756,-1.62613 0.1627,-0.16261 0.8131,-0.48783 0.6911,-0.32523 1.7887,-0.77241 0.7725,-0.36588 1.2196,-0.85372 0.4879,-0.52849 0.5285,-1.26025 0.122,-0.56914 0.4879,-1.3009 0.3659,-0.73176 0.8537,-1.58547 0.1626,-0.24392 0.9757,-2.80507 0.813,-2.56115 2.2765,-7.52084 0.4066,-1.50417 0.8131,-2.6018 0.4065,-1.09764 0.6911,-1.87005 1.3009,-3.45552 2.114,-4.5125 0.8537,-1.09764 1.2602,-1.78874 l 0,-0.20327 -1.2602,-1.992 1.5854,-1.82939 2.0327,-0.40653 q 0.6098,-0.0813 1.0976,-1.13829 0.5285,-1.05699 1.7888,-2.31723 0.2846,-0.0813 0.8944,-0.48784 0.6504,-0.44719 1.6261,-1.2196 0.8537,-0.6911 1.4635,-1.01633 0.6098,-0.32522 0.935,-0.32522 1.0977,0 1.5855,0.44718 0.4878,0.44719 0.4878,1.17894 0,0.89437 -0.935,2.60181 -0.935,1.70743 -0.935,2.6018 0,0.40653 0.1626,0.6911 0.2033,0.24392 0.4472,0.32523 l 4.8784,2.64246 q 0.4065,0.16261 0.7317,1.3009 0.3252,1.09763 0.5285,3.04898 0.2439,1.62613 0.3659,2.72377 0.1626,1.05698 0.1626,1.70743 -0.2846,1.74809 -0.5691,3.53683 0.4065,2.27657 0.8943,4.79707 -0.2439,2.39854 -0.5285,4.87838 0,0.24392 0.081,0.44719 0.122,0.16261 0.3253,0.20326 0.6911,0.0406 1.0163,0.36588 0.3659,0.32522 0.3659,0.89437 0,0.73176 -0.2439,1.17894 -0.2033,0.40653 -0.6098,0.65045 -0.5285,0.32523 -0.8538,0.56915 -0.2845,0.24392 -0.4065,0.40653 l 0.5285,2.52049 -0.7318,5.77275 q 0,0.73176 -0.1219,1.87005 -0.122,1.13829 -0.3659,2.64246 -0.4065,1.09763 -0.6098,1.82939 -0.2033,0.73176 -0.2033,0.97567 0.2033,0.69111 0.3659,1.46352 -0.2439,1.09763 -0.5285,2.19527 -0.2439,1.09764 -0.4878,2.15462 -0.4472,1.42286 -1.179,2.07331 -0.7317,0.6911 -1.7074,0.6911 -0.5285,0 -0.813,-0.48783 -0.244,-0.44719 -0.244,-1.38221 0,-0.40653 0.122,-1.17894 0.1626,-0.77241 0.1626,-1.17895 0,-0.28457 -0.081,-0.77241 -0.081,-0.48783 -0.081,-0.85371 0,-1.13829 0.2033,-3.61813 0.2439,-2.5205 0.2439,-3.78075 -0.2033,-0.6911 -0.4066,-1.42286 0.122,-0.77241 0.1627,-1.54482 0.041,-0.81306 -0.041,-1.50417 l 0.6098,-1.09763 -0.5285,-3.78075 -0.2846,-0.12196 q -0.2439,0 -0.7317,0.20327 -0.4472,0.16261 -1.1383,0.56914 -0.4878,0.16261 -1.5448,0.36588 -1.0164,0.16261 -2.7238,0.20327 -0.7317,0.36588 -1.3822,0.65045 -0.935,0.20326 -2.3579,0.73175 -1.4228,0.48784 -3.2929,1.2196 -1.0976,0.52849 -2.0326,0.85372 -0.8944,0.28457 -1.5042,0.28457 -0.4879,0 -0.8131,0.36588 -0.3252,0.36588 -0.5285,1.05698 -0.1219,0.65045 -0.6098,1.78874 -0.4472,1.13829 -1.2196,2.84572 -0.1626,0.44719 -0.4471,1.38221 -0.2846,0.93502 -0.6505,2.31723 -0.2439,0.52849 -0.5691,1.34155 -0.3253,0.77241 -0.7318,1.8294 0,0.48783 -0.122,1.21959 -0.081,0.6911 -0.2845,1.62613 -0.2033,0.56914 -0.5692,1.42286 -0.3252,0.89437 -0.8537,1.95135 -0.3252,0.65045 -0.935,0.93502 -0.6098,0.32523 -1.5855,0.32523 -0.6911,0 -1.057,-0.48784 -0.4065,-0.44718 -0.4065,-1.42286 0,-1.05698 0.2439,-2.43919 0.2439,-1.34155 0.7724,-2.96768 0.5692,-2.15462 0.9757,-3.49617 0.4065,-1.34156 0.4472,-1.99201 0.1219,-0.28457 0.3659,-1.01633 0.2439,-0.73176 0.5691,-1.78874 0.3659,-1.01633 0.6911,-2.31723 l -0.2032,-0.32522 -1.301,0.20326 q -0.4471,-0.0406 -0.6504,-0.36588 -0.2033,-0.32522 -0.2033,-0.85371 0,-0.28458 0.081,-0.6098 0.081,-0.36588 0.244,-0.85372 z m 14.7571,-7.48018 q 0.935,0 2.7644,-0.44719 1.8294,-0.44718 2.7644,-0.44718 0.5691,0.12196 1.1383,0.20327 1.0163,-0.20327 1.992,-0.44719 0.9757,-0.28457 1.992,-0.48784 0.4065,-0.0813 0.6098,-0.28457 0.2033,-0.24392 0.2033,-0.6098 -0.081,-1.21959 -0.081,-1.66678 0,-0.77241 0.081,-1.70743 0.1219,-0.97568 0.3252,-1.99201 l -0.4879,-1.82939 0.1627,-1.66678 q -0.1627,-0.89437 -0.2846,-1.66678 -0.081,-0.81306 0,-1.34155 -0.081,-0.16261 -0.2846,-0.52849 -0.2033,-0.36588 -0.4472,-0.77241 -0.4065,-0.69111 -0.8537,-1.3009 -0.4065,-0.65046 -0.8131,-1.30091 -0.5691,-0.77241 -1.2196,-1.13829 -0.6504,-0.36587 -1.3415,-0.36587 -0.8131,0 -1.6668,1.3009 -0.8537,1.3009 -1.5855,3.94336 -0.1219,0.32522 -0.6911,1.34155 -0.5285,1.01633 -1.5448,2.64246 -0.1626,1.54482 -1.0976,3.86205 -0.935,2.27657 -2.6018,5.36622 -0.2033,0.28457 -0.2439,0.48783 0,0.20327 0,0.44719 0,0.28457 0.1219,0.44718 0.1626,0.12196 0.4472,0.12196 0.4065,0 1.3009,-0.0813 0.935,-0.0813 1.3416,-0.0813 z"
         style="font-style:normal;font-variant:normal;font-weight:normal;font-stretch:normal;font-family:Mistral;-inkscape-font-specification:Mistral;fill:#ffffff;fill-opacity:1;stroke:none;stroke-width:3.82145977;stroke-miterlimit:4;stroke-dasharray:none;stroke-opacity:1"
         id="path7173" />
      <path
         d="m 1749.9366,-237.04116 -0.6505,-2.64246 q 0.2439,-0.81306 0.4878,-1.62612 0.244,-0.85372 0.4472,-1.66678 0.2439,-0.56915 0.8131,-0.85372 0.6098,-0.32522 1.5855,-0.32522 0.3658,0 1.0976,-0.16262 0.7724,-0.16261 1.0976,-0.16261 0.3659,0 0.9757,0.56914 0.6098,0.56915 0.8537,0.65046 0.2846,-0.20327 0.6911,-0.69111 0.4472,-0.48784 1.057,-1.3009 0.5285,-0.65045 1.0163,-1.05698 0.4879,-0.40653 1.057,-0.56915 0.6505,0.32523 1.1383,0.52849 0.2846,0.16262 0.3659,0.36588 0.122,0.20327 0.122,0.56915 0,0.20326 -0.2033,0.89437 -0.2033,0.65045 -0.6098,1.78874 -0.4472,1.21959 -0.6911,2.03266 -0.2439,0.81306 -0.3252,1.26024 -0.6098,0.93503 -0.9757,1.70744 -0.3252,0.73175 -0.3252,1.3822 0,0.81307 0.4878,2.43919 0.4878,1.58548 1.4229,3.98402 1.3009,3.25225 2.6424,6.78907 1.2196,3.90271 2.5612,7.56149 1.3415,3.61814 2.805,6.9517 1.5042,3.49617 2.4799,5.2036 0.9756,1.70743 1.4635,1.70743 0.4065,0 0.5691,-0.44718 0.2033,-0.48784 0.2033,-1.50417 0,-0.40653 0.081,-1.05698 0.122,-0.65045 0.3659,-1.42286 0.3659,-1.09764 0.6911,-2.47984 0.4065,-2.11397 0.7317,-3.69944 0.3659,-1.58548 0.6098,-2.72376 0.1627,-0.73176 0.3659,-3.08965 0.2033,-2.35788 0.4066,-6.38254 0,-0.40654 0.1219,-1.13829 0.1626,-0.73176 0.2846,-1.66678 0.1626,-0.93502 0.2439,-1.58548 0.081,-0.6911 0.081,-1.21959 0,-0.93502 -0.2033,-2.76442 -0.2032,-1.87004 -0.2032,-2.80506 0.6098,-2.56115 1.1383,-5.00034 0.4472,-2.11397 0.8537,-3.49618 0.4065,-1.42286 0.6911,-2.15462 0.6504,-1.46351 1.5855,-2.52049 0.935,-1.09764 2.0733,-1.78874 l 0.3252,0 q 0.4065,0 0.5285,0.16261 0.1626,0.16261 0.1626,0.52849 -0.2033,0.85372 -0.3659,1.3009 0.122,0.73176 0.2439,1.54482 -0.1219,1.01633 -0.2845,1.70744 -0.081,0.44718 -0.1626,1.38221 -0.081,0.89437 -0.081,2.19527 0,0.48783 -0.1219,2.11396 -0.122,1.58547 -0.4472,4.26858 -0.2439,3.8214 -0.6098,7.60215 -0.3252,3.78074 -0.6911,7.56149 -0.3252,4.55315 -0.935,8.3339 -0.6098,3.74009 -1.4635,6.70777 -0.2033,1.78874 -0.7724,3.98401 -0.5285,2.19527 -1.3823,4.75642 l -1.2602,2.03266 q -0.122,0.16261 -2.5611,1.05698 -2.4392,0.85372 -2.7238,0.85372 -0.6098,0 -1.8294,-1.58548 -1.2196,-1.62612 -2.8864,-4.91903 -1.5855,-2.96768 -2.5205,-4.87838 -0.935,-1.95135 -1.1789,-2.92703 -0.081,-0.36588 -0.2439,-0.93502 -0.1626,-0.56915 -0.3659,-1.3009 -0.8131,-1.78874 -2.0733,-4.4312 -1.2196,-2.64245 -2.8457,-6.26059 -0.2846,-0.89437 -0.7318,-1.70743 -0.4065,-0.85372 -1.0163,-1.78874 l -0.2846,0.12196 q -0.2846,0.81306 -0.5692,2.03266 -0.2845,1.21959 -0.6504,2.92703 -0.4065,1.09763 -0.8537,1.95135 -0.6098,2.35788 -1.3822,5.1223 -0.7724,2.76441 -1.6668,5.93536 -0.2439,1.05698 -0.4878,2.19527 -0.244,1.13829 -0.5692,2.35789 l -0.7317,1.34155 q -0.1627,1.2196 -0.3659,2.39854 -0.2846,0.93502 -0.7318,2.27658 -0.4065,1.3009 -1.0163,3.13029 -0.122,0.93502 -0.6098,1.38221 -0.4472,0.48784 -1.2603,0.52849 -0.081,0.16261 -0.3252,0.32522 -0.2439,0.20327 -0.813,0.36588 -0.4066,0.0813 -0.6098,-0.44718 -0.2033,-0.48784 -0.2033,-1.46352 0,-0.56914 0.2033,-1.78874 0.2032,-1.21959 0.6098,-3.08964 0.4471,-2.11396 0.6911,-3.2929 0.2845,-1.2196 0.3658,-1.54482 0.1627,-0.97568 0.3659,-2.56115 0.2033,-1.58548 0.4472,-3.65879 0.081,-0.52849 0.2439,-1.3009 0.2033,-0.81306 0.4879,-1.87005 0.2032,-0.81306 0.813,-4.39054 0.6098,-3.61813 1.5855,-10.04133 1.057,-6.30124 2.0327,-12.68379 z"
         style="font-style:normal;font-variant:normal;font-weight:normal;font-stretch:normal;font-family:Mistral;-inkscape-font-specification:Mistral;fill:#ffffff;fill-opacity:1;stroke:none;stroke-width:3.82145977;stroke-miterlimit:4;stroke-dasharray:none;stroke-opacity:1"
         id="path7175" />
      <path
         d="m 1792.3378,-249.52168 q 1.6668,-0.48784 3.6181,-0.73176 1.992,-0.24392 4.3906,-0.24392 0.4472,0 1.3009,0.16261 0.8943,0.12196 1.4228,0.12196 0.7724,0.12196 1.179,0.24392 0.4472,0.12196 1.2196,0.28457 l 1.1383,-0.32522 q 0.3658,0.0406 0.7724,0.32522 0.4472,0.24392 1.057,0.56915 0.3252,-0.20327 0.935,-0.48784 0.6098,0 0.9757,0.48784 0.4065,0.44718 0.5284,1.3009 0,0.65045 0,1.3009 0,0.6098 -0.081,1.3009 -0.041,0.32523 0.041,1.01633 0.081,0.69111 0.081,1.05699 0,0.44718 -0.2033,0.65045 -0.2032,0.20326 -0.5285,0.20326 -1.5448,0 -3.0489,-0.24392 -1.5042,-0.28457 -3.0084,-0.81306 -1.3009,0.24392 -2.2766,0.36588 -0.7724,0.0813 -1.1383,0.24392 -0.3658,0.16261 -0.3658,0.40653 0.1626,0.28457 0.4472,0.6098 0.2845,0.32522 0.6911,0.60979 0.2845,0.20327 0.6504,0.89437 0.3659,0.65045 0.7724,1.78874 0.1626,0.44719 0.2033,0.85372 0.081,0.40653 0.081,0.77241 0,0.85372 -0.1626,2.15462 -0.1626,1.26025 -0.3659,2.07331 -0.3659,1.58547 -0.5691,2.64246 -0.2033,1.01632 -0.3253,1.54482 -0.081,0.40653 -0.1219,0.97567 -0.041,0.56915 -0.081,1.3009 -0.041,0.6098 -0.3253,1.54482 -0.2845,0.89437 -0.5691,2.07332 0,0.52849 -0.122,1.21959 -0.1219,0.6911 -0.3252,1.58547 -0.1219,0.52849 -0.4065,1.2196 -0.2439,0.65045 -0.4879,1.54482 0.081,0.6098 0.122,1.26025 -0.1626,1.13829 -0.3252,2.35788 -0.2439,1.74809 -0.4879,3.53683 -0.2439,1.78874 -0.4471,3.45552 -0.244,0.48783 -0.5285,1.09763 0,0.28457 0.081,0.89437 0.1219,0.56915 0.1219,0.93502 0,0.44719 -0.1626,1.34156 -0.1626,0.85372 -0.1626,1.26025 0,0.77241 -0.041,2.39853 -0.041,1.62613 -0.041,2.43919 0.2033,0.69111 0.3659,1.34156 -0.122,0.56914 -0.2846,0.93502 -0.122,0.32523 -0.3659,0.52849 -0.7317,0.44719 -1.3415,0.73176 -0.4066,0.40653 -0.6911,0.65045 -0.244,0.24392 -0.4472,0.24392 -0.8944,0 -1.2603,-0.24392 -0.3658,-0.24392 -0.3658,-0.65045 0.081,-1.34155 0.2845,-2.6018 -0.081,-0.16262 -0.2032,-0.48784 -0.081,-0.32523 -0.2846,-0.81306 -0.2033,-3.17095 -0.5285,-6.50451 0.122,-2.39854 0.122,-4.83773 0,-1.13829 0.081,-2.84572 0.1219,-1.74809 0.4065,-4.02466 0.2846,-2.27658 0.4065,-3.98401 0.122,-1.70744 0.122,-2.80507 0,-0.48784 0.081,-1.2196 0.122,-0.77241 0.2439,-1.87004 0.122,-0.93503 0.2439,-1.66678 0.122,-0.77241 0.122,-1.38221 0,-0.32523 -0.041,-0.69111 -0.041,-0.36587 -0.081,-0.65045 0.4066,-1.01633 0.6098,-1.62612 0.2033,-0.65045 0.2033,-0.85372 -0.1626,-0.52849 -0.3659,-1.05698 0.2439,-0.56915 0.5285,-2.03266 0.2846,-1.50417 0.6098,-3.9027 0,-0.48784 0,-1.17895 0,-0.6911 0.041,-1.66678 l -0.244,-0.73175 q -0.1626,-0.0813 -0.6098,-0.20327 -0.4065,-0.12196 -1.0569,-0.20327 l -0.5285,0.36588 q -0.5285,0.12196 -1.0977,0.24392 -0.5285,0.12196 -1.1383,0.28457 -4.2279,1.17895 -8.3745,2.31724 -0.3252,0 -0.5285,-0.24392 -0.2033,-0.28458 -0.2033,-0.73176 0,-0.24392 0.2033,-0.85372 0.2033,-0.60979 0.6504,-1.58547 0.081,-1.42286 0.2033,-2.35788 0.122,-0.93503 0.2846,-1.42287 0.3252,-0.89437 1.0163,-1.50416 0.6505,-0.6098 1.5855,-0.93503 1.87,-0.60979 3.4962,-0.81306 1.6261,-0.20327 3.0083,-0.0406 z"
         style="font-style:normal;font-variant:normal;font-weight:normal;font-stretch:normal;font-family:Mistral;-inkscape-font-specification:Mistral;fill:#ffffff;fill-opacity:1;stroke:none;stroke-width:3.82145977;stroke-miterlimit:4;stroke-dasharray:none;stroke-opacity:1"
         id="path7177" />
      <path
         d="m 1812.5424,-211.14509 q 1.1383,0.28457 1.9107,0.6098 1.3822,-0.24392 2.8051,-0.52849 l 7.5615,0 q 1.0976,0 1.5855,0.56914 0.4878,0.56914 0.4878,1.70743 0,1.62613 -0.6911,2.43919 -0.6505,0.81307 -1.9107,0.81307 -0.4065,0 -1.2603,-0.12196 -0.8537,-0.12196 -1.2602,-0.12196 l -2.3172,0 q -1.4636,0.28457 -2.9271,0.52849 -3.5368,-0.56915 -3.9433,-0.56915 -0.5285,0 -1.4229,0.16262 -0.8537,0.12196 -1.3822,0.12196 -0.7317,0 -1.1789,-0.28458 -0.4472,-0.32522 -0.4472,-0.89437 0,-0.24391 0.4065,-0.6911 0.4065,-0.48784 1.179,-1.17894 0.1626,-0.32523 0.4065,-0.81306 0.2846,-0.5285 0.6504,-1.2196 0.2846,-0.0406 0.6911,-0.16261 0.4472,-0.16261 1.057,-0.36588 z"
         style="font-style:normal;font-variant:normal;font-weight:normal;font-stretch:normal;font-family:Mistral;-inkscape-font-specification:Mistral;fill:#ffffff;fill-opacity:1;stroke:none;stroke-width:3.82145977;stroke-miterlimit:4;stroke-dasharray:none;stroke-opacity:1"
         id="path7179" />
      <path
         d="m 1958.406,-211.14509 q 1.1383,0.28457 1.9107,0.6098 1.3822,-0.24392 2.8051,-0.52849 l 7.5615,0 q 1.0976,0 1.5854,0.56914 0.4879,0.56914 0.4879,1.70743 0,1.62613 -0.6911,2.43919 -0.6505,0.81307 -1.9107,0.81307 -0.4066,0 -1.2603,-0.12196 -0.8537,-0.12196 -1.2602,-0.12196 l -2.3173,0 q -1.4635,0.28457 -2.927,0.52849 -3.5368,-0.56915 -3.9434,-0.56915 -0.5284,0 -1.4228,0.16262 -0.8537,0.12196 -1.3822,0.12196 -0.7318,0 -1.179,-0.28458 -0.4471,-0.32522 -0.4471,-0.89437 0,-0.24391 0.4065,-0.6911 0.4065,-0.48784 1.1789,-1.17894 0.1626,-0.32523 0.4066,-0.81306 0.2845,-0.5285 0.6504,-1.2196 0.2846,-0.0406 0.6911,-0.16261 0.4472,-0.16261 1.057,-0.36588 z"
         style="font-style:normal;font-variant:normal;font-weight:normal;font-stretch:normal;font-family:Mistral;-inkscape-font-specification:Mistral;fill:#ffffff;fill-opacity:1;stroke:none;stroke-width:3.82145977;stroke-miterlimit:4;stroke-dasharray:none;stroke-opacity:1"
         id="path7181" />
      <path
         d="m 1981.8629,-232.32539 q -0.122,-0.81307 -0.2846,-1.70743 0,0.36587 0.122,-0.56915 0.1219,-0.93502 0.3252,-3.2116 0.3252,-0.44718 0.4472,-0.77241 0.1626,-0.36588 0.2846,-0.65045 -0.3659,-0.44719 -0.5692,-0.73176 -0.1626,-0.32522 -0.1626,-0.52849 0.3252,-2.47984 0.6098,-4.71577 0.041,-0.60979 0.6911,-1.3822 0.6911,-0.77241 1.8701,-1.66678 0.935,-0.77241 1.8293,-1.30091 0.8944,-0.52849 1.7075,-0.85371 1.0976,-0.36588 1.3009,-0.6098 0.2032,-0.24392 0.4472,-0.24392 0.6504,0 0.9756,0.65045 0.3659,0.65045 0.3659,1.95135 0,0.69111 -0.3659,1.9107 -0.3252,1.2196 -0.3252,1.78874 0,0.24392 0.041,1.87005 0.081,1.62613 0.2032,4.67511 0.041,2.19527 0.6098,4.67512 0.6098,2.47984 1.5449,5.16295 1.2602,3.49617 2.7237,5.24426 1.4635,1.70743 3.2116,1.70743 1.3822,0 3.6588,-1.78874 2.2766,-1.78874 5.3662,-5.36622 2.3579,-2.76441 4.1873,-5.16295 1.87,-2.39854 3.0083,-4.39054 1.057,-1.78874 2.4799,-3.2116 1.4228,-1.42286 3.2522,-2.6018 0.5692,-0.32523 0.935,-0.5285 0.3659,-0.20326 0.5692,-0.20326 0.7317,0 1.0976,1.09763 0.4066,1.09764 0.4066,3.25226 -0.244,1.992 -0.4066,3.94336 -0.3659,3.04898 -1.0976,6.34189 -0.6911,3.29291 -1.8294,6.82973 -0.5691,1.78874 -0.9757,3.1303 -0.4065,1.34155 -0.5691,2.27657 -0.081,0.52849 -0.2439,1.34156 -0.122,0.77241 -0.2846,1.82939 -0.4065,1.01633 -0.8944,2.03266 -0.4065,0.81306 -0.6911,1.95135 -0.2439,1.13829 -0.4472,2.64246 0,0.28457 -0.041,0.73175 -0.041,0.44719 -0.081,0.93503 -0.9351,4.14662 -1.9107,8.04932 -0.081,0.36588 -0.3659,0.93503 -0.5285,0.16261 -1.2196,0.6911 -0.6505,0.52849 -1.3822,1.46352 -0.7318,0.81306 -1.2196,1.21959 -0.4878,0.36588 -0.7318,0.36588 -0.3252,0 -0.5285,-0.20327 -0.2032,-0.20326 -0.2032,-0.6911 0.041,-0.32523 0.1219,-0.52849 0.5692,-1.38221 0.9757,-3.98401 0.4472,-2.6018 0.8131,-6.4232 0.041,-0.81307 0.6504,-4.39055 0.6098,-3.57747 1.7888,-9.91937 0.1626,-1.01633 0.4065,-2.47984 0.2846,-1.50417 0.6911,-3.41487 0.2846,-0.97567 0.4472,-1.66678 0.2033,-0.73175 0.2033,-1.05698 0,-0.40653 -0.1627,-0.56914 -0.1219,-0.20327 -0.4065,-0.20327 -0.2439,0 -0.8944,0.65045 -0.6504,0.6098 -1.6261,1.87005 -0.5691,0.6911 -1.1789,1.46351 -0.5692,0.77241 -1.2196,1.50417 -1.0977,1.13829 -2.0327,2.15462 l -3.0083,3.00833 q -0.4065,0.24392 -1.0163,0.6098 -0.5692,0.36588 -1.3823,0.85371 -0.7724,1.2196 -2.4798,2.11397 -1.6668,0.85372 -3.0896,0.85372 -1.7075,0 -3.2929,-1.05699 -1.5449,-1.09763 -3.0084,-3.33356 -0.6504,-1.09763 -1.3009,-2.19527 -0.6098,-1.09763 -1.3415,-2.19527 l -0.2033,0.0406 q -0.2033,0.24392 -0.7724,3.29291 -0.5285,3.04899 -1.3822,8.9437 -0.935,6.05732 -1.4229,9.51284 -0.4878,3.45552 -0.4878,4.47185 -0.081,1.38221 -0.5285,2.15462 -0.4065,0.73175 -1.3009,0.85371 -0.4472,0.0407 -1.2603,0.24392 -0.813,0.16261 -1.9513,0.44719 -0.2033,-0.0407 -0.3659,-0.12196 -0.1626,-0.12196 -0.1626,-0.32523 l 0.2439,-1.50417 -0.4065,-1.54482 q 0.2439,-1.26024 0.4878,-2.43919 0.1626,-2.43919 0.2846,-4.5938 0.041,-0.44719 0.2846,-1.50417 0.2845,-1.05698 0.2845,-1.58548 0,-0.28457 -0.1219,-0.81306 -0.122,-0.56914 -0.122,-0.85372 0,-2.23592 0.6911,-6.62646 0.7318,-4.39054 0.7318,-6.66712 -0.122,-0.93502 -0.2846,-1.87005 0.2033,-1.46351 0.6505,-3.65878 0.4471,-2.19527 1.0163,-5.1223 z"
         style="font-style:normal;font-variant:normal;font-weight:normal;font-stretch:normal;font-family:Mistral;-inkscape-font-specification:Mistral;fill:#ffffff;fill-opacity:1;stroke:none;stroke-width:3.82145977;stroke-miterlimit:4;stroke-dasharray:none;stroke-opacity:1"
         id="path7183" />
      <path
         d="m 2059.0226,-204.15275 1.5448,3.7401 q -0.4472,0.40653 -1.0976,0.89437 -0.6098,0.44718 -1.4635,0.97567 -0.8538,0.28457 -2.0734,0.81307 -1.1789,0.52849 -2.7237,1.21959 -1.179,0.73176 -1.9514,1.09764 -0.7317,0.36587 -1.0163,0.36587 -0.5285,0 -1.9514,0.44719 -1.3822,0.44718 -3.6587,1.34155 -1.2196,0.44719 -2.6018,0.93503 -1.3416,0.44718 -2.8051,0.81306 l -2.5205,-0.52849 -1.5448,0.6911 q -0.7724,0 -1.5855,-0.0406 -0.7724,0 -1.5042,-0.0813 -1.1789,-0.0406 -1.7887,-0.32522 -0.5691,-0.28457 -0.5691,-0.81307 l 0.2439,-1.54482 -0.2439,-0.28457 q -1.3823,0 -1.8701,-0.36588 -0.4472,-0.36588 -0.4472,-1.70743 0,-0.6098 0.041,-2.03266 0.081,-1.42286 0.2032,-3.69944 0,-0.20326 0.244,-0.85371 0.2845,-0.65045 0.2845,-0.93503 -0.2032,-0.40653 -0.2439,-0.65045 -0.041,-0.24392 -0.041,-0.44718 0.081,-1.58548 0.3252,-3.90271 0.2846,-2.31723 0.6911,-5.48817 0.4878,-1.9107 0.8131,-4.30924 -0.081,-1.78874 -0.1627,-3.65878 1.5042,-6.74843 3.0897,-13.57816 0.2439,-1.2196 0.8943,-2.31723 0.6912,-1.09764 1.6262,-2.11397 0.4065,-0.28457 0.5285,-0.44718 0.2032,-0.36588 0.5285,-0.89437 0.3252,-0.56915 0.7724,-1.26025 0.2439,-0.16261 0.7724,-0.48784 0.5691,-0.32523 1.5041,-0.89437 0.4066,-0.32522 0.9351,-0.77241 0.5285,-0.44718 1.2196,-1.05698 1.5448,-0.93502 2.8457,-1.95135 1.3415,-1.05699 3.3335,-1.30091 0.9351,-0.0406 1.8701,-0.0813 0.935,-0.0813 1.7887,-0.16261 0.8131,-0.16262 1.4229,-0.20327 0.4065,-0.0813 0.6911,-0.16261 0.3252,-0.0813 0.5691,-0.0813 0.244,0 0.6505,0.0813 0.4472,0.0406 1.1789,0.16261 0.5692,0.0406 0.9757,0.0406 0.4065,0 0.7724,-0.0406 1.6261,0.48784 2.3986,1.42286 0.7724,0.93502 0.7724,2.23592 0,2.80507 -0.5692,4.18728 -0.5285,1.34156 -1.7074,1.34156 -0.8944,0 -2.0327,-0.89437 -1.1383,-0.93503 -6.1386,-0.93503 -2.0733,0.40653 -4.106,0.81307 -0.2032,0.32522 -0.4878,0.48783 -0.2439,0.16262 -0.4472,0.24392 l -1.4229,-0.52849 q -0.6504,0.24392 -1.4635,1.34156 -0.813,1.09763 -1.7074,3.00833 -0.2033,0.40653 -0.3252,1.01633 -0.081,0.6098 -0.081,1.42286 -0.7318,2.92703 -1.4635,5.65079 -0.6911,2.92703 -1.1383,4.4312 -0.4066,1.50416 -0.4879,1.82939 -0.1219,0.40653 -0.2032,0.77241 -0.081,0.36588 -0.081,0.73176 0,0.52849 0.2032,0.81306 0.2033,0.28457 0.6098,0.28457 0.3659,0 1.7481,-1.34155 1.4229,-1.34156 2.114,-1.50417 0.8537,-0.24392 1.7074,-0.52849 0.8944,-0.28457 1.8294,-0.6911 0.3659,-0.12196 1.9107,-0.32523 1.5855,-0.20327 4.3905,-0.48784 l 1.1383,0.32523 2.1546,-0.40653 1.1383,0.52849 q 0.4066,0.40653 0.7318,1.01633 0.3659,0.56914 0.6504,1.26025 0,2.43919 -0.5285,3.69943 -0.5284,1.26025 -1.5854,1.26025 l -2.2359,-0.89437 q -2.7645,0.28457 -5.4882,0.56915 -2.6831,0.24392 -5.4882,0.48783 -3.4149,0.69111 -5.2443,2.23593 -1.8294,1.54482 -2.0326,4.06532 -0.041,0.52849 -0.2846,1.62612 -0.2439,1.09764 -0.5691,2.72376 l 0.2845,1.2196 q -0.3658,1.74809 -0.5691,3.29291 -0.2033,1.54482 -0.2033,2.76441 0,0.40653 0.122,0.6098 0.1219,0.16261 0.2846,0.0813 1.9513,-0.16262 3.1302,-0.24392 1.179,-0.0813 1.6668,-0.0407 1.057,0.0813 2.1546,0.16262 l 2.5612,-0.20327 q 0.4065,-0.0813 1.7481,-0.65045 1.3822,-0.56914 2.4798,-0.56914 1.179,0 2.3579,-0.24392 1.2196,-0.24392 2.3172,-0.65045 1.0977,-0.40654 2.1547,-0.81307 1.0976,-0.44718 2.1952,-0.85371 0.4066,-0.12196 1.057,-0.44719 0.6911,-0.32522 1.5855,-0.85372 z"
         style="font-style:normal;font-variant:normal;font-weight:normal;font-stretch:normal;font-family:Mistral;-inkscape-font-specification:Mistral;fill:#ffffff;fill-opacity:1;stroke:none;stroke-width:3.82145977;stroke-miterlimit:4;stroke-dasharray:none;stroke-opacity:1"
         id="path7185" />
      <path
         d="m 2067.1532,-249.52168 q 1.6668,-0.48784 3.6182,-0.73176 1.992,-0.24392 4.3905,-0.24392 0.4472,0 1.3009,0.16261 0.8944,0.12196 1.4229,0.12196 0.7724,0.12196 1.1789,0.24392 0.4472,0.12196 1.2196,0.28457 l 1.1383,-0.32522 q 0.3659,0.0406 0.7724,0.32522 0.4472,0.24392 1.057,0.56915 0.3252,-0.20327 0.935,-0.48784 0.6098,0 0.9757,0.48784 0.4065,0.44718 0.5285,1.3009 0,0.65045 0,1.3009 0,0.6098 -0.081,1.3009 -0.041,0.32523 0.041,1.01633 0.081,0.69111 0.081,1.05699 0,0.44718 -0.2032,0.65045 -0.2033,0.20326 -0.5285,0.20326 -1.5449,0 -3.049,-0.24392 -1.5042,-0.28457 -3.0084,-0.81306 -1.3009,0.24392 -2.2765,0.36588 -0.7724,0.0813 -1.1383,0.24392 -0.3659,0.16261 -0.3659,0.40653 0.1626,0.28457 0.4472,0.6098 0.2846,0.32522 0.6911,0.60979 0.2846,0.20327 0.6504,0.89437 0.3659,0.65045 0.7725,1.78874 0.1626,0.44719 0.2032,0.85372 0.081,0.40653 0.081,0.77241 0,0.85372 -0.1626,2.15462 -0.1626,1.26025 -0.3659,2.07331 -0.3658,1.58547 -0.5691,2.64246 -0.2033,1.01632 -0.3252,1.54482 -0.081,0.40653 -0.122,0.97567 -0.041,0.56915 -0.081,1.3009 -0.041,0.6098 -0.3252,1.54482 -0.2846,0.89437 -0.5692,2.07332 0,0.52849 -0.1219,1.21959 -0.122,0.6911 -0.3253,1.58547 -0.1219,0.52849 -0.4065,1.2196 -0.2439,0.65045 -0.4878,1.54482 0.081,0.6098 0.1219,1.26025 -0.1626,1.13829 -0.3252,2.35788 -0.2439,1.74809 -0.4878,3.53683 -0.244,1.78874 -0.4472,3.45552 -0.2439,0.48783 -0.5285,1.09763 0,0.28457 0.081,0.89437 0.122,0.56915 0.122,0.93502 0,0.44719 -0.1627,1.34156 -0.1626,0.85372 -0.1626,1.26025 0,0.77241 -0.041,2.39853 -0.041,1.62613 -0.041,2.43919 0.2033,0.69111 0.3659,1.34156 -0.122,0.56914 -0.2846,0.93502 -0.1219,0.32523 -0.3658,0.52849 -0.7318,0.44719 -1.3416,0.73176 -0.4065,0.40653 -0.6911,0.65045 -0.2439,0.24392 -0.4472,0.24392 -0.8944,0 -1.2602,-0.24392 -0.3659,-0.24392 -0.3659,-0.65045 0.081,-1.34155 0.2846,-2.6018 -0.081,-0.16262 -0.2033,-0.48784 -0.081,-0.32523 -0.2846,-0.81306 -0.2032,-3.17095 -0.5285,-6.50451 0.122,-2.39854 0.122,-4.83773 0,-1.13829 0.081,-2.84572 0.122,-1.74809 0.4065,-4.02466 0.2846,-2.27658 0.4066,-3.98401 0.1219,-1.70744 0.1219,-2.80507 0,-0.48784 0.081,-1.2196 0.122,-0.77241 0.2439,-1.87004 0.122,-0.93503 0.244,-1.66678 0.1219,-0.77241 0.1219,-1.38221 0,-0.32523 -0.041,-0.69111 -0.041,-0.36587 -0.081,-0.65045 0.4065,-1.01633 0.6098,-1.62612 0.2032,-0.65045 0.2032,-0.85372 -0.1626,-0.52849 -0.3659,-1.05698 0.244,-0.56915 0.5285,-2.03266 0.2846,-1.50417 0.6098,-3.9027 0,-0.48784 0,-1.17895 0,-0.6911 0.041,-1.66678 l -0.2439,-0.73175 q -0.1626,-0.0813 -0.6098,-0.20327 -0.4066,-0.12196 -1.057,-0.20327 l -0.5285,0.36588 q -0.5285,0.12196 -1.0976,0.24392 -0.5285,0.12196 -1.1383,0.28457 -4.228,1.17895 -8.3746,2.31724 -0.3252,0 -0.5285,-0.24392 -0.2032,-0.28458 -0.2032,-0.73176 0,-0.24392 0.2032,-0.85372 0.2033,-0.60979 0.6505,-1.58547 0.081,-1.42286 0.2032,-2.35788 0.122,-0.93503 0.2846,-1.42287 0.3252,-0.89437 1.0163,-1.50416 0.6505,-0.6098 1.5855,-0.93503 1.8701,-0.60979 3.4962,-0.81306 1.6261,-0.20327 3.0083,-0.0406 z"
         style="font-style:normal;font-variant:normal;font-weight:normal;font-stretch:normal;font-family:Mistral;-inkscape-font-specification:Mistral;fill:#ffffff;fill-opacity:1;stroke:none;stroke-width:3.82145977;stroke-miterlimit:4;stroke-dasharray:none;stroke-opacity:1"
         id="path7187" />
      <path
         d="m 2117.5631,-204.15275 1.5449,3.7401 q -0.4472,0.40653 -1.0977,0.89437 -0.6098,0.44718 -1.4635,0.97567 -0.8537,0.28457 -2.0733,0.81307 -1.1789,0.52849 -2.7238,1.21959 -1.1789,0.73176 -1.9513,1.09764 -0.7318,0.36587 -1.0163,0.36587 -0.5285,0 -1.9514,0.44719 -1.3822,0.44718 -3.6588,1.34155 -1.2196,0.44719 -2.6018,0.93503 -1.3415,0.44718 -2.805,0.81306 l -2.5205,-0.52849 -1.5449,0.6911 q -0.7724,0 -1.5854,-0.0406 -0.7724,0 -1.5042,-0.0813 -1.1789,-0.0406 -1.7887,-0.32522 -0.5692,-0.28457 -0.5692,-0.81307 l 0.2439,-1.54482 -0.2439,-0.28457 q -1.3822,0 -1.87,-0.36588 -0.4472,-0.36588 -0.4472,-1.70743 0,-0.6098 0.041,-2.03266 0.081,-1.42286 0.2033,-3.69944 0,-0.20326 0.2439,-0.85371 0.2846,-0.65045 0.2846,-0.93503 -0.2033,-0.40653 -0.2439,-0.65045 -0.041,-0.24392 -0.041,-0.44718 0.081,-1.58548 0.3252,-3.90271 0.2846,-2.31723 0.6911,-5.48817 0.4879,-1.9107 0.8131,-4.30924 -0.081,-1.78874 -0.1626,-3.65878 1.5042,-6.74843 3.0896,-13.57816 0.244,-1.2196 0.8944,-2.31723 0.6911,-1.09764 1.6261,-2.11397 0.4066,-0.28457 0.5285,-0.44718 0.2033,-0.36588 0.5285,-0.89437 0.3252,-0.56915 0.7724,-1.26025 0.2439,-0.16261 0.7724,-0.48784 0.5692,-0.32523 1.5042,-0.89437 0.4065,-0.32522 0.935,-0.77241 0.5285,-0.44718 1.2196,-1.05698 1.5448,-0.93502 2.8457,-1.95135 1.3416,-1.05699 3.3336,-1.30091 0.935,-0.0406 1.87,-0.0813 0.9351,-0.0813 1.7888,-0.16261 0.8131,-0.16262 1.4228,-0.20327 0.4066,-0.0813 0.6912,-0.16261 0.3252,-0.0813 0.5691,-0.0813 0.2439,0 0.6504,0.0813 0.4472,0.0406 1.179,0.16261 0.5691,0.0406 0.9757,0.0406 0.4065,0 0.7724,-0.0406 1.6261,0.48784 2.3985,1.42286 0.7724,0.93502 0.7724,2.23592 0,2.80507 -0.5691,4.18728 -0.5285,1.34156 -1.7075,1.34156 -0.8943,0 -2.0326,-0.89437 -1.1383,-0.93503 -6.1386,-0.93503 -2.0734,0.40653 -4.106,0.81307 -0.2033,0.32522 -0.4878,0.48783 -0.244,0.16262 -0.4472,0.24392 l -1.4229,-0.52849 q -0.6504,0.24392 -1.4635,1.34156 -0.8131,1.09763 -1.7074,3.00833 -0.2033,0.40653 -0.3253,1.01633 -0.081,0.6098 -0.081,1.42286 -0.7317,2.92703 -1.4635,5.65079 -0.6911,2.92703 -1.1383,4.4312 -0.4065,1.50416 -0.4878,1.82939 -0.122,0.40653 -0.2033,0.77241 -0.081,0.36588 -0.081,0.73176 0,0.52849 0.2033,0.81306 0.2032,0.28457 0.6098,0.28457 0.3659,0 1.7481,-1.34155 1.4228,-1.34156 2.1139,-1.50417 0.8537,-0.24392 1.7075,-0.52849 0.8943,-0.28457 1.8294,-0.6911 0.3658,-0.12196 1.9107,-0.32523 1.5854,-0.20327 4.3905,-0.48784 l 1.1383,0.32523 2.1546,-0.40653 1.1383,0.52849 q 0.4065,0.40653 0.7317,1.01633 0.3659,0.56914 0.6505,1.26025 0,2.43919 -0.5285,3.69943 -0.5285,1.26025 -1.5855,1.26025 l -2.2359,-0.89437 q -2.7644,0.28457 -5.4882,0.56915 -2.6831,0.24392 -5.4881,0.48783 -3.4149,0.69111 -5.2443,2.23593 -1.8294,1.54482 -2.0327,4.06532 -0.041,0.52849 -0.2845,1.62612 -0.244,1.09764 -0.5692,2.72376 l 0.2846,1.2196 q -0.3659,1.74809 -0.5692,3.29291 -0.2032,1.54482 -0.2032,2.76441 0,0.40653 0.1219,0.6098 0.122,0.16261 0.2846,0.0813 1.9514,-0.16262 3.1303,-0.24392 1.1789,-0.0813 1.6668,-0.0407 1.057,0.0813 2.1546,0.16262 l 2.5612,-0.20327 q 0.4065,-0.0813 1.748,-0.65045 1.3822,-0.56914 2.4799,-0.56914 1.1789,0 2.3579,-0.24392 1.2196,-0.24392 2.3172,-0.65045 1.0976,-0.40654 2.1546,-0.81307 1.0977,-0.44718 2.1953,-0.85371 0.4065,-0.12196 1.057,-0.44719 0.6911,-0.32522 1.5854,-0.85372 z"
         style="font-style:normal;font-variant:normal;font-weight:normal;font-stretch:normal;font-family:Mistral;-inkscape-font-specification:Mistral;fill:#ffffff;fill-opacity:1;stroke:none;stroke-width:3.82145977;stroke-miterlimit:4;stroke-dasharray:none;stroke-opacity:1"
         id="path7189" />
      <path
         d="m 2132.8894,-214.84453 q 0,0.81306 1.1383,2.19527 1.1789,1.34156 3.4962,3.33356 1.5041,1.26025 3.0896,2.47985 1.6261,1.17894 3.2116,2.39853 0.6911,0.56915 1.7887,1.50417 1.0977,0.89437 2.5612,2.11396 1.057,0.81307 2.1953,1.62613 1.1789,0.81306 2.5205,1.62613 0.8943,0.6911 1.992,1.50417 1.0976,0.81306 2.5205,1.74808 0.813,0.48784 1.2602,1.78874 0.4472,1.26025 0.5285,3.29291 l -0.3659,1.05698 -0.4065,0.20327 q -0.4065,0 -1.0977,-0.36588 -0.6504,-0.32523 -1.6667,-0.97568 -0.2033,-0.12196 -1.8701,-0.89437 -1.6261,-0.77241 -4.7157,-2.19527 -1.7075,-0.73176 -3.1303,-1.62613 -1.4229,-0.93502 -2.6018,-1.95135 -0.6911,-0.6098 -1.7888,-1.34155 -1.057,-0.73176 -2.5205,-1.58548 -1.5041,-0.85371 -2.6018,-1.62612 -1.0976,-0.77241 -1.7481,-1.3009 -2.1952,-1.78874 -3.5774,-2.72377 -1.3823,-0.93502 -1.9107,-0.93502 -0.4066,0.56914 -0.4472,1.17894 -0.4879,1.9107 -1.057,4.83773 -0.5285,2.88637 -1.179,6.74842 0,0.69111 -0.2439,1.01633 -0.2439,0.36588 -0.7317,0.36588 -1.5855,0 -2.3986,-0.77241 -0.813,-0.77241 -0.813,-2.31723 0,-2.07331 0.2439,-4.34989 0.2846,-2.27657 0.8944,-4.79707 0.2032,-1.09764 0.2845,-1.95135 0.122,-0.89437 0.122,-1.62613 0,-1.87005 -1.6261,-3.2116 -1.5855,-1.34156 -1.5855,-1.9107 0,-0.89437 0.2439,-1.54482 0.2846,-0.6911 0.8131,-1.09764 1.3415,-0.85371 2.4798,-1.62612 0.2846,-0.16261 0.3659,-0.52849 0.122,-0.40654 0.122,-1.09764 0,-0.40653 0,-0.85372 0,-0.48783 0,-0.89437 0.1219,-3.61813 0.2032,-7.52083 0,-0.28457 0,-0.89437 0,-0.6098 -0.081,-1.58547 -0.081,-0.73176 -0.041,-1.34156 0.041,-0.65045 0.041,-1.17894 -0.2439,-0.81306 -0.4472,-1.38221 -0.1626,-0.6098 -0.1626,-1.13829 0,-0.48784 0.081,-1.50417 0.081,-1.05698 0.081,-1.50416 0,-0.56915 -0.1219,-1.58548 -0.081,-1.01633 -0.081,-1.54482 0,-1.46351 0.6504,-2.80507 0.6911,-1.34155 2.0733,-2.64245 1.3416,-1.13829 2.7238,-1.70743 1.4228,-0.6098 2.8864,-0.6098 0.6911,0 2.0326,0.12196 1.3822,0.0813 2.1546,0.0813 0.5285,0 2.8864,0.89437 0.935,0.0813 1.6668,0.24392 0.7318,0.12196 1.1789,0.28458 1.0164,0.48783 1.5855,0.77241 0.5692,0.24391 0.8131,0.28457 0.6911,0.24392 1.1789,0.40653 0.5285,0.16261 0.8537,0.40653 0.5285,0.24392 1.2196,0.56915 0.7318,0.32522 1.6262,0.73175 1.4635,0.73176 2.7237,1.70744 1.3009,0.97567 2.4392,2.11396 1.3009,1.46351 1.9514,2.88638 0.6504,1.3822 0.6504,2.76441 0,0.40653 -0.081,1.17894 -0.041,0.73176 -0.2033,1.66678 -0.1219,1.17894 -1.2196,2.56115 -1.0976,1.34156 -3.1709,2.96768 -1.8294,1.42286 -3.4149,2.39854 -1.5854,0.93502 -2.927,1.34156 -0.5285,0.36587 -0.8131,0.6911 -0.4065,0.40653 -1.7074,1.13829 -1.3009,0.73175 -3.5368,1.82939 -4.0653,1.99201 -5.7728,2.64246 -1.7074,0.60979 -1.7074,1.34155 z m -4.2686,-19.59483 q 0.7724,-0.56914 1.4635,-1.09763 0.6911,-0.56915 1.7888,-0.56915 0.4878,0 1.1789,1.09764 0.7318,1.05698 0.7318,1.58547 0,0.28457 -0.2033,1.3009 -0.2033,1.01633 -0.6505,2.76442 -0.935,3.94336 -1.0569,4.95969 -0.122,0.97567 -0.5285,3.08964 -0.1626,0.52849 -0.3253,1.3822 0,0.36588 0.122,0.5285 0.1626,0.16261 0.4065,0.16261 8.09,-4.06532 8.3746,-4.22793 0.3252,-0.0813 0.6911,-0.20327 0.3659,-0.16261 0.6911,-0.32522 l 0.6098,-0.77241 q 2.3579,-1.50417 4.8784,-3.2116 1.5855,-1.2196 2.3579,-2.39854 0.7724,-1.17894 0.7724,-2.35788 0,-1.50417 -1.7481,-2.96768 -1.7481,-1.46352 -5.2443,-2.80507 -2.9677,-1.17895 -5.4068,-1.70744 -2.4392,-0.56914 -4.4312,-0.56914 -2.6018,0 -3.9434,0.93502 -1.3009,0.89437 -1.3009,2.68311 0,1.38221 0.2033,2.11397 0.2032,0.6911 0.5691,0.60979 z"
         style="font-style:normal;font-variant:normal;font-weight:normal;font-stretch:normal;font-family:Mistral;-inkscape-font-specification:Mistral;fill:#ffffff;fill-opacity:1;stroke:none;stroke-width:3.82145977;stroke-miterlimit:4;stroke-dasharray:none;stroke-opacity:1"
         id="path7191" />
    </g>
    <ellipse
       style="opacity:1;fill:#ffffff;fill-opacity:1;stroke:none;stroke-width:10;stroke-linecap:round;stroke-linejoin:round;stroke-miterlimit:4;stroke-dasharray:none;stroke-opacity:1"
       id="path4228-4-2"
       cx="261.81686"
       cy="1736.7406"
       rx="37.35091"
       ry="4.9643612" />
    <path
       style="opacity:1;fill:none;fill-opacity:1;stroke:#ffffff;stroke-width:5;stroke-linecap:round;stroke-linejoin:round;stroke-miterlimit:4;stroke-dasharray:none;stroke-opacity:1"
       d="m 322.40683,1605.6294 a 19.542018,18.709214 37.135587 0 0 -25.18412,1.2222 l -0.0579,-0.044 -0.27794,0.367 a 19.542018,18.709214 37.135587 0 0 -1.35381,1.5725 19.542018,18.709214 37.135587 0 0 -1.08158,1.6435 l -25.78799,34.0538 a 47.182531,45.171797 37.135587 0 0 -46.95726,16.0081 47.182531,45.171797 37.135587 0 0 10.34396,64.4955 47.182531,45.171797 37.135587 0 0 64.88508,-7.5268 47.182531,45.171797 37.135587 0 0 2.68881,-49.5512 l 25.71362,-33.9557 a 19.542018,18.709214 37.135587 0 0 1.35348,-1.572 19.542018,18.709214 37.135587 0 0 1.08154,-1.6434 l 0.34306,-0.4531 -0.0574,-0.043 a 19.542018,18.709214 37.135587 0 0 -5.65149,-24.5732 z"
       id="path4136-3-0"
       inkscape:connector-curvature="0" />
    <path
       style="opacity:1;fill:#ffffff;fill-opacity:1;stroke:none;stroke-width:3.79181194;stroke-linecap:round;stroke-linejoin:round;stroke-miterlimit:4;stroke-dasharray:none;stroke-opacity:1"
       d="m 292.54538,1611.1712 -2.2832,3.0156 7.5332,5.7032 a 14.809611,14.809611 0 0 1 3.53516,-0.2754 14.809611,14.809611 0 0 1 2.94531,0.4394 l -11.73047,-8.8828 z m 11.73047,8.8828 2.9707,2.25 -2.28515,3.0137 -7.16602,-5.4277 a 14.809611,14.809611 0 0 0 -6.71094,3.2226 l 9.88086,7.4824 -2.2832,3.0157 -10.16797,-7.7012 a 14.809611,14.809611 0 0 0 -0.55859,0.8457 l -3.38672,4.4707 10.11719,7.6621 -2.28321,3.0156 -10.11718,-7.6621 -14.74219,19.4688 a 35.756537,35.756537 0 0 0 -36.42383,13.2383 35.756537,35.756537 0 0 0 6.91992,50.0918 35.756537,35.756537 0 0 0 50.0918,-6.92 35.756537,35.756537 0 0 0 2.17773,-3.2636 29.89359,16.407441 28.842351 0 0 -5.13281,-3.2286 29.89359,16.407441 28.842351 0 0 -34.07812,-0.014 29.89359,16.407441 28.842351 0 0 4.14453,17.2011 24.455167,15.065616 9.1580421 0 1 -11.01367,-18.5136 24.455167,15.065616 9.1580421 0 1 30.17578,-7.2324 24.455167,15.065616 9.1580421 0 1 16.09375,11.4355 35.756537,35.756537 0 0 0 0.50781,-35.041 l 20.35351,-26.8789 a 14.809611,14.809611 0 0 0 1.06836,-1.2481 14.809611,14.809611 0 0 0 0.85938,-1.2968 l 0.27148,-0.3594 -0.043,-0.033 a 14.809611,14.809611 0 0 0 -3.95313,-19.0567 14.809611,14.809611 0 0 0 -5.28711,-2.5371 z m -13.77734,86.4512 a 35.756537,35.756537 0 0 1 -0.18946,0.3516 29.89359,16.407441 28.842351 0 1 0.56641,0.4082 24.455167,15.065616 9.1580421 0 0 -0.37695,-0.7598 z m -8.21289,-72.2637 2.2832,-3.0156 -4.58203,-3.4707 -2.28321,3.0156 4.58204,3.4707 z m 6.22851,-8.332 a 14.809611,14.809611 0 0 1 0.30078,-0.4531 14.809611,14.809611 0 0 1 1.06836,-1.2461 l 0.22071,-0.291 0.043,0.033 a 14.809611,14.809611 0 0 1 0.9375,-0.8399 l -4.81836,-3.6484 -2.2832,3.0137 4.53125,3.4316 z m -50.91406,42.5859 18.91992,9.17 -4.05469,6.289 -1.16992,-0.5664 a 8.3094014,7.2038114 0 0 1 -8.06836,5.5215 8.3094014,7.2038114 0 0 1 -8.31054,-7.2031 8.3094014,7.2038114 0 0 1 2.42773,-5.0821 l -3.79883,-1.8418 4.05469,-6.2871 z m 44.65234,0.4727 4.05469,6.2871 -3.80078,1.8418 a 8.3094014,7.2038114 0 0 1 2.42773,5.082 8.3094014,7.2038114 0 0 1 -8.30859,7.2032 8.3094014,7.2038114 0 0 1 -8.07031,-5.5215 l -1.16992,0.5664 -4.05469,-6.2891 18.92187,-9.1699 z"
       id="path4155-3-7"
       inkscape:connector-curvature="0" />
    <g
       style="fill:#000000;stroke:none"
       id="g4213-2-6"
       transform="matrix(0.24073834,0,0,0.2087074,328.84917,1580.4627)" />
    <g
       style="fill:#000000;stroke:none"
       transform="matrix(-0.24073834,0,0,0.2087074,191.0022,1580.9354)"
       id="g4217-3-7" />
  </g>
</svg>
