<?xml version="1.0" encoding="UTF-8" standalone="no"?>
<!-- Created with Inkscape (http://www.inkscape.org/) -->

<svg
   xmlns:dc="http://purl.org/dc/elements/1.1/"
   xmlns:cc="http://creativecommons.org/ns#"
   xmlns:rdf="http://www.w3.org/1999/02/22-rdf-syntax-ns#"
   xmlns:svg="http://www.w3.org/2000/svg"
   xmlns="http://www.w3.org/2000/svg"
   xmlns:xlink="http://www.w3.org/1999/xlink"
   xmlns:sodipodi="http://sodipodi.sourceforge.net/DTD/sodipodi-0.dtd"
   xmlns:inkscape="http://www.inkscape.org/namespaces/inkscape"
   width="220"
   height="109.99999"
   viewBox="0 0 220.00002 109.99999"
   id="svg4176"
   version="1.1"
   inkscape:version="0.91 r13725"
   sodipodi:docname="plus.svg">
  <defs
     id="defs4178">
    <linearGradient
       inkscape:collect="always"
       id="linearGradient4139">
      <stop
         style="stop-color:#ff5555;stop-opacity:1;"
         offset="0"
         id="stop4141" />
      <stop
         style="stop-color:#ff5555;stop-opacity:0;"
         offset="1"
         id="stop4143" />
    </linearGradient>
    <linearGradient
       inkscape:collect="always"
       xlink:href="#linearGradient4139"
       id="linearGradient4145"
       x1="-612.14288"
       y1="-116.20923"
       x2="-625.71423"
       y2="-234.06638"
       gradientUnits="userSpaceOnUse" />
  </defs>
  <sodipodi:namedview
     id="base"
     pagecolor="#ffffff"
     bordercolor="#666666"
     borderopacity="1.0"
     inkscape:pageopacity="0.0"
     inkscape:pageshadow="2"
     inkscape:zoom="3.8708572"
     inkscape:cx="109.75679"
     inkscape:cy="47.573702"
     inkscape:document-units="px"
     inkscape:current-layer="layer1"
     showgrid="false"
     fit-margin-top="0"
     fit-margin-left="0"
     fit-margin-right="0"
     fit-margin-bottom="0"
     units="px"
     inkscape:window-width="1857"
     inkscape:window-height="1178"
     inkscape:window-x="55"
     inkscape:window-y="-8"
     inkscape:window-maximized="1" />
  <metadata
     id="metadata4181">
    <rdf:RDF>
      <cc:Work
         rdf:about="">
        <dc:format>image/svg+xml</dc:format>
        <dc:type
           rdf:resource="http://purl.org/dc/dcmitype/StillImage" />
        <dc:title />
      </cc:Work>
    </rdf:RDF>
  </metadata>
  <g
     inkscape:label="Layer 1"
     inkscape:groupmode="layer"
     id="layer1"
     transform="translate(783.57141,231.20922)">
    <circle
       style="opacity:1;fill:none;fill-opacity:1;stroke:#ffffff;stroke-width:5;stroke-linecap:round;stroke-linejoin:round;stroke-miterlimit:4;stroke-dasharray:none;stroke-opacity:1"
       id="path4155"
       cx="-728.57141"
       cy="-176.20923"
       r="52.499996" />
    <g
       style="font-style:normal;font-weight:normal;font-size:40px;line-height:125%;font-family:sans-serif;letter-spacing:0px;word-spacing:0px;fill:#ffffff;fill-opacity:1;stroke:none;stroke-width:1px;stroke-linecap:butt;stroke-linejoin:miter;stroke-opacity:1"
       id="text4161">
      <path
         d="m -736.04211,-183.76782 0,-22.67578 q 0,-2.98828 2.19726,-5.09766 2.19727,-2.10937 5.36133,-2.10937 2.98828,0 5.09766,2.10937 2.10937,2.10938 2.10937,5.09766 l 0,22.67578 22.67578,0 q 3.07617,0 5.27344,2.19726 2.28516,2.10938 2.28516,5.18555 0,3.07617 -2.28516,5.27344 -2.19727,2.10937 -5.27344,2.10937 l -22.5,0 0,22.67578 q 0,3.16407 -2.28515,5.36133 -2.19727,2.19727 -5.27344,2.19727 -3.07617,0 -5.27344,-2.19727 -2.10937,-2.19726 -2.10937,-5.36133 l 0,-22.67578 -22.67579,0 q -2.98828,0 -5.18554,-2.10937 -2.19727,-2.19727 -2.19727,-5.27344 0,-2.98828 2.19727,-5.18555 2.19726,-2.19726 5.18554,-2.19726 l 22.67579,0 z"
         style="font-style:normal;font-variant:normal;font-weight:normal;font-stretch:normal;font-size:180px;font-family:'OCR A Extended';-inkscape-font-specification:'OCR A Extended';fill:#ffffff"
         id="path4151" />
    </g>
    <circle
       style="opacity:1;fill:url(#linearGradient4145);fill-opacity:1;stroke:#550000;stroke-width:5;stroke-linecap:round;stroke-linejoin:round;stroke-miterlimit:4;stroke-dasharray:none;stroke-opacity:1"
       id="path4155-5"
       cx="-618.57141"
       cy="-176.20923"
       r="52.5" />
    <g
       style="font-style:normal;font-weight:normal;font-size:40px;line-height:125%;font-family:sans-serif;letter-spacing:0px;word-spacing:0px;fill:#800000;fill-opacity:1;stroke:#ffffff;stroke-width:5.00000048;stroke-linecap:butt;stroke-linejoin:miter;stroke-miterlimit:4;stroke-dasharray:none;stroke-opacity:1"
       id="text4161-2">
      <path
         d="m -626.04211,-183.76782 0,-22.67578 q 0,-2.98828 2.19726,-5.09766 2.19727,-2.10937 5.36133,-2.10937 2.98828,0 5.09766,2.10937 2.10937,2.10938 2.10937,5.09766 l 0,22.67578 22.67578,0 q 3.07617,0 5.27344,2.19726 2.28516,2.10938 2.28516,5.18555 0,3.07617 -2.28516,5.27344 -2.19727,2.10937 -5.27344,2.10937 l -22.5,0 0,22.67578 q 0,3.16407 -2.28515,5.36133 -2.19727,2.19727 -5.27344,2.19727 -3.07617,0 -5.27344,-2.19727 -2.10937,-2.19726 -2.10937,-5.36133 l 0,-22.67578 -22.67579,0 q -2.98828,0 -5.18554,-2.10937 -2.19727,-2.19727 -2.19727,-5.27344 0,-2.98828 2.19727,-5.18555 2.19726,-2.19726 5.18554,-2.19726 l 22.67579,0 z"
         style="font-style:normal;font-variant:normal;font-weight:normal;font-stretch:normal;font-size:180px;font-family:'OCR A Extended';-inkscape-font-specification:'OCR A Extended';fill:#800000;stroke:#ffffff;stroke-width:5.00000048;stroke-miterlimit:4;stroke-dasharray:none"
         id="path4148" />
    </g>
  </g>
</svg>
