<?xml version="1.0" standalone="no"?>
<!DOCTYPE svg PUBLIC "-//W3C//DTD SVG 20010904//EN"
 "http://www.w3.org/TR/2001/REC-SVG-20010904/DTD/svg10.dtd">
<svg version="1.0" xmlns="http://www.w3.org/2000/svg"
 width="832.000000pt" height="832.000000pt" viewBox="0 0 832.000000 832.000000"
 preserveAspectRatio="xMidYMid meet">
<metadata>
Created by potrace 1.11, written by Peter Selinger 2001-2013
</metadata>
<g transform="translate(0.000000,832.000000) scale(0.100000,-0.100000)"
fill="#000000" stroke="none">
<path d="M6515 8304 c-69 -13 -176 -39 -205 -51 -8 -3 -19 -7 -25 -9 -5 -1
-23 -8 -40 -15 -16 -7 -32 -13 -35 -14 -33 -8 -205 -104 -239 -134 -13 -12
-28 -21 -32 -21 -5 0 -22 -13 -39 -30 -17 -16 -34 -30 -38 -30 -10 -1 -97 -92
-164 -172 -52 -62 -99 -116 -123 -142 -6 -6 -51 -58 -100 -116 -79 -93 -107
-125 -165 -190 -8 -9 -39 -45 -69 -81 -30 -35 -59 -68 -65 -74 -7 -5 -20 -22
-31 -36 -18 -23 -88 -105 -155 -180 -14 -15 -36 -41 -49 -56 -12 -15 -51 -59
-84 -97 -34 -38 -70 -81 -82 -95 -11 -14 -29 -35 -40 -47 -11 -12 -31 -34 -44
-50 -28 -34 -131 -154 -146 -170 -5 -6 -35 -40 -65 -75 -30 -35 -65 -74 -77
-87 -13 -12 -23 -25 -23 -28 0 -3 -12 -18 -27 -33 -16 -16 -39 -41 -52 -57
-83 -100 -158 -186 -210 -242 -17 -18 -31 -37 -31 -42 0 -13 -7 -12 -50 1 -19
6 -44 12 -55 14 -11 2 -31 6 -45 9 -88 18 -183 35 -230 40 -30 4 -84 9 -120
13 -88 10 -477 9 -570 0 -41 -4 -82 -8 -90 -9 -8 0 -44 -6 -80 -14 -36 -7 -83
-15 -105 -18 -23 -2 -70 -12 -105 -21 -36 -9 -74 -19 -85 -21 -58 -11 -247
-74 -370 -124 -161 -65 -393 -188 -525 -279 -99 -67 -163 -113 -185 -133 -11
-9 -51 -43 -90 -74 -86 -71 -281 -265 -360 -359 -32 -38 -63 -73 -69 -77 -6
-4 -8 -8 -4 -8 4 0 -22 -38 -57 -86 -68 -90 -205 -313 -205 -333 0 -6 -4 -11
-10 -11 -5 0 -10 -9 -10 -19 0 -11 -3 -21 -7 -23 -7 -3 -67 -122 -69 -137 0
-3 -11 -28 -23 -56 -47 -105 -130 -347 -145 -425 -3 -14 -10 -45 -17 -70 -6
-25 -12 -49 -13 -55 -4 -15 -16 -76 -20 -105 -3 -14 -5 -25 -6 -25 -1 0 -3
-18 -6 -40 -3 -22 -7 -53 -9 -70 -16 -129 -19 -196 -19 -380 0 -192 5 -309 18
-375 3 -14 8 -45 11 -70 12 -87 13 -95 15 -95 1 0 3 -9 5 -20 3 -18 16 -80 31
-145 9 -39 11 -44 17 -60 4 -8 8 -27 11 -42 2 -14 10 -37 17 -50 7 -12 12 -25
11 -28 -1 -3 4 -23 10 -45 6 -22 12 -42 12 -45 1 -3 4 -10 8 -16 4 -6 15 -33
24 -60 30 -91 176 -398 194 -409 6 -4 8 -11 5 -16 -4 -5 -1 -9 4 -9 6 0 11 -5
11 -11 0 -14 199 -315 218 -329 4 -3 23 -25 41 -50 19 -25 44 -56 55 -69 40
-47 282 -287 326 -324 25 -20 52 -42 60 -49 73 -64 286 -209 294 -201 3 4 6 1
6 -5 0 -7 -8 -12 -17 -13 -10 0 -27 -2 -38 -4 -11 -2 -36 -6 -55 -9 -43 -6
-69 -11 -195 -37 -202 -41 -339 -97 -345 -139 -5 -37 3 -50 50 -79 27 -17 50
-28 50 -25 0 4 6 2 12 -3 7 -5 33 -15 58 -22 25 -7 56 -17 70 -22 14 -5 41
-11 60 -13 19 -3 35 -5 35 -6 0 -1 7 -3 15 -5 25 -5 84 -16 105 -20 11 -1 47
-8 80 -14 33 -6 85 -13 115 -16 30 -3 66 -7 80 -9 14 -2 57 -7 96 -10 39 -4
82 -9 94 -11 13 -3 69 -7 124 -11 56 -3 121 -8 146 -10 273 -20 547 -28 1020
-28 489 0 747 8 1030 30 41 3 100 7 130 9 71 5 168 15 200 20 14 2 57 7 95 10
71 6 120 12 165 20 14 3 43 7 65 11 62 9 102 16 165 29 14 3 34 7 45 9 149 29
297 96 308 138 7 25 -24 60 -75 85 -42 21 -149 57 -198 67 -14 3 -54 12 -90
20 -36 8 -83 17 -105 20 -22 3 -53 8 -70 11 -16 3 -45 8 -63 11 l-33 5 24 20
c14 10 28 19 31 19 8 0 131 84 134 93 2 4 10 7 18 7 8 0 14 4 14 9 0 5 13 17
29 28 86 54 352 301 441 408 67 81 140 175 172 222 20 29 43 60 52 69 9 8 16
21 16 29 0 7 3 15 8 17 9 4 93 145 91 154 0 4 3 10 9 13 5 3 30 49 56 101 26
52 52 103 57 112 28 53 141 359 154 418 2 8 4 15 5 15 1 0 3 11 6 24 2 13 15
67 28 120 13 53 27 114 30 136 3 22 8 51 10 65 5 26 15 100 22 160 2 19 6 80
9 135 2 55 5 102 5 105 5 22 -8 340 -15 377 -3 15 -8 55 -11 88 -7 63 -7 65
-17 105 -4 14 -9 39 -11 55 -7 46 -16 86 -28 130 -5 22 -12 47 -13 55 -2 8 -9
30 -14 49 -6 19 -8 38 -5 42 3 5 0 9 -7 9 -7 0 -10 3 -6 6 3 3 -3 28 -13 55
-11 27 -17 49 -14 49 4 0 2 6 -3 13 -6 6 -17 32 -25 57 -9 25 -25 69 -37 98
-21 52 -21 52 -1 72 11 11 20 22 20 25 0 3 8 13 18 23 15 16 80 90 172 196 19
23 40 46 45 52 6 6 30 35 55 64 25 29 54 62 65 75 11 12 39 44 62 71 23 27 52
61 65 75 13 15 41 48 63 74 68 81 76 89 108 125 18 19 55 62 82 95 28 33 57
67 65 75 8 9 38 43 65 75 28 32 55 63 60 69 6 6 37 43 70 81 33 39 70 81 82
95 12 14 32 36 44 50 137 160 190 222 233 270 46 51 96 110 141 165 22 26 47
55 56 64 8 9 40 45 70 80 30 35 66 77 80 93 14 16 37 50 51 76 14 26 41 76 60
112 47 88 97 223 115 315 8 34 11 50 13 50 1 0 4 25 8 55 13 119 6 381 -12
430 -3 8 -7 26 -10 40 -10 58 -61 201 -99 275 -22 44 -45 90 -51 102 -6 13
-14 23 -18 23 -5 0 -8 5 -8 10 0 6 -19 36 -42 67 -24 30 -50 65 -58 76 -43 59
-261 247 -287 247 -6 0 -13 4 -15 9 -8 23 -258 134 -353 157 -175 42 -398 54
-540 28z"/>
</g>
</svg>
